<?xml version="1.0" encoding="UTF-8"?> <!-- Generator: Adobe Illustrator 23.0.3, SVG Export Plug-In . SVG Version: 6.00 Build 0) --> <svg xmlns="http://www.w3.org/2000/svg" xmlns:xlink="http://www.w3.org/1999/xlink" version="1.1" id="Layer_1" x="0px" y="0px" viewBox="0 0 501 438" style="enable-background:new 0 0 501 438;" xml:space="preserve"> <style type="text/css"> .st0{fill:#399439;} .st1{fill:#A6A8AB;} .st2{fill:#E6E7E8;} .st3{fill:#023B59;} .st4{fill:#FFFFFF;} .st5{fill:#96D9F7;} .st6{fill:#C0C1C3;} .st7{fill:#69BAC2;} .st8{fill:#8CA348;} .st9{fill:#FAAF40;} .st10{fill:#BE333F;} </style> <path class="st0" d="M262.6,1.8c2.8,0,5.5,0,8.3,0c2.2,0.3,4.4,0.6,6.6,0.9c30.3,5,56.3,18,77.1,40.9c24.5,26.8,46.7,55.6,68.4,84.7 c21.5,28.9,41.1,59,56.4,91.7c8,17.2,14.4,35,17.3,54c0.7,4.7,1.6,9.3,2.5,14c0,3.4,0,6.8,0,10.2c-0.5,2-1.1,4.1-1.4,6.1 c-3.2,22.6-14.3,40.5-32.6,54c-10.2,7.5-21.4,13.3-33.1,18.1c-19.8,8-40.6,11.5-61.5,15.4c-25.3,4.6-49.7,12.2-72.4,24.7 c-4.9,2.7-10,5.3-15.3,6.9c-21.9,6.5-44.2,10.7-67,12.4c-5.6,0.4-11.2,0.9-16.8,1.4c-5.7,0-11.5,0-17.2,0c-1.3-0.2-2.7-0.5-4-0.7 c-13.3-1.5-26.6-2.4-39.7-4.7c-20.2-3.6-38.8-11.3-55.1-24.2c-19.4-15.4-28.3-35.8-26.3-60.3c1.5-18.1,4.4-36.2,6.4-54.3 c1.5-13.6,1.9-27.4-1.4-40.8c-5.1-20.9-10.5-41.7-15.8-62.5c-1.5-5.7-3.2-11.3-4.9-17c0-3,0-5.9,0-8.9c0.8-3,1.6-6.1,2.4-9.1 c4.5-17.1,15.3-29.6,29.3-39.6c9.8-7,19.8-13.9,29.8-20.6c39.4-26.5,81.3-49.2,119.1-78.1c7.9-6.1,17.3-9.8,27.1-12 C253.2,3.2,257.9,2.5,262.6,1.8z"></path> <g> <g> <rect x="126.8" y="366.4" class="st1" width="58" height="42.9"></rect> <polygon class="st2" points="184.8,409.3 126.8,409.3 88.7,424.4 221.2,424.4 "></polygon> <path class="st3" d="M309.7,374c0-7-4.5,15.1-10.1,15.1H12c-5.6,0-10.1-22.2-10.1-15.1V222.6c0-18.2,4.5-22.7,10.1-22.7h287.5 c5.6,0,10.1,4.5,10.1,22.7V374z"></path> <path class="st2" d="M1.9,361.4V379c0,5.6,4.5,10.1,10.1,10.1h287.5c5.6,0,10.1-4.5,10.1-10.1v-17.7H1.9z"></path> <rect x="12.7" y="212.5" class="st4" width="286.3" height="142.5"></rect> <polygon class="st5" points="298.9,355.1 12.7,355.1 12.7,212.5 "></polygon> <rect x="88.7" y="424.4" class="st6" width="132.4" height="12.6"></rect> </g> <g> <path class="st4" d="M363.9,308.1c0,5.8-4.4,10.6-9.9,10.6H88.3c-5.5,0-9.9-4.7-9.9-10.6V158.6c0-5.8,4.4-10.6,9.9-10.6H354 c5.5,0,9.9,4.7,9.9,10.6V308.1z"></path> <path class="st3" d="M363.9,177v-18.9c0-5.6-4.4-10.1-9.9-10.1H88.3c-5.5,0-9.9,4.5-9.9,10.1V177H363.9z"></path> <rect x="101.6" y="190.9" class="st7" width="113.5" height="30.3"></rect> <rect x="224.1" y="229.3" class="st7" width="113.5" height="30.3"></rect> <rect x="101.6" y="229.3" class="st8" width="29.4" height="30.3"></rect> <rect x="142.3" y="229.3" class="st9" width="29.4" height="30.3"></rect> <rect x="180.2" y="229.3" class="st10" width="29.4" height="30.3"></rect> <rect x="235.2" y="190.9" class="st7" width="103.4" height="8.4"></rect> <rect x="235.2" y="206" class="st7" width="103.4" height="8.4"></rect> <rect x="101.6" y="273.3" class="st7" width="103.4" height="8.4"></rect> <rect x="101.6" y="288.4" class="st7" width="103.4" height="8.4"></rect> <rect x="224.1" y="273.3" class="st7" width="113.5" height="8.4"></rect> <rect x="224.1" y="288.4" class="st7" width="113.5" height="8.4"></rect> <path class="st4" d="M302.6,162.9c0,4.3-3.5,7.8-7.8,7.8c-4.3,0-7.8-3.5-7.8-7.8c0-4.3,3.5-7.8,7.8-7.8 C299.1,155.1,302.6,158.6,302.6,162.9z"></path> <path class="st4" d="M324.3,162.9c0,4.3-3.5,7.8-7.8,7.8c-4.3,0-7.8-3.5-7.8-7.8c0-4.3,3.5-7.8,7.8-7.8 C320.8,155.1,324.3,158.6,324.3,162.9z"></path> <path class="st4" d="M346,162.9c0,4.3-3.5,7.8-7.8,7.8c-4.3,0-7.8-3.5-7.8-7.8c0-4.3,3.5-7.8,7.8-7.8 C342.5,155.1,346,158.6,346,162.9z"></path> <path class="st4" d="M256.3,162.9c0,4.3-3.5,7.8-7.8,7.8h-139c-4.3,0-7.8-3.5-7.8-7.8l0,0c0-4.3,3.5-7.8,7.8-7.8h139 C252.8,155.1,256.3,158.6,256.3,162.9L256.3,162.9z"></path> </g> </g> </svg> 