<?xml version="1.0" encoding="UTF-8"?> <svg xmlns="http://www.w3.org/2000/svg" xmlns:xlink="http://www.w3.org/1999/xlink" width="29pt" height="29pt" viewBox="0 0 29 29" version="1.1"><g id="surface1"><path style=" stroke:none;fill-rule:nonzero;fill:rgb(100%,25.098039%,50.588235%);fill-opacity:1;" d="M 0.964844 28.851562 L 12.195312 28.851562 C 12.714844 28.851562 13.085938 28.480469 13.085938 27.957031 L 13.085938 25.875 L 23.496094 25.875 C 23.792969 25.875 23.945312 25.726562 23.945312 25.429688 L 23.945312 10.558594 L 28.703125 5.800781 C 29.074219 5.429688 29.074219 4.90625 28.703125 4.609375 L 26.695312 2.601562 C 26.398438 2.304688 25.800781 2.304688 25.503906 2.601562 L 23.945312 4.164062 L 23.945312 1.488281 C 23.945312 1.191406 23.792969 1.042969 23.496094 1.042969 L 8.996094 1.042969 C 8.996094 1.042969 8.996094 1.042969 8.921875 1.042969 C 8.847656 1.042969 8.847656 1.042969 8.773438 1.117188 L 8.699219 1.117188 C 8.625 1.117188 8.625 1.191406 8.550781 1.191406 L 3.941406 5.949219 C 3.867188 5.949219 3.867188 6.023438 3.792969 6.097656 L 3.792969 6.171875 C 3.792969 6.246094 3.792969 6.246094 3.71875 6.320312 C 3.71875 6.320312 3.71875 6.320312 3.71875 6.394531 L 3.71875 14.128906 L 0.964844 14.128906 C 0.445312 14.128906 0.0742188 14.5 0.0742188 15.019531 L 0.0742188 28.035156 C 0 28.40625 0.445312 28.851562 0.964844 28.851562 Z M 23.792969 5.503906 L 24.242188 5.054688 L 24.910156 5.726562 L 18.292969 12.34375 L 17.625 11.675781 Z M 17.175781 12.566406 L 18.738281 14.128906 L 16.582031 14.796875 Z M 19.554688 13.683594 L 18.886719 13.011719 L 25.503906 6.394531 L 26.175781 7.0625 Z M 26.027344 3.199219 L 28.035156 5.207031 L 26.84375 6.394531 L 25.875 5.429688 L 24.835938 4.460938 Z M 8.550781 2.527344 L 8.550781 5.800781 L 5.355469 5.800781 Z M 4.683594 6.691406 L 8.996094 6.691406 C 9.292969 6.691406 9.445312 6.542969 9.445312 6.246094 L 9.445312 1.933594 L 22.976562 1.933594 L 22.976562 4.980469 L 16.582031 11.375 C 16.507812 11.453125 16.507812 11.453125 16.507812 11.527344 C 16.507812 11.527344 16.507812 11.527344 16.507812 11.601562 C 16.507812 11.601562 16.507812 11.601562 16.507812 11.675781 L 15.390625 15.316406 C 15.316406 15.464844 15.390625 15.617188 15.542969 15.765625 C 15.617188 15.839844 15.691406 15.914062 15.839844 15.914062 C 15.914062 15.914062 15.914062 15.914062 15.988281 15.914062 L 19.628906 14.796875 C 19.628906 14.796875 19.628906 14.796875 19.707031 14.796875 C 19.707031 14.796875 19.707031 14.796875 19.78125 14.796875 C 19.855469 14.796875 19.855469 14.722656 19.929688 14.722656 L 23.050781 11.601562 L 23.050781 25.058594 L 13.085938 25.058594 L 13.085938 14.945312 C 13.085938 14.425781 12.714844 14.054688 12.195312 14.054688 L 4.683594 14.054688 Z M 0.964844 14.945312 L 12.195312 14.945312 L 12.195312 27.957031 L 0.964844 27.957031 Z M 0.964844 14.945312 "></path><path style=" stroke:none;fill-rule:nonzero;fill:rgb(100%,25.098039%,50.588235%);fill-opacity:1;" d="M 10.410156 16.507812 L 2.75 16.507812 C 2.453125 16.507812 2.304688 16.65625 2.304688 16.953125 L 2.304688 20.003906 C 2.304688 20.300781 2.453125 20.449219 2.75 20.449219 L 10.410156 20.449219 C 10.707031 20.449219 10.855469 20.300781 10.855469 20.003906 L 10.855469 16.953125 C 10.855469 16.730469 10.632812 16.507812 10.410156 16.507812 Z M 9.964844 19.554688 L 3.199219 19.554688 L 3.199219 17.398438 L 9.964844 17.398438 Z M 9.964844 19.554688 "></path><path style=" stroke:none;fill-rule:nonzero;fill:rgb(100%,25.098039%,50.588235%);fill-opacity:1;" d="M 3.644531 22.308594 L 2.75 22.308594 C 2.453125 22.308594 2.304688 22.457031 2.304688 22.753906 C 2.304688 23.050781 2.453125 23.199219 2.75 23.199219 L 3.644531 23.199219 C 3.941406 23.199219 4.089844 23.050781 4.089844 22.753906 C 4.089844 22.457031 3.941406 22.308594 3.644531 22.308594 Z M 3.644531 22.308594 "></path><path style=" stroke:none;fill-rule:nonzero;fill:rgb(100%,25.098039%,50.588235%);fill-opacity:1;" d="M 10.410156 22.308594 L 9.519531 22.308594 C 9.21875 22.308594 9.070312 22.457031 9.070312 22.753906 C 9.070312 23.050781 9.21875 23.199219 9.519531 23.199219 L 10.410156 23.199219 C 10.707031 23.199219 10.855469 23.050781 10.855469 22.753906 C 10.855469 22.457031 10.632812 22.308594 10.410156 22.308594 Z M 10.410156 22.308594 "></path><path style=" stroke:none;fill-rule:nonzero;fill:rgb(100%,25.098039%,50.588235%);fill-opacity:1;" d="M 6.988281 22.308594 L 6.097656 22.308594 C 5.800781 22.308594 5.652344 22.457031 5.652344 22.753906 C 5.652344 23.050781 5.800781 23.199219 6.097656 23.199219 L 6.988281 23.199219 C 7.289062 23.199219 7.4375 23.050781 7.4375 22.753906 C 7.4375 22.457031 7.289062 22.308594 6.988281 22.308594 Z M 6.988281 22.308594 "></path><path style=" stroke:none;fill-rule:nonzero;fill:rgb(100%,25.098039%,50.588235%);fill-opacity:1;" d="M 3.644531 25.429688 L 2.75 25.429688 C 2.453125 25.429688 2.304688 25.578125 2.304688 25.875 C 2.304688 26.175781 2.453125 26.324219 2.75 26.324219 L 3.644531 26.324219 C 3.941406 26.324219 4.089844 26.175781 4.089844 25.875 C 4.089844 25.578125 3.941406 25.429688 3.644531 25.429688 Z M 3.644531 25.429688 "></path><path style=" stroke:none;fill-rule:nonzero;fill:rgb(100%,25.098039%,50.588235%);fill-opacity:1;" d="M 10.410156 25.429688 L 9.519531 25.429688 C 9.21875 25.429688 9.070312 25.578125 9.070312 25.875 C 9.070312 26.175781 9.21875 26.324219 9.519531 26.324219 L 10.410156 26.324219 C 10.707031 26.324219 10.855469 26.175781 10.855469 25.875 C 10.855469 25.578125 10.632812 25.429688 10.410156 25.429688 Z M 10.410156 25.429688 "></path><path style=" stroke:none;fill-rule:nonzero;fill:rgb(100%,25.098039%,50.588235%);fill-opacity:1;" d="M 6.988281 25.429688 L 6.097656 25.429688 C 5.800781 25.429688 5.652344 25.578125 5.652344 25.875 C 5.652344 26.175781 5.800781 26.324219 6.097656 26.324219 L 6.988281 26.324219 C 7.289062 26.324219 7.4375 26.175781 7.4375 25.875 C 7.4375 25.578125 7.289062 25.429688 6.988281 25.429688 Z M 6.988281 25.429688 "></path><path style=" stroke:none;fill-rule:nonzero;fill:rgb(100%,25.098039%,50.588235%);fill-opacity:1;" d="M 14.871094 17.699219 C 14.871094 17.996094 15.019531 18.144531 15.316406 18.144531 L 20.746094 18.144531 C 21.042969 18.144531 21.191406 17.996094 21.191406 17.699219 C 21.191406 17.398438 21.042969 17.25 20.746094 17.25 L 15.316406 17.25 C 15.09375 17.25 14.871094 17.398438 14.871094 17.699219 Z M 14.871094 17.699219 "></path><path style=" stroke:none;fill-rule:nonzero;fill:rgb(100%,25.098039%,50.588235%);fill-opacity:1;" d="M 20.746094 19.929688 L 15.316406 19.929688 C 15.019531 19.929688 14.871094 20.078125 14.871094 20.375 C 14.871094 20.671875 15.019531 20.820312 15.316406 20.820312 L 20.746094 20.820312 C 21.042969 20.820312 21.191406 20.671875 21.191406 20.375 C 21.191406 20.152344 20.96875 19.929688 20.746094 19.929688 Z M 20.746094 19.929688 "></path><path style=" stroke:none;fill-rule:nonzero;fill:rgb(100%,25.098039%,50.588235%);fill-opacity:1;" d="M 20.746094 22.679688 L 15.316406 22.679688 C 15.019531 22.679688 14.871094 22.828125 14.871094 23.125 C 14.871094 23.421875 15.019531 23.570312 15.316406 23.570312 L 20.746094 23.570312 C 21.042969 23.570312 21.191406 23.421875 21.191406 23.125 C 21.191406 22.828125 20.96875 22.679688 20.746094 22.679688 Z M 20.746094 22.679688 "></path><path style=" stroke:none;fill-rule:nonzero;fill:rgb(100%,25.098039%,50.588235%);fill-opacity:1;" d="M 6.542969 9.445312 L 11.675781 9.445312 C 11.972656 9.445312 12.121094 9.292969 12.121094 8.996094 C 12.121094 8.699219 11.972656 8.550781 11.675781 8.550781 L 6.542969 8.550781 C 6.246094 8.550781 6.097656 8.699219 6.097656 8.996094 C 6.097656 9.292969 6.320312 9.445312 6.542969 9.445312 Z M 6.542969 9.445312 "></path><path style=" stroke:none;fill-rule:nonzero;fill:rgb(100%,25.098039%,50.588235%);fill-opacity:1;" d="M 11.75 11.226562 L 6.542969 11.226562 C 6.246094 11.226562 6.097656 11.375 6.097656 11.675781 C 6.097656 11.972656 6.246094 12.121094 6.542969 12.121094 L 11.675781 12.121094 C 11.972656 12.121094 12.121094 11.972656 12.121094 11.675781 C 12.195312 11.527344 11.972656 11.226562 11.75 11.226562 Z M 11.75 11.226562 "></path><path style=" stroke:none;fill-rule:nonzero;fill:rgb(100%,25.098039%,50.588235%);fill-opacity:1;" d="M 11.375 6.691406 L 18.8125 6.691406 C 19.109375 6.691406 19.257812 6.542969 19.257812 6.246094 C 19.257812 5.949219 19.109375 5.800781 18.8125 5.800781 L 11.375 5.800781 C 11.078125 5.800781 10.929688 5.949219 10.929688 6.246094 C 10.929688 6.542969 11.078125 6.691406 11.375 6.691406 Z M 11.375 6.691406 "></path><path style=" stroke:none;fill-rule:nonzero;fill:rgb(100%,25.098039%,50.588235%);fill-opacity:1;" d="M 11.375 4.460938 L 18.8125 4.460938 C 19.109375 4.460938 19.257812 4.3125 19.257812 4.015625 C 19.257812 3.71875 19.109375 3.570312 18.8125 3.570312 L 11.375 3.570312 C 11.078125 3.570312 10.929688 3.71875 10.929688 4.015625 C 10.929688 4.238281 11.078125 4.460938 11.375 4.460938 Z M 11.375 4.460938 "></path></g></svg> 