<?xml version="1.0" encoding="UTF-8"?> <svg xmlns="http://www.w3.org/2000/svg" xmlns:xlink="http://www.w3.org/1999/xlink" width="29pt" height="29pt" viewBox="0 0 29 29" version="1.1"><g id="surface1"><path style=" stroke:none;fill-rule:nonzero;fill:rgb(99.607843%,85.098039%,29.411765%);fill-opacity:1;" d="M 14.5 28.925781 C 6.542969 28.925781 0.0742188 22.53125 0.0742188 14.722656 C 0.0742188 10.1875 2.75 5.28125 6.765625 2.601562 L 7.289062 3.421875 C 3.570312 5.949219 1.042969 10.484375 1.042969 14.722656 C 1.042969 22.011719 7.0625 27.957031 14.5 27.957031 C 21.9375 27.957031 27.957031 22.011719 27.957031 14.722656 C 28.035156 7.4375 21.9375 1.488281 14.5 1.488281 L 14.5 0.519531 C 22.457031 0.519531 28.925781 6.914062 28.925781 14.722656 C 28.925781 22.53125 22.457031 28.925781 14.5 28.925781 Z M 14.5 28.925781 "></path><path style=" stroke:none;fill-rule:nonzero;fill:rgb(99.607843%,85.098039%,29.411765%);fill-opacity:1;" d="M 8.402344 4.238281 C 7.210938 4.238281 6.246094 3.273438 6.246094 2.082031 C 6.246094 0.964844 7.210938 0 8.402344 0 C 9.59375 0 10.484375 0.964844 10.558594 2.15625 C 10.484375 3.273438 9.519531 4.238281 8.402344 4.238281 Z M 8.402344 0.964844 C 7.734375 0.964844 7.210938 1.488281 7.210938 2.15625 C 7.210938 2.824219 7.808594 3.347656 8.476562 3.347656 C 9.144531 3.347656 9.59375 2.824219 9.667969 2.15625 C 9.519531 1.488281 8.996094 0.964844 8.402344 0.964844 Z M 8.402344 0.964844 "></path><path style=" stroke:none;fill-rule:nonzero;fill:rgb(99.607843%,85.098039%,29.411765%);fill-opacity:1;" d="M 14.5 24.761719 C 12.714844 24.761719 11.003906 24.316406 9.519531 23.421875 C 9.292969 23.273438 9.21875 22.976562 9.371094 22.753906 C 9.371094 22.753906 9.445312 22.679688 9.445312 22.679688 L 11.226562 20.820312 C 11.375 20.671875 11.601562 20.671875 11.75 20.746094 C 15.019531 22.234375 18.960938 20.820312 20.523438 17.546875 C 21.339844 15.765625 21.339844 13.683594 20.449219 11.898438 C 20.375 11.75 20.375 11.527344 20.523438 11.375 L 22.308594 9.519531 C 22.382812 9.445312 22.53125 9.371094 22.679688 9.371094 C 22.828125 9.371094 22.976562 9.445312 23.050781 9.59375 C 25.875 14.351562 24.316406 20.523438 19.554688 23.347656 C 18.144531 24.242188 16.359375 24.761719 14.5 24.761719 Z M 10.558594 22.828125 C 15.09375 25.058594 20.523438 23.125 22.679688 18.664062 C 23.945312 16.136719 23.871094 13.085938 22.605469 10.558594 L 21.488281 11.675781 C 23.125 15.542969 21.339844 19.929688 17.472656 21.5625 C 15.617188 22.382812 13.535156 22.382812 11.675781 21.636719 Z M 10.558594 22.828125 "></path><path style=" stroke:none;fill-rule:nonzero;fill:rgb(99.607843%,85.098039%,29.411765%);fill-opacity:1;" d="M 9.742188 23.496094 C 9.667969 23.496094 9.59375 23.496094 9.519531 23.421875 C 6.394531 21.636719 4.460938 18.292969 4.460938 14.722656 C 4.460938 13.234375 4.757812 11.824219 5.429688 10.484375 C 5.578125 10.261719 5.800781 10.113281 6.097656 10.261719 C 6.097656 10.261719 6.097656 10.261719 6.171875 10.261719 L 8.328125 11.527344 C 8.550781 11.675781 8.625 11.898438 8.550781 12.121094 C 8.179688 12.9375 8.03125 13.832031 8.03125 14.722656 C 8.03125 17.324219 9.519531 19.628906 11.898438 20.746094 C 12.121094 20.820312 12.269531 21.117188 12.121094 21.414062 C 12.121094 21.488281 12.046875 21.488281 12.046875 21.5625 L 10.261719 23.421875 C 10.039062 23.421875 9.890625 23.496094 9.742188 23.496094 Z M 6.097656 11.375 C 5.652344 12.417969 5.429688 13.609375 5.429688 14.722656 C 5.429688 17.847656 7.0625 20.746094 9.667969 22.382812 L 10.78125 21.265625 C 7.585938 19.480469 6.171875 15.617188 7.4375 12.121094 Z M 6.097656 11.375 "></path><path style=" stroke:none;fill-rule:nonzero;fill:rgb(99.607843%,85.098039%,29.411765%);fill-opacity:1;" d="M 7.957031 12.417969 C 7.882812 12.417969 7.808594 12.417969 7.734375 12.34375 L 5.578125 11.078125 C 5.355469 10.929688 5.28125 10.707031 5.355469 10.484375 C 6.988281 6.988281 10.558594 4.683594 14.425781 4.683594 C 17.996094 4.683594 21.265625 6.542969 23.050781 9.59375 C 23.199219 9.816406 23.125 10.039062 22.976562 10.1875 L 21.191406 12.046875 C 20.96875 12.269531 20.671875 12.269531 20.523438 12.046875 C 20.449219 11.972656 20.449219 11.972656 20.449219 11.898438 C 18.886719 8.625 14.945312 7.210938 11.675781 8.773438 C 10.1875 9.445312 9.070312 10.707031 8.402344 12.195312 C 8.328125 12.34375 8.253906 12.417969 8.105469 12.492188 C 8.105469 12.417969 8.03125 12.417969 7.957031 12.417969 Z M 6.46875 10.484375 L 7.734375 11.226562 C 9.667969 7.511719 14.203125 6.023438 17.921875 7.957031 C 19.183594 8.625 20.226562 9.59375 20.96875 10.855469 L 22.085938 9.742188 C 20.449219 7.136719 17.546875 5.652344 14.5 5.652344 C 11.152344 5.652344 8.03125 7.511719 6.46875 10.484375 Z M 6.46875 10.484375 "></path><path style=" stroke:none;fill-rule:nonzero;fill:rgb(99.607843%,85.098039%,29.411765%);fill-opacity:1;" d="M 14.5 22.234375 C 13.382812 22.234375 12.34375 22.011719 11.375 21.5625 C 7.585938 19.855469 5.875 15.316406 7.660156 11.527344 C 9.445312 7.734375 13.90625 6.023438 17.699219 7.808594 C 19.332031 8.550781 20.597656 9.816406 21.414062 11.453125 C 21.9375 12.492188 22.160156 13.609375 22.160156 14.722656 C 22.085938 18.886719 18.664062 22.234375 14.5 22.234375 Z M 14.5 8.105469 C 10.855469 8.105469 7.882812 11.078125 7.882812 14.722656 C 7.882812 17.324219 9.371094 19.628906 11.75 20.746094 C 12.640625 21.117188 13.535156 21.339844 14.5 21.339844 C 18.144531 21.339844 21.117188 18.367188 21.117188 14.722656 C 21.117188 13.757812 20.894531 12.789062 20.449219 11.898438 C 19.332031 9.59375 17.027344 8.105469 14.5 8.105469 Z M 14.5 8.105469 "></path><path style=" stroke:none;fill-rule:nonzero;fill:rgb(99.607843%,85.098039%,29.411765%);fill-opacity:1;" d="M 14.054688 7.957031 L 15.019531 7.957031 L 15.019531 9.21875 L 14.054688 9.21875 Z M 14.054688 7.957031 "></path><path style=" stroke:none;fill-rule:nonzero;fill:rgb(99.607843%,85.098039%,29.411765%);fill-opacity:1;" d="M 7.808594 14.203125 L 9.070312 14.203125 L 9.070312 15.167969 L 7.808594 15.167969 Z M 7.808594 14.203125 "></path><path style=" stroke:none;fill-rule:nonzero;fill:rgb(99.607843%,85.098039%,29.411765%);fill-opacity:1;" d="M 14.054688 20.152344 L 15.019531 20.152344 L 15.019531 21.414062 L 14.054688 21.414062 Z M 14.054688 20.152344 "></path><path style=" stroke:none;fill-rule:nonzero;fill:rgb(99.607843%,85.098039%,29.411765%);fill-opacity:1;" d="M 19.929688 14.203125 L 21.191406 14.203125 L 21.191406 15.167969 L 19.929688 15.167969 Z M 19.929688 14.203125 "></path><path style=" stroke:none;fill-rule:nonzero;fill:rgb(99.607843%,85.098039%,29.411765%);fill-opacity:1;" d="M 17.699219 15.542969 L 14.5 15.542969 C 14.203125 15.542969 14.054688 15.316406 14.054688 15.09375 L 14.054688 12.269531 L 15.019531 12.269531 L 15.019531 14.648438 L 17.699219 14.648438 Z M 17.699219 15.542969 "></path></g></svg> 