<?xml version="1.0" encoding="UTF-8"?> <svg xmlns="http://www.w3.org/2000/svg" xmlns:xlink="http://www.w3.org/1999/xlink" width="29pt" height="29pt" viewBox="0 0 29 29" version="1.1"><g id="surface1"><path style=" stroke:none;fill-rule:nonzero;fill:rgb(25.098039%,76.862745%,100%);fill-opacity:1;" d="M 8.03125 1.636719 L 8.921875 1.636719 L 8.921875 2.527344 L 8.03125 2.527344 Z M 8.03125 1.636719 "></path><path style=" stroke:none;fill-rule:nonzero;fill:rgb(25.098039%,76.862745%,100%);fill-opacity:1;" d="M 6.246094 1.636719 L 7.136719 1.636719 L 7.136719 2.527344 L 6.246094 2.527344 Z M 6.246094 1.636719 "></path><path style=" stroke:none;fill-rule:nonzero;fill:rgb(25.098039%,76.862745%,100%);fill-opacity:1;" d="M 9.890625 1.636719 L 10.78125 1.636719 L 10.78125 2.527344 L 9.890625 2.527344 Z M 9.890625 1.636719 "></path><path style=" stroke:none;fill-rule:nonzero;fill:rgb(25.098039%,76.862745%,100%);fill-opacity:1;" d="M 13.980469 12.566406 C 14.203125 12.492188 14.351562 12.34375 14.351562 12.121094 L 14.351562 10.1875 C 14.351562 9.964844 14.203125 9.816406 13.980469 9.742188 L 12.789062 9.59375 C 12.714844 9.445312 12.640625 9.292969 12.640625 9.144531 L 13.382812 8.253906 C 13.535156 8.105469 13.535156 7.808594 13.308594 7.660156 L 11.898438 6.246094 C 11.75 6.097656 11.527344 6.097656 11.300781 6.171875 L 10.410156 6.914062 C 10.261719 6.839844 10.113281 6.765625 9.964844 6.765625 L 9.890625 5.652344 C 9.890625 5.429688 9.742188 5.207031 9.519531 5.207031 L 7.585938 5.207031 C 7.289062 5.207031 7.136719 5.429688 7.0625 5.652344 L 6.914062 6.765625 C 6.765625 6.839844 6.617188 6.914062 6.46875 6.988281 L 5.578125 6.246094 C 5.429688 6.097656 5.128906 6.097656 4.980469 6.320312 L 3.570312 7.734375 C 3.421875 7.882812 3.421875 8.105469 3.496094 8.328125 L 4.238281 9.21875 C 4.164062 9.371094 4.089844 9.519531 4.089844 9.667969 L 2.972656 9.742188 C 2.75 9.816406 2.601562 9.964844 2.601562 10.1875 L 2.601562 12.121094 C 2.601562 12.34375 2.75 12.492188 2.972656 12.566406 L 4.164062 12.714844 C 4.238281 12.863281 4.3125 13.011719 4.3125 13.160156 L 3.570312 14.054688 C 3.421875 14.203125 3.421875 14.5 3.644531 14.648438 L 5.054688 16.0625 C 5.207031 16.210938 5.429688 16.210938 5.652344 16.136719 L 6.542969 15.390625 C 6.691406 15.464844 6.839844 15.542969 6.988281 15.542969 L 7.136719 16.730469 C 7.210938 16.953125 7.363281 17.101562 7.585938 17.101562 L 9.519531 17.101562 C 9.742188 17.101562 9.890625 16.953125 9.964844 16.730469 L 10.113281 15.542969 C 10.261719 15.464844 10.410156 15.390625 10.558594 15.390625 L 11.453125 16.136719 C 11.601562 16.285156 11.898438 16.285156 12.046875 16.0625 L 13.457031 14.648438 C 13.609375 14.5 13.609375 14.277344 13.535156 14.054688 L 12.789062 13.160156 C 12.863281 13.011719 12.9375 12.863281 12.9375 12.714844 Z M 12.492188 11.824219 C 12.34375 11.824219 12.195312 11.972656 12.121094 12.121094 C 12.046875 12.417969 11.972656 12.640625 11.824219 12.9375 C 11.75 13.085938 11.75 13.308594 11.898438 13.457031 L 12.566406 14.277344 L 11.75 15.09375 L 10.929688 14.5 C 10.78125 14.351562 10.558594 14.351562 10.410156 14.425781 C 10.113281 14.574219 9.890625 14.722656 9.59375 14.722656 C 9.445312 14.796875 9.292969 14.871094 9.292969 15.09375 L 9.144531 16.136719 L 7.957031 16.136719 L 7.808594 15.09375 C 7.808594 14.945312 7.660156 14.796875 7.511719 14.722656 C 7.210938 14.648438 6.988281 14.574219 6.691406 14.425781 C 6.542969 14.351562 6.320312 14.351562 6.171875 14.5 L 5.355469 15.167969 L 4.535156 14.351562 L 5.207031 13.535156 C 5.355469 13.382812 5.355469 13.160156 5.28125 13.011719 C 5.128906 12.714844 4.980469 12.492188 4.980469 12.195312 C 4.90625 12.046875 4.757812 11.898438 4.535156 11.898438 L 3.496094 11.75 L 3.496094 10.558594 L 4.535156 10.410156 C 4.683594 10.410156 4.832031 10.261719 4.90625 10.113281 C 4.980469 9.816406 5.054688 9.59375 5.207031 9.292969 C 5.28125 9.144531 5.28125 8.921875 5.128906 8.773438 L 4.460938 7.957031 L 5.28125 7.136719 L 6.097656 7.808594 C 6.246094 7.957031 6.46875 7.957031 6.617188 7.882812 C 6.914062 7.734375 7.136719 7.585938 7.4375 7.585938 C 7.585938 7.511719 7.734375 7.4375 7.734375 7.210938 L 7.882812 6.171875 L 9.070312 6.171875 L 9.21875 7.210938 C 9.21875 7.363281 9.371094 7.511719 9.519531 7.585938 C 9.816406 7.660156 10.039062 7.734375 10.335938 7.882812 C 10.484375 7.957031 10.707031 7.957031 10.855469 7.808594 L 11.675781 7.136719 L 12.492188 7.957031 L 11.824219 8.773438 C 11.675781 8.921875 11.675781 9.144531 11.75 9.292969 C 11.898438 9.59375 12.046875 9.816406 12.046875 10.113281 C 12.121094 10.261719 12.195312 10.410156 12.417969 10.410156 L 13.457031 10.558594 L 13.457031 11.75 Z M 12.492188 11.824219 "></path><path style=" stroke:none;fill-rule:nonzero;fill:rgb(25.098039%,76.862745%,100%);fill-opacity:1;" d="M 8.476562 8.179688 C 6.839844 8.179688 5.503906 9.519531 5.503906 11.152344 C 5.503906 12.789062 6.839844 14.128906 8.476562 14.128906 C 10.113281 14.128906 11.453125 12.789062 11.453125 11.152344 C 11.453125 9.519531 10.1875 8.179688 8.476562 8.179688 Z M 8.476562 13.234375 C 7.363281 13.234375 6.394531 12.269531 6.394531 11.152344 C 6.394531 10.039062 7.363281 9.070312 8.476562 9.070312 C 9.59375 9.070312 10.558594 10.039062 10.558594 11.152344 C 10.558594 12.269531 9.667969 13.234375 8.476562 13.234375 Z M 8.476562 13.234375 "></path><path style=" stroke:none;fill-rule:nonzero;fill:rgb(25.098039%,76.862745%,100%);fill-opacity:1;" d="M 8.03125 18.515625 L 3.046875 18.515625 C 2.75 18.515625 2.601562 18.664062 2.601562 18.960938 C 2.601562 19.257812 2.75 19.40625 3.046875 19.40625 L 8.03125 19.40625 C 8.328125 19.40625 8.476562 19.257812 8.476562 18.960938 C 8.476562 18.738281 8.328125 18.515625 8.03125 18.515625 Z M 8.03125 18.515625 "></path><path style=" stroke:none;fill-rule:nonzero;fill:rgb(25.098039%,76.862745%,100%);fill-opacity:1;" d="M 8.03125 20.820312 L 3.046875 20.820312 C 2.75 20.820312 2.601562 20.96875 2.601562 21.265625 C 2.601562 21.5625 2.75 21.710938 3.046875 21.710938 L 8.03125 21.710938 C 8.328125 21.710938 8.476562 21.5625 8.476562 21.265625 C 8.476562 21.042969 8.328125 20.820312 8.03125 20.820312 Z M 8.03125 20.820312 "></path><path style=" stroke:none;fill-rule:nonzero;fill:rgb(25.098039%,76.862745%,100%);fill-opacity:1;" d="M 8.03125 23.125 L 3.046875 23.125 C 2.75 23.125 2.601562 23.273438 2.601562 23.570312 C 2.601562 23.871094 2.75 24.019531 3.046875 24.019531 L 8.03125 24.019531 C 8.328125 24.019531 8.476562 23.871094 8.476562 23.570312 C 8.476562 23.347656 8.328125 23.125 8.03125 23.125 Z M 8.03125 23.125 "></path><path style=" stroke:none;fill-rule:nonzero;fill:rgb(25.098039%,76.862745%,100%);fill-opacity:1;" d="M 28.40625 14.871094 L 26.769531 13.382812 C 23.347656 10.335938 16.285156 3.941406 16.878906 4.683594 L 16.878906 2.824219 C 16.878906 2.304688 16.507812 1.933594 15.988281 1.933594 L 13.308594 1.933594 L 13.308594 0.890625 C 13.308594 0.371094 12.9375 0 12.417969 0 L 4.609375 0 C 4.089844 0 3.71875 0.371094 3.71875 0.890625 L 3.71875 1.859375 L 1.042969 1.859375 C 0.519531 1.859375 0.148438 2.230469 0.148438 2.75 L 0.148438 25.355469 C 0.148438 25.875 0.519531 26.25 1.042969 26.25 L 10.261719 26.25 L 10.261719 28.109375 C 10.261719 28.40625 10.410156 28.554688 10.707031 28.554688 L 23.792969 28.554688 C 24.09375 28.554688 24.242188 28.40625 24.242188 28.109375 L 24.242188 22.753906 C 24.242188 21.042969 22.828125 19.554688 21.042969 19.554688 L 19.855469 19.554688 C 19.707031 19.554688 19.628906 19.628906 19.554688 19.707031 L 17.25 22.011719 L 14.945312 19.707031 C 14.871094 19.628906 14.796875 19.554688 14.648438 19.554688 L 13.457031 19.554688 C 11.75 19.554688 10.261719 20.96875 10.261719 22.753906 L 10.261719 25.429688 L 1.042969 25.429688 L 1.042969 2.824219 L 3.71875 2.824219 L 3.71875 3.273438 C 3.71875 3.792969 4.089844 4.164062 4.609375 4.164062 L 12.417969 4.164062 C 12.9375 4.164062 13.308594 3.792969 13.308594 3.273438 L 13.308594 2.824219 L 15.988281 2.824219 L 15.988281 4.609375 L 14.128906 4.386719 C 13.832031 4.3125 13.609375 4.683594 13.609375 4.90625 C 13.832031 5.726562 14.203125 7.585938 14.277344 7.660156 C 14.351562 7.808594 14.351562 7.734375 15.914062 9.21875 L 15.914062 13.085938 C 14.722656 13.609375 13.832031 14.722656 13.832031 16.136719 C 13.832031 17.996094 15.316406 19.480469 17.175781 19.480469 C 19.035156 19.480469 20.523438 17.996094 20.523438 16.136719 C 20.523438 14.277344 19.035156 12.789062 17.175781 12.789062 C 17.027344 12.789062 16.953125 12.789062 16.804688 12.789062 L 16.804688 9.890625 L 25.503906 17.773438 C 25.875 18.070312 26.472656 18.070312 26.769531 17.699219 L 28.257812 15.988281 C 28.40625 15.839844 28.480469 15.617188 28.480469 15.316406 C 28.703125 15.242188 28.628906 15.019531 28.40625 14.871094 Z M 11.152344 22.828125 C 11.152344 21.5625 12.195312 20.523438 13.457031 20.523438 L 14.425781 20.523438 L 16.953125 23.050781 C 17.027344 23.125 17.101562 23.199219 17.25 23.199219 C 17.398438 23.199219 17.472656 23.125 17.546875 23.050781 L 20.078125 20.523438 L 21.042969 20.523438 C 22.308594 20.523438 23.347656 21.5625 23.347656 22.828125 L 23.347656 27.734375 L 21.414062 27.734375 L 21.414062 24.09375 C 21.414062 23.792969 21.265625 23.644531 20.96875 23.644531 C 20.671875 23.644531 20.523438 23.792969 20.523438 24.09375 L 20.523438 27.734375 L 13.90625 27.734375 L 13.90625 24.09375 C 13.90625 23.792969 13.757812 23.644531 13.457031 23.644531 C 13.160156 23.644531 13.011719 23.792969 13.011719 24.09375 L 13.011719 27.734375 L 11.152344 27.734375 Z M 4.609375 3.273438 L 4.609375 0.890625 L 12.417969 0.890625 L 12.417969 3.273438 Z M 19.628906 16.210938 C 19.628906 17.546875 18.589844 18.589844 17.25 18.589844 C 15.914062 18.589844 14.871094 17.546875 14.871094 16.210938 C 14.871094 14.871094 15.914062 13.832031 17.25 13.832031 C 18.589844 13.757812 19.628906 14.871094 19.628906 16.210938 Z M 15.390625 7.4375 L 16.878906 5.726562 L 25.800781 13.683594 L 24.316406 15.390625 Z M 15.988281 5.503906 L 15.019531 6.542969 L 14.722656 5.28125 Z M 26.25 17.25 L 24.984375 16.0625 L 26.472656 14.351562 L 27.734375 15.542969 Z M 26.25 17.25 "></path></g></svg> 