<?xml version="1.0" encoding="UTF-8"?> <svg xmlns="http://www.w3.org/2000/svg" xmlns:xlink="http://www.w3.org/1999/xlink" width="29pt" height="29pt" viewBox="0 0 29 29" version="1.1"><g id="surface1"><path style=" stroke:none;fill-rule:nonzero;fill:rgb(93.72549%,26.27451%,20.784314%);fill-opacity:1;" d="M 16.65625 20.523438 C 16.433594 20.449219 16.210938 20.597656 16.0625 20.820312 L 13.90625 26.84375 L 13.535156 24.910156 C 13.457031 24.761719 13.382812 24.613281 13.234375 24.539062 C 13.085938 24.464844 12.9375 24.539062 12.789062 24.613281 L 11.375 25.953125 L 13.757812 18.960938 C 13.832031 18.738281 13.683594 18.515625 13.457031 18.367188 C 13.234375 18.292969 13.011719 18.441406 12.863281 18.664062 L 9.964844 27.214844 C 9.890625 27.363281 9.964844 27.585938 10.113281 27.734375 C 10.261719 27.808594 10.484375 27.808594 10.632812 27.660156 L 12.714844 25.726562 L 13.160156 28.554688 C 13.234375 28.703125 13.308594 28.925781 13.535156 28.925781 C 13.683594 28.925781 13.90625 28.851562 13.980469 28.628906 L 16.65625 20.96875 C 16.953125 20.820312 16.878906 20.597656 16.65625 20.523438 Z M 16.65625 20.523438 "></path><path style=" stroke:none;fill-rule:nonzero;fill:rgb(93.72549%,26.27451%,20.784314%);fill-opacity:1;" d="M 28.851562 27.066406 L 25.503906 18.960938 C 25.429688 18.738281 25.132812 18.589844 24.910156 18.738281 C 24.6875 18.8125 24.539062 19.109375 24.6875 19.332031 L 27.363281 25.875 L 25.800781 24.6875 C 25.652344 24.613281 25.503906 24.539062 25.355469 24.613281 C 25.207031 24.6875 25.058594 24.761719 25.058594 24.984375 L 24.835938 26.84375 L 22.382812 20.894531 C 22.308594 20.671875 22.011719 20.523438 21.789062 20.671875 C 21.5625 20.746094 21.414062 21.042969 21.5625 21.265625 L 24.6875 28.851562 C 24.761719 29 24.984375 29.148438 25.132812 29.148438 C 25.355469 29.074219 25.503906 29 25.503906 28.777344 L 25.800781 25.953125 L 28.035156 27.734375 C 28.183594 27.882812 28.40625 27.882812 28.554688 27.734375 C 28.851562 27.4375 28.925781 27.214844 28.851562 27.066406 Z M 28.851562 27.066406 "></path><path style=" stroke:none;fill-rule:nonzero;fill:rgb(93.72549%,26.27451%,20.784314%);fill-opacity:1;" d="M 19.332031 8.625 C 16.730469 8.625 14.574219 10.78125 14.574219 13.382812 C 14.574219 15.988281 16.730469 18.144531 19.332031 18.144531 C 21.9375 18.144531 24.09375 15.988281 24.09375 13.382812 C 24.09375 10.78125 21.9375 8.625 19.332031 8.625 Z M 19.332031 17.324219 C 17.175781 17.324219 15.464844 15.617188 15.464844 13.457031 C 15.464844 11.300781 17.175781 9.59375 19.332031 9.59375 C 21.488281 9.59375 23.199219 11.300781 23.199219 13.457031 C 23.199219 15.542969 21.488281 17.324219 19.332031 17.324219 Z M 19.332031 17.324219 "></path><path style=" stroke:none;fill-rule:nonzero;fill:rgb(93.72549%,26.27451%,20.784314%);fill-opacity:1;" d="M 23.71875 20.226562 L 24.167969 18.441406 L 26.027344 18.070312 C 26.175781 17.996094 26.25 17.996094 26.324219 17.921875 C 26.398438 17.847656 26.398438 17.699219 26.398438 17.546875 L 25.953125 15.242188 L 27.585938 13.609375 C 27.660156 13.535156 27.734375 13.457031 27.734375 13.308594 C 27.734375 13.160156 27.660156 13.085938 27.585938 13.011719 L 26.027344 11.601562 L 26.546875 9.667969 C 26.621094 9.519531 26.546875 9.445312 26.472656 9.292969 C 26.398438 9.21875 26.324219 9.144531 26.175781 9.070312 L 24.390625 8.625 L 23.945312 6.691406 C 23.871094 6.46875 23.644531 6.320312 23.421875 6.320312 L 21.117188 6.765625 L 19.554688 5.207031 C 19.40625 5.054688 19.109375 5.054688 18.960938 5.207031 L 17.546875 6.691406 L 15.839844 6.246094 C 15.691406 5.949219 15.542969 5.726562 15.464844 5.503906 C 15.765625 5.054688 16.433594 4.238281 16.582031 4.089844 C 16.730469 3.941406 16.730469 3.644531 16.507812 3.496094 L 15.167969 2.082031 C 15.019531 1.933594 14.722656 1.933594 14.574219 2.082031 L 13.160156 3.199219 C 12.492188 2.824219 11.824219 2.527344 11.003906 2.304688 L 10.707031 0.519531 C 10.632812 0.296875 10.484375 0.148438 10.261719 0.148438 L 8.179688 0.148438 C 7.957031 0.148438 7.808594 0.296875 7.734375 0.519531 L 7.511719 2.304688 C 6.765625 2.453125 6.023438 2.75 5.355469 3.199219 C 4.90625 2.898438 3.941406 2.15625 3.941406 2.15625 C 3.792969 2.007812 3.570312 2.007812 3.421875 2.15625 L 2.082031 3.570312 C 1.859375 3.71875 1.859375 3.941406 2.007812 4.164062 L 3.125 5.578125 C 2.675781 6.246094 2.378906 6.988281 2.230469 7.734375 L 0.445312 8.03125 C 0.222656 8.105469 0.0742188 8.253906 0.0742188 8.476562 L 0.0742188 10.410156 C 0.0742188 10.632812 0.222656 10.78125 0.445312 10.855469 L 2.230469 11.078125 C 2.378906 11.824219 2.675781 12.566406 3.125 13.234375 C 2.75 13.683594 2.007812 14.648438 2.007812 14.648438 C 1.859375 14.796875 1.859375 15.09375 2.082031 15.242188 L 3.496094 16.65625 C 3.644531 16.804688 3.867188 16.804688 4.089844 16.730469 L 5.503906 15.617188 C 6.171875 15.988281 6.839844 16.285156 7.660156 16.507812 L 7.882812 18.292969 C 7.957031 18.515625 8.105469 18.664062 8.328125 18.664062 L 10.261719 18.664062 C 10.484375 18.664062 10.632812 18.515625 10.707031 18.292969 L 11.003906 16.507812 C 11.601562 16.359375 12.121094 16.136719 12.714844 15.914062 L 12.34375 17.398438 C 12.269531 17.546875 12.34375 17.625 12.417969 17.773438 C 12.492188 17.847656 12.566406 17.921875 12.714844 17.996094 L 14.5 18.441406 L 14.871094 20.226562 C 14.945312 20.449219 15.167969 20.597656 15.390625 20.597656 L 17.699219 20.152344 L 19.332031 21.789062 C 19.40625 21.863281 19.480469 21.9375 19.628906 21.9375 C 19.78125 21.9375 19.855469 21.863281 19.929688 21.789062 L 21.339844 20.300781 L 23.347656 20.820312 C 23.421875 20.597656 23.644531 20.449219 23.71875 20.226562 Z M 10.410156 15.617188 C 10.261719 15.691406 10.113281 15.765625 10.039062 15.988281 L 9.816406 17.699219 L 8.625 17.699219 L 8.402344 15.988281 C 8.328125 15.839844 8.253906 15.617188 8.03125 15.617188 C 7.136719 15.464844 6.394531 15.167969 5.652344 14.574219 C 5.503906 14.5 5.28125 14.5 5.128906 14.574219 L 3.867188 15.617188 L 2.972656 14.722656 C 3.347656 14.277344 3.867188 13.535156 4.015625 13.308594 C 4.089844 13.160156 4.089844 12.9375 4.015625 12.789062 C 3.570312 12.121094 3.199219 11.226562 3.046875 10.410156 C 2.972656 10.261719 2.898438 10.113281 2.675781 10.039062 L 0.964844 9.890625 L 0.964844 8.699219 L 2.675781 8.476562 C 2.824219 8.476562 2.972656 8.402344 2.972656 8.179688 C 3.125 7.363281 3.421875 6.542969 3.941406 5.800781 C 4.015625 5.652344 4.015625 5.429688 3.941406 5.28125 L 2.898438 3.941406 L 3.792969 3.046875 C 4.238281 3.421875 4.980469 3.941406 5.128906 4.089844 C 5.28125 4.238281 5.503906 4.238281 5.726562 4.089844 C 6.394531 3.644531 7.210938 3.273438 8.105469 3.125 C 8.253906 3.046875 8.402344 2.972656 8.476562 2.75 L 8.625 1.042969 L 9.816406 1.042969 L 10.039062 2.75 C 10.113281 2.898438 10.1875 3.125 10.410156 3.125 C 11.300781 3.273438 12.046875 3.570312 12.789062 4.164062 C 12.9375 4.238281 13.160156 4.238281 13.308594 4.164062 L 14.648438 3.125 L 15.542969 4.015625 C 15.167969 4.460938 14.5 5.429688 14.5 5.429688 C 14.351562 5.578125 14.351562 5.800781 14.5 5.949219 C 14.648438 6.246094 14.796875 6.46875 14.945312 6.765625 L 14.5 8.476562 L 14.203125 8.550781 C 13.757812 6.171875 11.75 4.460938 9.292969 4.460938 C 6.46875 4.460938 4.238281 6.765625 4.238281 9.519531 C 4.238281 12.34375 6.542969 14.574219 9.292969 14.574219 C 10.039062 14.574219 10.707031 14.425781 11.375 14.128906 L 12.417969 15.09375 C 11.75 15.242188 11.078125 15.464844 10.410156 15.617188 Z M 12.640625 8.773438 C 12.492188 8.847656 12.417969 8.847656 12.34375 8.921875 C 12.269531 8.996094 12.269531 9.144531 12.269531 9.292969 L 12.714844 11.601562 L 12.566406 11.675781 L 11.527344 12.714844 C 10.78125 13.308594 9.964844 13.535156 9.070312 13.535156 C 6.765625 13.535156 4.90625 11.675781 4.90625 9.371094 C 5.054688 7.0625 6.914062 5.207031 9.21875 5.207031 C 11.300781 5.207031 12.9375 6.617188 13.308594 8.625 Z M 21.191406 19.109375 C 21.042969 19.035156 20.894531 19.109375 20.746094 19.257812 L 19.40625 20.597656 L 17.921875 19.035156 C 17.847656 18.960938 17.625 18.886719 17.546875 18.886719 L 15.464844 19.332031 L 15.09375 17.699219 C 15.019531 17.546875 14.945312 17.398438 14.796875 17.324219 L 13.160156 16.878906 L 13.609375 15.09375 C 13.683594 14.945312 13.609375 14.796875 13.457031 14.648438 C 13.234375 14.425781 12.34375 13.535156 12.121094 13.308594 L 12.269531 13.160156 C 12.269531 13.160156 12.269531 13.160156 12.34375 13.085938 L 13.683594 11.75 C 13.757812 11.675781 13.832031 11.453125 13.832031 11.375 L 13.382812 9.445312 L 15.019531 9.070312 C 15.167969 8.996094 15.316406 8.921875 15.390625 8.773438 L 15.839844 7.136719 L 17.699219 7.585938 C 17.847656 7.660156 17.996094 7.585938 18.144531 7.4375 L 19.480469 6.097656 L 21.042969 7.585938 C 21.117188 7.660156 21.339844 7.734375 21.414062 7.734375 L 23.496094 7.289062 L 23.871094 8.921875 C 23.945312 9.070312 24.019531 9.21875 24.167969 9.292969 L 25.800781 9.742188 L 25.207031 11.453125 C 25.132812 11.601562 25.207031 11.75 25.355469 11.898438 L 26.695312 13.234375 L 25.207031 14.796875 C 25.132812 14.871094 25.058594 15.09375 25.058594 15.167969 L 25.503906 17.25 L 23.871094 17.625 C 23.71875 17.699219 23.570312 17.773438 23.496094 17.921875 L 23.050781 19.554688 Z M 21.191406 19.109375 "></path><path style=" stroke:none;fill-rule:nonzero;fill:rgb(93.72549%,26.27451%,20.784314%);fill-opacity:1;" d="M 22.308594 11.675781 C 22.160156 11.527344 21.863281 11.527344 21.710938 11.675781 L 18.8125 14.722656 L 17.324219 13.011719 C 17.175781 12.863281 16.878906 12.863281 16.730469 12.9375 C 16.582031 13.085938 16.507812 13.382812 16.65625 13.535156 L 18.441406 15.617188 C 18.515625 15.691406 18.589844 15.765625 18.738281 15.765625 C 18.8125 15.765625 18.960938 15.691406 19.035156 15.617188 L 22.308594 12.269531 C 22.457031 12.121094 22.457031 11.824219 22.308594 11.675781 Z M 22.308594 11.675781 "></path></g></svg> 