<?xml version="1.0" encoding="UTF-8"?> <svg xmlns="http://www.w3.org/2000/svg" xmlns:xlink="http://www.w3.org/1999/xlink" width="36pt" height="30pt" viewBox="0 0 36 30" version="1.1"><g id="surface1"><path style=" stroke:none;fill-rule:nonzero;fill:rgb(95.294118%,48.235294%,12.54902%);fill-opacity:1;" d="M 24.644531 3.726562 L 16.085938 3.726562 L 16.085938 2.738281 L 24.652344 2.738281 L 24.652344 3.726562 Z M 24.644531 5.699219 L 16.085938 5.699219 L 16.085938 6.691406 L 24.652344 6.691406 L 24.652344 5.699219 Z M 24.644531 8.691406 L 16.085938 8.691406 L 16.085938 9.683594 L 24.652344 9.683594 L 24.652344 8.691406 Z M 24.644531 11.65625 L 16.085938 11.65625 L 16.085938 12.675781 L 24.652344 12.675781 L 24.652344 11.65625 Z M 13.28125 12.414062 C 13.28125 12.953125 12.839844 13.402344 12.292969 13.402344 C 11.753906 13.402344 11.300781 12.960938 11.300781 12.414062 C 11.300781 11.871094 11.746094 11.421875 12.292969 11.421875 C 12.839844 11.429688 13.28125 11.871094 13.28125 12.414062 Z M 33.53125 29.574219 C 33.433594 29.730469 33.277344 29.796875 33.121094 29.796875 L 23.664062 29.796875 C 23.503906 29.796875 23.347656 29.699219 23.25 29.574219 C 23.152344 29.414062 23.152344 29.257812 23.21875 29.09375 L 24.171875 27.148438 L 24.171875 26.070312 L 20.953125 26.070312 L 20.953125 26.578125 C 20.953125 26.863281 20.730469 27.089844 20.445312 27.089844 L 15.480469 27.089844 C 15.195312 27.089844 14.96875 26.863281 14.96875 26.578125 L 14.96875 26.070312 L 11.753906 26.070312 L 11.753906 27.148438 L 12.703125 29.09375 C 12.765625 29.25 12.765625 29.445312 12.675781 29.574219 C 12.578125 29.730469 12.421875 29.796875 12.261719 29.796875 L 2.8125 29.796875 C 2.65625 29.796875 2.496094 29.699219 2.398438 29.574219 C 2.300781 29.414062 2.300781 29.257812 2.371094 29.09375 L 3.324219 27.148438 L 3.324219 22.351562 C 3.324219 22.066406 3.546875 21.839844 3.832031 21.839844 L 11.28125 21.839844 C 11.566406 21.839844 11.789062 22.066406 11.789062 22.351562 L 11.789062 25.085938 L 15 25.085938 L 15 24.578125 C 15 24.292969 15.226562 24.066406 15.511719 24.066406 L 17.484375 24.066406 L 17.484375 15.148438 L 12.292969 15.148438 C 10.761719 15.148438 9.523438 13.941406 9.523438 12.414062 C 9.523438 10.921875 10.734375 9.703125 12.261719 9.675781 L 14.078125 9.675781 L 14.078125 0.511719 C 14.078125 0.226562 14.300781 0 14.585938 0 L 25.921875 0 C 26.203125 0 26.429688 0.226562 26.429688 0.511719 L 26.429688 13.558594 C 26.429688 14.453125 25.734375 15.148438 24.839844 15.148438 L 18.472656 15.148438 L 18.472656 24.097656 L 20.445312 24.097656 C 20.730469 24.097656 20.953125 24.324219 20.953125 24.609375 L 20.953125 25.117188 L 24.171875 25.117188 L 24.171875 22.378906 C 24.171875 22.09375 24.398438 21.871094 24.683594 21.871094 L 32.128906 21.871094 C 32.414062 21.871094 32.640625 22.09375 32.640625 22.378906 L 32.640625 27.1875 L 33.59375 29.128906 C 33.621094 29.226562 33.621094 29.414062 33.53125 29.574219 Z M 15.066406 12.539062 C 15.039062 13.148438 14.8125 13.6875 14.429688 14.128906 L 24.839844 14.128906 C 25.15625 14.128906 25.449219 13.875 25.449219 13.523438 L 25.449219 0.988281 L 15.066406 0.988281 Z M 12.292969 14.136719 C 13.28125 14.136719 14.078125 13.371094 14.078125 12.390625 C 14.078125 11.398438 13.28125 10.640625 12.292969 10.640625 C 11.300781 10.640625 10.507812 11.40625 10.507812 12.390625 C 10.515625 13.371094 11.308594 14.136719 12.292969 14.136719 Z M 4.304688 26.804688 L 10.769531 26.804688 L 10.769531 22.824219 L 4.304688 22.824219 Z M 11.46875 28.808594 L 10.957031 27.789062 L 4.117188 27.789062 L 3.636719 28.808594 Z M 19.933594 25.058594 L 15.988281 25.058594 L 15.988281 26.046875 L 19.972656 26.046875 L 19.972656 25.058594 Z M 25.15625 26.804688 L 31.621094 26.804688 L 31.621094 22.824219 L 25.15625 22.824219 Z M 32.316406 28.808594 L 31.835938 27.789062 L 24.960938 27.789062 L 24.480469 28.808594 Z M 32.316406 28.808594 "></path></g></svg> 