<?xml version="1.0" encoding="UTF-8"?> <!-- Generator: Adobe Illustrator 23.0.3, SVG Export Plug-In . SVG Version: 6.00 Build 0) --> <svg xmlns="http://www.w3.org/2000/svg" xmlns:xlink="http://www.w3.org/1999/xlink" version="1.1" id="Layer_1" x="0px" y="0px" viewBox="0 0 48 38" style="enable-background:new 0 0 48 38;" xml:space="preserve"> <style type="text/css"> .st0{display:none;} .st1{display:inline;} .st2{fill:#FF4081;} .st3{display:inline;fill:#399439;} .st4{fill:#EF4335;} .st5{display:none;fill:#FFD740;} .st6{display:inline;fill:#40C4FF;} .st7{display:inline;fill:#FF4081;} </style> <g class="st0"> <g class="st1"> <path class="st2" d="M24.38,14.55c-4,0-7.2-3.2-7.2-7.2s3.2-7.2,7.2-7.2s7.2,3.2,7.2,7.2S28.38,14.55,24.38,14.55z M24.38,2.05 c-2.9,0-5.2,2.3-5.2,5.2s2.3,5.2,5.2,5.2s5.2-2.3,5.2-5.2S27.28,2.05,24.38,2.05z"></path> </g> <g class="st1"> <path class="st2" d="M10.18,17.35c-2.8,0-5.1-2.3-5.1-5.1s2.3-5.1,5.1-5.1s5.1,2.3,5.1,5.1S12.98,17.35,10.18,17.35z M10.18,9.15 c-1.7,0-3.1,1.4-3.1,3.1s1.4,3.1,3.1,3.1s3.1-1.4,3.1-3.1S11.88,9.15,10.18,9.15z"></path> </g> <g class="st1"> <path class="st2" d="M38.98,17.35c-2.8,0-5.1-2.3-5.1-5.1s2.3-5.1,5.1-5.1s5.1,2.3,5.1,5.1S41.88,17.35,38.98,17.35z M38.98,9.15 c-1.7,0-3.1,1.4-3.1,3.1s1.4,3.1,3.1,3.1s3.1-1.4,3.1-3.1S40.78,9.15,38.98,9.15z"></path> </g> <g class="st1"> <path class="st2" d="M36.68,37.85h-24.5c-0.6,0-1-0.4-1-1v-12.4c0-4.7,3.8-8.5,8.5-8.5h9.5c4.7,0,8.5,3.8,8.5,8.5v12.3 C37.68,37.35,37.18,37.85,36.68,37.85z M13.18,35.85h22.4v-11.4c0-3.6-2.9-6.5-6.5-6.5h-9.5c-3.6,0-6.5,2.9-6.5,6.5v11.4H13.18z"></path> </g> <g class="st1"> <path class="st2" d="M47.08,33.65h-10.4c-0.6,0-1-0.4-1-1v-8.1c0-1.5-0.5-3-1.5-4.2c-0.2-0.3-0.3-0.6-0.2-1 c0.1-0.3,0.4-0.6,0.7-0.7c0.4-0.1,0.8-0.1,1.2-0.1h6.2c3.3,0,5.9,2.7,5.9,5.9v8.1C48.08,33.15,47.68,33.65,47.08,33.65z M37.68,31.65h8.4v-7.1c0-2.2-1.8-3.9-3.9-3.9h-5.5c0.6,1.2,1,2.6,1,3.9V31.65z"></path> </g> <g class="st1"> <path class="st2" d="M12.18,33.65H2.08c-0.6,0-1-0.4-1-1v-8.1c0-3.3,2.7-5.9,5.9-5.9h6.2c0.3,0,0.6,0,0.9,0.1 c0.4,0.1,0.7,0.3,0.8,0.6c0.1,0.3,0.1,0.7-0.2,1c-1,1.2-1.6,2.7-1.6,4.2v8.1C13.18,33.15,12.78,33.65,12.18,33.65z M3.08,31.65 h8.1v-7.1c0-1.4,0.3-2.7,1-3.9h-5.2c-2.2,0-3.9,1.8-3.9,3.9V31.65z"></path> </g> </g> <g transform="translate(0,-952.36218)" class="st0"> <path class="st3" d="M22.48,952.36c-0.45,0.05-0.83,0.48-0.83,0.93v1.96c-0.08,0.02-0.15,0.02-0.23,0.04 c-0.17,0.04-0.32,0.09-0.48,0.15l-1.89-1.89c-0.34-0.34-0.96-0.34-1.31,0l-2.79,2.79c-0.35,0.35-0.35,0.98,0,1.32l1.8,1.8 c-0.05,0.1-0.12,0.17-0.17,0.28c-0.09,0.17-0.13,0.35-0.2,0.52H14.2c-0.49,0-0.93,0.44-0.93,0.93v3.72c0,0.49,0.44,0.93,0.93,0.93 h2.17c0.07,0.17,0.12,0.34,0.2,0.51c0.05,0.1,0.12,0.18,0.17,0.28l-1.8,1.8c-0.35,0.35-0.35,0.98,0,1.32l2.79,2.79 c0.34,0.34,0.96,0.34,1.31,0l1.89-1.89c0.16,0.05,0.31,0.12,0.48,0.16c0.08,0.02,0.15,0.03,0.23,0.04v1.96 c0,0.49,0.44,0.93,0.93,0.93h3.72c0.49,0,0.93-0.44,0.93-0.93v-1.96c0.07-0.02,0.14-0.03,0.22-0.04c0.17-0.04,0.33-0.09,0.49-0.15 l1.88,1.88c0.35,0.35,0.98,0.35,1.32,0l2.79-2.79c0.35-0.35,0.35-0.98,0-1.32l-1.82-1.82c0.05-0.09,0.12-0.16,0.17-0.26 c0.08-0.17,0.13-0.34,0.2-0.51h2.18c0.49,0,0.93-0.44,0.93-0.93c0-1.12,0-2.46,0-3.72c0-0.49-0.44-0.93-0.93-0.93h-2.17 c-0.07-0.17-0.13-0.35-0.22-0.52c-0.05-0.1-0.13-0.17-0.17-0.26l1.82-1.82c0.35-0.35,0.35-0.98,0-1.32l-2.79-2.79 c-0.35-0.35-0.98-0.35-1.32,0l-1.89,1.89c-0.16-0.05-0.32-0.11-0.48-0.15c-0.08-0.02-0.14-0.03-0.22-0.04v-1.96 c0-0.49-0.44-0.93-0.93-0.93C25.04,952.36,23.74,952.36,22.48,952.36z M23.51,954.22h1.86v1.86c0,0.52,0.51,0.99,1.03,0.93 c0.34-0.03,1.15,0.25,1.18,0.26c0.35,0.28,0.92,0.25,1.24-0.07l1.67-1.67l1.45,1.48l-1.66,1.66c-0.34,0.34-0.35,0.96-0.01,1.31 c-0.04-0.04,0.2,0.29,0.36,0.61s0.31,0.69,0.35,0.83c0.1,0.4,0.49,0.71,0.9,0.71h1.86V964h-1.86c-0.41,0-0.8,0.3-0.9,0.7 c-0.03,0.14-0.19,0.52-0.35,0.84c-0.16,0.32-0.4,0.65-0.36,0.61c-0.33,0.35-0.32,0.96,0.01,1.29l1.66,1.67l-1.45,1.45l-1.67-1.66 c-0.31-0.32-0.87-0.36-1.22-0.09c-0.18,0.09-0.4,0.14-0.58,0.19c-0.19,0.03-0.37,0.08-0.55,0.12c-0.53-0.09-1.09,0.38-1.09,0.92 v1.86h-1.86v-1.86c0-0.55-0.57-1.02-1.11-0.92c0.05,0-0.42-0.05-0.55-0.12c-0.2-0.04-0.39-0.11-0.57-0.17 c-0.35-0.27-0.9-0.24-1.22,0.07l-1.67,1.67l-1.48-1.47l1.67-1.67c0.34-0.34,0.34-0.95,0.01-1.29c0.04,0.04-0.19-0.29-0.35-0.61 c-0.16-0.32-0.31-0.71-0.35-0.84c-0.1-0.4-0.49-0.7-0.9-0.7h-1.86v-1.86H17c0.41,0,0.8-0.31,0.9-0.71 c0.03-0.14,0.19-0.51,0.35-0.83s0.39-0.65,0.35-0.61c0.34-0.35,0.33-0.97-0.01-1.31l-1.67-1.66l1.48-1.48l1.67,1.67 c0.31,0.31,0.85,0.36,1.21,0.1c0.17-0.11,0.4-0.15,0.58-0.2c0.21-0.07,0.43-0.09,0.61-0.09c0.52,0.07,1.05-0.4,1.05-0.93V954.22z M24.44,958.88c-2.3,0-4.19,1.89-4.19,4.19c0,2.3,1.89,4.19,4.19,4.19s4.19-1.89,4.19-4.19C28.63,960.76,26.75,958.88,24.44,958.88 z M24.44,960.74c1.3,0,2.33,1.03,2.33,2.33c0,1.3-1.03,2.33-2.33,2.33c-1.3,0-2.33-1.03-2.33-2.33 C22.12,961.77,23.15,960.74,24.44,960.74z M35.11,973.29c-0.15,0.01-0.29,0.05-0.42,0.13l-4.17,2.33c-0.43,0.24-0.6,0.84-0.36,1.27 s0.84,0.6,1.27,0.36l4.19-2.33c0.38-0.19,0.59-0.67,0.48-1.08S35.53,973.26,35.11,973.29L35.11,973.29z M38.84,975.15 c-0.15,0-0.29,0.05-0.42,0.12l-6.05,3.26c-0.43,0.23-0.61,0.84-0.38,1.27c0.23,0.43,0.84,0.61,1.27,0.38l6.05-3.26 c0.38-0.19,0.59-0.66,0.48-1.07C39.68,975.44,39.27,975.13,38.84,975.15z M12.33,977.03c-1.04,0.01-2.33-0.04-3.61,0.51 c-1.87,0.8-3.65,1.34-4.67,1.8c-0.32,0.14-0.55,0.49-0.55,0.84v8.51c0,0.63,0.29,0.96,0.6,1.27c0.31,0.31,0.72,0.66,1.43,0.54 c1.95-0.33,3.91-0.46,5.88-0.44c7.47,0.13,10.62,0.43,17.19,0.44c0.01,0,0.03,0,0.04,0c1.07,0.03,2.19-0.36,3.4-0.92 c1.23-0.57,2.54-1.34,3.85-2.17c2.62-1.66,5.23-3.57,6.72-4.48c0.01,0,0.02-0.01,0.03-0.01c0.43-0.28,0.75-0.49,1.02-0.7 c0.27-0.21,0.55-0.44,0.71-0.86c0.16-0.42,0.05-0.88-0.07-1.16c-0.12-0.29-0.25-0.52-0.42-0.83c-0.01-0.02-0.03-0.04-0.04-0.06 c-0.14-0.22-0.26-0.43-0.44-0.65c-0.18-0.23-0.43-0.49-0.81-0.63c-0.76-0.27-1.43,0.03-2.3,0.49c-0.01,0.01-0.03,0.02-0.04,0.03 c-2.37,1.48-5.89,3.35-9.29,4.13c0-0.03,0.01-0.05,0.01-0.07v-1.4c0-0.92-0.64-1.43-1.24-1.77c-0.6-0.35-1.29-0.55-2.02-0.55h-6.39 C19.33,978.36,15.98,976.98,12.33,977.03L12.33,977.03z M12.36,978.89c3.2-0.04,6.34,1.25,8.6,1.83c0.08,0.02,0.15,0.03,0.23,0.03 h6.52c0.31,0,0.77,0.13,1.08,0.31c0.23,0.13,0.3,0.29,0.32,0.26v1.19c-0.01-0.04-0.07,0.1-0.31,0.23c-0.3,0.17-0.76,0.32-1.08,0.32 H27.7h-0.07h-6.44c-0.49-0.01-0.94,0.44-0.94,0.93c0,0.49,0.45,0.94,0.94,0.93h6.43h0.06c0.01,0,0.02,0,0.03,0h0.01 c4.96,0.09,10.2-2.72,13.45-4.76c0.01-0.01,0.03-0.02,0.04-0.03c0.46-0.23,0.68-0.28,0.73-0.31c0.06,0.08,0.17,0.23,0.29,0.42 c0.13,0.25,0.2,0.37,0.26,0.49c-0.17,0.13-0.46,0.33-0.86,0.6c-0.01,0.01-0.02,0.01-0.03,0.01c-1.64,1.01-4.17,2.88-6.71,4.48 c-1.27,0.8-2.54,1.54-3.65,2.05c-1.11,0.51-2.08,0.76-2.59,0.74c-0.01,0-0.02,0-0.03,0c-6.55,0-9.67-0.31-17.21-0.44 c-1.99-0.02-4.01,0.11-6.02,0.44c-0.02-0.03-0.04-0.08-0.04-0.09v-7.72c0.88-0.35,2.34-0.83,4.09-1.57 C10.26,978.91,11.29,978.91,12.36,978.89L12.36,978.89z"></path> </g> <g transform="translate(0,-952.36218)"> <path class="st4" d="M23.56,952.36c-7.84,0-14.58,4.8-17.43,11.65c-0.25,0.51-0.04,1.12,0.47,1.37c0.51,0.25,1.12,0.04,1.37-0.47 c0.02-0.04,0.03-0.08,0.05-0.12c2.54-6.1,8.54-10.38,15.54-10.38c9.23,0,16.72,7.44,16.84,16.7l-2.32-2.58 c-0.38-0.42-1.03-0.45-1.45-0.07s-0.45,1.03-0.07,1.45c0,0,0,0,0,0l3.83,4.26c0.38,0.42,1.03,0.45,1.45,0.07 c0.03-0.02,0.05-0.05,0.07-0.07l3.94-4.31c0.39-0.41,0.37-1.06-0.04-1.45c-0.18-0.17-0.43-0.27-0.68-0.28 c-0.3,0-0.59,0.13-0.79,0.35l-1.92,2.08C42.01,960.46,33.72,952.36,23.56,952.36z M5.79,968.14c-0.26,0.02-0.51,0.14-0.69,0.34 l-3.85,4.28c-0.37,0.43-0.33,1.08,0.09,1.45c0.42,0.37,1.07,0.33,1.44-0.09l1.84-2.05c0.39,10.04,8.64,18.19,18.91,18.19 c7.91,0,14.68-4.87,17.51-11.68c0.26-0.48,0.05-1.07-0.49-1.3c-0.53-0.24-1.18-0.04-1.45,0.44c-0.04,0.07-0.06,0.14-0.08,0.21 c-2.56,6.14-8.56,10.4-15.49,10.4c-9.11,0-16.6-7.37-16.78-16.65l2.29,2.5c0.34,0.45,0.98,0.54,1.44,0.21 c0.45-0.34,0.54-0.98,0.21-1.44c-0.04-0.05-0.09-0.1-0.13-0.15l-3.94-4.31C6.41,968.25,6.11,968.12,5.79,968.14z"></path> </g> <path class="st5" d="M40.62,21.25c0.08,0.95-0.26,1.88-0.93,2.56l-8.83,8.83c-1.27,1.26-3,1.97-4.79,1.96h-10.9l-2.76,2.75 c-0.38,0.38-0.98,0.38-1.36,0c-0.38-0.38-0.38-0.98,0-1.36l3.03-3.03c0.18-0.18,0.42-0.28,0.68-0.28h11.31 c1.3,0.01,2.54-0.51,3.46-1.43l8.83-8.83c0.49-0.53,0.47-1.36-0.06-1.85c-0.5-0.47-1.29-0.47-1.79,0l-6.97,7.04l-0.02,0.02 c-0.6,0.59-1.41,0.93-2.25,0.93h-6.74c-0.53,0-0.96-0.43-0.96-0.96s0.43-0.96,0.96-0.96h6.74c0.61,0,1.13-0.42,1.27-1.02 c0.15-0.7-0.29-1.39-0.99-1.55c-0.09-0.02-0.19-0.03-0.28-0.03H15.63c-1.08,0-2.11,0.42-2.87,1.19l-1.7,1.69 c-0.35,0.4-0.95,0.45-1.35,0.1s-0.45-0.95-0.1-1.35c0.03-0.04,0.07-0.07,0.1-0.1l1.7-1.69c1.12-1.12,2.64-1.75,4.22-1.75h11.62 c1.3,0,2.48,0.78,2.97,1.99l4.89-4.89c1.26-1.26,3.31-1.26,4.57,0C40.23,19.76,40.56,20.48,40.62,21.25z M32.94,8.58 c-0.24-0.6-0.71-1.08-1.31-1.32l-2.47-0.98l-0.48-2.61c-0.23-1.27-1.45-2.11-2.71-1.88c-0.06,0.01-0.11,0.02-0.17,0.04l-2.58,0.65 l-1.92-1.83c-0.93-0.89-2.41-0.86-3.3,0.08c-0.04,0.04-0.07,0.08-0.11,0.12l-1.69,2.05l-2.63-0.35c-1.28-0.17-2.45,0.72-2.62,2 c-0.01,0.06-0.01,0.11-0.02,0.17l-0.17,2.65L8.43,8.62C7.3,9.23,6.89,10.65,7.5,11.78c0.02,0.04,0.05,0.08,0.07,0.12L9,14.14 l-1.15,2.39c-0.56,1.16-0.07,2.56,1.09,3.11c0.05,0.02,0.1,0.05,0.16,0.07l2.96,1.17c0.49,0.2,1.05-0.05,1.25-0.54 c0.2-0.49-0.05-1.05-0.54-1.25l0,0L9.8,17.93c-0.21-0.08-0.32-0.32-0.23-0.54c0-0.01,0.01-0.02,0.01-0.03l1.38-2.87 c0.14-0.3,0.12-0.65-0.05-0.93l-1.71-2.69c-0.12-0.19-0.07-0.45,0.13-0.57c0.01-0.01,0.02-0.01,0.03-0.02l2.81-1.51 c0.29-0.15,0.48-0.44,0.5-0.77l0.2-3.18c0.01-0.12,0.06-0.22,0.15-0.3c0.09-0.08,0.2-0.11,0.32-0.09l3.16,0.43 c0.33,0.05,0.66-0.08,0.87-0.34l2.03-2.46c0.15-0.18,0.41-0.2,0.58-0.05c0.01,0.01,0.02,0.01,0.02,0.02l2.3,2.2 c0.24,0.23,0.58,0.32,0.9,0.23l3.07-0.79c0.22-0.06,0.45,0.08,0.5,0.3c0,0.01,0,0.02,0.01,0.03l0.6,3.13 c0.06,0.33,0.28,0.6,0.59,0.72l2.96,1.17c0.21,0.09,0.31,0.34,0.21,0.55c0,0.01-0.01,0.01-0.01,0.02l-1.38,2.87 c-0.14,0.3-0.12,0.65,0.05,0.93l1.71,2.69c0.12,0.19,0.07,0.45-0.13,0.57c-0.01,0.01-0.02,0.01-0.03,0.02l-2.81,1.51 c-0.47,0.24-0.67,0.81-0.43,1.29c0.24,0.47,0.81,0.67,1.29,0.43c0.02-0.01,0.03-0.02,0.05-0.03l2.81-1.51 c1.13-0.61,1.55-2.03,0.94-3.16c-0.03-0.05-0.05-0.09-0.08-0.14l-1.42-2.24l1.15-2.39c0.28-0.58,0.31-1.26,0.07-1.86L32.94,8.58z M20.35,18.18c-0.7,0-1.34-0.42-1.61-1.07c-0.21-0.49-0.77-0.72-1.26-0.51c-0.49,0.21-0.72,0.77-0.51,1.26 c0.57,1.36,1.9,2.25,3.38,2.25c2.09,0,3.66-1.48,3.66-3.46c0-0.98-0.45-2.71-3.41-3.41h-0.03c-1.96-0.45-1.96-1.27-1.96-1.54 c0-1.04,0.9-1.54,1.74-1.54c0.7,0,1.34,0.42,1.61,1.07c0.19,0.49,0.74,0.74,1.24,0.55c0.49-0.19,0.74-0.74,0.55-1.24 c-0.01-0.02-0.01-0.04-0.02-0.05c-0.44-1.04-1.33-1.82-2.42-2.11V7.7c0-0.53-0.43-0.96-0.96-0.96s-0.96,0.43-0.96,0.96v0.69 c-1.57,0.33-2.69,1.72-2.69,3.32c0,0.98,0.45,2.71,3.41,3.41h0.03c1.96,0.45,1.96,1.27,1.96,1.54 C22.08,17.71,21.18,18.18,20.35,18.18L20.35,18.18z"></path> <g class="st0"> <path class="st6" d="M27.43,37.88c-0.56,0-1.01-0.45-1.01-1.01s0.45-1.01,1.01-1.01c8.02,0,14.55-6.53,14.55-14.55 S35.45,6.76,27.43,6.76s-14.55,6.53-14.55,14.55c0,0.56-0.45,1.01-1.01,1.01s-1.01-0.45-1.01-1.01c0-9.14,7.44-16.58,16.58-16.58 s16.58,7.44,16.58,16.58S36.57,37.88,27.43,37.88z"></path> <path class="st6" d="M33.64,2.03H21.22c-0.56,0-1.01-0.45-1.01-1.01S20.66,0,21.22,0h12.42c0.56,0,1.01,0.45,1.01,1.01 S34.2,2.03,33.64,2.03z"></path> <path class="st6" d="M23.94,7.17c-0.56,0-1.01-0.45-1.01-1.01V1.01c0-0.56,0.45-1.01,1.01-1.01c0.56,0,1.01,0.45,1.01,1.01v5.14 C24.96,6.71,24.5,7.17,23.94,7.17z"></path> <path class="st6" d="M30.92,4.22c-0.56,0-1.01-0.45-1.01-1.01V1.01c0-0.56,0.45-1.01,1.01-1.01s1.01,0.45,1.01,1.01v2.19 C31.94,3.77,31.48,4.22,30.92,4.22z"></path> <path class="st6" d="M27.43,22.32c-0.56,0-1.01-0.45-1.01-1.01V10.35c0-0.56,0.45-1.01,1.01-1.01c0.56,0,1.01,0.45,1.01,1.01v10.96 C28.45,21.87,27.99,22.32,27.43,22.32z"></path> <path class="st6" d="M33.2,22.32h-5.76c-0.56,0-1.01-0.45-1.01-1.01c0-0.56,0.45-1.01,1.01-1.01h5.76c0.56,0,1.01,0.45,1.01,1.01 C34.21,21.87,33.76,22.32,33.2,22.32z"></path> <path class="st6" d="M27.43,37.88H7.14c-0.56,0-1.01-0.45-1.01-1.01s0.45-1.01,1.01-1.01h20.29c0.56,0,1.01,0.45,1.01,1.01 S27.99,37.88,27.43,37.88z"></path> <path class="st6" d="M24.19,32.38H7.14c-0.56,0-1.01-0.45-1.01-1.01s0.45-1.01,1.01-1.01h17.04c0.56,0,1.01,0.45,1.01,1.01 S24.75,32.38,24.19,32.38z"></path> <path class="st6" d="M20.94,26.88H7.14c-0.56,0-1.01-0.45-1.01-1.01c0-0.56,0.45-1.01,1.01-1.01h13.8c0.56,0,1.01,0.45,1.01,1.01 C21.95,26.43,21.5,26.88,20.94,26.88z"></path> <path class="st6" d="M13.07,7.17H7.14c-0.56,0-1.01-0.45-1.01-1.01s0.45-1.01,1.01-1.01h5.92c0.56,0,1.01,0.45,1.01,1.01 S13.63,7.17,13.07,7.17z"></path> </g> <g transform="translate(0,-952.36218)" class="st0"> <path class="st7" d="M22.59,952.36c-1.76,0-3.23,1.08-3.9,2.59h-3.01c-0.45,0-0.86,0.41-0.86,0.86v0.86H8.77 c-0.46,0-0.86,0.43-0.86,0.86v31.95c0,0.45,0.41,0.86,0.86,0.86h27.64c0.45,0,0.86-0.41,0.86-0.86v-31.95 c0-0.45-0.41-0.86-0.86-0.86h-6.05v-0.86c0-0.45-0.41-0.86-0.86-0.86h-3.01C25.82,953.44,24.34,952.36,22.59,952.36z M22.59,954.09 c1.22,0,2.22,0.81,2.51,1.93c0.09,0.37,0.45,0.66,0.84,0.66h2.7v2.59H16.54v-2.59h2.7c0.38,0,0.75-0.29,0.84-0.66 C20.37,954.9,21.37,954.09,22.59,954.09z M9.63,958.41h5.18v1.73c0,0.45,0.41,0.86,0.86,0.86H29.5c0.45,0,0.86-0.41,0.86-0.86 v-1.73h5.18v30.23H9.63C9.63,988.63,9.63,958.41,9.63,958.41z M26.04,965.32c-0.64,0-1.19,0.35-1.48,0.86h-3.7v6.48h-1.97 c-0.3-0.52-0.85-0.86-1.48-0.86c-0.95,0-1.73,0.77-1.73,1.73c0,0.95,0.77,1.73,1.73,1.73c0.64,0,1.19-0.35,1.48-0.86h1.97v6.48h3.7 c0.3,0.52,0.85,0.86,1.48,0.86c0.95,0,1.73-0.77,1.73-1.73s-0.77-1.73-1.73-1.73c-0.64,0-1.19,0.35-1.48,0.86h-1.97v-4.75h1.97 c0.3,0.52,0.85,0.86,1.48,0.86c0.95,0,1.73-0.77,1.73-1.73c0-0.95-0.77-1.73-1.73-1.73c-0.64,0-1.19,0.35-1.48,0.86h-1.97v-4.75 h1.97c0.3,0.52,0.85,0.86,1.48,0.86c0.95,0,1.73-0.77,1.73-1.73S27,965.32,26.04,965.32z"></path> </g> </svg> 