<?xml version="1.0" encoding="UTF-8"?> <svg xmlns="http://www.w3.org/2000/svg" xmlns:xlink="http://www.w3.org/1999/xlink" width="36pt" height="30pt" viewBox="0 0 36 30" version="1.1"><g id="surface1"><path style=" stroke:none;fill-rule:nonzero;fill:rgb(25.098039%,76.862745%,100%);fill-opacity:1;" d="M 10.304688 0.484375 C 8.78125 0.484375 7.539062 1.730469 7.539062 3.253906 L 7.539062 25.488281 C 7.539062 27.011719 8.78125 28.25 10.304688 28.25 L 21.636719 28.25 C 21.898438 28.257812 22.109375 28.046875 22.117188 27.785156 C 22.125 27.523438 21.914062 27.3125 21.652344 27.304688 C 21.644531 27.304688 21.636719 27.304688 21.628906 27.304688 L 10.304688 27.304688 C 9.285156 27.304688 8.484375 26.503906 8.484375 25.484375 L 8.484375 23.796875 L 20.578125 23.796875 C 20.84375 23.800781 21.050781 23.59375 21.058594 23.328125 C 21.066406 23.066406 20.859375 22.859375 20.59375 22.851562 C 20.585938 22.851562 20.578125 22.851562 20.574219 22.851562 L 8.484375 22.851562 L 8.484375 3.246094 C 8.484375 2.226562 9.285156 1.421875 10.304688 1.421875 L 21.90625 1.421875 C 22.925781 1.421875 23.730469 2.226562 23.730469 3.246094 L 23.730469 15.378906 C 23.730469 15.640625 23.941406 15.851562 24.203125 15.851562 C 24.464844 15.851562 24.675781 15.640625 24.675781 15.378906 C 24.675781 15.378906 24.675781 15.371094 24.675781 15.371094 L 24.675781 3.238281 C 24.675781 1.714844 23.429688 0.46875 21.90625 0.46875 Z M 14.949219 3.265625 C 14.683594 3.261719 14.476562 3.46875 14.46875 3.734375 C 14.460938 3.996094 14.671875 4.203125 14.933594 4.210938 C 14.941406 4.210938 14.949219 4.210938 14.949219 4.210938 L 17.265625 4.210938 C 17.527344 4.21875 17.738281 4.011719 17.746094 3.746094 C 17.753906 3.484375 17.542969 3.273438 17.28125 3.265625 C 17.273438 3.265625 17.265625 3.265625 17.265625 3.265625 Z M 10.746094 7.226562 C 10.484375 7.226562 10.273438 7.4375 10.273438 7.699219 L 10.273438 10.789062 C 10.265625 11.050781 10.476562 11.261719 10.738281 11.269531 C 11.003906 11.277344 11.210938 11.066406 11.21875 10.804688 C 11.21875 10.796875 11.21875 10.789062 11.21875 10.789062 L 11.21875 8.171875 L 13.835938 8.171875 C 14.101562 8.179688 14.308594 7.96875 14.316406 7.707031 C 14.324219 7.445312 14.113281 7.234375 13.851562 7.226562 C 13.84375 7.226562 13.835938 7.226562 13.828125 7.226562 Z M 18.375 7.226562 C 18.113281 7.21875 17.902344 7.429688 17.894531 7.691406 C 17.886719 7.953125 18.097656 8.164062 18.359375 8.171875 C 18.367188 8.171875 18.375 8.171875 18.382812 8.171875 L 21 8.171875 L 21 10.789062 C 20.992188 11.050781 21.203125 11.261719 21.464844 11.269531 C 21.726562 11.277344 21.9375 11.066406 21.945312 10.804688 C 21.945312 10.796875 21.945312 10.789062 21.945312 10.789062 L 21.945312 7.699219 C 21.945312 7.4375 21.734375 7.226562 21.472656 7.226562 Z M 12.96875 9.183594 C 12.601562 9.183594 12.292969 9.492188 12.292969 9.859375 L 12.292969 11.578125 C 12.292969 11.945312 12.601562 12.253906 12.96875 12.253906 L 14.683594 12.253906 C 15.050781 12.253906 15.359375 11.945312 15.359375 11.578125 L 15.359375 9.859375 C 15.359375 9.492188 15.050781 9.183594 14.683594 9.183594 Z M 17.445312 9.183594 C 17.078125 9.183594 16.769531 9.492188 16.769531 9.859375 L 16.769531 11.578125 C 16.769531 11.945312 17.078125 12.253906 17.445312 12.253906 L 19.164062 12.253906 C 19.53125 12.253906 19.835938 11.945312 19.835938 11.578125 L 19.835938 9.859375 C 19.835938 9.492188 19.53125 9.183594 19.164062 9.183594 Z M 13.230469 10.128906 L 14.414062 10.128906 L 14.414062 11.316406 L 13.230469 11.316406 Z M 17.714844 10.128906 L 18.898438 10.128906 L 18.898438 11.316406 L 17.714844 11.316406 Z M 11.578125 12.792969 C 11.316406 12.785156 11.109375 12.996094 11.101562 13.257812 C 11.09375 13.519531 11.300781 13.730469 11.566406 13.738281 C 11.574219 13.738281 11.578125 13.738281 11.578125 13.738281 L 20.632812 13.738281 C 20.894531 13.746094 21.105469 13.535156 21.113281 13.273438 C 21.121094 13.011719 20.910156 12.800781 20.648438 12.792969 C 20.640625 12.792969 20.632812 12.792969 20.632812 12.792969 Z M 12.96875 14.398438 C 12.601562 14.398438 12.292969 14.703125 12.292969 15.074219 L 12.292969 16.789062 C 12.292969 17.15625 12.601562 17.464844 12.96875 17.464844 L 14.683594 17.464844 C 15.050781 17.464844 15.359375 17.15625 15.359375 16.789062 L 15.359375 15.074219 C 15.359375 14.703125 15.050781 14.398438 14.683594 14.398438 Z M 17.550781 14.398438 C 17.183594 14.398438 16.875 14.703125 16.875 15.074219 L 16.875 16.789062 C 16.867188 17.050781 17.078125 17.261719 17.339844 17.269531 C 17.601562 17.277344 17.8125 17.066406 17.820312 16.804688 C 17.820312 16.796875 17.820312 16.789062 17.820312 16.78125 L 17.820312 15.335938 L 19.265625 15.335938 C 19.53125 15.34375 19.738281 15.132812 19.746094 14.871094 C 19.753906 14.609375 19.546875 14.398438 19.28125 14.390625 C 19.273438 14.390625 19.265625 14.390625 19.261719 14.390625 L 17.550781 14.390625 Z M 10.738281 15.265625 C 10.476562 15.273438 10.273438 15.484375 10.273438 15.746094 L 10.273438 18.835938 C 10.273438 19.101562 10.484375 19.308594 10.746094 19.308594 L 13.835938 19.308594 C 14.101562 19.316406 14.308594 19.109375 14.316406 18.84375 C 14.324219 18.582031 14.113281 18.371094 13.851562 18.363281 C 13.84375 18.363281 13.835938 18.363281 13.828125 18.363281 L 11.210938 18.363281 L 11.210938 15.746094 C 11.210938 15.484375 11.011719 15.273438 10.746094 15.265625 C 10.753906 15.265625 10.746094 15.265625 10.738281 15.265625 Z M 13.230469 15.34375 L 14.414062 15.34375 L 14.414062 16.527344 L 13.230469 16.527344 Z M 24.628906 16.144531 C 24.367188 16.152344 24.164062 16.371094 24.171875 16.632812 C 24.179688 16.773438 24.246094 16.910156 24.359375 16.992188 C 24.359375 16.992188 26.664062 18.753906 27.871094 19.414062 C 27.921875 19.445312 28.175781 19.765625 28.351562 20.269531 C 28.523438 20.773438 28.671875 21.425781 28.785156 22.0625 C 29.011719 23.328125 29.101562 24.53125 29.101562 24.53125 L 29.109375 24.597656 L 29.902344 26.628906 C 29.992188 26.984375 29.859375 27.351562 29.476562 27.746094 C 29.085938 28.152344 28.460938 28.527344 27.773438 28.765625 C 27.089844 29.007812 26.347656 29.105469 25.738281 29.015625 C 25.140625 28.925781 24.699219 28.675781 24.425781 28.21875 C 24.34375 27.753906 24.238281 27.019531 23.242188 26.277344 C 23.03125 26.121094 22.738281 26.15625 22.582031 26.367188 C 22.425781 26.578125 22.460938 26.871094 22.671875 27.027344 C 22.671875 27.027344 22.679688 27.035156 22.679688 27.035156 C 23.574219 27.703125 23.421875 27.925781 23.542969 28.535156 L 23.558594 28.609375 L 23.59375 28.675781 C 24.03125 29.425781 24.796875 29.824219 25.605469 29.945312 C 26.414062 30.066406 27.285156 29.929688 28.085938 29.652344 C 28.890625 29.375 29.632812 28.949219 30.15625 28.398438 C 30.683594 27.851562 31.019531 27.125 30.824219 26.382812 L 30.816406 26.351562 L 30.039062 24.371094 C 30.03125 24.296875 29.949219 23.171875 29.722656 21.890625 C 29.601562 21.230469 29.453125 20.539062 29.25 19.953125 C 29.046875 19.371094 28.835938 18.859375 28.335938 18.582031 C 27.316406 18.019531 24.945312 16.234375 24.945312 16.234375 C 24.847656 16.175781 24.742188 16.136719 24.628906 16.144531 Z M 20.773438 16.632812 C 20.398438 16.632812 20.015625 16.773438 19.734375 17.058594 C 19.164062 17.636719 19.246094 18.523438 19.695312 19.101562 L 21.277344 21.164062 C 21.585938 21.710938 21.421875 26.015625 25.320312 26.015625 C 25.582031 26.023438 25.792969 25.8125 25.800781 25.550781 C 25.808594 25.289062 25.597656 25.078125 25.335938 25.070312 C 25.328125 25.070312 25.320312 25.070312 25.3125 25.070312 C 22.027344 25.070312 22.980469 22.242188 22.078125 20.683594 C 22.074219 20.660156 22.058594 20.644531 22.042969 20.628906 L 20.421875 18.53125 C 20.191406 18.230469 20.167969 17.945312 20.378906 17.734375 C 20.59375 17.515625 20.917969 17.515625 21.128906 17.734375 L 23.40625 20.007812 C 23.476562 20.074219 23.558594 20.121094 23.648438 20.136719 C 23.648438 20.136719 25.261719 20.523438 25.785156 21.433594 C 25.90625 21.664062 26.183594 21.761719 26.414062 21.640625 C 26.648438 21.523438 26.746094 21.246094 26.625 21.011719 C 26.617188 20.996094 26.609375 20.984375 26.59375 20.96875 C 25.824219 19.625 24.238281 19.308594 23.984375 19.265625 L 21.789062 17.066406 C 21.53125 16.773438 21.15625 16.632812 20.773438 16.632812 Z M 17.496094 18.363281 C 17.234375 18.378906 17.039062 18.605469 17.054688 18.867188 C 17.070312 19.121094 17.289062 19.316406 17.542969 19.308594 L 18.5625 19.308594 C 18.824219 19.316406 19.035156 19.109375 19.042969 18.84375 C 19.050781 18.582031 18.839844 18.371094 18.578125 18.363281 C 18.570312 18.363281 18.5625 18.363281 18.554688 18.363281 L 17.535156 18.363281 C 17.527344 18.363281 17.511719 18.363281 17.496094 18.363281 Z M 16.109375 24.550781 C 15.554688 24.550781 15.097656 25.003906 15.097656 25.566406 C 15.097656 26.121094 15.546875 26.578125 16.109375 26.578125 C 16.664062 26.578125 17.121094 26.128906 17.121094 25.566406 C 17.113281 25.003906 16.664062 24.550781 16.109375 24.550781 Z M 16.109375 24.550781 "></path></g></svg> 