<?xml version="1.0" encoding="UTF-8"?> <svg xmlns="http://www.w3.org/2000/svg" xmlns:xlink="http://www.w3.org/1999/xlink" width="36pt" height="30pt" viewBox="0 0 36 30" version="1.1"><g id="surface1"><path style=" stroke:none;fill-rule:nonzero;fill:rgb(25.098039%,76.862745%,100%);fill-opacity:1;" d="M 30.367188 8.851562 L 22.199219 8.851562 L 22.199219 2.039062 C 22.199219 0.914062 21.285156 0 20.160156 0 L 6.539062 0 C 5.414062 0 4.5 0.914062 4.5 2.039062 L 4.5 27.90625 C 4.5 29.03125 5.414062 29.949219 6.539062 29.949219 L 20.152344 29.949219 C 21.277344 29.949219 22.191406 29.03125 22.191406 27.90625 L 22.191406 19.058594 L 23.828125 20.28125 C 23.949219 20.371094 24.089844 20.414062 24.234375 20.414062 L 30.359375 20.414062 C 31.484375 20.414062 32.398438 19.5 32.398438 18.375 L 32.398438 10.890625 C 32.40625 9.765625 31.492188 8.851562 30.367188 8.851562 Z M 20.152344 28.589844 L 6.539062 28.589844 C 6.164062 28.589844 5.859375 28.28125 5.859375 27.90625 L 5.859375 2.039062 C 5.859375 1.664062 6.164062 1.359375 6.539062 1.359375 L 20.152344 1.359375 C 20.527344 1.359375 20.835938 1.664062 20.835938 2.039062 L 20.835938 8.851562 L 12.667969 8.851562 C 11.542969 8.851562 10.628906 9.765625 10.628906 10.890625 L 10.628906 18.375 C 10.628906 19.5 11.542969 20.414062 12.667969 20.414062 L 18.796875 20.414062 C 18.945312 20.414062 19.085938 20.371094 19.199219 20.28125 L 20.835938 19.058594 L 20.835938 27.90625 C 20.835938 28.28125 20.527344 28.589844 20.152344 28.589844 Z M 31.042969 18.375 C 31.042969 18.75 30.734375 19.058594 30.359375 19.058594 L 24.457031 19.058594 L 21.914062 17.152344 C 21.675781 16.972656 21.335938 16.972656 21.097656 17.152344 L 18.554688 19.058594 L 12.652344 19.058594 C 12.277344 19.058594 11.96875 18.75 11.96875 18.375 L 11.96875 10.890625 C 11.96875 10.515625 12.277344 10.207031 12.652344 10.207031 L 30.351562 10.207031 C 30.726562 10.207031 31.035156 10.515625 31.035156 10.890625 L 31.035156 18.375 Z M 31.042969 18.375 "></path><path style=" stroke:none;fill-rule:nonzero;fill:rgb(25.098039%,76.862745%,100%);fill-opacity:1;" d="M 26.28125 11.574219 C 24.78125 11.574219 23.558594 12.796875 23.558594 14.296875 C 23.558594 15.796875 24.78125 17.015625 26.28125 17.015625 C 27.78125 17.015625 29.003906 15.796875 29.003906 14.296875 C 29.003906 12.796875 27.789062 11.574219 26.28125 11.574219 Z M 26.28125 15.652344 C 25.53125 15.652344 24.914062 15.046875 24.914062 14.289062 C 24.914062 13.539062 25.523438 12.921875 26.28125 12.921875 C 27.03125 12.921875 27.644531 13.53125 27.644531 14.289062 C 27.644531 15.046875 27.03125 15.652344 26.28125 15.652344 Z M 26.28125 15.652344 "></path><path style=" stroke:none;fill-rule:nonzero;fill:rgb(25.098039%,76.862745%,100%);fill-opacity:1;" d="M 16.753906 11.574219 C 15.253906 11.574219 14.03125 12.796875 14.03125 14.296875 C 14.03125 15.796875 15.253906 17.015625 16.753906 17.015625 C 18.253906 17.015625 19.476562 15.796875 19.476562 14.296875 C 19.476562 12.796875 18.253906 11.574219 16.753906 11.574219 Z M 16.753906 15.652344 C 16.003906 15.652344 15.390625 15.046875 15.390625 14.289062 C 15.390625 13.539062 15.996094 12.921875 16.753906 12.921875 C 17.511719 12.921875 18.121094 13.53125 18.121094 14.289062 C 18.113281 15.046875 17.503906 15.652344 16.753906 15.652344 Z M 16.753906 15.652344 "></path><path style=" stroke:none;fill-rule:nonzero;fill:rgb(25.098039%,76.862745%,100%);fill-opacity:1;" d="M 15.390625 25.867188 L 11.300781 25.867188 C 10.925781 25.867188 10.621094 26.175781 10.621094 26.550781 C 10.621094 26.925781 10.925781 27.234375 11.300781 27.234375 L 15.390625 27.234375 C 15.765625 27.234375 16.074219 26.925781 16.074219 26.550781 C 16.074219 26.167969 15.765625 25.867188 15.390625 25.867188 Z M 15.390625 25.867188 "></path><path style=" stroke:none;fill-rule:nonzero;fill:rgb(25.098039%,76.862745%,100%);fill-opacity:1;" d="M 14.03125 2.722656 C 14.03125 3.097656 13.726562 3.40625 13.351562 3.40625 C 12.972656 3.40625 12.667969 3.097656 12.667969 2.722656 C 12.667969 2.34375 12.972656 2.039062 13.351562 2.039062 C 13.726562 2.039062 14.03125 2.34375 14.03125 2.722656 Z M 14.03125 2.722656 "></path></g></svg> 