<?xml version="1.0" encoding="UTF-8"?> <!-- Generator: Adobe Illustrator 23.0.3, SVG Export Plug-In . SVG Version: 6.00 Build 0) --> <svg xmlns="http://www.w3.org/2000/svg" xmlns:xlink="http://www.w3.org/1999/xlink" version="1.1" id="Layer_1" x="0px" y="0px" viewBox="0 0 620 597" style="enable-background:new 0 0 620 597;" xml:space="preserve"> <style type="text/css"> .st0{opacity:0.95;fill:url(#SVGID_1_);} .st1{fill:#96BFE6;} .st2{opacity:0.95;fill:url(#SVGID_2_);} .st3{fill:#4598E6;} .st4{opacity:0.95;fill:url(#SVGID_3_);} .st5{fill:#163342;} .st6{fill:#EDDAD3;} .st7{fill:#D6C5BE;} .st8{fill:#EEA886;} .st9{fill:#FAE6DE;} .st10{fill:#A77860;} .st11{fill:#EEA987;} .st12{fill:#323657;} .st13{fill:#706865;} .st14{fill:#B59074;} .st15{fill:#515269;} .st16{fill:#6A6B8A;} .st17{fill:#51588F;} .st18{fill:#34395C;} .st19{fill:#EDDCC5;} .st20{fill:#494F80;} .st21{fill:#403429;} .st22{fill:#5C9AFF;} .st23{fill:#406CB3;} .st24{fill:#918783;} .st25{fill:#5E5854;} .st26{fill:#BFB2AC;} .st27{fill:#E2D2CA;} .st28{fill:#0E2D3D;} .st29{fill:#1D3B54;} .st30{fill:#141954;} .st31{fill:#EB4747;} .st32{fill:#FFFFFF;} .st33{fill:#D8D5E0;} .st34{fill:#B4B1BA;} .st35{fill:#EAE6F2;} .st36{fill:url(#SVGID_4_);} .st37{fill:url(#SVGID_5_);} .st38{fill:url(#SVGID_6_);} .st39{fill:url(#SVGID_7_);} .st40{fill:url(#SVGID_8_);} .st41{fill:url(#SVGID_9_);} .st42{fill:url(#SVGID_10_);} .st43{fill:url(#SVGID_11_);} .st44{fill:url(#SVGID_12_);} .st45{fill:#DAE5E8;} .st46{fill:url(#SVGID_13_);} .st47{fill:url(#SVGID_14_);} .st48{fill:url(#SVGID_15_);} .st49{fill:url(#SVGID_16_);} .st50{opacity:0.95;} .st51{fill:url(#SVGID_17_);} .st52{fill:url(#SVGID_18_);} .st53{fill:url(#SVGID_19_);} .st54{fill:url(#SVGID_20_);} .st55{fill:url(#SVGID_21_);} .st56{fill:url(#SVGID_22_);} .st57{fill:url(#SVGID_23_);} .st58{fill:url(#SVGID_24_);} .st59{fill:url(#SVGID_25_);} .st60{fill:url(#SVGID_26_);} .st61{fill:url(#SVGID_27_);} .st62{fill:url(#SVGID_28_);} </style> <g> <linearGradient id="SVGID_1_" gradientUnits="userSpaceOnUse" x1="247.3764" y1="436.0835" x2="232.922" y2="174.0951"> <stop offset="0" style="stop-color:#D1D7E0"></stop> <stop offset="1" style="stop-color:#EBEBFF"></stop> </linearGradient> <path class="st0" d="M269.97,290.95h-71.63c-32.4,0-58.67-26.27-58.67-58.67v-71.64c0-32.4,26.27-58.67,58.67-58.67h71.64 c32.4,0,58.67,26.27,58.67,58.67v71.63C328.64,264.68,302.37,290.95,269.97,290.95z"></path> <rect x="190.41" y="247.93" class="st1" width="87.49" height="4.32"></rect> <rect x="202.8" y="261.55" class="st1" width="62.71" height="4.32"></rect> <linearGradient id="SVGID_2_" gradientUnits="userSpaceOnUse" x1="489.0439" y1="515.6601" x2="489.0439" y2="240.2996"> <stop offset="0" style="stop-color:#D1D7E0"></stop> <stop offset="1" style="stop-color:#EBEBFF"></stop> </linearGradient> <path class="st2" d="M549.24,471.09h-120.4c-38.17,0-69.11-30.94-69.11-69.11V236.63c0-38.17,30.94-69.11,69.11-69.11h120.4 c38.17,0,69.11,30.94,69.11,69.11v165.34C618.36,440.15,587.41,471.09,549.24,471.09z"></path> <g> <rect x="476.99" y="346.61" class="st3" width="20.51" height="3.8"></rect> </g> <g> <rect x="399.12" y="381.42" class="st1" width="119.36" height="7.36"></rect> <rect x="399.12" y="416.73" class="st1" width="96.52" height="7.36"></rect> <rect x="399.12" y="399.07" class="st1" width="56.58" height="7.36"></rect> </g> <g> <path class="st3" d="M549.7,197.79v3.71h21.87v20.53h3.71v-24.24H549.7z M401.17,222.03h3.71v-20.53h21.87v-3.71h-25.59V222.03z M571.58,327.96v20.54H549.7v3.71h25.59v-24.25H571.58z M404.89,327.96h-3.71v24.25h25.59v-3.71h-21.87V327.96z"></path> </g> <g> <g> <path class="st3" d="M563.71,424.63c-12.06,0-21.87-9.81-21.87-21.87s9.81-21.87,21.87-21.87s21.87,9.81,21.87,21.87 S575.77,424.63,563.71,424.63z M563.71,385.11c-9.73,0-17.64,7.91-17.64,17.64c0,9.73,7.91,17.64,17.64,17.64 c9.73,0,17.64-7.91,17.64-17.64C581.35,393.02,573.44,385.11,563.71,385.11z"></path> </g> <g> <polygon class="st3" points="562.32,411.36 552.38,401.42 555.37,398.43 562.32,405.37 572.05,395.64 575.04,398.63 "></polygon> </g> </g> <linearGradient id="SVGID_3_" gradientUnits="userSpaceOnUse" x1="416.6229" y1="175.3976" x2="416.6229" y2="61.977"> <stop offset="0" style="stop-color:#D1D7E0"></stop> <stop offset="1" style="stop-color:#EBEBFF"></stop> </linearGradient> <path class="st4" d="M437.81,157.04h-42.37c-26.64,0-48.23-21.59-48.23-48.23V80.23C347.2,53.59,368.8,32,395.44,32h42.37 c26.64,0,48.23,21.59,48.23,48.23v28.58C486.04,135.44,464.45,157.04,437.81,157.04z"></path> <g> <rect x="410.59" y="133.39" class="st3" width="11.01" height="2.04"></rect> </g> <g> <path class="st3" d="M449.62,54.63v1.99h11.74v11.02h1.99V54.63H449.62z M369.89,67.64h1.99V56.62h11.74v-1.99h-13.74V67.64z M461.36,124.5v11.02h-11.74v1.99h13.74V124.5H461.36z M371.88,124.5h-1.99v13.02h13.74v-1.99h-11.74V124.5z"></path> </g> <g> <rect x="226.8" y="226.81" class="st3" width="14.71" height="2.72"></rect> </g> <g> <path class="st3" d="M278.23,121.61v2.66h15.68v14.72h2.66v-17.38H278.23z M171.73,138.99h2.66v-14.72h15.68v-2.66h-18.35V138.99z M293.92,214.94v14.72h-15.68v2.66h18.35v-17.39H293.92z M174.39,214.94h-2.66v17.39h18.35v-2.66h-15.68V214.94z"></path> </g> <g> <g> <path class="st5" d="M237.35,69.58c0,0-9.26-5.94-17.62,4.62c-8.35,10.57-5.35,20.72-3.6,30.21c1.73,9.41,10.16,30.93,6.58,40.42 c-3.58,9.48,0.99,14.42,0.99,14.42s28.73,7.36,25.38-35.86C245.72,80.18,237.35,69.58,237.35,69.58z"></path> </g> <g> <path class="st3" d="M254.84,165.35c0,0,8.41,22.29,16.36,43.07h21.56c-3.29-10.17-6.64-21.01-7-23 c-0.7-3.87-1.02-15.34-5.44-23.38c-4.42-8.04-14.94-11.23-14.94-11.23C248,151.59,254.84,165.35,254.84,165.35z"></path> </g> <g> <path class="st6" d="M200.8,187.12c0,0,3.36,10.93,6.6,21.3h70.34c0.3-0.91,0.66-1.87,1.1-2.89c5.15-11.92,7.65-22.08,5.15-28.85 c-2.5-6.77-16.78-25.32-20.46-26.05c-3.68-0.74-14.27-5.74-14.27-5.74c-6.92-1.03-16.77-0.52-20.16,0.66 c-3.38,1.18-22.24,3.09-29.15,8.46C191.98,160.21,200.8,187.12,200.8,187.12z"></path> </g> <g> <path class="st7" d="M252.64,168.52l6.44-7.54l-5.59-19.85C253.49,141.12,251.61,152.18,252.64,168.52z"></path> </g> <g> <path class="st8" d="M254.31,132.66c0,0-2.11,19.44-1.67,25.77c0,0-11.01,11.04-23.54-12.88c0,0,5.27-9.86,1.3-23.29 C226.44,108.83,254.31,132.66,254.31,132.66z"></path> </g> <g> <polygon class="st8" points="252.64,158.43 252.64,168.52 239.97,159.05 "></polygon> </g> <g> <polygon class="st7" points="252.64,168.52 247.38,162 229.65,144.34 223.92,149.86 "></polygon> </g> <g> <path class="st3" d="M193.41,169.28c0,0,3.04,11.27,11.26,39.14h36.61c1.14-14.66,1.77-26.35,1.51-29.88 c-0.71-9.94-15.59-32.51-15.59-32.51s-9.27,1.12-19.22,3.28C196.61,151.77,193.41,169.28,193.41,169.28z"></path> </g> <g> <path class="st3" d="M257.12,148.38c9.07,10.85,12.29,34.69,12.8,60.04h8.14c9.44-19.76,6.92-28.72,6.92-28.72 c-4.93-16.89-19.61-28.89-19.61-28.89L257.12,148.38z"></path> </g> <g> <polygon class="st9" points="259.08,160.98 267.2,163.22 253.49,141.12 "></polygon> </g> <g> <polygon class="st9" points="247.38,162 239.97,171.72 224.83,146.34 229.65,144.34 "></polygon> </g> <g> <path class="st10" d="M253.88,136.94l-0.39,3.83c0,0-8.73,1.71-20.18-12.26C233.31,128.51,241.43,138.41,253.88,136.94z"></path> </g> <g> <path class="st11" d="M251.66,137.23c3.45-0.13,13.07-1.25,17.82-23.43c5.8-27.09-7.02-41.14-17.99-43.74 c-10.98-2.6-21.1,1.21-26.72,15.37c0,0-4.11,11.04,2.56,30.71C233.99,135.8,247.96,137.36,251.66,137.23z"></path> </g> <g> <path class="st5" d="M242.85,87.62c0,0,14.74,0.92,28.44,21.5c0,0,6.41-24.77-10.35-36.07c-16.76-11.3-28.5-1.59-32.59,3.34 c0,0-5.87,1.35-6.05,12.48c-0.18,11.13-7.67,27.92,8.75,35.89c0,0-1.56-12.7-0.12-15.61C232.38,106.25,237.4,108.21,242.85,87.62 z"></path> </g> <g> <path class="st11" d="M231.74,104.22c-0.74-1.93-2.77-2.7-3.88-0.64c-1.12,2.07,0.21,10.08,3.19,10.95 C234.02,115.41,233.25,108.12,231.74,104.22z"></path> </g> <path class="st3" d="M179.21,208.42h23.96c2.52-6.17,4.86-11.64,6.43-15.58c5.19-13.06,25.84-37.61,12.68-45.8 c0,0-17.25-1.06-25.89,9c-8.65,10.07-8.18,22.01-10.38,27.2C184.38,187.1,181.2,200.34,179.21,208.42z"></path> </g> <g> <rect x="265.39" y="392.88" transform="matrix(1 -7.577677e-03 7.577677e-03 1 -2.9939 2.2997)" class="st12" width="73.18" height="6.7"></rect> <rect x="310.26" y="361.79" transform="matrix(0.2925 -0.9563 0.9563 0.2925 -104.9113 588.1526)" class="st12" width="69.48" height="6.36"></rect> <g> <rect x="471.71" y="408.05" class="st13" width="5.71" height="166.02"></rect> </g> <g> <rect x="258.56" y="398.05" transform="matrix(-1 -1.224647e-16 1.224647e-16 -1 768.0879 806.0987)" class="st14" width="250.97" height="10"></rect> </g> <g> <rect x="287.58" y="408.05" transform="matrix(-1 -1.224647e-16 1.224647e-16 -1 580.8668 982.1196)" class="st13" width="5.71" height="166.02"></rect> </g> <path class="st8" d="M263.24,385.83c0,0,3.78,0.76,5.59,0.82c1.81,0.06,10.18-3.74,12.86-3.38c2.68,0.36,20.15,7.79,20.94,8.33 c0.79,0.54-0.37,1.74-0.37,1.74l-40.11,0.48L263.24,385.83z"></path> <g> <path class="st15" d="M194.61,554.73l-2.57,5.57c0,0-10.84-4.04-10.89-4.18c-0.05-0.14,2.98-7.73,2.98-7.73L194.61,554.73z"></path> </g> <g> <path class="st16" d="M287.43,554.61l3,8.76c0,0-11.89,2.62-13.62,2.48c-0.15-0.01-2.25-9.93-2.25-9.93L287.43,554.61z"></path> </g> <path class="st17" d="M275.48,563.3c0,0,8.31-2.26,8.56-2.62c0.25-0.36,3.3-2.42,4.87-2.16c1.57,0.26,1.71,2.14,3.28,2.53 c1.57,0.38,13.72,4.27,15.4,5.26c1.68,0.99,9.72-1.93,11.27,0.15c1.55,2.08,3.05,7.55-9.58,9.44 c-12.63,1.89-26.14,7.53-29.16,6.76C277.09,581.9,275.02,566.67,275.48,563.3z"></path> <path class="st17" d="M180.29,554.63c0,0,7.7,3.29,8.11,3.16c0.41-0.13,3.97,0.14,5.01,1.29c1.04,1.15,0.02,2.67,0.98,3.91 c0.97,1.24,6.46,8.51,8.07,10.19c1.31,1.37,8.52,2.65,10.84,5.07c1.74,1.82-0.31,9.1-12.57,5.62 c-11.94-3.39-26.73-9.26-28.58-11.67C170.31,569.8,177.91,556.93,180.29,554.63z"></path> <g> <path class="st18" d="M188.19,445.4c0,0,33.88,15.07,41.06,20.22c7.18,5.15,22.9,14.64,23.42,16.96 c0.52,2.32,3.64,0.06-1.94,11.66c-5.58,11.6-31.93,39.51-34.41,42.55c-2.58,3.16-20.86,22.12-20.86,22.12l-13.75-10.36 c0,0,26.44-38.88,30.27-44.6c3.83-5.72,5.55-6.56,3.29-9.09c-2.26-2.53-11.3-2.49-57.84-21.76c-4.65-1.93-17.62-6.39-19.33-12.63 c-3.09-11.28-0.44-25.58,12.07-31.87C162.68,422.31,188.19,445.4,188.19,445.4z"></path> </g> <g> <path class="st8" d="M204.3,336.33c-0.3,0.26-0.62,0.84-0.96,1.63c-0.49,1.13-1,2.71-1.5,4.45c-1.54,5.37-2.93,12.27-2.93,12.27 s-19.39-16.16-16.65-17.17c2.74-1.02,4.77-5.74,4.77-5.74S206.35,334.52,204.3,336.33z"></path> </g> <g> <path class="st19" d="M203.09,392.14c0,0-15.74,30.09-16.42,41.38c-0.68,11.28-32.86-3.55-32.86-3.55L203.09,392.14z"></path> </g> <g> <path class="st12" d="M186.74,432.8l0.36,2.81l0.56,3.7c0,0,0,0,0,0s0,0-0.01,0c-0.48-0.03-31.42-1.98-33.66-1.41 c-2.26,0.58,4.26-7.3,4.26-7.3L186.74,432.8z"></path> </g> <g> <path class="st20" d="M187.66,439.3c0,0,35,8.24,43.66,11c8.65,2.77,23.55,7.63,27.55,9.92c2.13,1.21,5.37,3.03,9.26,15.68 c4.41,14.34,14.47,54.67,16.75,60.95c1.43,3.94,5.56,19.46,5.56,19.46l-17.89,3.1c0,0-21.3-42.89-23.03-54.32 c-2.91-19.24-10.37-19.35-13.38-21.1c-3.01-1.75-17.52,1.54-69.15-2.58c-5.16-0.41-19.26-0.67-22.92-6.23 c-6.6-10.06-13.25-21.48-3.01-31.6C151.3,433.47,187.66,439.3,187.66,439.3z"></path> </g> <g> <path class="st8" d="M211.14,295.82c0,0,6.06,10.46,4.68,13.31c-1.38,2.85,6.33,9.75,5.06,11.21c-1.27,1.46-3.87,3.23-3.83,3.66 c0.04,0.43-2.24,14.06-5.21,14.37c-2.97,0.3-23.3-0.75-24.98-7.11c-1.69-6.36-6.64-20.28-7.81-22.87 C177.88,305.8,189.59,285.83,211.14,295.82z"></path> </g> <g> <path class="st21" d="M186.08,293.8c-1.69,1.26-3.06,2.59-4.15,3.94c-1.33,0.63-9.19,4.53-7.56,8.75 c2.2,5.68,11.09,20.89,11.84,22.48c0.1,0.21,0.1-0.19,0.03-1.04c0.55-5.37,7.16-11.39,7.16-11.39l3.53-1.59 c-1.84-3.42-1.11-6.62-1.11-6.62c3.99-4.28,17.26-8.89,17.26-8.89C211.17,280.51,194.97,287.2,186.08,293.8z"></path> </g> <g> <path class="st8" d="M192.09,312.09c-0.94-1.43-5.89-1.2-5.17,3.03c0.72,4.22,6.79,7.61,8.12,5.73 C196.36,318.96,193.09,313.61,192.09,312.09z"></path> </g> <path class="st22" d="M182.26,337.51c0,0-24.56,14.31-30.11,39.31c-5.54,24.99-15.57,68.88-15.74,74.08c0,0,33.24-16,51.24-11.59 c0,0,11.34-40.73,17.3-50.35c5.96-9.62-2.9-32.23-2.9-32.23S193.58,343.15,182.26,337.51z"></path> <path class="st10" d="M203.35,337.96c-0.49,1.13-1,2.71-1.5,4.45c-2.9-1.21-8.44-6.32-8.61-6.47 C195.55,336.83,203.35,337.96,203.35,337.96z"></path> <g> <path class="st22" d="M191.83,350.53c0,0,2.59,2.97,6.21,9.25c4.1,7.12,7.42,14.15,8.31,15.73c1.81,3.21,8.19,6.52,11.04,7.74 c2.62,1.12,47.81,2.08,48.36,2.03c0.55-0.05-0.65,13.72-0.65,13.72s-62.38,1.78-65.1-0.71c-2.72-2.49-10.6-11.88-13.9-16.55 c-3.15-4.44-7.98-11.73-10.54-14.88c-2.86-3.51-8.87-15.53-1.23-21.52C184.08,337.69,189.48,347.01,191.83,350.53z"></path> </g> <path class="st23" d="M178.63,371.02c0,0,4.81,14.65,9.03,21.12c4.21,6.48,10.6,12.91,10.6,12.91l2.34-6.83 C200.6,398.22,182.83,376.87,178.63,371.02z"></path> <g> <g> <polygon class="st24" points="100.07,579.52 101.56,583.71 164.6,564.18 161.58,555.68 "></polygon> </g> </g> <g> <g> <rect x="159.59" y="492.66" class="st24" width="7.17" height="68.54"></rect> </g> </g> <g> <g> <rect x="142.05" y="489.01" class="st25" width="42.26" height="4.04"></rect> </g> </g> <g> <g> <polygon class="st24" points="226.84,579.52 225.35,583.71 162.31,564.18 165.08,555.15 "></polygon> </g> </g> <g> <g> <polygon class="st24" points="182.43,583.27 182.43,588.15 162.31,564.18 165.08,555.15 "></polygon> </g> </g> <g> <g> <path class="st26" d="M232.73,585.36c0,3.25-2.64,5.89-5.89,5.89c-3.25,0-5.89-2.64-5.89-5.89s2.64-5.89,5.89-5.89 C230.1,579.46,232.73,582.1,232.73,585.36z"></path> </g> </g> <g> <g> <path class="st26" d="M182.93,585.36c0,3.25-2.64,5.89-5.89,5.89c-3.25,0-5.89-2.64-5.89-5.89s2.64-5.89,5.89-5.89 C180.29,579.46,182.93,582.1,182.93,585.36z"></path> </g> </g> <g> <g> <path class="st26" d="M105.96,585.36c0,3.25-2.64,5.89-5.89,5.89c-3.25,0-5.89-2.64-5.89-5.89s2.64-5.89,5.89-5.89 C103.32,579.46,105.96,582.1,105.96,585.36z"></path> </g> </g> <g> <path class="st27" d="M206.6,489.01h-86.3c-3.82,0-6.91-3.09-6.91-6.91v-1.48c0-3.82,3.09-6.91,6.91-6.91h86.3 c3.82,0,6.91,3.09,6.91,6.91v1.48C213.51,485.92,210.42,489.01,206.6,489.01z"></path> </g> <g> <path class="st27" d="M120.81,463h-5.44c-14.01,0-25.36-11.36-25.36-25.36v-44.9c0-14.01,11.36-25.36,25.36-25.36h5.44 c14.01,0,25.36,11.36,25.36,25.36v44.9C146.18,451.65,134.82,463,120.81,463z"></path> </g> <g> <path class="st27" d="M146.82,485.21c-10.18,0-18.43-3.42-24.54-10.16c-13.8-15.24-11.32-42.02-11.21-43.16 c0.21-2.11,2.09-3.65,4.2-3.44c2.11,0.21,3.65,2.09,3.44,4.2c-0.03,0.31-2.23,24.59,9.27,37.26c4.65,5.13,10.81,7.62,18.83,7.62 c2.12,0,3.84,1.72,3.84,3.84C150.66,483.49,148.94,485.21,146.82,485.21z"></path> </g> </g> <g> <g> <g> <g> <path class="st28" d="M345.64,243.36c0,0,11.83,5.79,8.9,21.52c-2.92,15.74-4.22,17.86-0.95,24.01 c3.27,6.15,7.13,32.38,4.19,37.36c-2.94,4.97-36.44-21.85-41.08-44.36c-4.64-22.5,2.94-32.51,5.63-36.24 C325.01,241.92,335.2,238.06,345.64,243.36z"></path> </g> </g> </g> <g> <path class="st22" d="M348.92,300.17c0,0,6.02,1.22,9.4,6.2c2.35,3.46,2.54,11.15,2.88,12.6c0.34,1.45,4.83,17.84,4.83,17.84 l-12.54,8.4L348.92,300.17z"></path> </g> <g> <path class="st29" d="M395.25,580.44c0,0,8.18,11.02,7.06,12.76c-1.12,1.75-9.73,2-14.97,0c-5.24-2-5.36-14.91-7.73-20.45 c-0.99-2.32,1.13-9.18,4.12-9.68s6.23,0.96,6.23,0.96S386.86,571.85,395.25,580.44z"></path> </g> <g> <g> <path class="st8" d="M390.02,563.95c0,0,1.72,4.69,2.35,9.17c0.52,3.72,5.83,11.6,5.58,12.6c-0.25,1-6.98,1.9-9.73-0.67 c-2.74-2.57-4.51-10.05-5.11-14.53c-0.56-4.17-1.27-6.23-1.27-6.23S387.4,561.2,390.02,563.95z"></path> </g> </g> <g> <path class="st29" d="M324.02,580.62c0,0,7.89,10.83,6.77,12.58c-1.12,1.75-9.73,2-14.97,0c-5.24-2-5.36-14.91-7.73-20.45 c-0.99-2.32,1.13-9.18,4.12-9.68c2.99-0.5,6.49,1.07,6.49,1.07S315.63,572.03,324.02,580.62z"></path> </g> <g> <g> <path class="st8" d="M318.69,564.14c0,0,0.62,5.11,1.62,8.73c1,3.62,6.36,11.85,6.11,12.85c-0.25,1-6.98,1.9-9.73-0.67 c-2.74-2.57-4.86-10.02-5.11-14.53c-0.25-4.51,0.62-7.45,0.62-7.45S316.07,561.4,318.69,564.14z"></path> </g> </g> <g> <g> <path class="st8" d="M358.11,384.78c0,0,7.02,32.67,8.63,40.89c1.61,8.23,6.13,48.06,6.61,54.83c0.48,6.77,7.33,32.3,7.01,34.72 c-0.32,2.42,10.15,51.02,10.15,51.02s-3.58,2.88-7.34,0.26c-1.94-1.35-22.97-45.5-22.97-57.59c0-16.72-12.36-38.55-13.96-42.29 c-14.82-34.75-11.9-45.37-13.84-47.63c-1.94-2.26-2.1,1.39-3.23,6.39c-1.13,5-3.55,48.22-5,53.71 c-1.45,5.48-0.32,24.03-1.13,33.38c-0.81,9.35-4.35,51.67-4.35,51.67s-2.74,4.3-6.59,0.11c-0.83-0.9-6.64-47.13-6.8-58.26 c-0.16-11.13-0.33-26.48-0.65-31.29c-2.99-46.11-10.33-52.7,1.23-85.34C327.54,328.26,358.11,384.78,358.11,384.78z"></path> </g> </g> <g> <path class="st30" d="M310.95,375.65c0,0-20.01,28-11.39,87.56c0,0,47.45,6.45,72.87-7.47c0,0-10.51-61.41-14.32-70.97 C354.3,375.23,310.95,375.65,310.95,375.65z"></path> </g> <g> <polygon class="st29" points="379.39,571.78 379.39,583.31 380.89,583.31 380.89,574.4 "></polygon> </g> <g> <polygon class="st29" points="307.87,571.78 307.87,583.31 309.36,583.31 309.36,574.4 "></polygon> </g> <g> <path class="st6" d="M337.8,296.09c0,0,7.37,3.48,9.93,3.99c2.56,0.51,12.49,13.41,14.23,18.12c1.74,4.71,0,11.77-3.58,20.06 c-3.58,8.29-0.2,11.06-1.84,19.35c-1.64,8.29-3.07,25.85-2.76,30.45c0.31,4.61-41.41,5.48-50.93-2.92c0,0,9.57-14.33,10.8-16.38 c1.23-2.05,0.2-13.21-0.92-16.07c-1.13-2.87-8.62-27.24-8.62-27.24s-6.13-18.72-0.59-23.02c4.81-3.74,17.92-5.07,20.28-5.89 C326.14,295.73,332.99,295.37,337.8,296.09z"></path> </g> <g> <path class="st7" d="M340.15,312.52l4.48-5.24l-3.89-13.81C340.74,293.47,339.44,301.16,340.15,312.52z"></path> </g> <g> <path class="st8" d="M341.32,287.58c0,0-0.2,1.85-0.44,4.4c-0.1,1.13-0.22,2.4-0.32,3.72c-0.3,3.72-0.54,7.75-0.4,9.8 c0,0-7.66,7.68-16.37-8.96c0,0,3.66-6.86,0.91-16.2C321.93,271.01,341.32,287.58,341.32,287.58z"></path> </g> <g> <polygon class="st8" points="340.15,305.51 340.15,312.52 331.34,305.93 "></polygon> </g> <g> <polygon class="st7" points="340.15,312.52 336.49,307.99 324.17,295.7 320.18,299.54 "></polygon> </g> <g> <path class="st22" d="M322.45,296.88c0,0,10.34,15.7,10.84,22.61c0.49,6.91-3.84,58.6-7.32,75.21 c-3.47,16.62-28.58-1.87-28.58-1.87s16.87-27.31,10.39-49.17c-6.48-21.86-8.83-30.61-8.83-30.61s2.23-12.18,10.12-13.89 C316.01,297.66,322.45,296.88,322.45,296.88z"></path> </g> <g> <path class="st22" d="M362.64,320.3c0,0,1.87,6.6-5.4,21.2c0,0,0.12,18.68,0.32,24.51c0.2,5.83,4.33,26.82,4.33,26.82l-9.93,5.29 c-1.45,0.85-3.24-0.33-3.04-1.99c2.04-16.79,8.66-80.48-5.65-97.61l5.74,1.69C349.01,300.21,359.21,308.55,362.64,320.3z"></path> </g> <g> <polygon class="st9" points="344.63,307.28 350.27,308.83 340.74,293.47 "></polygon> </g> <g> <polygon class="st9" points="336.49,307.99 331.34,314.75 320.75,297.11 324.42,295.03 "></polygon> </g> <rect x="350.6" y="332.35" transform="matrix(0.7841 -0.6206 0.6206 0.7841 -137.2222 292.3195)" class="st31" width="1.87" height="22.07"></rect> <path class="st8" d="M343.11,350.66c0,0,1.31,0.02,2.17-0.62c1.49-1.12,2.02-3.88,4.64-3.68c2.62,0.2,3.84,8.42,3.18,9.98 s-4.3,2.33-9.68,1.26C338.04,356.53,343.11,350.66,343.11,350.66z"></path> <path class="st8" d="M349.02,346.42c0,0,3.77-1.28,8.12-2.22c3.82-0.82,8.38-1.09,8.82-0.43c0.49,0.74-3.72,1.37-7.46,2.44 c-3.44,0.98-2.62,1.34-2.62,1.34s-0.23-0.11,3.7-0.48c4.23-0.39,8.58-0.39,9.01,0.46c0.21,0.41,0.06,0.69-1.46,1.07 c0.91-0.04,1.04,0.2,1.08,0.56c0.18,1.9-5.98,3.42-8.43,4.02c1.88-0.45,3.3-0.59,2.63,0.69c-0.78,1.46-9.57,3.22-12.67,4.15 C346.35,359,349.02,346.42,349.02,346.42z"></path> <path class="st22" d="M310.54,299.44c-2.59-0.84-10.2,1.86-11.49,9.66c-1.29,7.8-1.8,16.46-3,20.66 c-1.2,4.2-4.26,22.81-1.69,24.36c2.57,1.54,7.44,2.95,14.27,2.95c7.06,0,34.41,1.23,34.41,1.23l1.72-9.72 c0,0-10.39-0.54-15.77-1.35c-4.79-0.73-11.43-2.77-19.25-3.62c0,0,1.66-11.53,2.86-14.79C313.8,325.56,322.2,303.21,310.54,299.44 z"></path> <g> <polygon class="st32" points="345.51,365.63 373.06,360.17 393.5,316.44 364.09,319.53 "></polygon> </g> <g> <g> <path class="st8" d="M376.5,352.75c0,0,1.51-1.4,2.86-3.37c1.35-1.96,5.75-9.46,5.35-9.93c-0.4-0.47-6.94-0.63-8.12,0.44 c-1.18,1.07,1.17,1.48,1.17,1.48s-3.57,0.37-3.32,1.38c0.26,1.01,2.41,0.73,2.41,0.73s-2.88,0.55-2.44,1.44 c0.44,0.89,1.82,0.88,1.82,0.88s-2.55,0.32-2.23,1.29c0.32,0.97,4.35,1.88,3.81,2.68C377.25,350.57,376.5,352.75,376.5,352.75z"></path> </g> </g> <g> <g> <g> <path class="st11" d="M343.93,245.1c0,0,17.17,5.4,7.85,35.03c-9.32,29.64-32.78-3.43-30.32-21.49 C323.91,240.59,343.93,245.1,343.93,245.1z"></path> </g> </g> </g> <g> <g> <g> <path class="st28" d="M353.53,262.4c0,0-8.53,8.37-22.81,9.42c0,0-5.49,6.43-5.91,8.96c0,0-12.74-21.72,2.92-34.74 C343.39,233.02,359.29,257.03,353.53,262.4z"></path> </g> </g> </g> <g> <g> <g> <path class="st11" d="M330.89,272.41c-0.11-2.16-1.44-7.07-4.64-5.69c-3.21,1.37,0.2,11.37,2.32,10.75 C328.57,277.47,331.15,277.51,330.89,272.41z"></path> </g> </g> </g> <path class="st10" d="M340.88,291.99c-0.1,1.13-0.22,2.4-0.32,3.72h0c-9.93-4.9-11.45-11.97-11.49-12.19 C336.13,292.65,340.88,291.99,340.88,291.99z"></path> </g> <g> <g> <g> <path class="st28" d="M485.2,146.84c0,0,20.25-2.12,27.55,17.43c7.3,19.56,14.17,25.96,15.03,36.23 c3.48,41.56,22.88,32.16,17.43,56.11c-5.46,23.95-9.24,27.58-9.24,27.58l-46.39-9.1l-47,0.15c0,0,18.39-9.18,14.29-28.74 c-4.09-19.56-14.29-51.61-8.53-73.44C454.1,151.23,473.1,148.5,485.2,146.84z"></path> </g> </g> <g> <g> <path class="st31" d="M566.22,316.89H407.27c7.67-19.68,15.21-38.04,17.36-40.29c4.57-4.76,27.03-19.66,45.89-25.62 c18.85-5.95,29.57-0.2,29.57-0.2s34.99,9.81,49.87,25.89C554.1,281.17,560.48,298.75,566.22,316.89z"></path> </g> </g> <g> <g> <path class="st8" d="M499.19,228.08c0,0-1.63,20.22,2.26,26.27c3.89,6.06-3.33,14.28-18.21,11.46 c-14.88-2.81-14.02-11.25-14.02-11.25s4.17-12.48,2.95-22.46C470.95,222.12,499.19,228.08,499.19,228.08z"></path> </g> </g> <g> <g> <path class="st8" d="M508.87,253.64c0,0-13.42,30.37-30.82,36.92c0,0-18.53-14.72-13.92-37.28 C464.14,253.28,487.65,242.43,508.87,253.64z"></path> </g> </g> <g> <g> <path class="st8" d="M487.87,158.28c0,0,26.82,3.87,22.9,43.46c-3.93,39.59-27.6,36.45-29.18,36.42 c-1.58-0.03-23.75,0.82-25.67-47.49C455.92,190.67,455.03,154.94,487.87,158.28z"></path> </g> </g> <g> <g> <path class="st28" d="M484.8,172.62c0,0,12.53,13.18,18.35,19.85c5.82,6.67,6.49,19.56,6.49,19.56s9.81-11.98,5.71-25.92 c-4.1-13.95-13.8-41.09-38.36-32.75c-24.56,8.34-25.47,45.03-22.59,63.22C454.4,216.58,465.42,176.41,484.8,172.62z"></path> </g> </g> <g> <path class="st10" d="M474.49,236.49c0,0,11.47,5.74,23.09-3.33c0,0-4.46,7.42-12.25,7.83 C477.55,241.39,474.49,236.49,474.49,236.49z"></path> </g> </g> <g> <g> <path class="st12" d="M460.68,116.44H444.7c-0.22-1.37-0.42-2.76-0.59-4.13c0-0.01,0-0.01,0-0.01 c-1.06-8.34-1.32-15.95-1.32-15.95s-4.67-21.37,8.82-22.68c0,0,3.61,1.13,3.83,2.61c0.81,5.71,2.67,18.06,2.75,20.98 C458.22,98.77,459.64,108.97,460.68,116.44z"></path> </g> <g> <path class="st33" d="M452,74.12c-0.2,5.86-0.54,12.13-1.04,18.84c0,0-0.67,10.95-0.9,23.48h-56.83 c-1.32-6.17-2.8-11.63-2.99-12.32c0-0.01-0.01-0.02-0.01-0.02c0-0.01,0-0.02-0.01-0.02c0-0.02,0-0.03,0-0.03 s-1.28,6.16-2.3,12.39h-13.77c1.7-13.69,5.87-44.03,8.08-45.61c1.88-1.34,13.65-6.06,19.76-8.38c2.82-1.08,4.97-1.83,5.41-1.86 c1.4-0.09,18.63,1.57,18.63,1.57s2.47,0.85,4.99,2.01c4.31,1.98,11.03,5.07,15.84,7.36C448.44,72.27,450.38,73.27,452,74.12z"></path> </g> <g> <path class="st8" d="M407.51,60.56c1.27,11.61,14.16,11.61,14.16,11.61s5.33-4.67,5.17-8.12c0-0.07-0.01-0.15-0.02-0.22 c-0.08-0.64-0.8-1.43-0.87-2.7c-0.01-0.17-0.01-0.35-0.02-0.53c0-0.17,0-0.35,0-0.52c0-0.88,0.05-1.75,0.11-2.36 c0.02-0.21,0.04-0.39,0.05-0.54c0.02-0.21,0.04-0.34,0.04-0.34s-2.08-2.19-4.72-4.8c-4.61-4.56-10.96-10.41-10.97-8.08 c0,0.12,0.02,0.27,0.05,0.44C411.59,49.63,407.51,60.56,407.51,60.56z"></path> </g> <path class="st34" d="M416.3,67.39l5.37,4.77c0,0-6.19-0.41-7.35-1.44L416.3,67.39z"></path> <g> <path class="st12" d="M446.88,71.52c-3.26-1.55-7.39-3.47-11.05-5.16c-1.74-0.81-3.39-1.57-4.79-2.2l-2.21-0.95 c0.12,0.3,4.14,9.96,7.17,31.15c0.78,5.43,1.99,13.29,3.18,22.07h11.32c0.62-12.46,0.93-23.26,0.93-23.26 c0.5-6.83,0.79-13.22,0.99-19.16C450.75,73.31,448.61,72.35,446.88,71.52z"></path> </g> <g> <path class="st12" d="M416.95,116.44h-24.64c-0.52-4.32-1.07-8.12-1.58-9.89c0,0-1.07,4.39-2.05,9.89h-16.12 c1.71-15.14,5.21-43.74,7.29-45.24c1.59-1.14,13.36-5.31,19.12-7.58c1.06-0.42,2.08-0.81,3.03-1.17 c1.22,1.36,14.21,25.38,15.22,44.91C417.34,109.6,417.21,112.79,416.95,116.44z"></path> </g> <path class="st33" d="M427.53,68.23c0,0,0.46,6.59-5.12,6.75c-5.58,0.15-10-5.2-10-5.2l9.26,2.39l5.63-4.77L427.53,68.23z"></path> <path class="st35" d="M408.25,58.38c0,0,5.29,6.78,8.04,9l-4.52,7.59l-7.8-13.27L408.25,58.38z"></path> <path class="st34" d="M426.43,68.63l-4.77,3.53c0,0,4.19-7.64,4.27-11.05L426.43,68.63z"></path> <polygon class="st35" points="425.94,61.12 429,63.28 432.41,73.46 426.43,68.63 "></polygon> <g> <path class="st8" d="M441.11,27.14c0,0,3.37,8.19,1.17,9.18c-1.82,0.82,1.1,8.81,1.46,10.11c0.36,1.29-3.33,1.82-4.17,2.54 c-0.85,0.72-4.14,10.32-7.12,10.31c-2.99-0.01-15.81-6.04-19.04-10.19c-3.23-4.15-4.41-21.49-1.24-28.41 C415.34,13.74,435.16,12.82,441.11,27.14z"></path> </g> <g> <path class="st28" d="M441.77,28.9c0,0,5.15-7.92-1.95-14.94c-7.1-7.02-22.53,2.37-24.19,2.62c-1.65,0.25-11.35,2.32-8.13,17.07 c2.87,13.14,3.15,13.48,3.15,13.48s3.85-6.95,5.65-7.99c2.82-1.62,8.51-0.57,8.51-0.57s-1.97-7.55,2.41-8.12 C431.6,29.87,437.62,26.84,441.77,28.9z"></path> </g> <g> <path class="st8" d="M420.7,33.94c-0.27-1.04-1.04-5.44-4.98-3.32c-3.94,2.13,1.18,10.82,1.8,10.99 C418.16,41.79,422.99,42.65,420.7,33.94z"></path> </g> <path class="st10" d="M413.91,49.66c0.09,0.22,3.02,7.34,12,10.93c0-0.17,0-0.35,0-0.52c0-0.88,0.05-1.75,0.11-2.36 c0.02-0.21,0.04-0.39,0.05-0.54C426.07,57.18,416.41,52.64,413.91,49.66z"></path> </g> <g> <g> <linearGradient id="SVGID_4_" gradientUnits="userSpaceOnUse" x1="61.3216" y1="504.0936" x2="68.5447" y2="504.0936"> <stop offset="0" style="stop-color:#6B9E34"></stop> <stop offset="0.1351" style="stop-color:#61933C"></stop> <stop offset="1" style="stop-color:#1F4A6E"></stop> </linearGradient> <path class="st36" d="M67.8,554.74l-0.5-0.03c0.01-0.18,0.96-18.48,0.7-39.98c-0.24-19.84-1.6-46.55-6.68-61.12l0.47-0.16 c5.1,14.63,6.46,41.4,6.71,61.28C68.76,536.25,67.81,554.56,67.8,554.74z"></path> </g> <g> <linearGradient id="SVGID_5_" gradientUnits="userSpaceOnUse" x1="61.3132" y1="478.1942" x2="75.5117" y2="478.1942"> <stop offset="0" style="stop-color:#6B9E34"></stop> <stop offset="0.1351" style="stop-color:#61933C"></stop> <stop offset="1" style="stop-color:#1F4A6E"></stop> </linearGradient> <path class="st37" d="M75.01,554.74c-0.06-1.17-6.08-117.86-13.7-152.99l0.49-0.11c7.63,35.16,13.65,151.89,13.71,153.07 L75.01,554.74z"></path> </g> <g> <linearGradient id="SVGID_6_" gradientUnits="userSpaceOnUse" x1="69.5096" y1="496.2818" x2="72.7127" y2="496.2818"> <stop offset="0" style="stop-color:#6B9E34"></stop> <stop offset="0.1351" style="stop-color:#61933C"></stop> <stop offset="1" style="stop-color:#1F4A6E"></stop> </linearGradient> <path class="st38" d="M72.22,558.63c-0.05-1.04-5.19-103.92-1.17-124.7l0.49,0.09c-4.02,20.72,1.12,123.55,1.17,124.58 L72.22,558.63z"></path> </g> <g> <linearGradient id="SVGID_7_" gradientUnits="userSpaceOnUse" x1="71.3808" y1="514.1531" x2="76.5865" y2="514.1531"> <stop offset="0" style="stop-color:#6B9E34"></stop> <stop offset="0.1351" style="stop-color:#61933C"></stop> <stop offset="1" style="stop-color:#1F4A6E"></stop> </linearGradient> <path class="st39" d="M71.88,556.36h-0.5c0-0.58,0.05-58.15,4.72-84.42l0.49,0.09C71.93,498.26,71.88,555.79,71.88,556.36z"></path> </g> <linearGradient id="SVGID_8_" gradientUnits="userSpaceOnUse" x1="74.1784" y1="457.9541" x2="112.3054" y2="457.9541"> <stop offset="0" style="stop-color:#6B9E34"></stop> <stop offset="0.1351" style="stop-color:#61933C"></stop> <stop offset="1" style="stop-color:#1F4A6E"></stop> </linearGradient> <path class="st40" d="M112.31,449.4c0,0-5.14-35.02-17.99-18.42c-8.87,11.46-14.66,27.64-17.4,36.56 c-1.2,3.91-1.92,7.95-2.16,12.03l-0.57,9.82C102.06,416.62,112.31,449.4,112.31,449.4z"></path> <linearGradient id="SVGID_9_" gradientUnits="userSpaceOnUse" x1="69.8033" y1="415.611" x2="119.1492" y2="415.611"> <stop offset="0" style="stop-color:#6B9E34"></stop> <stop offset="0.1351" style="stop-color:#61933C"></stop> <stop offset="1" style="stop-color:#1F4A6E"></stop> </linearGradient> <path class="st41" d="M118.8,407.42c0,0,5.14-33.49-24.05-18.56c-27.97,14.31-24.84,57.33-24.84,57.33 c1.68-7.18,4.7-26.35,14.7-38.77C111.08,374.51,118.8,407.42,118.8,407.42z"></path> <linearGradient id="SVGID_10_" gradientUnits="userSpaceOnUse" x1="72.169" y1="522.5381" x2="89.7211" y2="522.5381"> <stop offset="0" style="stop-color:#6B9E34"></stop> <stop offset="0.1351" style="stop-color:#61933C"></stop> <stop offset="1" style="stop-color:#1F4A6E"></stop> </linearGradient> <path class="st42" d="M89.72,514.67c-16.65-3.28-17.55,10.99-17.55,10.99v5.23C73.58,521.88,89.72,514.67,89.72,514.67z"></path> <linearGradient id="SVGID_11_" gradientUnits="userSpaceOnUse" x1="23.6119" y1="403.1698" x2="66.7757" y2="403.1698"> <stop offset="0" style="stop-color:#6B9E34"></stop> <stop offset="0.1351" style="stop-color:#61933C"></stop> <stop offset="1" style="stop-color:#1F4A6E"></stop> </linearGradient> <path class="st43" d="M48.67,370.65c-16.28-12.21-25.06,0-25.06,0s31.29,1.52,43.16,70.47C66.78,441.12,64.95,382.86,48.67,370.65 z"></path> <linearGradient id="SVGID_12_" gradientUnits="userSpaceOnUse" x1="35.1895" y1="450.633" x2="66.5375" y2="450.633"> <stop offset="0" style="stop-color:#6B9E34"></stop> <stop offset="0.1351" style="stop-color:#61933C"></stop> <stop offset="1" style="stop-color:#1F4A6E"></stop> </linearGradient> <path class="st44" d="M35.19,419.9c0,0,26.1,33.83,31.35,61.46l-0.58-6.46C65.96,474.9,64.93,425.83,35.19,419.9z"></path> <path class="st45" d="M66.54,481.36l0.9,10.08C67.53,488.23,67.2,484.85,66.54,481.36z"></path> <linearGradient id="SVGID_13_" gradientUnits="userSpaceOnUse" x1="46.326" y1="506.5332" x2="68.2893" y2="506.5332"> <stop offset="0" style="stop-color:#6B9E34"></stop> <stop offset="0.1351" style="stop-color:#61933C"></stop> <stop offset="1" style="stop-color:#1F4A6E"></stop> </linearGradient> <path class="st46" d="M46.33,493.58c0,0,20.58,21.42,21.96,25.91C68.29,519.49,60.03,494.86,46.33,493.58z"></path> <linearGradient id="SVGID_14_" gradientUnits="userSpaceOnUse" x1="46.8756" y1="574.5129" x2="95.8855" y2="574.5129"> <stop offset="0" style="stop-color:#D1D7E0"></stop> <stop offset="1" style="stop-color:#EBEBFF"></stop> </linearGradient> <polygon class="st47" points="88.44,597 95.89,552.03 46.88,552.03 54.32,597 "></polygon> <linearGradient id="SVGID_15_" gradientUnits="userSpaceOnUse" x1="71.3806" y1="526.8533" x2="71.3806" y2="624.7101"> <stop offset="0" style="stop-color:#D1D7E0"></stop> <stop offset="1" style="stop-color:#EBEBFF"></stop> </linearGradient> <rect x="42.27" y="539.97" class="st48" width="58.22" height="12.06"></rect> <linearGradient id="SVGID_16_" gradientUnits="userSpaceOnUse" x1="69.5053" y1="541.1739" x2="84.0527" y2="627.8394"> <stop offset="0" style="stop-color:#D1D7E0"></stop> <stop offset="1" style="stop-color:#EBEBFF"></stop> </linearGradient> <path class="st49" d="M95.89,552.03H46.88L54.32,597h8.38c0,0-8.2-34.91,31.58-35.27L95.89,552.03z"></path> </g> <g class="st50"> <linearGradient id="SVGID_17_" gradientUnits="userSpaceOnUse" x1="584.9489" y1="120.1597" x2="599.0533" y2="120.1597"> <stop offset="0" style="stop-color:#D1D7E0"></stop> <stop offset="1" style="stop-color:#EBEBFF"></stop> </linearGradient> <polygon class="st51" points="588.25,123.59 599.05,123.59 595.75,116.73 584.95,116.73 "></polygon> <linearGradient id="SVGID_18_" gradientUnits="userSpaceOnUse" x1="579.896" y1="120.1597" x2="585.7745" y2="120.1597"> <stop offset="0" style="stop-color:#D1D7E0"></stop> <stop offset="1" style="stop-color:#EBEBFF"></stop> </linearGradient> <polygon class="st52" points="583.2,123.59 585.77,123.59 582.47,116.73 579.9,116.73 "></polygon> <linearGradient id="SVGID_19_" gradientUnits="userSpaceOnUse" x1="544.4402" y1="113.7089" x2="589.6186" y2="113.7089"> <stop offset="0" style="stop-color:#D1D7E0"></stop> <stop offset="1" style="stop-color:#EBEBFF"></stop> </linearGradient> <polygon class="st53" points="545.89,115.42 589.62,115.42 588.17,111.99 544.44,111.99 "></polygon> </g> <g> <g> <linearGradient id="SVGID_20_" gradientUnits="userSpaceOnUse" x1="293.5366" y1="3.3267" x2="312.0663" y2="3.3267"> <stop offset="0" style="stop-color:#D1D7E0"></stop> <stop offset="1" style="stop-color:#EBEBFF"></stop> </linearGradient> <path class="st54" d="M311.06,6.12h-16.51c-0.56,0-1.01-0.45-1.01-1.01V1.54c0-0.56,0.45-1.01,1.01-1.01h16.51 c0.56,0,1.01,0.45,1.01,1.01v3.57C312.07,5.67,311.61,6.12,311.06,6.12z"></path> </g> <g> <linearGradient id="SVGID_21_" gradientUnits="userSpaceOnUse" x1="293.5366" y1="16.7172" x2="312.0663" y2="16.7172"> <stop offset="0" style="stop-color:#D1D7E0"></stop> <stop offset="1" style="stop-color:#EBEBFF"></stop> </linearGradient> <path class="st55" d="M311.06,19.51h-16.51c-0.56,0-1.01-0.45-1.01-1.01v-3.57c0-0.56,0.45-1.01,1.01-1.01h16.51 c0.56,0,1.01,0.45,1.01,1.01v3.57C312.07,19.06,311.61,19.51,311.06,19.51z"></path> </g> <g> <linearGradient id="SVGID_22_" gradientUnits="userSpaceOnUse" x1="293.5366" y1="30.1077" x2="312.0663" y2="30.1077"> <stop offset="0" style="stop-color:#D1D7E0"></stop> <stop offset="1" style="stop-color:#EBEBFF"></stop> </linearGradient> <path class="st56" d="M311.06,32.9h-16.51c-0.56,0-1.01-0.45-1.01-1.01v-3.57c0-0.56,0.45-1.01,1.01-1.01h16.51 c0.56,0,1.01,0.45,1.01,1.01v3.57C312.07,32.45,311.61,32.9,311.06,32.9z"></path> </g> <g> <linearGradient id="SVGID_23_" gradientUnits="userSpaceOnUse" x1="319.7173" y1="3.3267" x2="324.9895" y2="3.3267"> <stop offset="0" style="stop-color:#D1D7E0"></stop> <stop offset="1" style="stop-color:#EBEBFF"></stop> </linearGradient> <path class="st57" d="M323.98,6.12h-3.25c-0.56,0-1.01-0.45-1.01-1.01V1.54c0-0.56,0.45-1.01,1.01-1.01h3.25 c0.56,0,1.01,0.45,1.01,1.01v3.57C324.99,5.67,324.54,6.12,323.98,6.12z"></path> </g> <g> <linearGradient id="SVGID_24_" gradientUnits="userSpaceOnUse" x1="319.7173" y1="16.7172" x2="324.9895" y2="16.7172"> <stop offset="0" style="stop-color:#D1D7E0"></stop> <stop offset="1" style="stop-color:#EBEBFF"></stop> </linearGradient> <path class="st58" d="M323.98,19.51h-3.25c-0.56,0-1.01-0.45-1.01-1.01v-3.57c0-0.56,0.45-1.01,1.01-1.01h3.25 c0.56,0,1.01,0.45,1.01,1.01v3.57C324.99,19.06,324.54,19.51,323.98,19.51z"></path> </g> <g> <linearGradient id="SVGID_25_" gradientUnits="userSpaceOnUse" x1="319.7173" y1="30.1077" x2="324.9895" y2="30.1077"> <stop offset="0" style="stop-color:#D1D7E0"></stop> <stop offset="1" style="stop-color:#EBEBFF"></stop> </linearGradient> <path class="st59" d="M323.98,32.9h-3.25c-0.56,0-1.01-0.45-1.01-1.01v-3.57c0-0.56,0.45-1.01,1.01-1.01h3.25 c0.56,0,1.01,0.45,1.01,1.01v3.57C324.99,32.45,324.54,32.9,323.98,32.9z"></path> </g> </g> <g> <linearGradient id="SVGID_26_" gradientUnits="userSpaceOnUse" x1="92.3686" y1="208.4206" x2="117.6858" y2="208.4206"> <stop offset="0" style="stop-color:#D1D7E0"></stop> <stop offset="1" style="stop-color:#EBEBFF"></stop> </linearGradient> <polygon class="st60" points="98.3,214.57 117.69,214.57 111.75,202.27 92.37,202.27 "></polygon> <linearGradient id="SVGID_27_" gradientUnits="userSpaceOnUse" x1="83.2981" y1="208.4206" x2="93.8503" y2="208.4206"> <stop offset="0" style="stop-color:#D1D7E0"></stop> <stop offset="1" style="stop-color:#EBEBFF"></stop> </linearGradient> <polygon class="st61" points="89.23,214.57 93.85,214.57 87.92,202.27 83.3,202.27 "></polygon> </g> <g> <g> <linearGradient id="SVGID_28_" gradientUnits="userSpaceOnUse" x1="373.5449" y1="70.1448" x2="372.525" y2="70.4972"> <stop offset="0" style="stop-color:#D1D7E0"></stop> <stop offset="1" style="stop-color:#EBEBFF"></stop> </linearGradient> <path class="st62" d="M373.43,68.82c-0.27,0-0.53,0-0.8,0c-0.78,0-1.54,0.69-1.5,1.5c0.04,0.81,0.66,1.5,1.5,1.5 c0.27,0,0.53,0,0.8,0c0.78,0,1.54-0.69,1.5-1.5C374.9,69.51,374.27,68.82,373.43,68.82L373.43,68.82z"></path> </g> </g> </g> </svg> 