<?xml version="1.0" encoding="UTF-8"?> <!-- Generator: Adobe Illustrator 23.0.3, SVG Export Plug-In . SVG Version: 6.00 Build 0) --> <svg xmlns="http://www.w3.org/2000/svg" xmlns:xlink="http://www.w3.org/1999/xlink" version="1.1" id="Layer_1" x="0px" y="0px" viewBox="0 0 128 130" style="enable-background:new 0 0 128 130;" xml:space="preserve"> <style type="text/css"> .st0{display:none;} .st1{display:inline;fill:#FF4081;} .st2{display:inline;} .st3{fill:#FFFFFF;} .st4{display:inline;fill:#FFD740;} .st5{fill:#40C4FF;} .st6{display:inline;fill:#EF4335;} </style> <g class="st0"> <path class="st1" d="M0.75,74.2c0-2.64,0-5.27,0-7.91c0.04-0.26,0.1-0.52,0.13-0.78c0.33-3.96,0.56-7.93,1.01-11.88 c0.91-8,2.6-15.84,5.35-23.42c2.4-6.64,5.57-12.86,10.28-18.2c7.5-8.49,17-12.28,28.22-11.65c6.28,0.35,12.46,1.56,18.59,3.01 c9.63,2.27,18.93,5.44,27.58,10.32c6.52,3.68,12.42,8.15,16.94,14.18c1.81,2.41,3.34,5.06,4.81,7.71c2.5,4.5,4.99,9.02,7.24,13.65 c2.56,5.27,4.51,10.8,5.63,16.57c0.3,1.55,0.48,3.12,0.72,4.69c0,1.29,0,2.58,0,3.87c-0.05,0.21-0.12,0.41-0.14,0.62 c-0.54,5.84-1.93,11.48-4.06,16.94c-4.56,11.67-11.81,21.21-22.48,27.97c-9.25,5.85-19.49,8.58-30.29,9.49 c-1.34,0.11-2.67,0.22-4.01,0.32c-1.94,0-3.87,0-5.81,0c-0.29-0.05-0.58-0.12-0.87-0.13c-8.32-0.45-16.4-2.03-24.18-5.05 c-8.48-3.29-15.92-8.11-21.85-15.09C6.13,100.67,2.53,90.34,1.24,79.08C1.05,77.46,0.91,75.83,0.75,74.2z"></path> <g class="st2"> <path class="st3" d="M90.53,43.44l-7.95-7.95c-0.19-0.19-0.44-0.29-0.7-0.29H50.09c-2.74,0-4.96,2.23-4.97,4.97v11.92h1.99V40.17 c0-1.65,1.33-2.98,2.98-2.98h30.79v4.97c0,1.65,1.33,2.98,2.98,2.98h4.97v44.7c0,1.65-1.33,2.98-2.98,2.98H50.09 c-1.65,0-2.98-1.33-2.98-2.98V77.91h-1.99v11.92c0,2.74,2.23,4.96,4.97,4.97h35.76c2.74,0,4.96-2.23,4.97-4.97V44.14 C90.82,43.88,90.72,43.62,90.53,43.44z M82.87,42.15v-3.56l4.56,4.56h-3.56C83.32,43.15,82.87,42.7,82.87,42.15z"></path> <rect x="51.09" y="41.16" class="st3" width="1.99" height="1.99"></rect> <rect x="55.06" y="41.16" class="st3" width="5.96" height="1.99"></rect> <rect x="51.09" y="45.13" class="st3" width="9.93" height="1.99"></rect> <path class="st3" d="M66.98,75.93c0-1.65-1.33-2.98-2.98-2.98c-1.65,0-2.98,1.33-2.98,2.98c0,0.38,0.08,0.76,0.22,1.12l-4.75,4.23 c-0.44-0.25-0.93-0.38-1.43-0.38c-1.65,0-2.98,1.33-2.98,2.98c0,1.65,1.33,2.98,2.98,2.98s2.98-1.33,2.98-2.98 c0-0.38-0.08-0.76-0.22-1.12l4.75-4.23c1.1,0.63,2.48,0.47,3.41-0.39l6.02,3.28c-0.03,0.16-0.04,0.31-0.05,0.47 c0,1.65,1.33,2.98,2.98,2.98c1.65,0,2.98-1.33,2.98-2.98c0-0.69-0.25-1.36-0.69-1.89l3.07-5.13c0.2,0.04,0.4,0.06,0.6,0.06 c1.65,0,2.98-1.33,2.98-2.98s-1.33-2.98-2.98-2.98s-2.98,1.33-2.98,2.98c0,0.69,0.25,1.36,0.69,1.89l-3.07,5.13 c-0.92-0.19-1.88,0.07-2.57,0.71l-6.02-3.28C66.96,76.24,66.98,76.08,66.98,75.93z M55.06,84.87c-0.55,0-0.99-0.44-0.99-0.99 c0-0.55,0.44-0.99,0.99-0.99c0.55,0,0.99,0.44,0.99,0.99C56.05,84.42,55.61,84.87,55.06,84.87z M64,76.92 c-0.55,0-0.99-0.44-0.99-0.99c0-0.55,0.44-0.99,0.99-0.99c0.55,0,0.99,0.44,0.99,0.99C64.99,76.48,64.55,76.92,64,76.92z M80.89,70.96c0.55,0,0.99,0.44,0.99,0.99c0,0.55-0.44,0.99-0.99,0.99s-0.99-0.44-0.99-0.99C79.89,71.4,80.34,70.96,80.89,70.96z M74.93,80.89c0.55,0,0.99,0.44,0.99,0.99s-0.44,0.99-0.99,0.99c-0.55,0-0.99-0.44-0.99-0.99S74.38,80.89,74.93,80.89z"></path> <rect x="72.94" y="53.08" class="st3" width="11.92" height="1.99"></rect> <rect x="55.06" y="53.08" class="st3" width="15.89" height="1.99"></rect> <rect x="72.94" y="57.05" class="st3" width="11.92" height="1.99"></rect> <rect x="55.06" y="57.05" class="st3" width="15.89" height="1.99"></rect> <rect x="72.94" y="61.03" class="st3" width="11.92" height="1.99"></rect> <rect x="55.06" y="61.03" class="st3" width="15.89" height="1.99"></rect> <rect x="72.94" y="65" class="st3" width="11.92" height="1.99"></rect> <rect x="55.06" y="65" class="st3" width="15.89" height="1.99"></rect> <path class="st3" d="M51.63,59.95c0.85-0.24,1.44-1.02,1.44-1.9v-1.99c0-1.1-0.89-1.99-1.99-1.99H39.17 c-1.1,0-1.99,0.89-1.99,1.99v1.99c0,0.88,0.59,1.66,1.44,1.9l3.53,4.41v1.29l-3.53,4.41c-0.85,0.24-1.44,1.02-1.44,1.9v1.99 c0,1.1,0.89,1.99,1.99,1.99h11.92c1.1,0,1.99-0.89,1.99-1.99v-1.99c0-0.88-0.59-1.66-1.44-1.9l-3.53-4.41v-1.29L51.63,59.95z M39.17,56.06h11.92v1.99H39.17V56.06z M39.17,73.94v-1.99h11.92v1.99H39.17z M46.56,66.89l2.47,3.08h-7.79l2.46-3.08 c0.28-0.35,0.44-0.79,0.44-1.24v-1.29c0-0.45-0.15-0.89-0.44-1.24l-2.47-3.08h7.79l-2.46,3.08c-0.28,0.35-0.44,0.79-0.44,1.24 v1.29C46.12,66.1,46.27,66.54,46.56,66.89z"></path> </g> </g> <g class="st0"> <path class="st4" d="M74.23,126.67c-2.98,0-5.95,0-8.93,0c-0.3-0.05-0.61-0.11-0.91-0.14c-4.39-0.51-8.83-0.8-13.17-1.58 c-8.59-1.54-16.6-4.61-23.88-9.53c-9.48-6.4-15.65-15.44-20.05-25.72C2.86,79.34,1.34,68.28,0.37,57.14 C0.26,55.88,0.12,54.63,0,53.37c0-1.55,0-3.1,0-4.65c0.06-0.24,0.14-0.47,0.16-0.72c0.43-4.46,1.67-8.68,3.69-12.67 c3.91-7.73,9.99-13.34,17.47-17.48c6.78-3.75,14.06-6.29,21.42-8.58c8.41-2.63,16.98-4.56,25.76-5.43 c1.78-0.18,3.57-0.34,5.35-0.51c2.54,0,5.09,0,7.63,0c0.36,0.06,0.72,0.14,1.09,0.16c5.09,0.31,10.09,1.14,14.91,2.84 c6,2.12,11.51,5.03,15.62,10.11c2.55,3.15,4.65,6.56,6.32,10.25c1.53,3.37,2.37,6.95,3.32,10.51c2.48,9.23,4.21,18.59,4.91,28.13 c0.1,1.41,0.23,2.83,0.34,4.24c0,2.79,0,5.58,0,8.37c-0.12,1.41-0.25,2.83-0.37,4.24c-0.65,7.2-2.12,14.2-5.24,20.77 c-4.92,10.35-12.9,17.2-23.94,20.27c-6.39,1.78-12.98,2.58-19.6,3.1C77.31,126.43,75.77,126.55,74.23,126.67z"></path> <g class="st2"> <path class="st3" d="M40.63,65"></path> <path class="st3" d="M64,95.42c-16.78,0-30.42-13.65-30.42-30.42S47.22,34.58,64,34.58S94.42,48.22,94.42,65S80.78,95.42,64,95.42 z M64,37.01c-15.43,0-27.99,12.56-27.99,27.99S48.57,92.99,64,92.99S91.99,80.43,91.99,65S79.43,37.01,64,37.01z"></path> <rect x="84.31" y="51.29" transform="matrix(0.8685 -0.4956 0.4956 0.8685 -14.7697 49.3401)" class="st3" width="2.63" height="2.43"></rect> <rect x="87.66" y="63.78" class="st3" width="2.63" height="2.43"></rect> <rect x="62.78" y="88.02" transform="matrix(1 -4.799945e-03 4.799945e-03 1 -0.4281 0.3082)" class="st3" width="2.43" height="2.63"></rect> <rect x="50.2" y="85.41" transform="matrix(0.5001 -0.866 0.866 0.5001 -49.2629 87.914)" class="st3" width="2.63" height="2.43"></rect> <rect x="84.41" y="76.17" transform="matrix(0.5015 -0.8651 0.8651 0.5015 -24.351 112.6988)" class="st3" width="2.43" height="2.63"></rect> <rect x="75.27" y="85.31" transform="matrix(0.866 -0.5001 0.5001 0.866 -33.0683 49.8636)" class="st3" width="2.43" height="2.63"></rect> <rect x="75.17" y="42.16" transform="matrix(0.5002 -0.8659 0.8659 0.5002 0.6649 87.9066)" class="st3" width="2.63" height="2.43"></rect> <rect x="40.93" y="76.05" transform="matrix(0.8685 -0.4957 0.4957 0.8685 -32.7426 31.1027)" class="st3" width="2.63" height="2.43"></rect> <rect x="37.71" y="63.78" class="st3" width="2.63" height="2.43"></rect> <rect x="41.2" y="51.12" transform="matrix(0.5016 -0.8651 0.8651 0.5016 -24.2203 62.8343)" class="st3" width="2.43" height="2.63"></rect> <rect x="50.3" y="42.06" transform="matrix(0.866 -0.5 0.5 0.866 -14.7867 31.5666)" class="st3" width="2.43" height="2.63"></rect> <path class="st3" d="M73.99,47.7c-0.58-0.34-1.33-0.14-1.66,0.45l-7.11,12.31V39.41c0-0.67-0.54-1.22-1.22-1.22 s-1.22,0.54-1.22,1.22v24.1c-0.43,0.36-0.72,0.89-0.72,1.49c0,1.07,0.87,1.93,1.93,1.93s1.93-0.87,1.93-1.93 c0-0.24-0.05-0.47-0.13-0.69l8.63-14.95C74.77,48.78,74.57,48.03,73.99,47.7z"></path> </g> </g> <g> <path class="st5" d="M0.48,77.28c0-2.75,0-5.49,0-8.24c0.04-0.3,0.1-0.59,0.13-0.89c0.29-3.31,0.46-6.63,0.88-9.91 c0.93-7.32,2.74-14.43,5.77-21.18c4.34-9.67,10.78-17.52,19.99-22.95c7.84-4.63,16.43-6.72,25.41-7.5 c7.17-0.62,14.31-0.41,21.41,0.81c9.42,1.63,18.17,4.94,26.09,10.34c9.68,6.6,16.78,15.41,22.25,25.68 c2.45,4.61,4.22,9.39,4.67,14.61c0.12,1.36,0.28,2.72,0.42,4.08c0,1.76,0,3.51,0,5.27c-0.18,1.66-0.3,3.33-0.54,4.97 c-1.79,12.29-7.48,22.48-16.71,30.7c-9.11,8.12-19.83,13.35-31.44,16.66c-11.25,3.21-22.81,4.45-34.53,3.88 c-6.34-0.31-12.54-1.31-18.52-3.51c-11.98-4.4-19.78-12.67-23.09-25.06c-1.15-4.32-1.52-8.75-1.87-13.18 C0.69,80.33,0.59,78.8,0.48,77.28z"></path> <g> <g> <g> <path class="st3" d="M73.41,52.08c-0.01,1.82-0.45,3.64-1.19,5.36c-0.78,1.81-1.85,3.51-3.25,4.9c-1.2,1.19-2.79,2.16-4.35,2.33 c-1.74,0.19-3.26-0.44-4.69-1.51c-1.46-1.09-2.66-2.75-3.54-4.39c-0.89-1.65-1.54-3.61-1.75-5.38c-0.45-3.89,1.38-7.63,4.8-9.56 c2.91-1.64,6.55-1.51,9.41,0.18C71.68,45.68,73.39,48.81,73.41,52.08c0.01,1.22,1.9,1.22,1.9,0c-0.03-4.24-2.44-8.2-6.23-10.11 c-3.89-1.96-8.64-1.45-12.07,1.21c-1.64,1.28-2.85,2.99-3.61,4.91c-0.76,1.95-0.85,4.05-0.54,6.1c0.3,2.01,1.05,3.97,2.02,5.74 c0.96,1.76,2.24,3.41,3.82,4.64c1.53,1.2,3.33,2,5.29,2.01c1.95,0.02,3.78-0.83,5.29-2.01c3.14-2.46,5.22-6.48,5.84-10.39 c0.11-0.7,0.18-1.4,0.18-2.11C75.31,50.85,73.42,50.86,73.41,52.08z"></path> </g> </g> <g> <g> <path class="st3" d="M83.84,79.98c0,2.76,0,5.53,0,8.29c0.32-0.32,0.63-0.63,0.95-0.95c-2.81,0-5.62,0-8.43,0 c-5.74,0-11.49,0-17.23,0c-4.64,0-9.29,0-13.93,0c-0.66,0-1.32,0-1.97,0c0.32,0.32,0.63,0.63,0.95,0.95c0-2.25,0-4.5,0-6.75 c0-0.96-0.05-1.98,0.09-2.91c0.28-1.91,1.11-3.69,2.39-5.11c1.45-1.62,3.37-2.66,5.49-3.07c1.35-0.26,2.83-0.15,4.22-0.15 c-0.27-0.16-0.55-0.31-0.82-0.47c2.52,3.43,5.03,6.87,7.55,10.3c0.04,0.06,0.09,0.12,0.13,0.18c0.44,0.6,1.2,0.61,1.64,0 c2.5-3.44,5-6.88,7.5-10.32c0.04-0.05,0.08-0.11,0.12-0.16c-0.27,0.16-0.55,0.31-0.82,0.47c0.87,0,1.74,0,2.61,0 c1.7,0.01,3.37,0.5,4.84,1.36C82.03,73.37,83.82,76.6,83.84,79.98c0.01,1.22,1.9,1.22,1.9,0c-0.02-4.23-2.36-8.18-6.09-10.2 c-1.72-0.93-3.66-1.39-5.6-1.39c-0.63,0-1.26,0-1.9,0c-0.55,0-0.98,0.01-1.35,0.52c-2.52,3.47-5.04,6.93-7.56,10.4 c-0.01,0.01-0.02,0.02-0.02,0.03c0.55,0,1.09,0,1.64,0c-2.52-3.43-5.03-6.87-7.55-10.3c-0.26-0.35-0.52-0.65-1.02-0.65 c-0.62,0-1.24,0-1.86,0c-1.81,0-3.54,0.25-5.22,0.98c-3.89,1.68-6.48,5.43-6.9,9.61c-0.16,1.58-0.05,3.21-0.05,4.79 c0,1.5,0,3,0,4.51c0,0.52,0.43,0.95,0.95,0.95c2.81,0,5.62,0,8.43,0c5.74,0,11.49,0,17.23,0c4.64,0,9.29,0,13.93,0 c0.66,0,1.32,0,1.97,0c0.52,0,0.95-0.43,0.95-0.95c0-2.76,0-5.53,0-8.29C85.73,78.76,83.84,78.76,83.84,79.98z"></path> </g> </g> <g> <g> <path class="st3" d="M96.81,56.6c-0.01,1.81-0.61,3.67-1.52,5.31c-0.9,1.63-2.15,3.08-3.82,3.87c-0.68,0.32-1.46,0.44-2.28,0.36 c0.16,0.02-0.17-0.03-0.16-0.03c-0.1-0.02-0.2-0.04-0.31-0.07c-0.2-0.05-0.4-0.12-0.6-0.19c-0.29-0.11-0.76-0.38-1.11-0.6 c-1.53-1.01-2.66-2.73-3.43-4.43c-0.75-1.66-1.18-3.56-0.89-5.34c0.3-1.85,1.33-3.54,2.84-4.63c3.18-2.29,7.74-1.54,9.98,1.66 C96.37,53.73,96.8,55.14,96.81,56.6c0.01,1.22,1.9,1.22,1.9,0c-0.03-4.32-3.2-8.16-7.49-8.86c-4.38-0.71-8.61,1.88-10.04,6.07 c-1.34,3.92,0.43,8.55,3.08,11.51c1.32,1.47,3.06,2.54,5.05,2.74c1.96,0.19,3.82-0.8,5.23-2.08c2.53-2.29,4.15-5.97,4.18-9.37 C98.71,55.38,96.82,55.38,96.81,56.6z"></path> </g> </g> <g> <g> <path class="st3" d="M90.56,78.59c1.97-2.71,3.94-5.42,5.91-8.13c-0.27,0.16-0.55,0.31-0.82,0.47c1.31,0,2.61-0.08,3.87,0.26 c1.8,0.48,3.34,1.68,4.31,3.26c0.78,1.27,1.06,2.66,1.06,4.13c0,1.3,0,2.59,0,3.89c0,0.73,0,1.46,0,2.19 c0.32-0.32,0.63-0.63,0.95-0.95c-4.5,0-9.01,0-13.51,0c-0.86,0-1.72,0-2.58,0c-1.22,0-1.22,1.9,0,1.9c4.5,0,9.01,0,13.51,0 c0.86,0,1.72,0,2.58,0c0.52,0,0.95-0.43,0.95-0.95c0-2.12,0-4.23,0-6.35c0-4.07-2.65-7.67-6.53-8.89 c-1.47-0.46-3.01-0.4-4.53-0.4c-0.53,0-0.79,0.33-1.07,0.7c-0.25,0.35-0.5,0.69-0.75,1.04c-1.53,2.11-3.07,4.22-4.6,6.34 c-0.13,0.17-0.25,0.35-0.38,0.52c-0.3,0.42-0.07,1.05,0.34,1.3C89.75,79.22,90.26,79.01,90.56,78.59L90.56,78.59z"></path> </g> </g> <g> <g> <path class="st3" d="M45.37,56.6c-0.01,1.81-0.61,3.67-1.52,5.31c-0.9,1.63-2.15,3.08-3.82,3.87c-0.68,0.32-1.46,0.44-2.28,0.36 c0.16,0.02-0.17-0.03-0.16-0.03c-0.1-0.02-0.2-0.04-0.31-0.07c-0.2-0.05-0.4-0.12-0.6-0.19c-0.29-0.11-0.76-0.38-1.11-0.6 c-1.53-1.01-2.66-2.73-3.43-4.43c-0.75-1.66-1.18-3.56-0.89-5.34c0.3-1.85,1.33-3.54,2.84-4.63c3.18-2.29,7.74-1.54,9.98,1.66 C44.93,53.73,45.35,55.14,45.37,56.6c0.01,1.22,1.9,1.22,1.9,0c-0.03-4.32-3.2-8.16-7.49-8.86c-4.38-0.71-8.61,1.88-10.04,6.07 c-1.34,3.92,0.43,8.55,3.08,11.51c1.32,1.47,3.06,2.54,5.05,2.74c1.96,0.19,3.82-0.8,5.23-2.08c2.53-2.29,4.15-5.97,4.18-9.37 C47.27,55.38,45.37,55.38,45.37,56.6z"></path> </g> </g> <g> <g> <path class="st3" d="M38.3,83.72c-4.5,0-9,0-13.5,0c-0.88,0-1.76,0-2.64,0c0.32,0.32,0.63,0.63,0.95,0.95c0-2.12,0-4.23,0-6.35 c0-3.69,2.68-6.75,6.32-7.33c0.92-0.15,1.97-0.06,2.92-0.06c-0.27-0.16-0.55-0.31-0.82-0.47c1.99,2.71,3.97,5.42,5.96,8.13 c0.3,0.42,0.82,0.62,1.3,0.34c0.41-0.24,0.65-0.88,0.34-1.3c-1.27-1.74-2.55-3.48-3.82-5.21c-0.65-0.89-1.3-1.77-1.95-2.66 c-0.27-0.37-0.52-0.73-1.05-0.73c-0.59,0-1.18,0-1.76,0c-4.16,0-7.86,2.74-8.99,6.76c-0.35,1.23-0.33,2.49-0.33,3.75 c0,1.39,0,2.78,0,4.17c0,0.32,0,0.64,0,0.95c0,0.52,0.43,0.95,0.95,0.95c4.5,0,9,0,13.5,0c0.88,0,1.76,0,2.64,0 C39.53,85.62,39.53,83.72,38.3,83.72L38.3,83.72z"></path> </g> </g> </g> </g> <g class="st0"> <path class="st6" d="M127.46,48.16c0,2.02,0,4.04,0,6.06c-0.05,0.33-0.11,0.65-0.14,0.98c-0.26,2.42-0.41,4.86-0.78,7.27 c-1.42,9.33-4.15,18.29-7.8,26.97c-1.82,4.33-3.97,8.53-5.91,12.81c-2.06,4.56-4.73,8.72-8.18,12.35c-2.59,2.74-5.38,5.27-8.8,6.95 c-5.14,2.53-10.63,3.66-16.32,3.86c-7.97,0.27-15.68-1.21-23.23-3.62c-11.69-3.73-22.49-9.32-32.75-15.99 c-4.29-2.79-8.42-5.78-11.98-9.49C6.25,90.76,2.55,84.34,1.14,76.71c-0.25-1.37-0.4-2.77-0.6-4.15c0-1.46,0-2.92,0-4.38 c0.05-0.24,0.12-0.48,0.15-0.73c0.21-1.38,0.29-2.8,0.64-4.14c2.45-9.4,5.64-18.52,10.02-27.21c3.6-7.16,8.5-13.2,14.77-18.19 c9.12-7.25,19.44-11.54,31.01-12.87c1.61-0.18,3.23-0.33,4.84-0.49c2.24,0,4.49,0,6.73,0c0.36,0.05,0.71,0.12,1.07,0.15 c1.56,0.14,3.14,0.21,4.69,0.4c11.05,1.35,21.57,4.54,31.57,9.41c12.3,5.99,19.15,15.89,20.92,29.39 C127.16,45.32,127.3,46.74,127.46,48.16z"></path> <g class="st2"> <path class="st3" d="M64,34.74c-16.69,0-30.26,13.58-30.26,30.26c0,16.69,13.58,30.26,30.26,30.26 c16.69,0,30.26-13.58,30.26-30.26S80.69,34.74,64,34.74z M64,93.12c-15.51,0-28.12-12.61-28.12-28.12 c0-15.51,12.61-28.12,28.12-28.12c15.51,0,28.12,12.61,28.12,28.12C92.12,80.51,79.51,93.12,64,93.12z"></path> <path class="st3" d="M64,74.9c-1.3,0-2.35,1.05-2.35,2.35c0,1.3,1.05,2.35,2.35,2.35c1.3,0,2.35-1.05,2.35-2.35 C66.35,75.95,65.3,74.9,64,74.9z"></path> <path class="st3" d="M70.82,52.47C69,51.14,66.96,50.4,64.2,50.4c-2.45,0-4.69,0.87-6.65,2.3c-1.49,1.08-2.47,2.71-2.91,4.85 l2.29,0.25c0.43-1.62,1.35-3.03,2.65-4.04c1.27-0.99,2.84-1.49,4.64-1.49c1.99,0,3.64,0.49,4.88,1.46c1.31,1.02,2,2.5,2,4.26 c0,0.87-0.25,1.69-0.73,2.43c-0.46,0.71-1.37,1.56-2.75,2.61c-1.87,1.42-3.09,2.55-3.65,3.34c-0.78,1.11-1.17,2.51-1.17,4.18 l0.02,0.29h2.36c0.09-1.55,0.33-2.66,0.73-3.39c0.46-0.83,1.52-1.87,3.24-3.19c1.8-1.4,2.67-2.58,3.29-3.55 c0.57-0.9,0.92-1.86,0.92-2.94C73.36,55.55,72.39,53.62,70.82,52.47z"></path> </g> </g> </svg> 