<?xml version="1.0" encoding="UTF-8"?> <svg xmlns="http://www.w3.org/2000/svg" xmlns:xlink="http://www.w3.org/1999/xlink" width="36pt" height="30pt" viewBox="0 0 36 30" version="1.1"><g id="surface1"><path style=" stroke:none;fill-rule:nonzero;fill:rgb(36.862745%,55.686275%,24.313725%);fill-opacity:1;" d="M 21.976562 8.730469 C 21.976562 6.976562 20.804688 5.542969 19.15625 5.113281 C 19.898438 4.636719 20.378906 3.839844 20.378906 2.878906 C 20.378906 1.386719 19.207031 0.21875 17.714844 0.21875 C 16.222656 0.21875 15.050781 1.386719 15.050781 2.878906 C 15.050781 3.839844 15.53125 4.636719 16.273438 5.113281 C 14.625 5.542969 13.453125 6.976562 13.453125 8.730469 L 13.453125 11.390625 L 21.976562 11.390625 Z M 17.722656 1.28125 C 18.628906 1.28125 19.320312 1.972656 19.320312 2.878906 C 19.320312 3.789062 18.628906 4.476562 17.722656 4.476562 C 16.816406 4.476562 16.125 3.789062 16.125 2.878906 C 16.125 1.972656 16.816406 1.28125 17.722656 1.28125 Z M 20.910156 10.320312 L 14.527344 10.320312 L 14.527344 8.722656 C 14.527344 7.230469 15.699219 6.058594 17.191406 6.058594 L 18.253906 6.058594 C 19.746094 6.058594 20.917969 7.230469 20.917969 8.722656 L 20.917969 10.320312 Z M 20.910156 10.320312 "></path><path style=" stroke:none;fill-rule:nonzero;fill:rgb(36.862745%,55.686275%,24.313725%);fill-opacity:1;" d="M 7.453125 23.722656 C 8.199219 23.242188 8.675781 22.449219 8.675781 21.488281 C 8.675781 19.996094 7.507812 18.824219 6.015625 18.824219 C 4.523438 18.824219 3.351562 19.996094 3.351562 21.488281 C 3.351562 22.449219 3.832031 23.242188 4.574219 23.722656 C 2.925781 24.148438 1.753906 25.582031 1.753906 27.335938 L 1.753906 30 L 10.273438 30 L 10.273438 27.335938 C 10.273438 25.582031 9.105469 24.148438 7.453125 23.722656 Z M 6.023438 19.898438 C 6.929688 19.898438 7.621094 20.585938 7.621094 21.496094 C 7.621094 22.402344 6.929688 23.09375 6.023438 23.09375 C 5.113281 23.09375 4.425781 22.394531 4.425781 21.488281 C 4.425781 20.585938 5.113281 19.898438 6.023438 19.898438 Z M 9.210938 28.933594 L 2.835938 28.933594 L 2.835938 27.335938 C 2.835938 25.84375 4.003906 24.675781 5.496094 24.675781 L 6.5625 24.675781 C 8.054688 24.675781 9.226562 25.84375 9.226562 27.335938 L 9.226562 28.933594 Z M 9.210938 28.933594 "></path><path style=" stroke:none;fill-rule:nonzero;fill:rgb(36.862745%,55.686275%,24.313725%);fill-opacity:1;" d="M 19.15625 23.722656 C 19.898438 23.242188 20.378906 22.449219 20.378906 21.488281 C 20.378906 19.996094 19.207031 18.824219 17.714844 18.824219 C 16.222656 18.824219 15.050781 19.996094 15.050781 21.488281 C 15.050781 22.449219 15.53125 23.242188 16.273438 23.722656 C 14.625 24.148438 13.453125 25.582031 13.453125 27.335938 L 13.453125 30 L 21.976562 30 L 21.976562 27.335938 C 21.976562 25.582031 20.804688 24.148438 19.15625 23.722656 Z M 17.722656 19.898438 C 18.628906 19.898438 19.320312 20.585938 19.320312 21.496094 C 19.320312 22.402344 18.628906 23.09375 17.722656 23.09375 C 16.816406 23.09375 16.125 22.402344 16.125 21.496094 C 16.125 20.585938 16.816406 19.898438 17.722656 19.898438 Z M 20.910156 28.933594 L 14.527344 28.933594 L 14.527344 27.335938 C 14.527344 25.84375 15.699219 24.675781 17.191406 24.675781 L 18.253906 24.675781 C 19.746094 24.675781 20.917969 25.84375 20.917969 27.335938 L 20.917969 28.933594 Z M 20.910156 28.933594 "></path><path style=" stroke:none;fill-rule:nonzero;fill:rgb(36.862745%,55.686275%,24.313725%);fill-opacity:1;" d="M 30.863281 23.722656 C 31.605469 23.242188 32.085938 22.449219 32.085938 21.488281 C 32.085938 19.996094 30.914062 18.824219 29.421875 18.824219 C 27.929688 18.824219 26.761719 19.996094 26.761719 21.488281 C 26.761719 22.449219 27.238281 23.242188 27.984375 23.722656 C 26.332031 24.148438 25.164062 25.582031 25.164062 27.335938 L 25.164062 30 L 33.675781 30 L 33.675781 27.335938 C 33.675781 25.582031 32.503906 24.148438 30.863281 23.722656 Z M 29.421875 19.898438 C 30.328125 19.898438 31.019531 20.585938 31.019531 21.496094 C 31.019531 22.402344 30.328125 23.09375 29.421875 23.09375 C 28.515625 23.09375 27.824219 22.402344 27.824219 21.496094 C 27.824219 20.585938 28.515625 19.898438 29.421875 19.898438 Z M 32.617188 28.933594 L 26.234375 28.933594 L 26.234375 27.335938 C 26.234375 25.84375 27.40625 24.675781 28.898438 24.675781 L 29.960938 24.675781 C 31.453125 24.675781 32.625 25.84375 32.625 27.335938 L 32.625 28.933594 Z M 32.617188 28.933594 "></path><path style=" stroke:none;fill-rule:nonzero;fill:rgb(36.862745%,55.686275%,24.313725%);fill-opacity:1;" d="M 6.554688 17.234375 C 6.554688 16.328125 7.246094 15.636719 8.152344 15.636719 L 17.191406 15.636719 L 17.191406 17.765625 L 18.253906 17.765625 L 18.253906 15.636719 L 27.292969 15.636719 C 28.199219 15.636719 28.890625 16.328125 28.890625 17.234375 L 28.890625 17.765625 L 29.953125 17.765625 L 29.953125 17.234375 C 29.953125 15.742188 28.785156 14.574219 27.292969 14.574219 L 18.253906 14.574219 L 18.253906 12.449219 L 17.191406 12.449219 L 17.191406 14.578125 L 8.152344 14.578125 C 6.660156 14.578125 5.488281 15.75 5.488281 17.242188 L 5.488281 17.773438 L 6.554688 17.773438 Z M 6.554688 17.234375 "></path></g></svg> 