<?xml version="1.0" encoding="UTF-8"?> <svg xmlns="http://www.w3.org/2000/svg" xmlns:xlink="http://www.w3.org/1999/xlink" width="36pt" height="30pt" viewBox="0 0 36 30" version="1.1"><g id="surface1"><path style=" stroke:none;fill-rule:nonzero;fill:rgb(100%,25.098039%,50.588235%);fill-opacity:1;" d="M 28.996094 4.109375 C 27.9375 1.636719 25.492188 0 22.785156 0 C 20.421875 0 18.234375 1.253906 17.015625 3.246094 C 15.824219 2.289062 14.347656 1.761719 12.796875 1.761719 C 9.066406 1.761719 6.039062 4.792969 6.039062 8.519531 L 6.039062 9.988281 L 4.859375 9.988281 C 2.59375 9.988281 0.75 11.835938 0.75 14.101562 C 0.75 16.171875 2.289062 17.878906 4.273438 18.164062 L 4.273438 28.199219 C 4.273438 29.175781 5.0625 29.960938 6.039062 29.960938 L 32.476562 29.960938 L 32.476562 28.785156 L 29.535156 28.785156 L 29.535156 18.179688 C 33.148438 17.878906 36 14.851562 36 11.160156 C 36 7.289062 32.859375 4.132812 28.996094 4.109375 Z M 10.738281 28.785156 L 8.390625 28.785156 L 8.390625 24.675781 L 10.738281 24.675781 Z M 16.613281 28.785156 L 14.265625 28.785156 L 14.265625 21.734375 L 16.613281 21.734375 Z M 22.484375 28.785156 L 20.136719 28.785156 L 20.136719 18.800781 L 22.484375 18.800781 Z M 26.011719 28.785156 L 26.011719 15.277344 L 28.359375 15.277344 L 28.359375 28.792969 L 26.011719 28.792969 Z M 29.535156 17.011719 L 29.535156 14.691406 C 29.535156 14.371094 29.273438 14.109375 28.949219 14.109375 L 25.425781 14.109375 C 25.101562 14.109375 24.839844 14.371094 24.839844 14.691406 L 24.839844 28.792969 L 23.664062 28.792969 L 23.664062 18.21875 C 23.664062 17.894531 23.398438 17.632812 23.078125 17.632812 L 19.550781 17.632812 C 19.230469 17.632812 18.96875 17.894531 18.96875 18.21875 L 18.96875 28.792969 L 17.789062 28.792969 L 17.789062 21.148438 C 17.789062 20.828125 17.527344 20.566406 17.203125 20.566406 L 13.679688 20.566406 C 13.359375 20.566406 13.09375 20.828125 13.09375 21.148438 L 13.09375 28.785156 L 11.917969 28.785156 L 11.917969 24.082031 C 11.917969 23.761719 11.65625 23.496094 11.332031 23.496094 L 7.808594 23.496094 C 7.484375 23.496094 7.222656 23.761719 7.222656 24.082031 L 7.222656 28.785156 L 6.039062 28.785156 C 5.714844 28.785156 5.453125 28.523438 5.453125 28.199219 L 5.453125 18.210938 L 8.390625 18.210938 L 8.390625 17.03125 L 4.867188 17.03125 C 3.246094 17.03125 1.925781 15.710938 1.925781 14.09375 C 1.925781 12.472656 3.246094 11.152344 4.867188 11.152344 L 6.628906 11.152344 C 6.953125 11.152344 7.214844 10.890625 7.214844 10.566406 L 7.214844 8.511719 C 7.214844 5.4375 9.71875 2.933594 12.796875 2.933594 C 14.296875 2.933594 15.703125 3.523438 16.761719 4.589844 C 16.898438 4.726562 17.09375 4.792969 17.28125 4.753906 C 17.46875 4.726562 17.632812 4.597656 17.714844 4.425781 C 18.621094 2.445312 20.617188 1.171875 22.785156 1.171875 C 25.140625 1.171875 27.253906 2.664062 28.042969 4.890625 C 28.125 5.121094 28.351562 5.28125 28.597656 5.28125 L 28.957031 5.28125 C 32.199219 5.28125 34.828125 7.914062 34.828125 11.152344 C 34.824219 14.203125 32.503906 16.710938 29.535156 17.011719 Z M 29.535156 17.011719 "></path><path style=" stroke:none;fill-rule:nonzero;fill:rgb(100%,25.098039%,50.588235%);fill-opacity:1;" d="M 28.949219 7.050781 L 28.949219 8.226562 C 30.246094 8.226562 31.296875 9.285156 31.296875 10.574219 L 32.476562 10.574219 C 32.476562 8.632812 30.890625 7.050781 28.949219 7.050781 Z M 28.949219 7.050781 "></path><path style=" stroke:none;fill-rule:nonzero;fill:rgb(100%,25.098039%,50.588235%);fill-opacity:1;" d="M 31.296875 11.753906 L 32.476562 11.753906 L 32.476562 12.929688 L 31.296875 12.929688 Z M 31.296875 11.753906 "></path><path style=" stroke:none;fill-rule:nonzero;fill:rgb(100%,25.098039%,50.588235%);fill-opacity:1;" d="M 25.410156 5.144531 C 25.363281 4.957031 25.222656 4.800781 25.042969 4.734375 C 24.863281 4.664062 24.652344 4.695312 24.496094 4.808594 L 20.386719 7.746094 C 20.175781 7.898438 20.09375 8.160156 20.167969 8.40625 C 20.242188 8.648438 20.476562 8.8125 20.730469 8.8125 L 21.425781 8.8125 C 19.640625 11.300781 16.648438 12.742188 13.558594 12.546875 L 10.199219 12.335938 C 10.035156 12.324219 9.878906 12.382812 9.757812 12.496094 C 9.636719 12.609375 9.570312 12.757812 9.570312 12.921875 L 9.570312 17.625 C 9.570312 17.78125 9.636719 17.941406 9.75 18.050781 C 9.863281 18.15625 10.003906 18.21875 10.15625 18.21875 C 10.164062 18.21875 10.175781 18.21875 10.183594 18.21875 L 15.15625 17.976562 C 19.761719 17.761719 23.65625 14.460938 24.613281 9.953125 L 24.652344 9.789062 L 25.695312 10.484375 C 25.898438 10.621094 26.160156 10.621094 26.363281 10.476562 C 26.558594 10.335938 26.65625 10.085938 26.59375 9.855469 Z M 24.578125 8.324219 C 24.414062 8.21875 24.210938 8.199219 24.03125 8.273438 C 23.851562 8.347656 23.714844 8.503906 23.675781 8.691406 L 23.460938 9.703125 C 22.605469 13.695312 19.164062 16.613281 15.089844 16.808594 L 10.734375 17.015625 L 10.734375 13.558594 L 13.46875 13.734375 C 17.363281 13.980469 21.097656 11.933594 22.996094 8.519531 C 23.09375 8.339844 23.09375 8.113281 22.988281 7.933594 C 22.890625 7.777344 22.734375 7.671875 22.546875 7.648438 L 24.464844 6.277344 L 25.066406 8.671875 Z M 24.578125 8.324219 "></path></g></svg> 