<?xml version="1.0" encoding="UTF-8"?> <svg xmlns="http://www.w3.org/2000/svg" xmlns:xlink="http://www.w3.org/1999/xlink" width="36pt" height="30pt" viewBox="0 0 36 30" version="1.1"><g id="surface1"><path style=" stroke:none;fill-rule:nonzero;fill:rgb(100%,84.313725%,25.098039%);fill-opacity:1;" d="M 32.476562 24.03125 L 31.433594 24.03125 L 31.433594 9.929688 C 31.433594 8.488281 30.261719 7.320312 28.824219 7.320312 L 27.253906 7.320312 L 27.253906 8.363281 L 28.824219 8.363281 C 29.683594 8.363281 30.390625 9.066406 30.390625 9.929688 L 30.390625 24.03125 L 29.347656 24.03125 L 29.347656 9.929688 C 29.347656 9.644531 29.113281 9.40625 28.824219 9.40625 L 27.253906 9.40625 L 27.253906 10.449219 L 28.296875 10.449219 L 28.296875 24.03125 L 8.453125 24.03125 L 8.453125 10.449219 L 9.496094 10.449219 L 9.496094 9.40625 L 7.925781 9.40625 C 7.640625 9.40625 7.402344 9.636719 7.402344 9.929688 L 7.402344 24.03125 L 6.359375 24.03125 L 6.359375 9.929688 C 6.359375 9.066406 7.066406 8.363281 7.925781 8.363281 L 9.496094 8.363281 L 9.496094 7.3125 L 7.925781 7.3125 C 6.488281 7.3125 5.316406 8.484375 5.316406 9.921875 L 5.316406 24.023438 L 4.273438 24.023438 C 3.988281 24.023438 3.75 24.253906 3.75 24.546875 L 3.75 26.640625 C 3.75 28.078125 4.921875 29.25 6.359375 29.25 L 30.390625 29.25 C 31.828125 29.25 33 28.078125 33 26.640625 L 33 24.546875 C 33 24.261719 32.765625 24.03125 32.476562 24.03125 Z M 21.511719 25.074219 L 21.511719 25.597656 C 21.511719 25.882812 21.277344 26.121094 20.984375 26.121094 L 15.765625 26.121094 C 15.480469 26.121094 15.238281 25.890625 15.238281 25.597656 L 15.238281 25.074219 Z M 31.957031 26.640625 C 31.957031 27.503906 31.253906 28.207031 30.390625 28.207031 L 6.359375 28.207031 C 5.496094 28.207031 4.792969 27.503906 4.792969 26.640625 L 4.792969 25.074219 L 14.199219 25.074219 L 14.199219 25.597656 C 14.199219 26.460938 14.902344 27.164062 15.765625 27.164062 L 20.984375 27.164062 C 21.847656 27.164062 22.550781 26.460938 22.550781 25.597656 L 22.550781 25.074219 L 31.957031 25.074219 Z M 9.496094 19.84375 L 9.496094 20.886719 L 27.253906 20.886719 L 27.253906 19.84375 L 26.730469 19.84375 L 26.730469 0.523438 C 26.730469 0.238281 26.496094 0 26.203125 0 L 10.539062 0 C 10.253906 0 10.011719 0.234375 10.011719 0.523438 L 10.011719 19.851562 L 9.496094 19.851562 Z M 25.6875 1.042969 L 25.6875 4.175781 L 11.0625 4.175781 L 11.0625 1.042969 Z M 11.0625 5.21875 L 25.6875 5.21875 L 25.6875 19.84375 L 11.0625 19.84375 Z M 9.496094 21.9375 L 10.539062 21.9375 L 10.539062 22.980469 L 9.496094 22.980469 Z M 11.585938 22.980469 L 11.585938 21.9375 L 12.628906 21.9375 L 12.628906 22.980469 Z M 13.671875 22.980469 L 13.671875 21.9375 L 14.714844 21.9375 L 14.714844 22.980469 Z M 15.765625 22.980469 L 15.765625 21.9375 L 16.808594 21.9375 L 16.808594 22.980469 Z M 17.851562 22.980469 L 17.851562 21.9375 L 18.890625 21.9375 L 18.890625 22.980469 Z M 19.941406 22.980469 L 19.941406 21.9375 L 20.984375 21.9375 L 20.984375 22.980469 Z M 22.035156 22.980469 L 22.035156 21.9375 L 23.078125 21.9375 L 23.078125 22.980469 Z M 24.121094 22.980469 L 24.121094 21.9375 L 25.164062 21.9375 L 25.164062 22.980469 Z M 26.210938 21.9375 L 27.253906 21.9375 L 27.253906 22.980469 L 26.210938 22.980469 Z M 18.375 6.789062 C 15.203125 6.789062 12.628906 9.359375 12.628906 12.53125 C 12.628906 15.703125 15.203125 18.277344 18.375 18.277344 C 21.546875 18.277344 24.121094 15.703125 24.121094 12.53125 C 24.121094 9.359375 21.546875 6.789062 18.375 6.789062 Z M 18.375 17.234375 C 15.78125 17.234375 13.671875 15.128906 13.671875 12.53125 C 13.671875 9.9375 15.78125 7.828125 18.375 7.828125 C 20.96875 7.828125 23.078125 9.9375 23.078125 12.53125 C 23.078125 15.128906 20.96875 17.234375 18.375 17.234375 Z M 18.898438 9.921875 L 19.941406 9.921875 L 19.941406 10.964844 L 17.851562 10.964844 L 17.851562 12.007812 L 19.417969 12.007812 C 19.703125 12.007812 19.941406 12.238281 19.941406 12.53125 L 19.941406 14.625 C 19.941406 14.910156 19.710938 15.148438 19.417969 15.148438 L 18.890625 15.148438 L 18.890625 16.191406 L 17.851562 16.191406 L 17.851562 15.148438 L 16.808594 15.148438 L 16.808594 14.101562 L 18.898438 14.101562 L 18.898438 13.058594 L 17.332031 13.058594 C 17.046875 13.058594 16.808594 12.824219 16.808594 12.53125 L 16.808594 10.441406 C 16.808594 10.15625 17.039062 9.914062 17.332031 9.914062 L 17.859375 9.914062 L 17.859375 8.871094 L 18.898438 8.871094 Z M 13.15625 3.136719 L 12.113281 3.136719 L 12.113281 2.09375 L 13.15625 2.09375 Z M 15.238281 3.136719 L 14.199219 3.136719 L 14.199219 2.09375 L 15.238281 2.09375 Z M 17.332031 3.136719 L 16.289062 3.136719 L 16.289062 2.09375 L 17.332031 2.09375 Z M 24.644531 3.136719 L 19.941406 3.136719 L 19.941406 2.09375 L 24.644531 2.09375 Z M 24.644531 3.136719 "></path></g></svg> 