<?xml version="1.0" encoding="UTF-8"?> <!-- Generator: Adobe Illustrator 23.0.3, SVG Export Plug-In . SVG Version: 6.00 Build 0) --> <svg xmlns="http://www.w3.org/2000/svg" xmlns:xlink="http://www.w3.org/1999/xlink" version="1.1" id="Layer_1" x="0px" y="0px" viewBox="0 0 58 48" style="enable-background:new 0 0 58 48;" xml:space="preserve"> <style type="text/css"> .st0{fill:#FF4081;} </style> <g> <path class="st0" d="M47.75,33.73c-0.43,1.35-1.42,2.44-2.72,2.99L18.59,48.03L18,47.76C6.1,42.1,4.5,41.25,4.14,40.97l2.07-2.11 c1.62,0.85,8.05,3.93,12.44,6.01l25.25-10.8c1-0.43,1.47-1.58,1.04-2.59c-0.04-0.09-0.08-0.18-0.14-0.26 c-0.51-0.83-1.54-1.16-2.43-0.79l-19.23,7.91l-9.19-4.68l1.31-2.57l8.01,4.08l3.33-1.37c-0.52-1.06-1.2-2.03-2.02-2.88 c-5.47-5.68-15.78-6.08-21.86-0.92L0,28.66c0.14-0.21,0.32-0.41,0.52-0.57c7.11-6.37,19.57-5.98,26.14,0.83 c1.07,1.11,1.95,2.39,2.62,3.79l12-4.94c2.48-1.02,5.32,0.16,6.34,2.64C48.05,31.47,48.1,32.65,47.75,33.73L47.75,33.73z"></path> <polygon class="st0" points="22.39,22.51 16.65,16.77 18.69,14.73 22.39,18.44 29.24,11.59 31.28,13.63 "></polygon> <path class="st0" d="M41.02,17.05c0.01,3.31-0.96,6.54-2.77,9.31h-3.6c5.14-5.9,4.53-14.85-1.37-19.99S18.43,1.84,13.28,7.74 c-2.25,2.58-3.49,5.89-3.49,9.31c0,1.53,0.25,3.05,0.74,4.5H7.52c-0.4-1.47-0.61-2.98-0.61-4.5C6.91,7.63,14.55,0,23.96,0 S41.02,7.63,41.02,17.05L41.02,17.05z"></path> </g> </svg> 