<?xml version="1.0" encoding="UTF-8"?> <svg xmlns="http://www.w3.org/2000/svg" xmlns:xlink="http://www.w3.org/1999/xlink" width="36pt" height="30pt" viewBox="0 0 36 30" version="1.1"><g id="surface1"><path style=" stroke:none;fill-rule:nonzero;fill:rgb(100%,84.313725%,25.098039%);fill-opacity:1;" d="M 13.597656 1.5 L 17.578125 1.5 L 17.578125 2.496094 L 13.597656 2.496094 Z M 13.597656 1.5 "></path><path style=" stroke:none;fill-rule:nonzero;fill:rgb(100%,84.313725%,25.098039%);fill-opacity:1;" d="M 11.601562 1.5 L 12.601562 1.5 L 12.601562 2.496094 L 11.601562 2.496094 Z M 11.601562 1.5 "></path><path style=" stroke:none;fill-rule:nonzero;fill:rgb(100%,84.313725%,25.098039%);fill-opacity:1;" d="M 18.570312 1.5 L 19.566406 1.5 L 19.566406 2.496094 L 18.570312 2.496094 Z M 18.570312 1.5 "></path><path style=" stroke:none;fill-rule:nonzero;fill:rgb(100%,84.313725%,25.098039%);fill-opacity:1;" d="M 13.597656 27.382812 L 16.582031 27.382812 L 16.582031 28.378906 L 13.597656 28.378906 Z M 13.597656 27.382812 "></path><path style=" stroke:none;fill-rule:nonzero;fill:rgb(100%,84.313725%,25.098039%);fill-opacity:1;" d="M 25.546875 11.453125 L 24.546875 11.453125 L 24.546875 10.453125 C 24.546875 10.175781 24.324219 9.960938 24.050781 9.960938 L 13.101562 9.960938 C 12.824219 9.960938 12.609375 10.183594 12.609375 10.453125 L 12.609375 11.453125 L 11.609375 11.453125 C 11.332031 11.453125 11.113281 11.675781 11.113281 11.949219 L 11.113281 17.917969 C 11.113281 18.195312 11.339844 18.414062 11.609375 18.414062 L 12.609375 18.414062 L 12.609375 19.410156 C 12.609375 19.6875 12.832031 19.90625 13.101562 19.90625 L 24.050781 19.90625 C 24.328125 19.90625 24.546875 19.679688 24.546875 19.410156 L 24.546875 18.414062 L 25.546875 18.414062 C 25.824219 18.414062 26.039062 18.1875 26.039062 17.917969 L 26.039062 11.949219 C 26.039062 11.675781 25.816406 11.453125 25.546875 11.453125 Z M 25.042969 17.421875 L 24.046875 17.421875 C 23.765625 17.421875 23.550781 17.648438 23.550781 17.917969 L 23.550781 18.914062 L 13.597656 18.914062 L 13.597656 17.925781 C 13.597656 17.648438 13.371094 17.429688 13.101562 17.429688 L 12.105469 17.429688 L 12.105469 12.449219 L 13.101562 12.449219 C 13.378906 12.449219 13.597656 12.226562 13.597656 11.953125 L 13.597656 10.957031 L 23.550781 10.957031 L 23.550781 11.953125 C 23.550781 12.234375 23.773438 12.449219 24.046875 12.449219 L 25.042969 12.449219 Z M 25.042969 17.421875 "></path><path style=" stroke:none;fill-rule:nonzero;fill:rgb(100%,84.313725%,25.098039%);fill-opacity:1;" d="M 29.519531 12.945312 C 29.796875 12.945312 30.015625 12.71875 30.015625 12.449219 L 30.015625 8.46875 C 30.015625 7.640625 29.347656 6.976562 28.523438 6.976562 L 23.046875 6.976562 L 23.046875 1.5 C 23.046875 0.675781 22.378906 0.0078125 21.554688 0.0078125 L 8.617188 0.0078125 C 7.792969 0.0078125 7.125 0.675781 7.125 1.5 L 7.125 28.378906 C 7.125 29.203125 7.792969 29.871094 8.617188 29.871094 L 21.554688 29.871094 C 22.378906 29.871094 23.046875 29.203125 23.046875 28.378906 L 23.046875 22.90625 L 28.523438 22.90625 C 29.347656 22.90625 30.015625 22.238281 30.015625 21.414062 L 30.015625 17.429688 C 30.015625 17.152344 29.789062 16.933594 29.519531 16.933594 C 28.417969 16.933594 27.53125 16.042969 27.53125 14.949219 C 27.53125 13.835938 28.425781 12.945312 29.519531 12.945312 Z M 8.617188 0.996094 L 21.554688 0.996094 C 21.832031 0.996094 22.050781 1.222656 22.050781 1.492188 L 22.050781 2.984375 L 8.121094 2.984375 L 8.121094 1.5 C 8.121094 1.222656 8.347656 0.996094 8.617188 0.996094 Z M 21.5625 28.875 L 8.617188 28.875 C 8.339844 28.875 8.121094 28.648438 8.121094 28.378906 L 8.121094 26.886719 L 22.058594 26.886719 L 22.058594 28.378906 C 22.058594 28.648438 21.832031 28.875 21.5625 28.875 Z M 22.058594 25.890625 L 8.121094 25.890625 L 8.121094 3.988281 L 22.058594 3.988281 L 22.058594 6.976562 L 10.613281 6.976562 C 9.789062 6.976562 9.121094 7.640625 9.121094 8.46875 L 9.121094 21.40625 C 9.121094 22.230469 9.789062 22.898438 10.613281 22.898438 L 22.058594 22.898438 Z M 29.023438 17.878906 L 29.023438 21.40625 C 29.023438 21.683594 28.800781 21.898438 28.53125 21.898438 L 10.613281 21.898438 C 10.335938 21.898438 10.117188 21.675781 10.117188 21.40625 L 10.117188 8.46875 C 10.117188 8.191406 10.34375 7.972656 10.613281 7.972656 L 28.53125 7.972656 C 28.808594 7.972656 29.023438 8.199219 29.023438 8.46875 L 29.023438 11.992188 C 27.398438 12.261719 26.300781 13.808594 26.574219 15.433594 C 26.789062 16.6875 27.773438 17.671875 29.023438 17.878906 Z M 29.023438 17.878906 "></path></g></svg> 