<?xml version="1.0" encoding="UTF-8"?> <svg xmlns="http://www.w3.org/2000/svg" xmlns:xlink="http://www.w3.org/1999/xlink" width="36pt" height="30pt" viewBox="0 0 36 30" version="1.1"><g id="surface1"><path style=" stroke:none;fill-rule:nonzero;fill:rgb(95.294118%,48.235294%,12.54902%);fill-opacity:1;" d="M 31.386719 15.496094 C 31.191406 15.496094 31.011719 15.53125 30.847656 15.601562 C 30.683594 14.984375 30.121094 14.527344 29.453125 14.527344 C 29.257812 14.527344 29.078125 14.566406 28.914062 14.632812 C 28.746094 14.015625 28.183594 13.558594 27.515625 13.558594 C 27.34375 13.558594 27.1875 13.597656 27.03125 13.648438 L 27.03125 13.273438 L 28.34375 11.960938 L 27.660156 11.28125 L 27.039062 11.902344 L 27.039062 10.164062 C 27.039062 9.359375 26.386719 8.707031 25.582031 8.707031 C 24.78125 8.707031 24.128906 9.359375 24.128906 10.164062 L 24.128906 11.902344 L 23.503906 11.28125 L 22.824219 11.960938 L 24.136719 13.273438 L 24.136719 18.59375 L 23.828125 17.203125 C 23.671875 16.484375 23.039062 15.984375 22.304688 15.984375 C 21.441406 15.984375 20.746094 16.679688 20.746094 17.542969 L 20.746094 17.789062 C 20.746094 17.917969 20.761719 18.046875 20.789062 18.164062 L 22.109375 23.4375 C 22.191406 23.773438 22.351562 24.089844 22.566406 24.359375 L 23.8125 25.921875 C 24.015625 26.175781 24.128906 26.496094 24.128906 26.828125 L 24.128906 30.023438 L 31.875 30.023438 L 31.875 26.519531 C 31.875 26.332031 31.914062 26.152344 31.980469 25.980469 L 32.671875 24.253906 C 32.78125 23.96875 32.84375 23.664062 32.84375 23.355469 L 32.84375 16.949219 C 32.835938 16.148438 32.183594 15.496094 31.386719 15.496094 Z M 31.867188 23.355469 C 31.867188 23.542969 31.828125 23.722656 31.761719 23.894531 L 31.074219 25.621094 C 30.960938 25.90625 30.898438 26.210938 30.898438 26.519531 L 30.898438 29.054688 L 25.085938 29.054688 L 25.085938 26.828125 C 25.085938 26.28125 24.898438 25.738281 24.554688 25.3125 L 23.308594 23.753906 C 23.183594 23.585938 23.085938 23.398438 23.03125 23.199219 L 21.710938 17.925781 C 21.699219 17.878906 21.699219 17.828125 21.699219 17.78125 L 21.699219 17.535156 C 21.699219 17.210938 21.960938 16.941406 22.289062 16.941406 C 22.566406 16.941406 22.808594 17.128906 22.867188 17.40625 L 23.730469 21.300781 L 25.085938 21.300781 L 25.085938 10.171875 C 25.085938 9.898438 25.304688 9.683594 25.574219 9.683594 C 25.84375 9.683594 26.0625 9.898438 26.0625 10.171875 L 26.0625 21.308594 L 27.03125 21.308594 L 27.03125 15.015625 C 27.03125 14.746094 27.246094 14.527344 27.515625 14.527344 C 27.789062 14.527344 28.003906 14.746094 28.003906 15.015625 L 28.003906 21.308594 L 28.972656 21.308594 L 28.972656 15.984375 C 28.972656 15.710938 29.191406 15.496094 29.460938 15.496094 C 29.730469 15.496094 29.949219 15.710938 29.949219 15.984375 L 29.949219 21.308594 L 30.914062 21.308594 L 30.914062 16.949219 C 30.914062 16.679688 31.132812 16.460938 31.402344 16.460938 C 31.671875 16.460938 31.890625 16.679688 31.890625 16.949219 L 31.890625 23.355469 Z M 31.867188 23.355469 "></path><path style=" stroke:none;fill-rule:nonzero;fill:rgb(95.294118%,48.235294%,12.54902%);fill-opacity:1;" d="M 6.691406 12.59375 L 7.65625 12.59375 L 7.65625 13.558594 L 6.691406 13.558594 Z M 6.691406 12.59375 "></path><path style=" stroke:none;fill-rule:nonzero;fill:rgb(95.294118%,48.235294%,12.54902%);fill-opacity:1;" d="M 30.136719 10.648438 C 30.023438 10.648438 29.933594 10.558594 29.933594 10.449219 C 29.933594 10.394531 29.953125 10.34375 29.992188 10.304688 L 30.757812 9.539062 C 31.46875 8.828125 31.867188 7.875 31.867188 6.863281 L 31.867188 6.699219 C 31.867188 4.605469 30.164062 2.910156 28.078125 2.910156 L 27.914062 2.910156 C 27.058594 2.910156 26.242188 3.195312 25.574219 3.71875 C 24.90625 3.195312 24.097656 2.910156 23.234375 2.910156 L 23.070312 2.910156 C 20.976562 2.910156 19.28125 4.613281 19.28125 6.699219 L 19.28125 6.863281 C 19.28125 7.875 19.679688 8.828125 20.390625 9.539062 L 21.15625 10.304688 C 21.195312 10.34375 21.21875 10.394531 21.21875 10.449219 C 21.21875 10.558594 21.128906 10.648438 21.015625 10.648438 L 18.308594 10.648438 L 18.308594 1.933594 C 18.308594 0.871094 17.4375 0 16.371094 0 L 4.746094 0 C 3.683594 0 2.8125 0.871094 2.8125 1.933594 L 2.8125 24.210938 C 2.8125 25.273438 3.683594 26.144531 4.746094 26.144531 L 16.371094 26.144531 C 17.4375 26.144531 18.308594 25.273438 18.308594 24.210938 L 18.308594 11.625 L 21.015625 11.625 C 21.660156 11.625 22.183594 11.101562 22.183594 10.453125 C 22.183594 10.148438 22.058594 9.847656 21.839844 9.628906 L 21.074219 8.863281 C 20.542969 8.324219 20.25 7.621094 20.25 6.863281 L 20.25 6.699219 C 20.25 5.144531 21.515625 3.878906 23.070312 3.878906 L 23.234375 3.878906 C 23.992188 3.878906 24.699219 4.171875 25.230469 4.703125 L 25.574219 5.046875 L 25.921875 4.703125 C 26.453125 4.171875 27.164062 3.878906 27.914062 3.878906 L 28.078125 3.878906 C 29.640625 3.878906 30.898438 5.144531 30.898438 6.699219 L 30.898438 6.863281 C 30.898438 7.621094 30.609375 8.324219 30.074219 8.859375 L 29.308594 9.621094 C 29.09375 9.839844 28.964844 10.140625 28.964844 10.449219 C 28.964844 11.09375 29.488281 11.617188 30.136719 11.617188 L 32.84375 11.617188 L 32.84375 10.648438 Z M 4.746094 0.96875 L 16.371094 0.96875 C 16.90625 0.96875 17.339844 1.402344 17.339844 1.933594 L 17.339844 3.871094 L 3.78125 3.871094 L 3.78125 1.933594 C 3.78125 1.402344 4.214844 0.96875 4.746094 0.96875 Z M 16.371094 25.183594 L 4.746094 25.183594 C 4.214844 25.183594 3.78125 24.75 3.78125 24.21875 L 3.78125 22.273438 L 17.339844 22.273438 L 17.339844 24.210938 C 17.339844 24.75 16.90625 25.183594 16.371094 25.183594 Z M 17.339844 21.308594 L 3.78125 21.308594 L 3.78125 4.84375 L 17.339844 4.84375 L 17.339844 10.65625 L 16.035156 10.65625 L 14.976562 13.46875 L 13.101562 6.90625 L 10.261719 12.59375 L 8.625 12.59375 L 8.625 13.558594 L 10.859375 13.558594 L 12.855469 9.5625 L 14.851562 16.558594 L 16.703125 11.625 L 17.332031 11.625 L 17.332031 21.308594 Z M 17.339844 21.308594 "></path><path style=" stroke:none;fill-rule:nonzero;fill:rgb(95.294118%,48.235294%,12.54902%);fill-opacity:1;" d="M 4.746094 12.59375 L 5.714844 12.59375 L 5.714844 13.558594 L 4.746094 13.558594 Z M 4.746094 12.59375 "></path><path style=" stroke:none;fill-rule:nonzero;fill:rgb(95.294118%,48.235294%,12.54902%);fill-opacity:1;" d="M 7.65625 23.242188 L 13.46875 23.242188 L 13.46875 24.210938 L 7.65625 24.210938 Z M 7.65625 23.242188 "></path></g></svg> 