<?xml version="1.0" encoding="UTF-8"?> <!-- Generator: Adobe Illustrator 23.0.3, SVG Export Plug-In . SVG Version: 6.00 Build 0) --> <svg xmlns="http://www.w3.org/2000/svg" xmlns:xlink="http://www.w3.org/1999/xlink" version="1.1" id="Layer_1" x="0px" y="0px" viewBox="0 0 1920 685.48" style="enable-background:new 0 0 1920 685.48;" xml:space="preserve"> <style type="text/css"> .st0{opacity:0.59;fill:#E7E7E7;} .st1{opacity:0.41;fill-rule:evenodd;clip-rule:evenodd;fill:#F2F2F2;} .st2{opacity:0.53;fill-rule:evenodd;clip-rule:evenodd;fill:#E7E7E7;} .st3{opacity:0.59;fill-rule:evenodd;clip-rule:evenodd;fill:#E7E7E7;} .st4{opacity:0.68;fill-rule:evenodd;clip-rule:evenodd;fill:#F2F2F2;} .st5{fill-rule:evenodd;clip-rule:evenodd;fill:#E6E6E6;} .st6{opacity:0.53;fill-rule:evenodd;clip-rule:evenodd;fill:#E6E6E6;} .st7{fill:#F05A2A;} .st8{fill:#F8EC3A;} .st9{fill:#FFFFFF;} .st10{fill:#FF4081;} .st11{fill:#FFD740;} .st12{fill:#40C4FF;} .st13{fill:#399439;} .st14{fill:#FE912A;} .st15{fill:#EF4335;} .st16{fill:#DD3A78;} .st17{fill:#E0B83B;} .st18{fill:#39AED8;} .st19{fill:#317C31;} .st20{fill:#FA7903;} .st21{fill:#D33C35;} .st22{fill:url(#SVGID_1_);} .st23{fill:url(#SVGID_2_);} .st24{fill:none;stroke:#403F41;stroke-width:3.8983;stroke-linecap:round;stroke-miterlimit:10;} .st25{fill:#A6A8AB;} .st26{fill:#221F1F;} .st27{fill:none;stroke:#403F41;stroke-width:3.2521;stroke-linecap:round;stroke-miterlimit:10;} .st28{opacity:0.34;fill:#FFFFFF;} .st29{fill:#403F41;} .st30{font-family:'Raleway-ExtraBold';} .st31{font-size:20px;} </style> <path class="st0" d="M835.56,41.87c-1.9,0-3.73,0.29-5.46,0.81c0.01-0.27,0.02-0.54,0.02-0.81c0-16.79-13.61-30.39-30.4-30.39 c-15.35,0-28.04,11.38-30.09,26.16c-2.62-0.92-5.43-1.42-8.36-1.42c-14,0-25.34,11.34-25.34,25.34c0,12.67,9.29,23.16,21.44,25.04 c2.6,10.89,12.37,18.99,24.06,18.99c9.51,0,17.75-5.36,21.9-13.23c3.18,4.64,8.52,7.69,14.57,7.69c9.75,0,17.66-7.91,17.66-17.66 c0-0.86-0.08-1.7-0.2-2.53c0.07,0,0.13,0.01,0.2,0.01c10.5,0,19-8.51,19-19C854.56,50.38,846.05,41.87,835.56,41.87z"></path> <path class="st0" d="M512.96,284.59c-1.51,0-2.97,0.23-4.35,0.65c0.01-0.22,0.02-0.44,0.02-0.65c0-8.45-6.85-15.31-15.31-15.31 c-4.91,0-9.28,2.32-12.08,5.91c-2.4-2.23-5.61-3.6-9.15-3.6c-5.41,0-10.07,3.2-12.2,7.81c-1.46-0.56-3.04-0.88-4.7-0.88 c-7.18,0-13,5.82-13,13s5.82,13,13,13c1.03,0,2.03-0.12,3-0.35c-0.06,0.56-0.1,1.14-0.1,1.72c0,8.21,6.66,14.87,14.87,14.87 c4.52,0,8.57-2.02,11.29-5.2c2.38,3.6,6.45,5.97,11.09,5.97c5.63,0,10.43-3.5,12.37-8.44c1.63,0.62,3.4,0.96,5.25,0.96 c8.13,0,14.73-6.6,14.73-14.73C527.69,291.18,521.09,284.59,512.96,284.59z M486.02,298.77c-0.21-0.38-0.43-0.75-0.67-1.11 c0.38,0.23,0.77,0.45,1.17,0.64C486.35,298.45,486.19,298.61,486.02,298.77z"></path> <path class="st0" d="M395.97,102.26c-4.12-11.75-16.91-19.79-31.43-18.72c-11.81,0.87-21.62,7.54-26.13,16.58 c-4.33-4.82-11.21-7.69-18.73-7.14c-12.12,0.89-21.29,10.32-20.5,21.07c0.07,0.95,0.24,1.87,0.45,2.77c-0.08,0-0.17,0-0.25,0.01 c-13.04,0.96-22.92,11.11-22.06,22.67c0.85,11.56,12.11,20.16,25.15,19.2c2.36-0.17,4.61-0.66,6.72-1.39 c0.01,0.3,0.02,0.59,0.04,0.89c1.36,18.49,19.37,32.23,40.22,30.7c19.07-1.4,33.9-15.1,35.26-31.58c3.33,0.77,6.86,1.07,10.5,0.8 c17.38-1.28,30.56-14.81,29.42-30.23C423.6,113.93,411.2,103.22,395.97,102.26z"></path> <path class="st1" d="M1190.42,685.48h655.08c1.56-0.75,3.09-1.54,4.57-2.35c0.8,0.8,1.63,1.58,2.48,2.35H1920V583.69 c-0.95,0.05-1.9,0.11-2.84,0.18c1.85-4.45,2.84-9.15,2.84-14.01c0-17.01-12.14-32.09-30.85-41.45 c-5.95-17.24-28.7-30.08-55.86-30.08c-17.85,0-33.79,5.54-44.32,14.24l-0.53-0.18c-3.64-12.76-18.47-22.8-37.26-25.21 c-9.77-18.2-35.45-31.2-65.59-31.2c-38.55,0-69.81,21.26-69.81,47.49l0,0.41c-7.79-10.25-23.51-17.25-41.65-17.25 c-25.88,0-46.86,14.27-46.86,31.88c0,1.18,0.1,2.35,0.28,3.51c-0.35,0.06-0.7,0.11-1.05,0.17c-7.97-3.95-17.78-6.28-28.4-6.28 c-9.96,0-19.21,2.05-26.9,5.57c-9.03-11.44-26.78-19.23-47.21-19.23c-29.58,0-53.55,16.31-53.55,36.43v0.04 c-14.28,0.46-26.97,5.07-35.53,12.09c-6.68-1.58-13.85-2.44-21.32-2.44c-35.92,0-65.02,19.81-65.02,44.24 c0,6.35,1.97,12.38,5.51,17.84c-37.95,10.18-64.8,35.34-64.8,64.78C1189.31,678.69,1189.69,682.12,1190.42,685.48L1190.42,685.48z M1454.03,653.75l-0.15-0.03l0.11-0.18L1454.03,653.75z"></path> <path class="st1" d="M729.53,685.47H74.49c-1.56-0.75-3.08-1.54-4.57-2.35c-0.8,0.8-1.62,1.58-2.47,2.35H0V583.69 c0.95,0.05,1.9,0.11,2.84,0.18C0.99,579.42,0,574.72,0,569.86c0-17.12,12.3-32.29,31.21-41.63c4.99-14.52,24.15-25.34,47.02-25.34 c13.89,0,26.42,3.99,35.23,10.38c6.33-13.92,25.41-24.04,47.96-24.04c2.11,0,4.2,0.09,6.24,0.26c8.78-19.4,35.33-33.5,66.72-33.5 c26.73,0,49.95,10.23,61.68,25.24c17.5,3.15,31.15,12.72,35.18,24.79c5.51-1.63,11.58-2.54,17.97-2.54c18.39,0,34.21,7.5,41.2,18.25 c9.52,1.24,18.2,4.12,25.37,8.18c6.77-11.27,23.05-19.21,42.05-19.21c24.47,0,44.42,13.17,45.38,29.66 c8.48,3.14,15.98,7.34,22.13,12.34c6.5-2.29,13.89-3.59,21.72-3.59c9.69,0,18.71,1.99,26.21,5.39c9.69-3.9,21-6.14,33.07-6.14 c35.91,0,65.02,19.8,65.02,44.23c0,6.35-1.97,12.38-5.51,17.84c37.94,10.18,64.79,35.34,64.79,64.77 C730.64,678.69,730.26,682.11,729.53,685.47L729.53,685.47z M465.94,653.75l0.15-0.03l-0.11-0.18L465.94,653.75z"></path> <path class="st2" d="M292.4,685.48h331.24c0.79-0.38,1.56-0.78,2.31-1.19c0.41,0.4,0.82,0.8,1.25,1.19h6.25h27.85h6.25 c0.43-0.39,0.85-0.79,1.25-1.19c0.75,0.41,1.52,0.81,2.31,1.19h331.24c0.37-1.69,0.56-3.43,0.56-5.19 c0-14.88-13.58-27.61-32.77-32.76c1.79-2.76,2.79-5.81,2.79-9.02c0-12.35-14.72-22.37-32.88-22.37c-15.62,0-28.69,7.4-32.04,17.34 c-1.31-13.72-18.08-24.57-38.57-24.57c-6.92,0-13.42,1.24-19.04,3.4c-4.87-5.96-14.21-9.98-24.94-9.98c-4.82,0-9.35,0.81-13.33,2.25 c-2.82-7.23-12.51-12.57-24.03-12.57c-0.3,0-0.6,0.01-0.9,0.01c-1.09-12.6-16.44-22.59-35.23-22.59c-16.12,0-29.71,7.35-33.94,17.39 c-4.21-1.27-8.88-1.97-13.78-1.97c-3.73,0-7.32,0.41-10.68,1.16c-3.59-1.56-7.85-2.46-12.42-2.46c-12.42,0-22.54,6.67-23.08,15.03 c-3.77-2.18-8.2-3.84-13.04-4.86c-3.62-6.84-13.24-11.72-24.54-11.72c-6.09,0-11.7,1.42-16.14,3.81 c-5.25-3.03-12.04-4.85-19.46-4.85c-3.82,0-7.48,0.49-10.85,1.37c-5.9-7.66-17.69-12.88-31.28-12.88 c-19.15,0-34.74,10.38-35.28,23.32c-1.12-0.06-2.25-0.09-3.39-0.09c-12.52,0-23.74,3.81-31.28,9.82c-1.16-0.1-2.34-0.15-3.54-0.15 c-4.81,0-9.34,0.81-13.31,2.24c-4.33-2.94-10.29-4.75-16.89-4.75c-9.75,0-18.14,3.97-21.86,9.67c-16.67,2.41-29.36,12.13-30.5,24 c-3.35-9.93-16.42-17.34-32.04-17.34c-18.16,0-32.88,10.01-32.88,22.37c0,3.21,0.99,6.26,2.79,9.02 c-19.19,5.15-32.77,17.87-32.77,32.76C291.84,682.05,292.03,683.78,292.4,685.48L292.4,685.48z M869.09,669.43l0.02-0.1l0.05,0.09 L869.09,669.43L869.09,669.43z M425.69,669.43l-0.08-0.01l0.05-0.09L425.69,669.43z"></path> <path class="st3" d="M883.81,685.47h331.22c0.78-0.38,1.56-0.78,2.31-1.19c0.4,0.4,0.82,0.8,1.25,1.19h6.25h27.85h6.26 c0.43-0.39,0.84-0.79,1.25-1.19c0.75,0.41,1.52,0.81,2.31,1.19h331.22c0.37-1.69,0.56-3.43,0.56-5.19 c0-14.88-13.58-27.61-32.76-32.75c1.79-2.76,2.79-5.81,2.79-9.02c0-12.35-14.72-22.37-32.88-22.37c-15.62,0-28.69,7.4-32.04,17.33 c-1.31-13.72-18.08-24.57-38.57-24.57c-6.92,0-13.42,1.24-19.03,3.4c-4.87-5.96-14.22-9.98-24.94-9.98c-4.82,0-9.35,0.81-13.33,2.25 c-2.82-7.23-12.51-12.57-24.03-12.57c-0.3,0-0.6,0.01-0.9,0.01c-1.08-12.6-16.44-22.58-35.23-22.58c-16.12,0-29.71,7.35-33.94,17.39 c-4.21-1.27-8.87-1.97-13.78-1.97c-3.73,0-7.32,0.41-10.68,1.16c-3.59-1.56-7.85-2.46-12.42-2.46c-12.42,0-22.54,6.67-23.07,15.02 c-3.78-2.18-8.2-3.84-13.04-4.86c-3.62-6.84-13.24-11.72-24.53-11.72c-6.1,0-11.7,1.42-16.14,3.81c-5.25-3.03-12.04-4.85-19.46-4.85 c-3.82,0-7.48,0.49-10.85,1.37c-5.9-7.66-17.69-12.88-31.28-12.88c-19.15,0-34.74,10.38-35.28,23.32c-1.12-0.06-2.25-0.09-3.39-0.09 c-12.52,0-23.74,3.81-31.28,9.82c-1.16-0.1-2.35-0.15-3.54-0.15c-4.81,0-9.34,0.81-13.31,2.24c-4.33-2.94-10.29-4.75-16.89-4.75 c-9.75,0-18.14,3.97-21.86,9.67c-16.67,2.41-29.36,12.13-30.49,23.99c-3.35-9.93-16.43-17.33-32.04-17.33 c-18.16,0-32.88,10.01-32.88,22.37c0,3.21,0.99,6.26,2.79,9.02c-19.19,5.15-32.77,17.87-32.77,32.75 C883.25,682.04,883.44,683.77,883.81,685.47L883.81,685.47z M1460.46,669.43l0.02-0.1l0.05,0.09L1460.46,669.43L1460.46,669.43z M1017.09,669.43l-0.07-0.01l0.05-0.09L1017.09,669.43z"></path> <g> <g> <path class="st4" d="M688.2,686.44H493.34c40.88-44.08,75.06-117.76,78.18-238.95c0.2-7.65,0.06-15.51,0-23.54 c0,0-0.42-3.27-0.62-5.87h19.88h19.88c-0.2,2.6-0.63,5.87-0.63,5.87c-0.05,8.03-0.2,15.89,0,23.54 C613.21,568.63,647.33,642.36,688.2,686.44z"></path> <path class="st5" d="M569.18,415.22c-0.25,10.47-1.8,99.9-9.33,145.09c-7.53,45.2-24.37,101.17-24.37,101.17 c17-52.84,39.86-132.34,40.62-183.54c0.73,39.15-11.3,145.67-10.24,144.08c15.51-47.37,20.53-118.92,20.84-148.45l4.08,85.41 l4.08-85.41c0.31,29.53,5.33,101.08,20.84,148.45c1.06,1.59-10.98-104.93-10.24-144.08c0.76,51.2,23.62,130.7,40.62,183.54 c0,0-16.84-55.98-24.37-101.17c-7.53-45.2-9.61-134.62-9.87-145.09H569.18z"></path> <path class="st6" d="M514.96,670.93c2.81-0.44,24.38-40.44,29.72-53.83c5.33-13.39,8.7-29.75,8.58-27.83 c-1.6,25.85-14.45,59.38-14.38,59.31c1.16-1.22,15.31-31.13,21.8-49.92c6.49-18.78,11.13-39.65,11.13-36.18 c0,24.77-5.84,54.22-17.63,92.18c1.86-2.43,16.7-32.7,20.41-44.87c3.71-12.17,5.1-15.65,5.1-15.65 c-1.06,32.71-11.65,64.95-11.09,64.31c13.4-15.23,21.31-87.86,22.58-90.71c1.27,2.85,9.18,75.48,22.58,90.71 c0.56,0.64-10.04-31.6-11.09-64.31c0,0,1.39,3.48,5.1,15.65c3.71,12.17,18.56,42.44,20.41,44.87 c-11.79-37.95-17.63-67.41-17.63-92.18c0-3.48,4.64,17.39,11.13,36.18c6.49,18.78,20.64,48.7,21.8,49.92 c0.07,0.07-12.79-33.45-14.38-59.31c-0.12-1.92,3.25,14.44,8.58,27.83c5.33,13.39,26.91,53.39,29.72,53.83l-76.23,6.8 L514.96,670.93z"></path> </g> <g> <g> <path class="st7" d="M593.99,392.48c-13.27,0.34-24.6,15.28-24.33,25.91c0.27,10.63,26.28,50.84,26.28,50.84 c7.34-18.41,23.93-41.66,23.67-52.1C619.34,406.68,607.25,392.15,593.99,392.48z"></path> <path class="st8" d="M594.01,393.25c-10.84,0.27-20.11,12.49-19.89,21.17c0.22,8.68,21.48,41.55,21.48,41.55 c6-15.05,19.56-34.05,19.34-42.59C614.72,404.85,604.85,392.98,594.01,393.25z"></path> <path class="st9" d="M594,393.16c-8.36,0.21-15.49,9.63-15.32,16.32c0.17,6.69,16.55,32.02,16.55,32.02 c4.62-11.59,15.07-26.23,14.91-32.81C609.97,402.1,602.36,392.95,594,393.16z"></path> </g> <g> <path class="st7" d="M583.94,398c-8.66-1.71-18.19,6.33-19.57,13.27c-1.37,6.94,9.65,36.82,9.65,36.82 c7.45-10.88,21.6-23.55,22.95-30.36C598.32,410.9,592.59,399.71,583.94,398z"></path> <path class="st8" d="M583.84,398.5c-7.08-1.4-14.87,5.18-15.99,10.84c-1.13,5.67,7.88,30.09,7.88,30.09 c6.09-8.89,17.65-19.24,18.75-24.82C595.59,409.04,590.91,399.9,583.84,398.5z"></path> <path class="st9" d="M583.85,398.44c-5.45-1.08-11.46,3.99-12.32,8.35c-0.86,4.37,6.08,23.19,6.08,23.19 c4.69-6.85,13.6-14.83,14.45-19.12C592.91,406.57,589.3,399.52,583.85,398.44z"></path> </g> <g> <path class="st7" d="M587.9,395.9c-5.14,2.23-7.22,9.88-5.43,14c1.79,4.12,18.35,15.75,18.35,15.75 c-0.04-8.37,2.77-20.11,1.02-24.16C600.08,397.44,593.04,393.67,587.9,395.9z"></path> <path class="st8" d="M588.03,396.2c-4.2,1.82-5.89,8.08-4.43,11.44c1.46,3.37,14.99,12.87,14.99,12.87 c-0.03-6.84,2.27-16.43,0.83-19.74C597.98,397.46,592.23,394.37,588.03,396.2z"></path> <path class="st9" d="M588.01,396.16c-3.24,1.41-4.54,6.22-3.42,8.82c1.13,2.59,11.55,9.92,11.55,9.92 c-0.02-5.27,1.75-12.66,0.64-15.21C595.68,397.13,591.25,394.76,588.01,396.16z"></path> </g> <g> <path class="st10" d="M333.54,262.01c1.17,67,28.16,127.71,71.44,172.59l73.38-73.38c-24.53-26.08-39.92-60.85-41.05-99.21 H333.54z"></path> <path class="st11" d="M333.54,252.79h103.78c1.16-38.34,16.57-73.09,41.11-99.15l-73.38-73.38 C361.75,125.13,334.74,185.81,333.54,252.79z"></path> <path class="st12" d="M484.95,147.13c26.07-24.52,60.81-39.91,99.15-41.05V2.3c-66.98,1.19-127.66,28.17-172.53,71.44 L484.95,147.13z"></path> <path class="st13" d="M593.31,106.08c38.33,1.15,73.08,16.53,99.15,41.05l73.38-73.39C720.96,30.47,660.29,3.49,593.31,2.3 V106.08z"></path> <path class="st14" d="M699.03,361.22l73.38,73.38c43.29-44.88,70.27-105.59,71.44-172.59H740.09 C738.96,300.37,723.57,335.14,699.03,361.22z"></path> <path class="st15" d="M698.97,153.64c24.54,26.06,39.95,60.81,41.11,99.15l103.77,0c-1.2-66.99-28.21-127.67-71.5-172.53 L698.97,153.64z"></path> <path class="st16" d="M437.31,262.01c1.13,38.36,16.52,73.13,41.05,99.21l15.13-15.13c-20.67-22.2-33.67-51.63-34.79-84.08 H437.31z"></path> <path class="st17" d="M437.31,252.79h21.4c1.14-32.44,14.16-61.85,34.84-84.02l-15.13-15.13 C453.89,179.7,438.48,214.46,437.31,252.79z"></path> <path class="st18" d="M500.07,162.26c22.18-20.66,51.59-33.65,84.02-34.78v-21.39c-38.33,1.15-73.08,16.53-99.15,41.05 L500.07,162.26z"></path> <path class="st19" d="M593.31,127.47c32.43,1.13,61.84,14.13,84.02,34.79l15.13-15.13c-26.07-24.52-60.81-39.91-99.15-41.05 L593.31,127.47z"></path> <path class="st20" d="M683.91,346.09l15.13,15.13c24.53-26.08,39.92-60.85,41.06-99.21h-21.4 C717.58,294.46,704.58,323.89,683.91,346.09z"></path> <path class="st21" d="M683.85,168.77c20.68,22.18,33.7,51.59,34.84,84.02l21.4,0c-1.16-38.34-16.57-73.09-41.11-99.15 L683.85,168.77z"></path> <polygon class="st21" points="694.57,212.21 722.55,215.63 711.52,189.68 "></polygon> <polygon class="st19" points="631.38,150.19 653.59,132.82 627.45,122.27 "></polygon> <polygon class="st18" points="542.85,151.01 546.27,123.02 520.32,134.05 "></polygon> <polygon class="st17" points="452.91,218.13 480.83,214.19 463.46,191.98 "></polygon> <polygon class="st16" points="464.69,325.25 481.64,302.72 453.66,299.3 "></polygon> <polygon class="st20" points="712.75,322.96 723.3,296.81 695.38,300.75 "></polygon> <linearGradient id="SVGID_1_" gradientUnits="userSpaceOnUse" x1="517.5489" y1="224.0516" x2="659.8379" y2="224.0516"> <stop offset="0" style="stop-color:#1CBBE9"></stop> <stop offset="1" style="stop-color:#2176FF"></stop> </linearGradient> <path class="st22" d="M588.69,176.18c-39.29,0-71.15,31.86-71.15,71.15c52.63,51,60.42,6.9,71.15,6.82 c20.47-0.15,34.11,42.23,71.14-6.82C659.84,208.04,627.99,176.18,588.69,176.18z"></path> <linearGradient id="SVGID_2_" gradientUnits="userSpaceOnUse" x1="517.5489" y1="285.4856" x2="659.8583" y2="285.4856"> <stop offset="0" style="stop-color:#1CBBE9"></stop> <stop offset="1" style="stop-color:#2176FF"></stop> </linearGradient> <path class="st23" d="M517.55,247.33c7.8,44.38,29.24,49.82,40.93,96.21c25.39,16.9,23.44,13,64.33,3.33 c5.84-42.7,37.03-68.46,37.03-99.54C661.79,200.87,523.4,209.97,517.55,247.33z"></path> <g> <path class="st24" d="M556.54,260.84c0,0,13.48,30.96,17.56,42.44c4.07,11.48,4.19,38.91,4.19,38.91"></path> <path class="st24" d="M625.76,260.84c0,0-13.48,30.96-17.56,42.44c-4.08,11.48-4.19,38.91-4.19,38.91"></path> </g> <path class="st25" d="M566.2,386.96c0,6.75,4.38,12.22,9.79,12.22h29.35c5.4,0,9.78-5.47,9.78-12.22v-21.96H566.2V386.96z"></path> <path class="st26" d="M554.01,373.68c0,6.75,5.47,12.22,12.22,12.22h48.85c6.75,0,12.22-5.47,12.22-12.22v-35.6h-73.29V373.68z"></path> <g> <path class="st27" d="M569.86,262.85c-3.92,0-7.09,4.17-7.09,9.31c0,5.14,3.17,9.31,7.09,9.31c3.92,0,7.1-4.17,7.1-9.31 C576.96,267.02,573.78,262.85,569.86,262.85z"></path> <path class="st27" d="M584.05,262.85c-3.92,0-7.1,4.17-7.1,9.31c0,5.14,3.18,9.31,7.1,9.31c3.92,0,7.1-4.17,7.1-9.31 C591.15,267.02,587.97,262.85,584.05,262.85z"></path> <path class="st27" d="M598.25,262.85c-3.92,0-7.1,4.17-7.1,9.31c0,5.14,3.18,9.31,7.1,9.31c3.92,0,7.1-4.17,7.1-9.31 C605.35,267.02,602.17,262.85,598.25,262.85z"></path> <path class="st27" d="M612.45,262.85c-3.92,0-7.1,4.17-7.1,9.31c0,5.14,3.18,9.31,7.1,9.31c3.92,0,7.09-4.17,7.09-9.31 C619.54,267.02,616.37,262.85,612.45,262.85z"></path> </g> <path class="st28" d="M626.68,195.74c-11.6-8.43-42.92-19.45-60.48-6.49c-17.46,12.89-0.49,23.02,12.09,24.48 c17.98,2.08,45.1,7.83,54.48,30.37c12.57,30.21,2.23,52.61,4.57,47.08c6.58-15.57,13.65-24.39,15.51-41.12 C654.71,233.33,642.8,207.46,626.68,195.74z"></path> <path class="st29" d="M628.11,344h-75.26c-0.92,0-1.67,0.79-1.67,1.76v3.05c0,0.97,0.75,1.76,1.67,1.76h75.26 c0.92,0,1.67-0.79,1.67-1.76v-3.05C629.78,344.78,629.03,344,628.11,344z"></path> <path class="st29" d="M628.11,354.5h-75.26c-0.92,0-1.67,0.79-1.67,1.76v3.05c0,0.97,0.75,1.76,1.67,1.76h75.26 c0.92,0,1.67-0.79,1.67-1.76v-3.05C629.78,355.29,629.03,354.5,628.11,354.5z"></path> <path class="st29" d="M628.28,365.01h-75.25c-0.92,0-1.67,0.79-1.67,1.76v3.05c0,0.97,0.75,1.76,1.67,1.76h75.25 c0.92,0,1.67-0.79,1.67-1.76v-3.05C629.95,365.8,629.2,365.01,628.28,365.01z"></path> <text transform="matrix(1 0 0 1 358.3934 352.1944)" class="st9 st30 st31">Strategize</text> <text transform="matrix(1 0 0 1 490.1415 300.44)" class="st30 st31">1</text> <text transform="matrix(1 0 0 1 676.6609 300.4396)" class="st30 st31">6</text> <text transform="matrix(1 0 0 1 489.9413 226.6323)" class="st30 st31">2</text> <text transform="matrix(1 0 0 1 674.2459 226.6327)" class="st30 st31">5</text> <text transform="matrix(1 0 0 1 539.5164 170.1505)" class="st30 st31">3</text> <text transform="matrix(1 0 0 1 622.9832 168.9459)" class="st30 st31">4</text> <text transform="matrix(1 0 0 1 732.9302 346.9971)"><tspan x="0" y="0" class="st9 st30 st31">QA and</tspan><tspan x="-1.32" y="20" class="st9 st30 st31">Testing</tspan></text> <text transform="matrix(1 0 0 1 368.1564 208.7579)" class="st9 st30 st31">UI/UX</text> <text transform="matrix(1 0 0 1 741.1857 209.5606)" class="st9 st30 st31">DevOps</text> <text transform="matrix(1 0 0 1 444.7095 92.3348)" class="st9 st30 st31">Development</text> <text transform="matrix(1 0 0 1 615.4143 93.1375)" class="st9 st30 st31">Prototype</text> <g> <path class="st9" d="M413.06,297.52h-8.93c-0.33,0-0.6,0.27-0.6,0.6v1.12h-3.3c-1.27,0-2.31,1.04-2.31,2.31v22.24 c0,1.27,1.03,2.31,2.31,2.31h16.66c1.27,0,2.31-1.03,2.31-2.31v-22.24c0-1.28-1.04-2.31-2.31-2.31h-3.24v-1.12 C413.65,297.79,413.39,297.52,413.06,297.52z M404.72,298.71h7.74v2.55h-7.74V298.71z M416.89,300.42c0.62,0,1.12,0.5,1.12,1.12 v22.24c0,0.62-0.5,1.12-1.12,1.12h-16.66c-0.62,0-1.12-0.5-1.12-1.12v-22.24c0-0.62,0.5-1.12,1.12-1.12h3.3v0.84h-0.84 c-0.33,0-0.6,0.27-0.6,0.6c0,0.33,0.27,0.6,0.6,0.6h1.44h8.93h1.44c0.33,0,0.6-0.27,0.6-0.6c0-0.33-0.27-0.6-0.6-0.6h-0.84 v-0.84H416.89z"></path> <path class="st9" d="M401.76,313.23c0.12,0.12,0.27,0.17,0.42,0.17c0.15,0,0.3-0.06,0.42-0.17l0.95-0.95l0.95,0.95 c0.12,0.12,0.27,0.17,0.42,0.17c0.15,0,0.3-0.06,0.42-0.17c0.23-0.23,0.23-0.61,0-0.84l-0.95-0.95l0.95-0.95 c0.23-0.23,0.23-0.61,0-0.84c-0.23-0.23-0.61-0.23-0.84,0l-0.95,0.95l-0.95-0.95c-0.23-0.23-0.61-0.23-0.84,0 c-0.23,0.23-0.23,0.61,0,0.84l0.95,0.95l-0.95,0.95C401.53,312.62,401.53,313,401.76,313.23z"></path> <path class="st9" d="M414.52,315.64l-0.95,0.95l-0.95-0.95c-0.23-0.23-0.61-0.23-0.84,0c-0.23,0.23-0.23,0.61,0,0.84l0.95,0.95 l-0.95,0.95c-0.23,0.23-0.23,0.61,0,0.84c0.12,0.12,0.27,0.17,0.42,0.17c0.15,0,0.3-0.06,0.42-0.17l0.95-0.95l0.95,0.95 c0.12,0.12,0.27,0.17,0.42,0.17c0.15,0,0.3-0.06,0.42-0.17c0.23-0.23,0.23-0.61,0-0.84l-0.95-0.95l0.95-0.95 c0.23-0.23,0.23-0.61,0-0.84C415.13,315.4,414.76,315.4,414.52,315.64z"></path> <path class="st9" d="M412.31,309.57l1.17,1.17c0.12,0.12,0.27,0.17,0.42,0.17c0.15,0,0.3-0.06,0.42-0.17 c0.23-0.23,0.23-0.61,0-0.84l-2.06-2.07c-0.02-0.02-0.04-0.03-0.06-0.04c-0.03-0.03-0.07-0.05-0.1-0.07 c-0.04-0.02-0.07-0.02-0.11-0.03c-0.03-0.01-0.05-0.02-0.08-0.03c-0.01,0-0.02,0-0.03,0c-0.01,0-0.02-0.01-0.03-0.01 c-0.03,0-0.06,0.01-0.09,0.02c-0.03,0.01-0.07,0.01-0.1,0.02c-0.04,0.02-0.08,0.04-0.12,0.06c-0.03,0.02-0.05,0.03-0.08,0.05 c-0.01,0.01-0.02,0.01-0.03,0.02l-2.06,2.07c-0.23,0.23-0.23,0.61,0,0.84c0.23,0.23,0.61,0.23,0.84,0l0.89-0.89l-0.07,0.73 c-0.19,1.96-1.67,3.59-3.6,3.97l-1.34,0.26c-2.29,0.45-4.05,2.22-4.48,4.51c-0.06,0.32,0.15,0.63,0.47,0.7 c0.04,0.01,0.07,0.01,0.11,0.01c0.28,0,0.53-0.2,0.58-0.48c0.34-1.81,1.73-3.21,3.54-3.57l1.34-0.26 c2.44-0.48,4.31-2.55,4.55-5.02L412.31,309.57z"></path> <path class="st9" d="M407.01,317.54c-1.2,0-2.18,0.98-2.18,2.18s0.98,2.18,2.18,2.18c1.2,0,2.18-0.98,2.18-2.18 S408.21,317.54,407.01,317.54z M407.01,320.71c-0.55,0-0.99-0.45-0.99-0.99s0.45-0.99,0.99-0.99c0.55,0,0.99,0.45,0.99,0.99 S407.56,320.71,407.01,320.71z"></path> </g> <g> <g> <g> <path class="st9" d="M386.91,178.98h26.36c0,0,0.01,0,0.01,0c0.36,0,0.64-0.29,0.64-0.64c0-0.21-0.1-0.4-0.26-0.52l-26.3-26.3 c-0.18-0.18-0.46-0.24-0.7-0.14c-0.24,0.1-0.4,0.33-0.4,0.59v26.37C386.27,178.69,386.55,178.98,386.91,178.98z M411.72,177.69h-4.55v-1.4c0-0.36-0.29-0.64-0.64-0.64s-0.64,0.29-0.64,0.64v1.4h-3.42v-2.22c0-0.35-0.29-0.64-0.64-0.64 c-0.36,0-0.64,0.29-0.64,0.64v2.22h-3.42v-1.4c0-0.36-0.29-0.64-0.64-0.64s-0.64,0.29-0.64,0.64v1.4h-3.42v-2.22 c0-0.35-0.29-0.64-0.64-0.64c-0.35,0-0.64,0.29-0.64,0.64v2.22h-4.23v-4.64h2.22c0.36,0,0.64-0.29,0.64-0.64 s-0.29-0.64-0.64-0.64h-2.22v-3.42h1.4c0.35,0,0.64-0.29,0.64-0.64s-0.29-0.64-0.64-0.64h-1.4v-3.41h2.22 c0.36,0,0.64-0.29,0.64-0.64c0-0.36-0.29-0.64-0.64-0.64h-2.22v-3.41h1.4c0.35,0,0.64-0.29,0.64-0.64 c0-0.36-0.29-0.64-0.64-0.64h-1.4v-4.14L411.72,177.69z"></path> <path class="st9" d="M393.86,172.84h6.74c0,0,0.01,0,0.01,0c0.36,0,0.64-0.29,0.64-0.64c0-0.21-0.1-0.4-0.26-0.52l-6.68-6.68 c-0.18-0.18-0.46-0.24-0.7-0.14c-0.24,0.1-0.4,0.33-0.4,0.59v6.74C393.21,172.56,393.5,172.84,393.86,172.84z M394.5,167.01 l4.55,4.55h-4.55V167.01z"></path> <path class="st9" d="M412.79,165.14c0-0.01-0.01-0.01-0.01-0.02c-0.01-0.04-0.02-0.08-0.04-0.11 c-0.01-0.01-0.01-0.03-0.02-0.04c-0.02-0.04-0.05-0.08-0.08-0.11c0,0-0.01-0.01-0.01-0.01c0,0,0,0,0,0l-11.22-11.66 c-0.03-0.04-0.06-0.08-0.09-0.12c-0.03-0.03-0.07-0.06-0.11-0.09l-0.94-0.97c-0.51-0.52-1.2-0.81-1.94-0.81 c-0.72,0-1.39,0.28-1.9,0.78l-0.85,0.83c-1.07,1.05-1.08,2.77-0.03,3.83l12.36,12.84c0,0,0,0,0,0 c0.01,0.01,0.02,0.01,0.02,0.02c0.03,0.03,0.06,0.05,0.1,0.07c0.01,0.01,0.03,0.01,0.04,0.02c0.03,0.02,0.07,0.03,0.11,0.04 c0.01,0,0.02,0.01,0.03,0.01l4.97,1.32c0.05,0.01,0.11,0.02,0.16,0.02c0,0,0,0,0.01,0c0.35,0.01,0.65-0.29,0.65-0.64 c0-0.09-0.02-0.18-0.05-0.25L412.79,165.14z M408.38,168.11l-10.43-10.84l2.88-2.84l10.43,10.84l-1.39,1.37L408.38,168.11z M396.48,153.71l0.85-0.83c0.27-0.27,0.63-0.41,1-0.41c0.39,0,0.75,0.15,1.01,0.42l0.59,0.62l-2.88,2.84l-0.59-0.61 C395.91,155.17,395.92,154.26,396.48,153.71z M409.62,168.69l0.41-0.41l1.76-1.74l0.67,2.9L409.62,168.69z"></path> <path class="st9" d="M408.4,164.35l-7.06-7.46c-0.24-0.26-0.65-0.27-0.91-0.03c-0.26,0.24-0.27,0.65-0.02,0.91l7.06,7.46 c0.13,0.13,0.3,0.2,0.47,0.2c0.16,0,0.32-0.06,0.44-0.18C408.64,165.01,408.65,164.6,408.4,164.35z"></path> </g> </g> </g> <g> <path class="st9" d="M525.28,55.03v-4.29l-2.38-0.23c-0.2-0.74-0.51-1.45-0.91-2.11l1.54-1.84l-3.02-3.02l-1.84,1.51 c-0.68-0.38-1.4-0.67-2.15-0.87l-0.2-2.38h-2.48v-0.67c0-1.5-1.22-2.72-2.72-2.72l0,0h-11.91c-1.5,0-2.72,1.22-2.72,2.72v23.55 c0,1.5,1.22,2.72,2.72,2.72h11.91c1.5,0,2.72-1.22,2.72-2.72v-0.67h2.48l0.2-2.38c0.75-0.2,1.47-0.49,2.15-0.87l1.84,1.51 l3.02-3.02l-1.54-1.84c0.4-0.66,0.7-1.37,0.91-2.11L525.28,55.03z M513.84,48.49h0.34c2.45,0,4.43,1.98,4.43,4.43 c0,2.45-1.98,4.43-4.43,4.43h-0.34V48.49z M512.5,60.43h-14.66v-16.7h14.66V60.43z M499.22,39.74h11.91 c0.76,0,1.38,0.62,1.38,1.38v1.27h-14.66v-1.27C497.84,40.35,498.46,39.74,499.22,39.74z M511.12,66.04h-11.91 c-0.76,0-1.38-0.62-1.38-1.38v-2.88h14.66v2.88C512.5,65.42,511.88,66.04,511.12,66.04z M521.79,53.99l-0.1,0.5 c-0.19,0.92-0.56,1.8-1.07,2.58l-0.27,0.4l1.38,1.68l-1.31,1.27l-1.64-1.38l-0.4,0.27c-0.79,0.52-1.66,0.88-2.58,1.07l-0.5,0.1 l-0.2,2.15h-1.24v-4.03h0.34c3.19,0,5.77-2.58,5.77-5.77c0-3.19-2.58-5.77-5.77-5.77c0,0,0,0,0,0h-0.34v-4.03h1.24l0.2,2.15 l0.5,0.1c0.92,0.19,1.8,0.56,2.58,1.07l0.4,0.27l1.64-1.38l1.31,1.27l-1.38,1.68l0.27,0.4c0.52,0.79,0.88,1.66,1.07,2.58 l0.1,0.5l2.15,0.2v1.81L521.79,53.99z"></path> </g> <g> <path class="st9" d="M678.94,41.65h-11.79c-0.17-0.98-0.77-1.84-1.63-2.34v-2.16c0-0.6-0.49-1.09-1.09-1.1h-1.16 c-0.61,0-1.1,0.49-1.1,1.1v2.15c-0.86,0.5-1.46,1.36-1.63,2.34h-8.44v-2.24c0-0.62-0.5-1.12-1.12-1.12h-1.12 c-1.24,0-2.24,1-2.24,2.24v24.6c0,0,0,0.01,0,0.01c0,0.01,0,0.01,0,0.02c0.1,1.23,1.1,2.18,2.33,2.21h28.98 c0.62,0,1.12-0.5,1.12-1.12V42.77C680.06,42.15,679.56,41.65,678.94,41.65z M667.99,50.25c0,0.01,0,0.01,0.01,0.02l1.22,3.14 c-0.06,0.01-0.11,0.02-0.17,0.03c-0.07,0.01-0.13,0.02-0.2,0.04c-0.09,0.03-0.18,0.06-0.27,0.1c-0.06,0.03-0.12,0.05-0.18,0.08 c-0.02,0.01-0.03,0.01-0.05,0.02l-3.19-8.37c0.26-0.12,0.51-0.26,0.74-0.44L667.99,50.25z M668.56,54.95 c0.07-0.09,0.16-0.17,0.26-0.24l0.02-0.01c0.2-0.12,0.43-0.18,0.67-0.18l0.03,0c0.11,0.01,0.22,0.03,0.32,0.07 c0,0,0.01,0,0.02,0c0.57,0.23,0.84,0.88,0.61,1.44c0,0,0,0,0,0.01c-0.17,0.43-0.58,0.7-1.03,0.7c-0.03,0-0.07,0-0.1-0.01 l-0.04-0.01c-0.61-0.07-1.04-0.62-0.97-1.23C668.35,55.3,668.43,55.11,668.56,54.95L668.56,54.95z M670.07,57.78 c0.13-0.04,0.26-0.09,0.38-0.15c0.03-0.01,0.05-0.03,0.07-0.04c0.1-0.05,0.19-0.12,0.28-0.19c0.01-0.01,0.03-0.02,0.05-0.03 l0.24,0.58l-0.25,1.75l-0.8-1.91C670.06,57.78,670.06,57.78,670.07,57.78z M656.83,59.62l-0.24-1.69l3.04-7.68v0l2.14-5.4 c0.23,0.17,0.48,0.32,0.75,0.44l-1.8,4.52v0.01L656.83,59.62z M663.62,45.56c0.15,0.01,0.29,0.01,0.44,0l1.5,3.93h-3.49 L663.62,45.56z M664.4,37.18v1.72c-0.02,0-0.04,0-0.06-0.01c-0.17-0.03-0.33-0.04-0.5-0.04h-0.02c-0.16,0-0.32,0.02-0.48,0.04 c-0.02,0-0.05,0-0.07,0.01l-0.01-1.72H664.4z M662.95,40.16c0.57-0.24,1.22-0.24,1.79,0c0.81,0.36,1.33,1.16,1.34,2.05 c0,1.06-0.74,1.97-1.77,2.19c-1.21,0.26-2.4-0.51-2.65-1.72c-0.03-0.15-0.05-0.31-0.05-0.47 C661.61,41.32,662.14,40.52,662.95,40.16z M649.86,39.42h1.12v2.79v0.01V62.9h-1.12c-0.13,0-0.26,0.01-0.39,0.04 c-0.06,0.01-0.11,0.02-0.17,0.03c-0.04,0.01-0.08,0.02-0.11,0.03c-0.16,0.05-0.31,0.11-0.45,0.18l0-22.66 C648.75,39.92,649.25,39.42,649.86,39.42z M678.94,66.26h-28.98c-0.63-0.02-1.15-0.51-1.21-1.13c0.01-0.61,0.51-1.1,1.12-1.1 h1.12c0.62,0,1.12-0.5,1.12-1.12V42.77h8.44c0.07,0.4,0.21,0.78,0.41,1.13l-2.21,5.58h-1.61c0-0.62-0.5-1.12-1.12-1.12h-1.12 c-0.62,0-1.12,0.5-1.12,1.12v1.12c0,0.62,0.5,1.12,1.12,1.12h1.12c0.62,0,1.12-0.5,1.12-1.12h1.16l-2.8,7.06 c-0.04,0.09-0.05,0.19-0.03,0.29l0.56,3.91c0,0.02,0.01,0.03,0.02,0.05c0,0.02,0.01,0.03,0.01,0.04 c0.02,0.05,0.04,0.1,0.07,0.14c0.01,0.02,0.02,0.03,0.03,0.04c0.03,0.04,0.07,0.07,0.11,0.1c0.01,0.01,0.02,0.02,0.03,0.03 c0.66,0.36,1.36,0.66,2.08,0.89c0.06,0.02,0.12,0.03,0.18,0.03c0.31,0,0.56-0.25,0.56-0.56c0-0.24-0.15-0.46-0.38-0.53 c-0.49-0.16-0.98-0.36-1.45-0.58l4.34-10.92h4.36l1.5,3.94c-0.6,1.07-0.23,2.42,0.84,3.03c0.16,0.09,0.33,0.16,0.5,0.21 l1.57,3.75c-0.47,0.22-0.95,0.42-1.45,0.58c-0.29,0.1-0.45,0.41-0.36,0.71c0.08,0.23,0.29,0.39,0.53,0.38 c0.06,0,0.12-0.01,0.18-0.03c0.72-0.23,1.42-0.53,2.08-0.89c0.01-0.01,0.02-0.02,0.03-0.02c0.05-0.03,0.09-0.07,0.13-0.11 l0.02-0.03c0.04-0.05,0.07-0.11,0.08-0.18l0,0c0.01-0.02,0.02-0.04,0.02-0.07l0.56-3.91c0.01-0.1,0-0.2-0.04-0.3l-0.6-1.44 c0.06-0.19,0.09-0.39,0.09-0.58c0-0.81-0.44-1.56-1.15-1.95l-1.2-3.08h1.23c0,0.62,0.5,1.12,1.12,1.12h1.12 c0.62,0,1.12-0.5,1.12-1.12v-1.12c0-0.62-0.5-1.12-1.12-1.12h-1.12c-0.62,0-1.12,0.5-1.12,1.12h-1.66l-2.16-5.57 c0.21-0.35,0.35-0.74,0.42-1.14h11.79V66.26z M656.02,50.6h-1.12v-1.12h1.12V50.6z M671.67,49.48h1.12v1.12h-1.12V49.48z"></path> <path class="st9" d="M655.03,60.2l-0.96-0.58c-0.26-0.16-0.61-0.08-0.77,0.18c-0.16,0.26-0.08,0.61,0.18,0.77 c0.01,0,0.01,0.01,0.02,0.01l0.96,0.58c0.26,0.16,0.61,0.07,0.77-0.19C655.38,60.7,655.29,60.36,655.03,60.2z"></path> <path class="st9" d="M662.8,62.87c-0.69-0.04-1.38-0.13-2.06-0.25c-0.3-0.06-0.6,0.14-0.65,0.45c-0.06,0.3,0.14,0.6,0.45,0.65 l0,0c0.73,0.14,1.46,0.23,2.2,0.27h0.03c0.31,0.01,0.57-0.23,0.58-0.54S663.11,62.88,662.8,62.87L662.8,62.87z"></path> <path class="st9" d="M666.95,62.62c-0.68,0.13-1.37,0.21-2.06,0.25c-0.31,0.01-0.55,0.27-0.54,0.58s0.27,0.55,0.58,0.54 c0.01,0,0.02,0,0.03,0c0.74-0.04,1.47-0.14,2.2-0.27c0.3-0.06,0.5-0.35,0.45-0.65C667.54,62.76,667.25,62.56,666.95,62.62 L666.95,62.62z"></path> <path class="st9" d="M673.62,59.63l-0.96,0.58c-0.26,0.16-0.35,0.5-0.19,0.77s0.5,0.35,0.77,0.19l0.96-0.58 c0.26-0.16,0.34-0.51,0.18-0.77C674.22,59.56,673.88,59.48,673.62,59.63z"></path> </g> <g> <g> <path class="st9" d="M789.48,181.56h-25.37c-0.84,0-1.53-0.69-1.53-1.53v-21.72c0-0.84,0.69-1.53,1.53-1.53h3.5 c0.44,0,0.8,0.36,0.8,0.8s-0.36,0.8-0.8,0.8h-3.42v21.56h25.21v-3.42c0-0.44,0.36-0.8,0.8-0.8s0.8,0.36,0.8,0.8v3.5 C791.01,180.87,790.33,181.56,789.48,181.56z"></path> <g> <path class="st9" d="M767.51,163.23h-3.64c-0.44,0-0.8-0.36-0.8-0.8s0.36-0.8,0.8-0.8h3.64c0.44,0,0.8,0.36,0.8,0.8 S767.96,163.23,767.51,163.23z"></path> </g> </g> <g> <g> <path class="st9" d="M793.32,177.33h-24.58c-1.06,0-1.92-0.86-1.92-1.92v-20.93c0-1.06,0.86-1.92,1.92-1.92h24.58 c1.06,0,1.92,0.86,1.92,1.92v20.93C795.24,176.47,794.38,177.33,793.32,177.33z M768.74,154.17c-0.17,0-0.31,0.14-0.31,0.31 v20.93c0,0.17,0.14,0.31,0.31,0.31h24.58c0.17,0,0.31-0.14,0.31-0.31v-20.93c0-0.17-0.14-0.31-0.31-0.31H768.74z"></path> <g> <path class="st9" d="M794.44,159.01h-26.33c-0.44,0-0.8-0.36-0.8-0.8s0.36-0.8,0.8-0.8h26.33c0.44,0,0.8,0.36,0.8,0.8 S794.88,159.01,794.44,159.01z"></path> </g> <g> <path class="st9" d="M772.55,156.48h-1.94c-0.44,0-0.8-0.36-0.8-0.8s0.36-0.8,0.8-0.8h1.94c0.44,0,0.8,0.36,0.8,0.8 S772.99,156.48,772.55,156.48z"></path> </g> <g> <path class="st9" d="M776.95,156.48h-1.94c-0.44,0-0.8-0.36-0.8-0.8s0.36-0.8,0.8-0.8h1.94c0.44,0,0.8,0.36,0.8,0.8 S777.4,156.48,776.95,156.48z"></path> </g> </g> <g> <path class="st9" d="M773.94,167.15l4.19,1.72l-0.31,0.91l-5.1-2.16v-0.94l5.1-2.16l0.31,0.91L773.94,167.15z"></path> <path class="st9" d="M779.6,172.85h-1.12l4-11.4h1.1L779.6,172.85z"></path> <path class="st9" d="M783.92,165.43l0.31-0.91l5.1,2.16v0.94l-5.1,2.16l-0.31-0.91l4.19-1.72L783.92,165.43z"></path> </g> </g> </g> <g> <path class="st9" d="M774.43,293.37h-14.47c-0.02,0-0.03,0.01-0.05,0.01c-0.04,0-0.09,0.01-0.13,0.03 c-0.03,0.01-0.05,0.02-0.08,0.03c-0.05,0.02-0.09,0.05-0.13,0.08c-0.01,0.01-0.03,0.02-0.04,0.03l-2.59,2.59l-2.16,2.16 c-0.05,0.05-0.09,0.12-0.12,0.18c0,0.01-0.01,0.02-0.01,0.03c-0.02,0.06-0.04,0.12-0.04,0.19c0,0.01,0,0.01,0,0.02v22.63 c0,0.33,0.27,0.6,0.6,0.6h19.22c0.05,0,0.09-0.02,0.14-0.03c0.19,0.02,0.39,0.03,0.59,0.03c3.5,0,6.36-2.85,6.36-6.36 c0-3.5-2.85-6.36-6.36-6.36c-0.04,0-0.09,0.01-0.13,0.01v-15.28C775.03,293.63,774.76,293.37,774.43,293.37z M759.37,295.4v2.72 h-2.72l1.77-1.78L759.37,295.4z M755.81,320.75v-21.44h4.16c0.33,0,0.6-0.27,0.6-0.6v-4.16h13.28v14.82 c-2.87,0.61-5.03,3.17-5.03,6.22c0,2.13,1.05,4.01,2.66,5.16H755.81z M780.33,315.59c0,2.85-2.32,5.17-5.17,5.17 c-2.85,0-5.17-2.32-5.17-5.17c0-2.85,2.32-5.17,5.17-5.17C778.01,310.42,780.33,312.74,780.33,315.59z"></path> <path class="st9" d="M762.88,298.06h9.05c0.33,0,0.6-0.27,0.6-0.6s-0.27-0.6-0.6-0.6h-9.05c-0.33,0-0.6,0.27-0.6,0.6 S762.55,298.06,762.88,298.06z"></path> <path class="st9" d="M762.88,301.05h9.05c0.33,0,0.6-0.27,0.6-0.6s-0.27-0.6-0.6-0.6h-9.05c-0.33,0-0.6,0.27-0.6,0.6 S762.55,301.05,762.88,301.05z"></path> <path class="st9" d="M757.72,304.04h14.2c0.33,0,0.6-0.27,0.6-0.6s-0.27-0.6-0.6-0.6h-14.2c-0.33,0-0.6,0.27-0.6,0.6 S757.39,304.04,757.72,304.04z"></path> <path class="st9" d="M757.72,307.04h14.2c0.33,0,0.6-0.27,0.6-0.6s-0.27-0.6-0.6-0.6h-14.2c-0.33,0-0.6,0.27-0.6,0.6 S757.39,307.04,757.72,307.04z"></path> <path class="st9" d="M773.64,317.7c0.12,0.12,0.27,0.17,0.42,0.17s0.3-0.06,0.42-0.17l3.38-3.38c0.23-0.23,0.23-0.61,0-0.84 c-0.23-0.23-0.61-0.23-0.84,0l-2.96,2.96l-0.76-0.76c-0.23-0.23-0.61-0.23-0.84,0c-0.23,0.23-0.23,0.61,0,0.84L773.64,317.7z"></path> <path class="st9" d="M767.16,312.67c-0.07-0.03-0.15-0.05-0.23-0.05h-2.38c-0.33,0-0.6,0.27-0.6,0.6s0.27,0.6,0.6,0.6h0.94 l-3.06,3.06l-1.79-1.79c-0.23-0.23-0.61-0.23-0.84,0l-2.65,2.65c-0.23,0.23-0.23,0.61,0,0.84c0.12,0.12,0.27,0.17,0.42,0.17 c0.15,0,0.3-0.06,0.42-0.17l2.23-2.22l1.79,1.79c0.23,0.23,0.61,0.23,0.84,0l3.48-3.48v0.94c0,0.33,0.27,0.6,0.6,0.6 c0.33,0,0.6-0.27,0.6-0.6v-2.38c0-0.08-0.02-0.15-0.05-0.23C767.43,312.85,767.31,312.73,767.16,312.67z"></path> </g> </g> </g> </g> </svg> 