<?xml version="1.0" encoding="UTF-8"?> <svg xmlns="http://www.w3.org/2000/svg" xmlns:xlink="http://www.w3.org/1999/xlink" width="60pt" height="60pt" viewBox="0 0 60 60" version="1.1"><g id="surface1"><path style=" stroke:none;fill-rule:nonzero;fill:rgb(0%,0%,0%);fill-opacity:1;" d="M 29.648438 60 C 26.289062 58.511719 23.300781 56.414062 19.949219 54.476562 C 21.511719 53.726562 22.789062 53.136719 24.050781 52.613281 C 24.273438 52.539062 24.726562 52.761719 25.023438 52.914062 C 26.664062 53.8125 28.238281 54.773438 29.800781 55.75 C 30.25 56.050781 30.699219 56.050781 31.136719 55.75 C 38.226562 51.648438 45.25 47.613281 52.335938 43.585938 C 52.9375 43.289062 53.164062 42.835938 53.164062 42.175781 C 53.164062 34.039062 53.164062 25.976562 53.164062 17.835938 C 53.164062 17.164062 52.9375 16.789062 52.335938 16.425781 C 45.324219 12.398438 38.226562 8.289062 31.210938 4.261719 C 30.613281 3.886719 30.164062 3.960938 29.574219 4.261719 C 22.5625 8.261719 15.625 12.300781 8.601562 16.324219 C 7.925781 16.699219 7.699219 17.226562 7.699219 17.960938 C 7.699219 25.949219 7.699219 33.9375 7.699219 41.925781 C 7.699219 42.675781 7.925781 43.199219 8.601562 43.5625 C 10.3125 44.539062 11.960938 45.574219 13.675781 46.476562 C 14.273438 46.851562 14.949219 47.074219 15.613281 47.226562 C 17.699219 47.675781 19.351562 46.398438 19.351562 44.238281 C 19.351562 40.574219 19.351562 36.925781 19.351562 33.261719 C 19.351562 28.9375 19.351562 24.523438 19.351562 20.199219 C 19.351562 18.789062 19.351562 18.789062 20.835938 18.789062 C 21.289062 18.789062 21.738281 18.789062 22.113281 18.789062 C 23.3125 18.789062 23.386719 18.863281 23.386719 20.0625 C 23.386719 22.824219 23.386719 25.664062 23.386719 28.425781 C 23.386719 33.648438 23.386719 38.875 23.386719 44.101562 C 23.386719 44.925781 23.3125 45.738281 23.164062 46.5625 C 22.636719 49.25 20.699219 50.886719 18.011719 51.261719 C 15.625 51.5625 13.539062 50.960938 11.511719 49.851562 C 9.800781 48.875 8 47.835938 6.289062 46.863281 C 4.574219 45.886719 3.75 44.398438 3.75 42.460938 C 3.75 34.175781 3.75 25.8125 3.75 17.523438 C 3.75 15.585938 4.574219 14.085938 6.289062 13.125 C 13.449219 9.023438 20.625 4.835938 27.710938 0.738281 C 29.425781 -0.238281 31.226562 -0.238281 32.9375 0.738281 C 40.101562 4.835938 47.273438 9.023438 54.363281 13.125 C 56.074219 14.101562 56.898438 15.664062 56.898438 17.601562 C 56.898438 25.886719 56.898438 34.101562 56.898438 42.386719 C 56.898438 44.398438 56.074219 45.898438 54.289062 46.863281 C 47.050781 50.960938 39.875 55.148438 32.636719 59.25 C 32.113281 59.550781 31.585938 59.699219 31.074219 59.925781 C 30.699219 60 30.175781 60 29.648438 60 Z M 29.648438 60 "></path><path style=" stroke:none;fill-rule:nonzero;fill:rgb(0%,0%,0%);fill-opacity:1;" d="M 36.375 42.539062 C 34.363281 42.460938 32.125 42.238281 30.101562 41.335938 C 27.335938 40.136719 25.851562 38.050781 25.625 35.0625 C 25.550781 34.085938 25.773438 33.863281 26.75 33.863281 C 27.425781 33.863281 28.085938 33.863281 28.761719 33.863281 C 29.363281 33.863281 29.664062 34.085938 29.738281 34.6875 C 30.039062 36.925781 31.449219 38.125 33.625 38.425781 C 36.085938 38.875 38.550781 38.875 41.011719 38.351562 C 42.289062 38.050781 43.398438 37.449219 43.773438 36.039062 C 44.148438 34.625 43.773438 33.726562 42.363281 33.273438 C 40.875 32.824219 39.375 32.523438 37.886719 32.300781 C 35.648438 31.925781 33.335938 31.699219 31.175781 31.175781 C 28.113281 30.425781 26.699219 28.710938 26.476562 26.023438 C 26.25 23.039062 27.449219 20.726562 30.210938 19.523438 C 31.699219 18.851562 33.425781 18.550781 35.0625 18.324219 C 37.675781 18.023438 40.289062 18.25 42.75 19.226562 C 45.664062 20.351562 47.074219 22.664062 47.449219 25.726562 C 47.523438 26.324219 47.226562 26.699219 46.625 26.699219 C 45.800781 26.699219 44.988281 26.773438 44.238281 26.699219 C 43.9375 26.625 43.414062 26.324219 43.335938 25.949219 C 42.738281 23.414062 41.023438 22.363281 38.636719 22.289062 C 36.925781 22.210938 35.125 22.289062 33.414062 22.511719 C 31.851562 22.738281 31.101562 23.710938 30.949219 24.898438 C 30.875 26.101562 31.175781 26.6875 32.289062 26.988281 C 33.925781 27.4375 35.574219 27.664062 37.289062 28.039062 C 39.523438 28.488281 41.835938 28.789062 44.074219 29.375 C 46.460938 29.976562 48.039062 31.460938 48.324219 34.074219 C 48.625 36.914062 47.800781 39.226562 45.335938 40.789062 C 43.175781 42.125 40.789062 42.5 38.324219 42.648438 C 37.636719 42.539062 37.050781 42.539062 36.375 42.539062 Z M 36.375 42.539062 "></path></g></svg> 