<?xml version="1.0" encoding="UTF-8"?> <svg xmlns="http://www.w3.org/2000/svg" xmlns:xlink="http://www.w3.org/1999/xlink" width="36pt" height="30pt" viewBox="0 0 36 30" version="1.1"><g id="surface1"><path style=" stroke:none;fill-rule:nonzero;fill:rgb(95.294118%,48.235294%,12.54902%);fill-opacity:1;" d="M 32.175781 19.808594 C 31.613281 19.117188 30.683594 18.878906 29.871094 19.230469 L 22.449219 22.351562 C 22.132812 22.476562 21.996094 22.824219 22.125 23.136719 C 22.253906 23.453125 22.613281 23.585938 22.914062 23.460938 L 30.351562 20.339844 C 30.667969 20.203125 31.027344 20.300781 31.253906 20.566406 C 31.386719 20.738281 31.441406 20.953125 31.417969 21.164062 C 31.378906 21.375 31.265625 21.5625 31.078125 21.691406 C 27.839844 23.804688 20.460938 27.988281 20.113281 28.175781 C 20.101562 28.191406 20.09375 28.191406 20.078125 28.199219 C 19.183594 28.738281 18.171875 28.875 16.914062 28.648438 C 16.835938 28.636719 15.585938 28.484375 11.0625 27.9375 L 8.960938 27.675781 L 8.960938 19.558594 C 9.285156 19.539062 9.585938 19.523438 9.726562 19.523438 L 9.800781 19.523438 C 12.609375 19.351562 15.285156 19.882812 18.121094 20.460938 C 18.480469 20.535156 18.847656 20.609375 19.207031 20.683594 C 19.597656 20.761719 19.867188 21.097656 19.867188 21.503906 C 19.867188 21.523438 19.867188 21.554688 19.851562 21.601562 C 19.828125 21.824219 19.703125 21.988281 19.613281 22.085938 C 19.460938 22.238281 19.253906 22.328125 19.027344 22.328125 L 13.363281 22.328125 C 13.027344 22.328125 12.765625 22.605469 12.765625 22.925781 C 12.765625 23.265625 13.042969 23.527344 13.363281 23.527344 L 19.035156 23.527344 C 19.574219 23.527344 20.101562 23.316406 20.476562 22.925781 C 20.796875 22.605469 21 22.191406 21.050781 21.765625 C 21.066406 21.675781 21.074219 21.59375 21.074219 21.503906 C 21.074219 20.535156 20.386719 19.703125 19.433594 19.515625 C 19.074219 19.441406 18.703125 19.363281 18.34375 19.304688 C 15.554688 18.742188 12.675781 18.148438 9.71875 18.351562 L 9.660156 18.351562 C 9.523438 18.351562 9.246094 18.375 8.925781 18.390625 C 8.851562 18.140625 8.640625 17.941406 8.347656 17.941406 L 3.871094 17.941406 C 3.53125 17.941406 3.269531 18.21875 3.269531 18.539062 L 3.269531 28.671875 C 3.269531 29.011719 3.546875 29.273438 3.871094 29.273438 L 8.355469 29.273438 C 8.59375 29.273438 8.804688 29.136719 8.894531 28.921875 L 10.914062 29.167969 C 13.289062 29.453125 16.558594 29.859375 16.695312 29.878906 C 17.144531 29.953125 17.574219 30.007812 17.96875 30.007812 C 18.960938 30.007812 19.84375 29.765625 20.664062 29.296875 C 20.675781 29.296875 20.675781 29.28125 20.683594 29.28125 C 20.761719 29.242188 28.394531 24.921875 31.726562 22.746094 C 32.191406 22.449219 32.511719 21.945312 32.601562 21.398438 C 32.675781 20.8125 32.527344 20.242188 32.175781 19.808594 Z M 7.734375 28.035156 L 4.46875 28.035156 L 4.46875 19.117188 L 7.738281 19.117188 L 7.738281 28.035156 Z M 7.734375 28.035156 "></path><path style=" stroke:none;fill-rule:nonzero;fill:rgb(95.294118%,48.235294%,12.54902%);fill-opacity:1;" d="M 13.09375 8.550781 C 13.117188 8.566406 13.15625 8.566406 13.207031 8.574219 C 13.417969 8.609375 13.621094 8.648438 13.828125 8.683594 C 13.882812 8.699219 13.925781 8.707031 13.980469 8.707031 C 14.03125 9.269531 14.144531 9.824219 14.332031 10.351562 C 14.234375 10.425781 14.128906 10.484375 14.03125 10.558594 L 13.734375 10.761719 C 13.679688 10.800781 13.640625 10.824219 13.621094 10.851562 C 13.394531 11.023438 13.320312 11.324219 13.433594 11.585938 C 13.808594 12.375 14.308594 13.101562 14.925781 13.738281 C 15.128906 13.949219 15.449219 13.988281 15.691406 13.828125 L 15.726562 13.808594 C 15.890625 13.679688 16.066406 13.566406 16.230469 13.453125 C 16.28125 13.417969 16.34375 13.378906 16.394531 13.34375 C 16.824219 13.703125 17.289062 14.003906 17.78125 14.242188 C 17.761719 14.339844 17.746094 14.453125 17.722656 14.558594 C 17.699219 14.722656 17.664062 14.878906 17.632812 15.046875 C 17.632812 15.058594 17.617188 15.082031 17.617188 15.097656 C 17.566406 15.382812 17.746094 15.660156 18.007812 15.757812 C 18.40625 15.90625 18.832031 16.019531 19.261719 16.09375 C 19.6875 16.171875 20.121094 16.222656 20.550781 16.230469 L 20.566406 16.230469 C 20.851562 16.230469 21.089844 16.027344 21.148438 15.757812 C 21.148438 15.742188 21.164062 15.71875 21.164062 15.703125 C 21.1875 15.539062 21.226562 15.382812 21.253906 15.21875 C 21.277344 15.121094 21.292969 15.015625 21.316406 14.902344 C 21.863281 14.851562 22.417969 14.738281 22.941406 14.566406 C 22.980469 14.617188 23.015625 14.675781 23.054688 14.730469 C 23.167969 14.894531 23.296875 15.066406 23.390625 15.234375 C 23.40625 15.246094 23.429688 15.285156 23.445312 15.292969 C 23.617188 15.515625 23.917969 15.59375 24.179688 15.480469 C 24.984375 15.105469 25.710938 14.617188 26.347656 14.003906 C 26.558594 13.800781 26.59375 13.492188 26.445312 13.253906 C 26.421875 13.214844 26.390625 13.175781 26.371094 13.125 L 26.167969 12.839844 C 26.09375 12.742188 26.03125 12.628906 25.957031 12.523438 C 26.316406 12.097656 26.632812 11.625 26.871094 11.121094 C 26.925781 11.136719 26.96875 11.144531 27.023438 11.144531 C 27.234375 11.183594 27.433594 11.21875 27.644531 11.273438 C 27.683594 11.289062 27.71875 11.289062 27.757812 11.289062 C 28.035156 11.308594 28.28125 11.152344 28.378906 10.890625 C 28.53125 10.476562 28.640625 10.050781 28.734375 9.613281 C 28.824219 9.179688 28.859375 8.738281 28.867188 8.300781 C 28.882812 8.015625 28.679688 7.761719 28.402344 7.703125 C 28.386719 7.703125 28.363281 7.6875 28.351562 7.6875 L 28.066406 7.636719 C 27.890625 7.597656 27.710938 7.574219 27.539062 7.539062 C 27.488281 6.988281 27.375 6.449219 27.203125 5.925781 C 27.425781 5.761719 27.667969 5.609375 27.898438 5.453125 C 28.148438 5.289062 28.238281 4.964844 28.109375 4.6875 C 27.734375 3.886719 27.234375 3.148438 26.617188 2.511719 C 26.414062 2.300781 26.078125 2.265625 25.835938 2.4375 C 25.703125 2.535156 25.550781 2.640625 25.410156 2.722656 C 25.320312 2.78125 25.222656 2.851562 25.132812 2.910156 C 24.703125 2.550781 24.238281 2.25 23.746094 2.011719 C 23.746094 1.988281 23.761719 1.972656 23.761719 1.949219 L 23.78125 1.816406 C 23.78125 1.800781 23.796875 1.792969 23.796875 1.761719 L 23.835938 1.574219 C 23.859375 1.449219 23.886719 1.328125 23.910156 1.164062 C 23.960938 0.878906 23.796875 0.585938 23.519531 0.488281 C 23.121094 0.335938 22.695312 0.226562 22.265625 0.148438 C 21.839844 0.0742188 21.40625 0.0234375 20.976562 0.015625 C 20.675781 0.015625 20.414062 0.226562 20.363281 0.539062 C 20.339844 0.667969 20.308594 0.800781 20.289062 0.929688 L 20.25 1.101562 C 20.25 1.117188 20.25 1.140625 20.234375 1.15625 L 20.234375 1.273438 C 20.234375 1.296875 20.21875 1.3125 20.21875 1.335938 C 19.664062 1.386719 19.117188 1.5 18.59375 1.679688 C 18.53125 1.589844 18.464844 1.492188 18.40625 1.402344 C 18.308594 1.265625 18.203125 1.117188 18.121094 0.976562 C 17.953125 0.726562 17.632812 0.636719 17.371094 0.765625 C 16.566406 1.140625 15.832031 1.640625 15.195312 2.257812 C 14.984375 2.460938 14.949219 2.796875 15.121094 3.046875 C 15.285156 3.269531 15.441406 3.511719 15.59375 3.734375 C 15.234375 4.164062 14.933594 4.628906 14.691406 5.121094 C 14.519531 5.085938 14.339844 5.0625 14.167969 5.023438 L 13.828125 4.988281 C 13.546875 4.933594 13.265625 5.101562 13.171875 5.378906 C 13.019531 5.789062 12.90625 6.21875 12.816406 6.652344 C 12.742188 7.085938 12.691406 7.53125 12.683594 7.964844 C 12.660156 8.234375 12.832031 8.476562 13.09375 8.550781 Z M 13.988281 6.878906 C 14.023438 6.675781 14.078125 6.464844 14.121094 6.261719 C 14.332031 6.300781 14.550781 6.335938 14.761719 6.390625 C 14.871094 6.414062 14.960938 6.425781 15.058594 6.414062 C 15.285156 6.398438 15.488281 6.246094 15.570312 6.039062 C 15.847656 5.363281 16.230469 4.761719 16.746094 4.238281 C 16.914062 4.066406 16.957031 3.808594 16.875 3.601562 C 16.835938 3.503906 16.777344 3.414062 16.710938 3.316406 L 16.597656 3.148438 C 16.523438 3.039062 16.449219 2.925781 16.371094 2.8125 C 16.6875 2.550781 17.03125 2.308594 17.398438 2.113281 C 17.527344 2.289062 17.648438 2.476562 17.773438 2.664062 C 17.851562 2.773438 17.925781 2.863281 18.023438 2.925781 C 18.195312 3.039062 18.414062 3.058594 18.601562 2.984375 C 19.273438 2.699219 19.980469 2.558594 20.699219 2.550781 C 20.925781 2.550781 21.136719 2.414062 21.238281 2.210938 C 21.277344 2.136719 21.300781 2.046875 21.316406 1.949219 C 21.335938 1.816406 21.367188 1.671875 21.390625 1.539062 L 21.425781 1.351562 C 21.425781 1.335938 21.425781 1.3125 21.441406 1.296875 L 21.441406 1.265625 C 21.644531 1.289062 21.832031 1.320312 22.027344 1.359375 C 22.230469 1.394531 22.417969 1.433594 22.605469 1.492188 L 22.605469 1.515625 C 22.605469 1.53125 22.589844 1.539062 22.589844 1.566406 L 22.550781 1.753906 C 22.53125 1.890625 22.5 2.03125 22.476562 2.167969 C 22.453125 2.257812 22.453125 2.339844 22.453125 2.429688 C 22.46875 2.65625 22.621094 2.859375 22.828125 2.941406 C 23.503906 3.203125 24.121094 3.601562 24.628906 4.101562 C 24.78125 4.238281 24.988281 4.304688 25.175781 4.253906 C 25.289062 4.230469 25.402344 4.175781 25.5 4.085938 C 25.671875 3.960938 25.859375 3.839844 26.039062 3.710938 C 26.300781 4.027344 26.542969 4.371094 26.738281 4.726562 C 26.609375 4.816406 26.496094 4.890625 26.378906 4.972656 L 26.25 5.0625 C 26.152344 5.121094 26.0625 5.191406 25.988281 5.273438 C 25.824219 5.445312 25.777344 5.699219 25.875 5.925781 C 26.160156 6.601562 26.308594 7.304688 26.324219 8.023438 C 26.324219 8.25 26.460938 8.460938 26.664062 8.566406 C 26.753906 8.601562 26.851562 8.640625 26.949219 8.65625 C 27.15625 8.691406 27.375 8.730469 27.585938 8.765625 C 27.5625 8.976562 27.53125 9.179688 27.496094 9.382812 C 27.457031 9.585938 27.40625 9.78125 27.359375 9.984375 C 27.308594 9.96875 27.246094 9.960938 27.195312 9.960938 C 27.007812 9.921875 26.820312 9.886719 26.617188 9.847656 C 26.601562 9.847656 26.542969 9.832031 26.527344 9.832031 C 26.25 9.796875 26.003906 9.960938 25.90625 10.207031 C 25.628906 10.898438 25.230469 11.511719 24.703125 12.039062 C 24.53125 12.210938 24.480469 12.472656 24.578125 12.699219 C 24.601562 12.757812 24.636719 12.824219 24.675781 12.871094 C 24.808594 13.058594 24.9375 13.246094 25.074219 13.449219 C 24.757812 13.710938 24.421875 13.933594 24.066406 14.136719 C 24.046875 14.101562 24.015625 14.0625 23.992188 14.023438 C 23.878906 13.859375 23.78125 13.710938 23.671875 13.550781 C 23.632812 13.492188 23.578125 13.425781 23.535156 13.386719 C 23.363281 13.222656 23.109375 13.175781 22.882812 13.261719 C 22.207031 13.546875 21.496094 13.695312 20.753906 13.695312 C 20.511719 13.695312 20.300781 13.828125 20.210938 14.046875 C 20.175781 14.121094 20.152344 14.210938 20.136719 14.308594 C 20.101562 14.535156 20.0625 14.746094 20.023438 14.960938 C 19.824219 14.941406 19.636719 14.910156 19.441406 14.871094 C 19.238281 14.835938 19.050781 14.796875 18.863281 14.738281 C 18.898438 14.511719 18.9375 14.300781 18.988281 14.078125 C 19.011719 13.988281 19.011719 13.90625 19.011719 13.816406 C 18.996094 13.574219 18.847656 13.378906 18.636719 13.289062 C 17.960938 13.011719 17.347656 12.628906 16.824219 12.113281 C 16.648438 11.949219 16.394531 11.902344 16.171875 11.984375 C 16.109375 12.007812 16.042969 12.046875 15.984375 12.097656 C 15.832031 12.210938 15.667969 12.324219 15.511719 12.421875 C 15.472656 12.441406 15.433594 12.472656 15.398438 12.496094 C 15.136719 12.179688 14.910156 11.84375 14.707031 11.488281 C 14.894531 11.355469 15.097656 11.226562 15.285156 11.101562 C 15.34375 11.0625 15.398438 11.011719 15.449219 10.972656 C 15.621094 10.800781 15.675781 10.539062 15.578125 10.3125 C 15.292969 9.636719 15.128906 8.910156 15.128906 8.175781 C 15.128906 7.898438 14.941406 7.664062 14.675781 7.597656 C 14.664062 7.597656 14.601562 7.582031 14.585938 7.574219 C 14.398438 7.539062 14.199219 7.5 14.011719 7.460938 C 13.957031 7.449219 13.898438 7.441406 13.84375 7.441406 C 13.921875 7.273438 13.949219 7.074219 13.988281 6.878906 Z M 13.988281 6.878906 "></path><path style=" stroke:none;fill-rule:nonzero;fill:rgb(95.294118%,48.235294%,12.54902%);fill-opacity:1;" d="M 18.148438 10.65625 C 18.539062 11.054688 19.011719 11.371094 19.539062 11.558594 C 19.710938 11.617188 19.898438 11.671875 20.101562 11.707031 C 20.289062 11.746094 20.488281 11.765625 20.675781 11.765625 C 20.699219 11.765625 20.738281 11.765625 20.773438 11.765625 C 21.300781 11.765625 21.824219 11.65625 22.304688 11.429688 C 22.664062 11.265625 22.996094 11.039062 23.273438 10.769531 C 23.683594 10.378906 24 9.90625 24.1875 9.382812 C 24.246094 9.195312 24.300781 9.007812 24.335938 8.820312 C 24.375 8.617188 24.398438 8.429688 24.398438 8.234375 C 24.414062 7.6875 24.300781 7.117188 24.058594 6.621094 C 23.894531 6.261719 23.671875 5.933594 23.398438 5.648438 C 23.011719 5.25 22.539062 4.933594 22.011719 4.746094 C 21.839844 4.6875 21.652344 4.636719 21.449219 4.597656 C 21.261719 4.558594 21.058594 4.546875 20.871094 4.539062 C 20.324219 4.523438 19.753906 4.636719 19.261719 4.875 C 18.898438 5.039062 18.570312 5.265625 18.285156 5.535156 C 17.886719 5.925781 17.574219 6.398438 17.386719 6.921875 C 17.324219 7.109375 17.257812 7.296875 17.234375 7.5 C 17.199219 7.6875 17.175781 7.890625 17.175781 8.085938 C 17.160156 8.648438 17.289062 9.210938 17.527344 9.710938 C 17.65625 10.042969 17.878906 10.363281 18.148438 10.65625 Z M 18.390625 7.703125 C 18.414062 7.574219 18.449219 7.441406 18.488281 7.3125 C 18.613281 6.960938 18.824219 6.652344 19.085938 6.382812 C 19.273438 6.195312 19.5 6.046875 19.738281 5.933594 C 20.054688 5.78125 20.398438 5.707031 20.753906 5.707031 C 20.773438 5.707031 20.789062 5.707031 20.8125 5.707031 C 20.941406 5.707031 21.074219 5.722656 21.203125 5.746094 C 21.328125 5.765625 21.449219 5.804688 21.578125 5.84375 C 21.929688 5.96875 22.238281 6.164062 22.507812 6.441406 C 22.695312 6.628906 22.84375 6.855469 22.957031 7.09375 C 23.121094 7.433594 23.199219 7.808594 23.183594 8.175781 C 23.183594 8.300781 23.167969 8.4375 23.144531 8.574219 C 23.121094 8.699219 23.085938 8.835938 23.046875 8.949219 C 22.921875 9.300781 22.710938 9.621094 22.433594 9.878906 C 22.246094 10.050781 22.019531 10.199219 21.78125 10.3125 C 21.441406 10.476562 21.066406 10.550781 20.699219 10.539062 C 20.574219 10.539062 20.453125 10.523438 20.308594 10.5 C 20.183594 10.476562 20.0625 10.441406 19.933594 10.402344 C 19.582031 10.273438 19.273438 10.066406 19.003906 9.800781 C 18.816406 9.613281 18.683594 9.40625 18.570312 9.148438 C 18.40625 8.8125 18.328125 8.4375 18.34375 8.0625 C 18.351562 7.964844 18.367188 7.824219 18.390625 7.703125 Z M 18.390625 7.703125 "></path></g></svg> 