<?xml version="1.0" encoding="UTF-8"?> <svg xmlns="http://www.w3.org/2000/svg" xmlns:xlink="http://www.w3.org/1999/xlink" width="36pt" height="30pt" viewBox="0 0 36 30" version="1.1"><g id="surface1"><path style=" stroke:none;fill-rule:nonzero;fill:rgb(100%,84.313725%,25.098039%);fill-opacity:1;" d="M 24.007812 0 L 10.671875 0 C 9.203125 0 8.003906 1.199219 8.003906 2.671875 L 8.003906 27.335938 C 8.003906 28.808594 9.203125 30.007812 10.671875 30.007812 L 24.007812 30.007812 C 25.476562 30.007812 26.675781 28.808594 26.675781 27.335938 L 26.675781 2.671875 C 26.671875 1.199219 25.46875 0 24.007812 0 Z M 9.335938 4.664062 L 25.335938 4.664062 L 25.335938 23.332031 L 9.335938 23.332031 Z M 10.671875 1.335938 L 24.007812 1.335938 C 24.742188 1.335938 25.34375 1.933594 25.34375 2.671875 L 25.34375 3.335938 L 9.335938 3.335938 L 9.335938 2.671875 C 9.335938 1.933594 9.9375 1.335938 10.671875 1.335938 Z M 24.007812 28.664062 L 10.671875 28.664062 C 9.9375 28.664062 9.335938 28.066406 9.335938 27.328125 L 9.335938 24.660156 L 25.335938 24.660156 L 25.335938 27.328125 C 25.335938 28.066406 24.734375 28.664062 24.007812 28.664062 Z M 18.007812 26.535156 C 18.007812 26.566406 18.007812 26.632812 18.007812 26.671875 C 18.007812 26.835938 17.941406 27 17.804688 27.136719 C 17.671875 27.269531 17.503906 27.335938 17.339844 27.335938 C 17.242188 27.335938 17.175781 27.335938 17.070312 27.269531 C 17.003906 27.238281 16.90625 27.203125 16.867188 27.136719 C 16.800781 27.066406 16.769531 27 16.734375 26.933594 C 16.664062 26.835938 16.664062 26.765625 16.664062 26.664062 C 16.664062 26.632812 16.664062 26.566406 16.664062 26.527344 C 16.664062 26.488281 16.695312 26.429688 16.695312 26.390625 C 16.695312 26.363281 16.726562 26.324219 16.761719 26.296875 C 16.792969 26.265625 16.792969 26.226562 16.828125 26.199219 C 16.867188 26.167969 16.898438 26.128906 16.925781 26.128906 C 16.957031 26.101562 16.996094 26.101562 17.023438 26.0625 C 17.054688 26.0625 17.09375 26.03125 17.160156 26.03125 C 17.363281 26.003906 17.59375 26.0625 17.761719 26.199219 C 17.789062 26.226562 17.828125 26.265625 17.828125 26.296875 C 17.859375 26.324219 17.859375 26.363281 17.894531 26.390625 C 17.941406 26.429688 17.96875 26.496094 18.007812 26.535156 Z M 19.671875 15.667969 C 19.671875 16.734375 18.976562 17.601562 18.007812 17.902344 L 18.007812 18.667969 C 18.007812 19.035156 17.707031 19.335938 17.339844 19.335938 C 16.972656 19.335938 16.671875 19.035156 16.671875 18.667969 L 16.671875 17.902344 C 15.703125 17.601562 15.007812 16.734375 15.007812 15.667969 C 15.007812 15.300781 15.308594 15 15.675781 15 C 16.042969 15 16.34375 15.300781 16.34375 15.667969 C 16.34375 16.238281 16.777344 16.664062 17.339844 16.664062 C 17.910156 16.664062 18.335938 16.230469 18.335938 15.667969 C 18.335938 15.105469 17.902344 14.671875 17.339844 14.671875 C 16.042969 14.671875 15.007812 13.636719 15.007812 12.335938 C 15.007812 11.273438 15.703125 10.402344 16.671875 10.101562 L 16.671875 9.335938 C 16.671875 8.96875 16.972656 8.671875 17.339844 8.671875 C 17.707031 8.671875 18.007812 8.96875 18.007812 9.335938 L 18.007812 10.101562 C 18.976562 10.402344 19.671875 11.273438 19.671875 12.335938 C 19.671875 12.703125 19.371094 13.003906 19.003906 13.003906 C 18.636719 13.003906 18.335938 12.703125 18.335938 12.335938 C 18.335938 11.765625 17.902344 11.339844 17.339844 11.339844 C 16.769531 11.339844 16.34375 11.773438 16.34375 12.335938 C 16.34375 12.898438 16.777344 13.335938 17.339844 13.335938 C 18.636719 13.335938 19.671875 14.371094 19.671875 15.667969 Z M 19.671875 15.667969 "></path></g></svg> 