<?xml version="1.0" encoding="UTF-8"?> <!-- Generator: Adobe Illustrator 23.0.3, SVG Export Plug-In . SVG Version: 6.00 Build 0) --> <svg xmlns="http://www.w3.org/2000/svg" xmlns:xlink="http://www.w3.org/1999/xlink" version="1.1" id="Layer_1" x="0px" y="0px" viewBox="0 0 48 40" style="enable-background:new 0 0 48 40;" xml:space="preserve"> <style type="text/css"> .st0{display:none;} .st1{display:inline;} .st2{fill:#FF4081;} .st3{display:inline;fill:#FFD740;} .st4{display:inline;fill:#40C4FF;} .st5{display:none;fill:#9B5C8F;} .st6{display:none;fill:#5E8E3E;} .st7{fill:#F37B20;} .st8{display:inline;fill:#FF4081;} .st9{display:none;fill:#FFD740;} .st10{display:inline;fill-rule:evenodd;clip-rule:evenodd;fill:#9B5C8F;} .st11{fill:#5E8E3E;} </style> <g class="st0"> <g class="st1"> <path class="st2" d="M38.65,34.19H14.4c-0.26,0-0.38-0.18-0.41-0.26s-0.1-0.28,0.04-0.44l2.14-2.16h4.7h10.69h4.53 c1.05,0,1.92-0.76,2.03-1.77l1.62-14.9c0.06-0.55-0.13-1.11-0.51-1.53c-0.18-0.19-0.39-0.34-0.63-0.45c0-0.12,0.01-0.24,0.01-0.36 c0-5.62-2.21-10.02-5.04-10.02c-2.83,0-5.04,4.4-5.04,10.02c0,0.05,0,0.11,0,0.16h-1.24c0.15-1.27,0.23-2.32,0.22-2.77 c-0.02-0.64-0.23-1.25-0.61-1.76c1.04-0.95,2.25-3.16,2.78-4.2c0.09-0.17,0.09-0.37,0.01-0.54c-0.08-0.17-0.24-0.3-0.43-0.34 c-1.12-0.27-2.46,0.52-3.39,1.22c-0.35-1.9-1.69-3.73-1.76-3.83c-0.15-0.21-0.42-0.3-0.67-0.25c-0.26,0.06-0.45,0.26-0.49,0.51 l-0.61,3.65l-2.02-1.63c-0.17-0.13-0.39-0.18-0.6-0.12c-0.21,0.06-0.37,0.22-0.43,0.42c-0.65,2.08,1.52,4.25,2.43,5.05 C21.24,8.46,21,9.14,21.01,9.86c0.01,0.43,0.13,1.42,0.33,2.62h-0.29l-0.27-1.04c-0.28-1.09-1.27-1.97-2.67-2l-2-7.7 c-0.09-0.33-0.44-0.54-0.78-0.45l-2.68,0.65C12.58,1.96,12.5,2,12.43,2.05c-0.06,0.05-0.11,0.1-0.16,0.17 c0,0.01-0.01,0.01-0.01,0.01c0,0,0,0,0,0c-0.04,0.07-0.07,0.15-0.08,0.23c-0.01,0.08-0.01,0.16,0.01,0.25l2,7.7 c-0.61,0.31-1.06,0.84-1.29,1.45L9.69,5.5C9.58,5.29,9.35,5.15,9.11,5.15H3.73c-0.36,0-0.65,0.28-0.65,0.62S3.37,6.4,3.73,6.4H8.7 l3.49,6.87l2.63,17.52c0,0.03,0.02,0.05,0.02,0.07l-1.78,1.79c-0.45,0.51-0.54,1.2-0.25,1.8c0.29,0.6,0.9,0.98,1.59,0.98h1.01 c-0.34,0.47-0.54,1.04-0.54,1.65c0,1.6,1.35,2.9,3.01,2.9c1.66,0,3.01-1.3,3.01-2.9c0-0.62-0.2-1.18-0.54-1.65h10.88 c-0.34,0.47-0.54,1.04-0.54,1.65c0,1.6,1.35,2.9,3.01,2.9c1.66,0,3.01-1.3,3.01-2.9c0-0.62-0.2-1.18-0.54-1.65h2.51 c0.36,0,0.65-0.28,0.65-0.63C39.3,34.47,39.01,34.19,38.65,34.19z M30.95,30.08h-9.48l-0.32-4.4h10.03L30.95,30.08z M31.25,24.43 H21.06l-0.37-5.05h10.83L31.25,24.43z M36.84,29.43c-0.04,0.37-0.36,0.65-0.74,0.65h-3.85l0.23-4.4h4.77L36.84,29.43z M37.38,24.43h-4.84l0.27-5.05h5.12L37.38,24.43z M38.27,13.97c0.14,0.15,0.21,0.35,0.19,0.56l-0.39,3.6h-5.19l0.23-4.4h4.6 C37.93,13.73,38.13,13.81,38.27,13.97z M33.57,3.56c1.77,0,3.75,3.6,3.75,8.77c0,0.05,0,0.11,0,0.16H32.5h-2.68 c0-0.05,0-0.11,0-0.16C29.82,7.16,31.8,3.56,33.57,3.56z M20.6,4.43l1.76,1.41c0.18,0.14,0.42,0.18,0.64,0.11 c0.22-0.08,0.37-0.26,0.41-0.49l0.51-3.01c0.45,0.91,0.85,2.02,0.7,2.89c-0.04,0.27,0.1,0.53,0.35,0.66 c0.25,0.12,0.55,0.08,0.75-0.12c0.57-0.56,1.45-1.24,2.2-1.58c-0.77,1.36-1.56,2.48-1.96,2.81c-0.53-0.32-1.13-0.48-1.77-0.46 c-0.54,0.01-1.06,0.17-1.52,0.42C22.06,6.55,21.01,5.47,20.6,4.43z M25.99,12.48h-3.33c-0.2-1.13-0.33-2.12-0.35-2.65 c-0.02-1.04,0.83-1.91,1.91-1.93c0.02,0,0.03,0,0.05,0c1.06,0,1.93,0.82,1.95,1.84C26.23,10.28,26.14,11.31,25.99,12.48z M31.82,13.73l-0.23,4.4H20.6l-0.32-4.4H31.82z M20.18,30.08h-4.16l-0.66-4.4h4.5L20.18,30.08z M15.02,2.66l0.55,2.11l-1.42,0.35 L13.6,3L15.02,2.66z M15.11,11.39c0.35-0.08,0.56-0.42,0.47-0.76l-1.12-4.31l1.42-0.35l1.12,4.31c0.09,0.33,0.44,0.54,0.78,0.45 c0.77-0.18,1.55,0.27,1.75,1.01v0l0.19,0.72l-0.06,0.01h-0.09h-5.52C14.16,11.96,14.55,11.52,15.11,11.39z M13.59,13.73h5.39 l0.32,4.4h-5.08C14.19,17.92,13.55,13.45,13.59,13.73z M14.41,19.38h4.98l0.37,5.05h-4.59L14.41,19.38z M17.87,38.75 c-0.94,0-1.71-0.74-1.71-1.65s0.77-1.65,1.71-1.65c0.94,0,1.71,0.74,1.71,1.65S18.82,38.75,17.87,38.75z M33.68,38.75 c-0.94,0-1.71-0.74-1.71-1.65s0.77-1.65,1.71-1.65s1.71,0.74,1.71,1.65S34.62,38.75,33.68,38.75z"></path> <path class="st2" d="M32.46,8.3h2.22c0.36,0,0.65-0.28,0.65-0.62c0-0.35-0.29-0.62-0.65-0.62h-2.22c-0.36,0-0.65,0.28-0.65,0.62 C31.81,8.02,32.1,8.3,32.46,8.3z"></path> <path class="st2" d="M32.46,11.84h2.22c0.36,0,0.65-0.28,0.65-0.62s-0.29-0.62-0.65-0.62h-2.22c-0.36,0-0.65,0.28-0.65,0.62 S32.1,11.84,32.46,11.84z"></path> </g> </g> <g class="st0"> <rect x="38.32" y="33.33" class="st3" width="1.33" height="1.33"></rect> <rect x="28.99" y="33.32" class="st3" width="1.33" height="1.33"></rect> <path class="st3" d="M44.76,28.17l-5.99-5.33c-0.12-0.11-0.28-0.17-0.44-0.17h-2.01v-2.01c0-0.37-0.3-0.67-0.67-0.67h-5.33v-6.62 L31,13.34c1.15,0.86,2.55,1.32,3.98,1.32c3.68,0.01,6.67-2.97,6.68-6.65c0.01-3.68-2.97-6.67-6.65-6.68c-1.76,0-3.45,0.69-4.7,1.92 C30.27,1.45,28.8,0,26.99,0H8.33C6.49,0,5,1.49,4.99,3.33v33.32c0,1.84,1.49,3.33,3.33,3.33h18.66c1.61,0,2.98-1.15,3.27-2.73 c1.33-0.24,2.38-1.27,2.65-2.6h2.8c0.32,1.55,1.68,2.66,3.27,2.67l0,0c1.58,0,2.95-1.12,3.27-2.67h0.73c1.11,0,2-0.89,2.01-2v-4 C44.98,28.47,44.9,28.29,44.76,28.17z M38.99,26h1.33l2.25,2h-3.58L38.99,26z M34.99,27.99h-10v-6.66h10V27.99z M36.37,2.85 c2.85,0.76,4.54,3.68,3.78,6.53c-0.76,2.85-3.68,4.54-6.53,3.78c-0.72-0.19-1.4-0.54-1.98-1.01c-0.12-0.1-0.27-0.15-0.42-0.15 c-0.01,0-0.03,0-0.04,0l-2.42,0.14l1.15-1.74c0.11-0.18,0.14-0.4,0.07-0.59c-1-2.77,0.43-5.82,3.19-6.82 C34.19,2.61,35.31,2.56,36.37,2.85z M12.99,1.33h9.33v1.33h-9.33V1.33z M26.99,38.66H8.33c-1.1,0-2-0.9-2-2V3.33c0-1.1,0.9-2,2-2 h3.33v1.33c0,0.74,0.6,1.33,1.33,1.33h9.33c0.74,0,1.33-0.6,1.33-1.33V1.33h3.33c1.1,0,2,0.9,2,2V5.1 c-0.73,1.51-0.87,3.24-0.37,4.84l-1.7,2.58c-0.14,0.21-0.15,0.48-0.02,0.7c0.12,0.22,0.36,0.35,0.62,0.33l1.48-0.09v6.53h-4.67 c-0.37,0-0.67,0.3-0.67,0.67v11.99c0,1.1,0.89,2,1.99,2h0.73c0.26,1.27,1.25,2.28,2.51,2.57C28.65,38.07,27.87,38.65,26.99,38.66z M31.65,33.99c0,1.1-0.9,2-2,2c-1.1,0-2-0.9-2-2l0,0c0-1.1,0.9-2,2-2C30.75,31.99,31.65,32.88,31.65,33.99L31.65,33.99z M40.4,35.41c-0.37,0.37-0.88,0.59-1.41,0.58l0,0c-1.1,0-2-0.9-2-2c0-1.1,0.9-2,2-2l0,0c1.1,0,2,0.9,2,2 C40.98,34.53,40.77,35.04,40.4,35.41L40.4,35.41z M42.98,33.33h-0.73c-0.32-1.55-1.68-2.66-3.26-2.67l0,0 c-1.58,0-2.95,1.12-3.27,2.67h-2.8c-0.31-1.56-1.68-2.68-3.26-2.68c-1.58,0.01-2.95,1.12-3.27,2.67h-0.73 c-0.37,0-0.66-0.3-0.66-0.67v-3.33h10.66c0.37,0,0.67-0.3,0.67-0.67V24h1.75l0.77,0.68c-0.67,0.08-1.18,0.64-1.18,1.31l0,2 c0,0.74,0.6,1.33,1.33,1.33h4.67v3.33C43.65,33.03,43.35,33.33,42.98,33.33z"></path> <rect x="16.99" y="33.32" class="st3" width="5.33" height="1.33"></rect> <rect x="14.33" y="33.32" class="st3" width="1.33" height="1.33"></rect> <rect x="18.32" y="30.66" class="st3" width="4" height="1.33"></rect> <rect x="19.66" y="27.99" class="st3" width="2.67" height="1.33"></rect> <rect x="15.66" y="30.66" class="st3" width="1.33" height="1.33"></rect> <path class="st3" d="M24.32,16v-2c0-0.37-0.3-0.67-0.67-0.67h-0.67V12h0.67c0.37,0,0.67-0.3,0.67-0.67V10 c0-1.84-1.49-3.33-3.33-3.33h-6.66c-1.84,0-3.33,1.49-3.33,3.33v1.33c0,0.37,0.3,0.67,0.67,0.67h0.67v1.33h-0.67 c-0.37,0-0.67,0.3-0.67,0.67v2c0,0.74,0.6,1.33,1.33,1.33h10.66C23.73,17.33,24.32,16.73,24.32,16z M12.33,10c0-1.1,0.9-2,2-2v1.33 h1.33V8h1.33v1.33h1.33V8h1.33v1.33h1.33V8c1.1,0,2,0.9,2,2v0.67H12.33V10z M13.66,12h8v1.33h-8V12z M22.99,16H12.33v-1.33h10.66 V16z"></path> <rect x="34.32" y="6" class="st3" width="4" height="1.33"></rect> <rect x="31.65" y="8.66" class="st3" width="6.66" height="1.33"></rect> <rect x="31.65" y="6" class="st3" width="1.33" height="1.33"></rect> </g> <g class="st0"> <path class="st4" d="M26.22,9.9V9.18H24.9V9.9c-1.29,0.27-2.29,1.27-2.56,2.56h-0.72v1.31h7.87v-1.31h-0.72 C28.51,11.17,27.5,10.17,26.22,9.9z M25.56,11.15c0.83,0,1.57,0.53,1.85,1.31h-3.69C23.99,11.68,24.73,11.15,25.56,11.15z"></path> <path class="st4" d="M9.82,40h14.43c0.36,0,0.66-0.29,0.66-0.66v-1.5c2.14-0.82,3.64-2.78,3.88-5.06h3.98 c1.45,0,2.62-1.17,2.62-2.62v-6.59c1.61-0.17,2.78-1.61,2.61-3.21c-0.08-0.79-0.48-1.51-1.1-2c1.27-1,1.49-2.84,0.49-4.11 c-0.49-0.62-1.21-1.02-2-1.1V2.62C35.4,1.17,34.22,0,32.77,0H18.35c-1.45,0-2.62,1.17-2.62,2.62v3.3C15.62,5.91,15.51,5.9,15.4,5.9 c-1.61,0-2.92,1.29-2.95,2.89L9.18,27.43c-0.01,0.04-0.01,0.08-0.01,0.11v11.8C9.17,39.71,9.46,40,9.82,40z M35.4,22.26v-3.21 c0.89,0.18,1.46,1.05,1.28,1.93C36.55,21.63,36.04,22.13,35.4,22.26z M36.71,16.07c0,0.78-0.55,1.45-1.31,1.61v-3.21 C36.16,14.61,36.71,15.29,36.71,16.07z M18.35,1.31h14.43c0.72,0,1.31,0.59,1.31,1.31v27.54c0,0.72-0.59,1.31-1.31,1.31H20.13 l1.12-1.97h10.86c0.36,0,0.66-0.29,0.66-0.66V3.28c0-0.36-0.29-0.66-0.66-0.66H19c-0.36,0-0.66,0.29-0.66,0.66v18.4l-1.31,1.46 V2.62C17.04,1.9,17.62,1.31,18.35,1.31z M25.37,22.31c0.02-0.04,0.04-0.07,0.05-0.11c0.1-0.28,0.14-0.58,0.14-0.88 c0-0.58-0.17-1.15-0.5-1.64h3.12c0.36,0,0.66,0.29,0.66,0.66v1.97c0,0.36-0.29,0.66-0.66,0.66H25L25.37,22.31z M24.25,24.26h3.93 c1.09,0,1.97-0.88,1.97-1.97v-1.97c0-1.09-0.88-1.97-1.97-1.97h-5.57c-0.96,0-1.87,0.47-2.42,1.26l-0.53,0.59V3.93h11.8V28.2H22 L24.25,24.26z M10.48,27.6l3.27-18.63c0.01-0.04,0.01-0.08,0.01-0.11c0-0.91,0.73-1.64,1.64-1.64c0.11,0,0.22,0.01,0.33,0.04v17.34 l-0.49,0.54l0.97,0.88l4.98-5.54c0.02-0.02,0.04-0.05,0.06-0.07c0.3-0.45,0.81-0.72,1.36-0.73c0.91,0,1.64,0.73,1.64,1.64 c0,0.14-0.02,0.27-0.05,0.4L18.43,31.8c-0.06,0.1-0.09,0.21-0.09,0.33c0,1.44-0.68,2.8-1.84,3.67l-0.52,0.39l0.79,1.05l0.52-0.39 c1.3-0.98,2.13-2.45,2.32-4.07h7.86c-0.25,1.81-1.5,3.32-3.23,3.9l-0.2,0.07c-0.27,0.09-0.45,0.34-0.45,0.62v1.31H10.48V27.6z"></path> <rect x="20.98" y="21.55" transform="matrix(0.6024 -0.7982 0.7982 0.6024 -9.4894 26.2845)" class="st4" width="1.31" height="2.24"></rect> </g> <path class="st5" d="M23.02,33.57h-5.16c-0.71,0-1.29,0.58-1.29,1.29v1.29c0,0.71,0.58,1.29,1.29,1.29h5.16 c0.71,0,1.29-0.58,1.29-1.29v-1.29C24.31,34.15,23.73,33.57,23.02,33.57z M17.86,36.15v-1.29h5.16v1.29H17.86z"></path> <path class="st5" d="M24.96,15.49h-1.29v-3.87h-1.29v3.87c0,0.71,0.58,1.29,1.29,1.29v4.52c-0.71,0-1.29,0.58-1.29,1.29v2.58 c0,0.71,0.58,1.29,1.29,1.29h1.29c0.71,0,1.29-0.58,1.29-1.29V22.6c0-0.71-0.58-1.29-1.29-1.29v-4.52c0.71,0,1.29-0.58,1.29-1.29 v-3.87h-1.29V15.49z M24.96,25.18h-1.29V22.6h1.29V25.18z"></path> <path class="st5" d="M31.41,14.2c0-1.45-0.85-2.58-1.94-2.58s-1.94,1.13-1.94,2.58c-0.07,0.99,0.43,1.93,1.29,2.43v4.67 c-0.71,0-1.29,0.58-1.29,1.29v2.58c0,0.71,0.58,1.29,1.29,1.29h1.29c0.71,0,1.29-0.58,1.29-1.29V22.6c0-0.71-0.58-1.29-1.29-1.29 v-4.67C30.98,16.14,31.48,15.19,31.41,14.2z M30.12,25.18h-1.29V22.6h1.29V25.18z M29.48,12.91c0.26,0,0.65,0.5,0.65,1.29 s-0.38,1.29-0.65,1.29s-0.65-0.5-0.65-1.29S29.21,12.91,29.48,12.91z"></path> <path class="st5" d="M37.87,18.72c-0.01-4.31-2.53-8.21-6.46-9.99V2.58c0-1.43-1.16-2.58-2.58-2.58H12.05 c-1.43,0-2.58,1.16-2.58,2.58v34.86c0,1.43,1.16,2.58,2.58,2.58h16.79c1.43,0,2.58-1.16,2.58-2.58v-8.73 C35.34,26.94,37.86,23.03,37.87,18.72z M25.34,1.29l-1.29,1.29h-7.21l-1.29-1.29H25.34z M12.05,1.29h1.67l2.39,2.39 c0.12,0.12,0.29,0.19,0.46,0.19h7.75c0.17,0,0.34-0.07,0.46-0.19l2.39-2.39h1.67c0.71,0,1.29,0.58,1.29,1.29v2.58H10.75V2.58 C10.75,1.87,11.33,1.29,12.05,1.29z M28.83,38.74H12.05c-0.71,0-1.29-0.58-1.29-1.29v-5.16h19.37v5.16 C30.12,38.16,29.55,38.74,28.83,38.74z M30.12,30.99H10.75V6.46h19.37v1.78C24.33,6.45,18.19,9.7,16.4,15.49s1.47,11.94,7.26,13.72 c2.1,0.65,4.36,0.65,6.46,0V30.99z M26.9,28.41c-5.35,0-9.68-4.34-9.68-9.68s4.34-9.68,9.68-9.68s9.68,4.34,9.68,9.68 C36.57,24.07,32.24,28.4,26.9,28.41z"></path> <path class="st6" d="M43.73,0.15H4.65c-0.54,0-0.97,0.44-0.97,0.97V8.1v0.13v3.72c0,1.16,0.79,2.16,1.93,2.63v24.3 c0,0.54,0.44,0.97,0.97,0.97h5.4H22.6h19.2c0.54,0,0.97-0.44,0.97-0.97V14.7c1.14-0.48,1.93-1.47,1.93-2.63V8.22v-7.1 C44.71,0.59,44.27,0.15,43.73,0.15z M5.62,2.1h37.14v6.12v3.84c0,0.53-0.69,0.99-1.47,0.99c-0.78,0-1.47-0.46-1.47-0.99V8.22 c0-0.54-0.44-0.97-0.97-0.97c-0.54,0-0.97,0.44-0.97,0.97v3.84c0,0.53-0.69,0.99-1.47,0.99c-0.78,0-1.47-0.46-1.47-0.99V8.22 c0-0.54-0.44-0.97-0.97-0.97c-0.54,0-0.97,0.44-0.97,0.97v3.84c0,0.53-0.69,0.99-1.47,0.99c-0.78,0-1.47-0.46-1.47-0.99V8.22 c0-0.54-0.44-0.97-0.97-0.97S28.1,7.69,28.1,8.22v3.84c0,0.53-0.69,0.99-1.47,0.99c-0.78,0-1.47-0.46-1.47-0.99v-0.13V8.22V8.1 c0-0.54-0.44-0.97-0.97-0.97c-0.54,0-0.97,0.44-0.97,0.97v0.13v3.72c0,0.53-0.69,0.99-1.47,0.99s-1.47-0.46-1.47-0.99V8.1 c0-0.54-0.44-0.97-0.97-0.97s-0.97,0.44-0.97,0.97v3.84c0,0.53-0.69,0.99-1.47,0.99s-1.47-0.46-1.47-0.99V8.1 c0-0.54-0.44-0.97-0.97-0.97c-0.54,0-0.97,0.44-0.97,0.97v3.84c0,0.53-0.69,0.99-1.47,0.99s-1.47-0.46-1.47-0.99V8.1 c0-0.54-0.44-0.97-0.97-0.97S8.56,7.56,8.56,8.1v3.84c0,0.53-0.69,0.99-1.47,0.99s-1.47-0.46-1.47-0.99V8.22V8.1L5.62,2.1L5.62,2.1z M12.95,37.9V22.73h8.68V37.9L12.95,37.9L12.95,37.9z M23.58,37.9V21.75c0-0.54-0.44-0.97-0.97-0.97H11.98 c-0.54,0-0.97,0.44-0.97,0.97V37.9H7.55V14.84c0.77-0.09,1.46-0.39,1.98-0.85c0.62,0.55,1.48,0.89,2.44,0.89 c0.96,0,1.82-0.34,2.44-0.89c0.62,0.55,1.48,0.89,2.44,0.89s1.82-0.34,2.44-0.89c0.62,0.55,1.48,0.89,2.44,0.89 c0.92,0,1.76-0.32,2.38-0.83c0.62,0.59,1.51,0.96,2.51,0.96c0.96,0,1.82-0.34,2.44-0.89C29.7,14.66,30.56,15,31.52,15 c0.96,0,1.82-0.34,2.44-0.89c0.62,0.55,1.48,0.89,2.44,0.89c0.96,0,1.82-0.34,2.44-0.89c0.52,0.46,1.21,0.76,1.98,0.85V37.9H23.58z"></path> <path class="st6" d="M36.97,17.19h-8.85c-0.54,0-0.97,0.44-0.97,0.97v8.85c0,0.54,0.44,0.97,0.97,0.97h8.85 c0.54,0,0.97-0.44,0.97-0.97v-8.85C37.94,17.62,37.5,17.19,36.97,17.19z M29.09,19.14h2.48v6.9h-2.48V19.14z M35.99,26.04h-2.48 v-6.9h2.48V26.04z"></path> <g class="st0"> <g class="st1"> <path class="st7" d="M39.26,33.64c0.43,0,0.74-0.49,0.56-0.93c-0.8-1.61-2.47-2.6-4.26-2.6c-2.04,0-3.58,1.05-4.33,2.72H15.16 c-0.8-1.61-2.47-2.72-4.26-2.72s-3.4,0.99-4.26,2.6c-0.19,0.43,0.06,0.93,0.56,0.93h2.97l0.8,1.3l-0.8,1.3h-2.9 c-0.43,0-0.74,0.49-0.56,0.93c0.8,1.61,2.47,2.6,4.26,2.6c1.92,0,3.52-1.05,4.33-2.66h16.01c0.68,1.54,2.1,2.72,4.33,2.72 c1.79,0,3.4-0.99,4.26-2.6c0.19-0.43-0.06-0.93-0.56-0.93h-2.97l-0.8-1.3l0.8-1.3h2.9V33.64z M10.95,38.53 c-0.93,0-1.85-0.37-2.47-0.99h2.04c0.19,0,0.43-0.12,0.49-0.31l1.24-1.92c0.12-0.19,0.12-0.43,0-0.68l-1.24-1.92 c-0.12-0.19-0.31-0.31-0.49-0.31H8.48c0.68-0.62,1.54-0.99,2.47-0.99C15.65,31.42,15.53,38.53,10.95,38.53z M15.65,35.81 c0.12-0.56,0.12-1.17,0-1.73h15.2c-0.12,0.56-0.12,1.11,0,1.67L15.65,35.81z M35.49,32.72l-1.24,1.92c-0.12,0.19-0.12,0.43,0,0.68 l1.24,1.92c0.12,0.19,0.31,0.31,0.49,0.31h2.1c-0.62,0.62-1.54,0.99-2.47,0.99c-4.76,0-4.63-7.11,0-7.11 c0.93,0,1.85,0.37,2.47,0.99h-2.1C35.8,32.41,35.61,32.53,35.49,32.72z"></path> </g> <g class="st1"> <path class="st7" d="M38.21,11.15c-0.56-3.4-3.71-5.69-6.55-5.56C28.88-1.64,18.49-1.52,15.9,5.77c-3.89-0.8-7.48,1.79-8.03,5.5 c-2.47,0.87-4.08,3.15-4.08,5.81c0,3.4,2.78,6.12,6.12,6.12h1.73c0.37,0,0.62-0.25,0.62-0.62c0-0.37-0.25-0.62-0.62-0.62H9.9 c-2.72,0-4.88-2.22-4.88-4.88c0-2.22,1.42-4.14,3.58-4.76c0.25-0.06,0.43-0.31,0.43-0.56c0.25-3.28,3.52-5.75,7.05-4.7 c0.31,0.12,0.68-0.12,0.74-0.43c1.92-6.8,11.56-6.98,13.78-0.25c0.06,0.31,0.37,0.43,0.68,0.43c2.41-0.37,5.44,1.73,5.75,4.88 c0,0.25,0.25,0.49,0.49,0.56c2.29,0.43,3.96,2.47,3.96,4.82c0,2.72-2.22,4.88-4.88,4.88h-1.67c-0.37,0-0.62,0.25-0.62,0.62 c0,0.37,0.25,0.62,0.62,0.62h1.67c3.4,0,6.12-2.72,6.12-6.12C42.78,14.3,40.87,11.89,38.21,11.15z"></path> </g> <g class="st1"> <path class="st7" d="M18.43,7.75c0.31,0.12,0.68-0.12,0.74-0.43c1.24-4.45,7.66-4.63,9.08-0.12c0.12,0.31,0.43,0.49,0.8,0.37 c0.31-0.12,0.49-0.43,0.37-0.8c-1.85-5.69-9.89-5.44-11.49,0.19C17.94,7.32,18.12,7.63,18.43,7.75z"></path> </g> <g class="st1"> <path class="st7" d="M13.43,18.5c-0.37,0-0.62,0.25-0.62,0.62v3.65c0,0.37,0.25,0.62,0.62,0.62h1.73 c0.19,0.56,0.37,1.05,0.62,1.54l-1.24,1.24c-0.25,0.25-0.25,0.62,0,0.87l2.6,2.6c0.12,0.12,0.25,0.19,0.43,0.19l0,0 c0.19,0,0.31-0.06,0.43-0.19l1.24-1.17c0.49,0.25,1.05,0.49,1.54,0.62v1.73c0,0.37,0.25,0.62,0.62,0.62h3.71 c0.37,0,0.62-0.25,0.62-0.62v-1.73c0.56-0.19,1.05-0.37,1.54-0.62l1.17,1.17c0.12,0.12,0.25,0.19,0.43,0.19s0.31-0.06,0.43-0.19 l2.6-2.6c0.12-0.12,0.19-0.25,0.19-0.43s-0.06-0.31-0.19-0.43l-1.17-1.17c0.25-0.49,0.49-1.05,0.62-1.54h1.73 c0.37,0,0.62-0.25,0.62-0.62v-3.65c0-0.37-0.25-0.62-0.62-0.62h-1.73c-0.19-0.56-0.37-1.05-0.62-1.54l1.17-1.24 c0.12-0.12,0.19-0.25,0.19-0.43s-0.06-0.31-0.19-0.43l-2.6-2.6c-0.25-0.25-0.62-0.25-0.87,0l-1.17,1.17 c-0.49-0.25-1.05-0.49-1.54-0.62v-1.67c0-0.37-0.25-0.62-0.62-0.62H21.4c-0.37,0-0.62,0.25-0.62,0.62v1.73 c-0.56,0.19-1.05,0.37-1.54,0.62L18,12.39c-0.25-0.25-0.62-0.25-0.87,0l-2.6,2.6c-0.25,0.25-0.25,0.62,0,0.87l1.17,1.24 c-0.25,0.49-0.49,1.05-0.62,1.54h-1.67V18.5z M16.21,19.25c0.19-0.74,0.43-1.42,0.87-2.1c0.12-0.25,0.12-0.56-0.06-0.74 l-1.11-1.11l1.73-1.73l1.11,1.11c0.19,0.19,0.49,0.25,0.74,0.06c0.68-0.43,1.42-0.68,2.1-0.87c0.31-0.06,0.49-0.31,0.49-0.62 v-1.54h2.41v1.54c0,0.31,0.19,0.56,0.49,0.62c0.74,0.19,1.42,0.43,2.1,0.87c0.25,0.12,0.56,0.12,0.74-0.06l1.11-1.11l1.73,1.73 l-1.11,1.11c-0.19,0.19-0.25,0.49-0.06,0.74c0.37,0.68,0.68,1.36,0.87,2.1c0.06,0.31,0.31,0.49,0.62,0.49h1.54v2.41h-1.54 c-0.31,0-0.56,0.19-0.62,0.49c-0.19,0.74-0.49,1.42-0.87,2.1c-0.12,0.25-0.12,0.56,0.06,0.74l1.11,1.11l-1.73,1.73l-1.11-1.11 c-0.19-0.19-0.49-0.25-0.74-0.06c-0.62,0.37-1.36,0.68-2.1,0.87c-0.31,0.06-0.49,0.31-0.49,0.62v1.54h-2.47v-1.54 c0-0.31-0.19-0.56-0.49-0.62c-0.74-0.19-1.42-0.43-2.1-0.87c-0.25-0.12-0.56-0.12-0.74,0.06l-1.11,1.11l-1.73-1.73l1.11-1.11 c0.19-0.19,0.25-0.49,0.06-0.74c-0.43-0.68-0.68-1.36-0.87-2.1c-0.06-0.31-0.31-0.49-0.62-0.49h-1.54v-2.41h1.54 C15.9,19.74,16.15,19.55,16.21,19.25z"></path> </g> <g class="st1"> <path class="st7" d="M23.25,25.92c2.72,0,4.94-2.22,4.94-4.94s-2.22-4.94-4.94-4.94s-4.94,2.22-4.94,4.94S20.53,25.92,23.25,25.92 z M23.25,17.21c2.04,0,3.71,1.67,3.71,3.71s-1.67,3.71-3.71,3.71s-3.71-1.67-3.71-3.71S21.21,17.21,23.25,17.21z"></path> </g> </g> <g class="st0"> <path class="st8" d="M12.45,39.95h21.86c1.32,0,2.4-1.08,2.4-2.4c0-8.2,0-27.99,0-34.86c0-1.32-1.08-2.4-2.4-2.4H12.45 c-1.32,0-2.4,1.08-2.4,2.4v34.86C10.05,38.88,11.13,39.95,12.45,39.95z M11.71,2.61c0-0.41,0.33-0.75,0.75-0.75h21.86 c0.41,0,0.75,0.33,0.75,0.75v3.06H11.71V2.61z M11.71,7.41h23.43V32H11.71V7.41z M11.71,33.66h23.43v3.89 c0,0.41-0.33,0.75-0.75,0.75H12.45c-0.41,0-0.75-0.33-0.75-0.75C11.71,37.55,11.71,33.66,11.71,33.66z"></path> <path class="st8" d="M23.38,15.86c-2.15,0-3.89,1.74-3.89,3.89s1.74,3.89,3.89,3.89s3.89-1.74,3.89-3.89S25.54,15.86,23.38,15.86z M23.38,21.9c-1.24,0-2.24-0.99-2.24-2.24c0-1.24,0.99-2.24,2.24-2.24c1.24,0,2.24,0.99,2.24,2.24 C25.62,20.91,24.62,21.9,23.38,21.9z"></path> <path class="st8" d="M31.99,17.51l-2.07-0.5c0-0.08,0-0.08-0.08-0.17l1.08-1.82c0.17-0.33,0.17-0.75-0.08-0.99l-1.9-1.9 c-0.25-0.25-0.66-0.33-0.99-0.08l-1.82,1.08c-0.08,0-0.08,0-0.17-0.08l-0.5-2.07c-0.08-0.41-0.41-0.66-0.83-0.66h-2.65 c-0.41,0-0.75,0.25-0.83,0.66l-0.5,2.07c-0.08,0-0.08,0-0.17,0.08l-1.74-1.08c-0.33-0.17-0.75-0.17-0.99,0.08l-1.9,1.9 c-0.25,0.25-0.33,0.66-0.08,0.99l1.08,1.82c0,0.08-0.08,0.08-0.08,0.17l-1.99,0.58c-0.41,0.08-0.66,0.41-0.66,0.83v2.73 c0,0.41,0.25,0.75,0.66,0.83l2.07,0.5c0,0.08,0.08,0.08,0.08,0.17l-1.08,1.82c-0.17,0.33-0.17,0.75,0.08,0.99l1.9,1.9 c0.25,0.25,0.66,0.33,0.99,0.08l1.82-1.08c0.08,0,0.08,0,0.17,0.08l0.5,2.07c0.08,0.41,0.41,0.66,0.83,0.66h2.65 c0.41,0,0.75-0.25,0.83-0.66l0.5-2.07c0.08,0,0.08,0,0.17-0.08l1.74,1.08c0.33,0.17,0.75,0.17,0.99-0.08l1.9-1.9 c0.25-0.25,0.33-0.66,0.08-0.99l-1.08-1.82c0-0.08,0.08-0.08,0.08-0.17l2.07-0.5c0.41-0.08,0.66-0.41,0.66-0.83v-2.73 C32.66,17.93,32.32,17.6,31.99,17.51z M31,20.33l-1.82,0.41c-0.25,0.08-0.5,0.25-0.58,0.58c-0.08,0.25-0.17,0.5-0.33,0.75 c0,0.08-0.08,0.17-0.08,0.25v0.08l0,0l0,0l0,0l0,0l0,0c0,0.17,0,0.25,0.08,0.41c0,0,0,0,0,0.08l0.99,1.66l-0.99,0.99l-1.57-0.99 c-0.25-0.17-0.58-0.17-0.83,0c-0.25,0.17-0.5,0.25-0.75,0.33c-0.25,0.08-0.5,0.33-0.58,0.58l-0.41,1.9h-1.41l-0.41-1.82 c-0.08-0.25-0.25-0.5-0.58-0.58c-0.25-0.08-0.58-0.17-0.75-0.33c-0.25-0.17-0.58-0.08-0.83,0l-1.66,0.99l-0.91-0.99l0.99-1.66 c0.17-0.25,0.17-0.58,0-0.83c-0.17-0.25-0.25-0.5-0.33-0.75c0-0.08,0-0.08-0.08-0.17c-0.08-0.25-0.33-0.41-0.58-0.41l-1.82-0.41V19 l1.82-0.41c0.25-0.08,0.5-0.25,0.58-0.58c0.08-0.25,0.17-0.5,0.33-0.75c0.17-0.25,0.08-0.58,0-0.83l-0.99-1.66l0.99-0.99l1.57,0.99 c0.25,0.17,0.58,0.17,0.83,0c0.25-0.17,0.5-0.25,0.75-0.33c0.25-0.08,0.5-0.33,0.58-0.58l0.41-1.9h1.41l0.41,1.82 c0.08,0.25,0.25,0.5,0.58,0.58c0.25,0.08,0.5,0.17,0.75,0.33c0.25,0.17,0.58,0.08,0.83,0l1.66-0.99l0.99,0.99l-0.99,1.66 c-0.17,0.25-0.17,0.58,0,0.83c0.17,0.25,0.25,0.5,0.33,0.75s0.33,0.5,0.58,0.58L31,18.92V20.33z"></path> <path class="st8" d="M21.64,36.89h3.48c0.5,0,0.83-0.33,0.83-0.83c0-0.5-0.33-0.83-0.83-0.83h-3.48c-0.5,0-0.83,0.33-0.83,0.83 C20.82,36.56,21.23,36.89,21.64,36.89z"></path> </g> <path class="st9" d="M32.01,0H14.23c-1.96,0-3.56,1.6-3.56,3.56v32.89c0,1.96,1.6,3.56,3.56,3.56h17.78c1.96,0,3.56-1.6,3.56-3.56 V3.56C35.56,1.6,33.96,0,32.01,0z M12.45,6.22h21.33v24.89H12.45V6.22z M14.23,1.78h17.78c0.98,0,1.78,0.8,1.78,1.78v0.89H12.45 V3.56C12.45,2.58,13.25,1.78,14.23,1.78z M32.01,38.22H14.23c-0.98,0-1.78-0.8-1.78-1.78v-3.56h21.33v3.56 C33.78,37.42,32.98,38.22,32.01,38.22z M24.01,35.38c0,0.04,0,0.13,0,0.18c0,0.22-0.09,0.44-0.27,0.62 c-0.18,0.18-0.4,0.27-0.62,0.27c-0.13,0-0.22,0-0.36-0.09c-0.09-0.04-0.22-0.09-0.27-0.18c-0.09-0.09-0.13-0.18-0.18-0.27 c-0.09-0.13-0.09-0.22-0.09-0.36c0-0.04,0-0.13,0-0.18s0.04-0.13,0.04-0.18c0-0.04,0.04-0.09,0.09-0.13 c0.04-0.04,0.04-0.09,0.09-0.13s0.09-0.09,0.13-0.09c0.04-0.04,0.09-0.04,0.13-0.09c0.04,0,0.09-0.04,0.18-0.04 c0.27-0.04,0.58,0.04,0.8,0.22c0.04,0.04,0.09,0.09,0.09,0.13c0.04,0.04,0.04,0.09,0.09,0.13C23.92,35.24,23.96,35.33,24.01,35.38z M26.23,20.89c0,1.42-0.93,2.58-2.22,2.98v1.02c0,0.49-0.4,0.89-0.89,0.89c-0.49,0-0.89-0.4-0.89-0.89v-1.02 c-1.29-0.4-2.22-1.56-2.22-2.98c0-0.49,0.4-0.89,0.89-0.89s0.89,0.4,0.89,0.89c0,0.76,0.58,1.33,1.33,1.33 c0.76,0,1.33-0.58,1.33-1.33s-0.58-1.33-1.33-1.33c-1.73,0-3.11-1.38-3.11-3.11c0-1.42,0.93-2.58,2.22-2.98v-1.02 c0-0.49,0.4-0.89,0.89-0.89c0.49,0,0.89,0.4,0.89,0.89v1.02c1.29,0.4,2.22,1.56,2.22,2.98c0,0.49-0.4,0.89-0.89,0.89 s-0.89-0.4-0.89-0.89c0-0.76-0.58-1.33-1.33-1.33c-0.76,0-1.33,0.58-1.33,1.33s0.58,1.33,1.33,1.33 C24.85,17.78,26.23,19.16,26.23,20.89z"></path> <g class="st0"> <path class="st4" d="M34.46,34.29c-0.19,0-0.37-0.07-0.51-0.21l-2.14-2.14c-0.28-0.28-0.28-0.73,0-1.01c0.28-0.28,0.73-0.28,1.01,0 l0,0l1.64,1.64l3.78-3.79c0.28-0.28,0.73-0.28,1.01,0c0.28,0.28,0.28,0.73,0,1.01l-4.29,4.29C34.84,34.21,34.65,34.29,34.46,34.29z "></path> <path class="st4" d="M30.18,40h-20c-1.97,0-3.57-1.6-3.57-3.57V15.71c0-0.39,0.32-0.71,0.71-0.71s0.71,0.32,0.71,0.71v20.71 c0,1.18,0.96,2.14,2.14,2.14l0,0h20h0.24c-3.94-2.62-5.01-7.94-2.39-11.88c0.46-0.7,1.03-1.32,1.68-1.86 c0.78-0.64,1.67-1.15,2.62-1.49V8.57c0-0.39,0.32-0.71,0.71-0.71s0.71,0.32,0.71,0.71v15.3c0.01,0.33-0.2,0.63-0.52,0.71 c-3.79,1.1-5.97,5.07-4.86,8.85c0.59,2.02,2.04,3.68,3.96,4.53c0.36,0.16,0.52,0.58,0.36,0.94c-0.04,0.1-0.11,0.19-0.19,0.26 C31.84,39.71,31.02,40,30.18,40z"></path> <path class="st4" d="M7.32,10c-0.39,0-0.71-0.32-0.71-0.71V3.57C6.61,1.6,8.2,0,10.18,0h20c1.97,0,3.57,1.6,3.57,3.57v2.14 c0,0.39-0.32,0.71-0.71,0.71s-0.71-0.32-0.71-0.71V3.57c0-1.18-0.96-2.14-2.14-2.14h-20c-1.18,0-2.14,0.96-2.14,2.14v5.71 C8.03,9.68,7.71,10,7.32,10z"></path> <path class="st4" d="M7.32,13.57c-0.39,0-0.71-0.32-0.71-0.71v-0.71c0-0.39,0.32-0.71,0.71-0.71s0.71,0.32,0.71,0.71v0.71 C8.03,13.25,7.71,13.57,7.32,13.57z"></path> <path class="st4" d="M28.18,35.71H17.32c-0.39,0-0.71-0.32-0.71-0.71s0.32-0.71,0.71-0.71h9.77C25.92,31,26.85,27.32,29.46,25V5 h-3.99c-0.46,0-0.89,0.19-1.21,0.51c-0.59,0.59-1.39,0.92-2.23,0.92h-3.7c-0.83,0-1.64-0.33-2.23-0.92C15.78,5.19,15.34,5,14.88,5 h-3.99v29.29h3.57c0.39,0,0.71,0.32,0.71,0.71s-0.32,0.71-0.71,0.71h-3.57c-0.79,0-1.43-0.64-1.43-1.43V5 c0-0.79,0.64-1.43,1.43-1.43h3.99c0.83,0,1.64,0.33,2.23,0.92C17.44,4.81,17.87,5,18.33,5h3.7c0.46,0,0.89-0.19,1.21-0.51 c0.59-0.59,1.39-0.92,2.23-0.92h3.99c0.79,0,1.43,0.64,1.43,1.43v20.36c0,0.21-0.09,0.41-0.26,0.55c-1.65,1.36-2.6,3.38-2.6,5.51 c0,1.13,0.26,2.24,0.78,3.24c0.18,0.35,0.04,0.78-0.31,0.96C28.41,35.69,28.29,35.71,28.18,35.71z"></path> <path class="st4" d="M26.61,27.86H13.75c-0.39,0-0.71-0.32-0.71-0.71v-10c0-0.39,0.32-0.71,0.71-0.71h12.86 c0.39,0,0.71,0.32,0.71,0.71v10C27.32,27.54,27,27.86,26.61,27.86z M14.46,26.43h11.43v-8.57H14.46V26.43z"></path> <path class="st4" d="M26.61,17.86H13.75c-0.27,0-0.52-0.16-0.64-0.41c-0.12-0.25-0.08-0.54,0.09-0.75l2.86-3.57 c0.13-0.17,0.34-0.27,0.56-0.27h7.14c0.22,0,0.42,0.1,0.56,0.27l2.86,3.57c0.17,0.21,0.2,0.5,0.09,0.75 C27.13,17.7,26.88,17.86,26.61,17.86z M15.23,16.43h9.89l-1.71-2.14h-6.43L15.23,16.43z"></path> <path class="st4" d="M20.18,20c-0.39,0-0.71-0.32-0.71-0.71v-5.71c0-0.39,0.32-0.71,0.71-0.71c0.39,0,0.71,0.32,0.71,0.71v5.71 C20.89,19.68,20.57,20,20.18,20z"></path> <path class="st4" d="M18.03,25h-1.43c-0.39,0-0.71-0.32-0.71-0.71c0-0.39,0.32-0.71,0.71-0.71h1.43c0.39,0,0.71,0.32,0.71,0.71 C18.75,24.68,18.43,25,18.03,25z"></path> <path class="st4" d="M35.18,40c-1.19,0.01-2.37-0.23-3.46-0.71c-1.8-0.8-3.28-2.19-4.17-3.95c-1.84-3.57-0.94-7.94,2.14-10.51 c1.55-1.27,3.49-1.97,5.49-1.97c2.32-0.01,4.54,0.93,6.15,2.59c0.24,0.31,0.18,0.76-0.14,1c-0.27,0.2-0.64,0.19-0.89-0.02 c-1.34-1.38-3.19-2.16-5.12-2.14c-0.66,0-1.31,0.09-1.94,0.27c-0.95,0.26-1.84,0.73-2.61,1.36c-1.64,1.36-2.6,3.38-2.59,5.51 c0,1.13,0.26,2.24,0.78,3.24c0.75,1.47,1.99,2.64,3.51,3.3c0.9,0.4,1.87,0.6,2.86,0.6c3.94,0,7.14-3.2,7.14-7.14 c0-0.95-0.19-1.89-0.55-2.76c-0.05-0.1-0.08-0.22-0.09-0.34c0.02-0.39,0.36-0.69,0.76-0.67c0.25,0.02,0.48,0.16,0.59,0.39 c1.87,4.35-0.15,9.39-4.5,11.26C37.47,39.76,36.33,40,35.18,40z"></path> </g> <g transform="translate(0,-952.36216)" class="st0"> <path class="st10" d="M27.36,952.36c-7.09,0-13.09,4.72-15.03,11.18h-6.9c-1.3,0-2.37,1.07-2.37,2.37V990 c0,1.3,1.07,2.37,2.37,2.37h13.76c1.3,0,2.37-1.07,2.37-2.37v-7.35c1.8,0.72,3.75,1.12,5.81,1.12c8.66,0,15.7-7.04,15.7-15.7 C43.05,959.4,36.02,952.36,27.36,952.36L27.36,952.36z M27.36,953.65c7.97,0,14.41,6.44,14.41,14.41c0,7.97-6.44,14.41-14.41,14.41 s-14.41-6.44-14.41-14.41C12.95,960.1,19.39,953.65,27.36,953.65L27.36,953.65z M22.33,959.88c-0.36,0.01-0.64,0.3-0.64,0.65v1.03 h-1.03c-0.81,0-1.48,0.67-1.48,1.48v11.71c0,0.81,0.67,1.48,1.48,1.48h13.38c0.81,0,1.48-0.67,1.48-1.48v-11.71 c0-0.81-0.67-1.48-1.48-1.48h-1.03v-1.03c0.01-0.36-0.28-0.65-0.64-0.65c-0.01,0-0.01,0-0.02,0c-0.36,0.01-0.64,0.3-0.64,0.65v1.03 H28v-1.03c0.01-0.36-0.28-0.65-0.64-0.65c-0.01,0-0.01,0-0.02,0c-0.36,0.01-0.64,0.3-0.64,0.65v1.03h-3.73v-1.03 c0.01-0.36-0.28-0.65-0.64-0.65C22.34,959.88,22.33,959.88,22.33,959.88z M20.66,962.86h1.03v1.03c-0.01,0.36,0.28,0.65,0.64,0.65 c0.36,0.01,0.65-0.28,0.65-0.64c0-0.01,0-0.01,0-0.02v-1.03h3.73v1.03c-0.01,0.36,0.28,0.65,0.64,0.65 c0.36,0.01,0.65-0.28,0.65-0.64c0-0.01,0-0.01,0-0.02v-1.03h3.73v1.03c-0.01,0.36,0.28,0.65,0.64,0.65 c0.36,0.01,0.65-0.28,0.65-0.64c0-0.01,0-0.01,0-0.02v-1.03h1.03c0.12,0,0.19,0.07,0.19,0.19v1.86H20.47v-1.86 C20.47,962.93,20.55,962.86,20.66,962.86z M5.42,964.84h6.57c-0.15,0.72-0.25,1.45-0.3,2.2c-0.08-0.03-0.17-0.05-0.25-0.05H8.86 c-0.36-0.01-0.65,0.28-0.65,0.64c-0.01,0.36,0.28,0.65,0.64,0.65c0.01,0,0.01,0,0.02,0h2.58c0.07,0,0.15-0.01,0.22-0.04 c0.07,6.03,3.55,11.25,8.6,13.82V990c0,0.61-0.47,1.08-1.08,1.08H5.42c-0.61,0-1.08-0.47-1.08-1.08v-24.09 C4.35,965.3,4.81,964.84,5.42,964.84z M20.47,966.2h13.76v8.55c0,0.12-0.07,0.19-0.19,0.19H20.66c-0.12,0-0.19-0.07-0.19-0.19 C20.47,974.76,20.47,966.2,20.47,966.2z M21.5,967.23v2.51h2.51v-2.51H21.5z M26.1,967.23v2.51h2.51v-2.51H26.1z M30.7,967.23v2.51 h2.51v-2.51H30.7z M21.5,971.41v2.51h2.51v-2.51H21.5z M26.1,971.41v2.51h2.51v-2.51H26.1z M30.7,971.41v2.51h2.51v-2.51H30.7z M12.3,987.2c-0.59,0-1.08,0.48-1.08,1.08s0.48,1.08,1.08,1.08s1.08-0.48,1.08-1.08S12.9,987.2,12.3,987.2z"></path> </g> <g> <path class="st11" d="M42.61,6.67H8.45c-0.46,0-0.83,0.37-0.83,0.83s0.37,0.83,0.83,0.83h33.33v27.5c0,1.38-1.12,2.5-2.5,2.5V15 c0-1.38-1.12-2.5-2.5-2.5H10.12c-1.38,0-2.5,1.12-2.5,2.5v23.33c-1.38,0-2.5-1.12-2.5-2.5V4.17c0-1.38,1.12-2.5,2.5-2.5h31.66 c1.31-0.07,2.43,0.94,2.5,2.25c0,0.08,0,0.17,0,0.25c0,0.46,0.37,0.83,0.83,0.83c0.46,0,0.83-0.37,0.83-0.83 C43.53,1.95,41.8,0.09,39.59,0c-0.1,0-0.2,0-0.3,0H7.62c-2.3,0-4.16,1.87-4.17,4.17v31.66c0,2.3,1.87,4.16,4.17,4.17h27.5 c0.46,0,0.83-0.37,0.83-0.83c0-0.46-0.37-0.83-0.83-0.83H9.28v-17.5h28.33v18.33c0,0.46,0.37,0.83,0.83,0.83h0.83 c2.3,0,4.16-1.87,4.17-4.17V7.5C43.45,7.04,43.07,6.67,42.61,6.67z M37.61,19.17H9.28V15c0-0.46,0.37-0.83,0.83-0.83h26.66 c0.46,0,0.83,0.37,0.83,0.83V19.17z"></path> <path class="st11" d="M8.45,3.34c-0.46,0-0.83,0.37-0.83,0.83S7.99,5,8.45,5h1.67c0.46,0,0.83-0.37,0.83-0.83s-0.37-0.83-0.83-0.83 H8.45z"></path> <path class="st11" d="M13.45,3.34c-0.46,0-0.83,0.37-0.83,0.83S12.99,5,13.45,5h1.67c0.46,0,0.83-0.37,0.83-0.83 s-0.37-0.83-0.83-0.83H13.45z"></path> <path class="st11" d="M37.61,3.34c-0.46,0-0.83,0.37-0.83,0.83S37.15,5,37.61,5h1.67c0.46,0,0.83-0.37,0.83-0.83 s-0.37-0.83-0.83-0.83H37.61z"></path> <path class="st11" d="M13.45,15.84h-1.67c-0.46,0-0.83,0.37-0.83,0.83c0,0.46,0.37,0.83,0.83,0.83h1.67c0.46,0,0.83-0.37,0.83-0.83 C14.28,16.21,13.91,15.84,13.45,15.84z"></path> <path class="st11" d="M18.45,15.84h-1.67c-0.46,0-0.83,0.37-0.83,0.83c0,0.46,0.37,0.83,0.83,0.83h1.67c0.46,0,0.83-0.37,0.83-0.83 C19.28,16.21,18.91,15.84,18.45,15.84z"></path> <path class="st11" d="M35.11,15.84h-1.67c-0.46,0-0.83,0.37-0.83,0.83c0,0.46,0.37,0.83,0.83,0.83h1.67c0.46,0,0.83-0.37,0.83-0.83 C35.95,16.21,35.57,15.84,35.11,15.84z"></path> <path class="st11" d="M20.7,26.08c-0.33-0.33-0.85-0.33-1.18,0l-3.33,3.33c-0.33,0.33-0.33,0.85,0,1.18l3.33,3.33 c0.33,0.32,0.86,0.31,1.18-0.02c0.31-0.32,0.31-0.83,0-1.16L17.96,30l2.74-2.74C21.03,26.93,21.03,26.4,20.7,26.08z"></path> <path class="st11" d="M26.19,33.92c0.33,0.33,0.85,0.33,1.18,0l3.33-3.33c0.33-0.33,0.33-0.85,0-1.18l-3.33-3.33 c-0.33-0.32-0.86-0.31-1.18,0.02c-0.31,0.32-0.31,0.83,0,1.16L28.94,30l-2.74,2.74C25.87,33.07,25.87,33.6,26.19,33.92z"></path> </g> </svg> 