<?xml version="1.0" encoding="UTF-8"?> <svg xmlns="http://www.w3.org/2000/svg" xmlns:xlink="http://www.w3.org/1999/xlink" width="36pt" height="30pt" viewBox="0 0 36 30" version="1.1"><g id="surface1"><path style=" stroke:none;fill-rule:nonzero;fill:rgb(100%,25.098039%,50.588235%);fill-opacity:1;" d="M 9.691406 15.074219 L 11.550781 17.390625 L 11.59375 17.4375 C 12.1875 17.941406 13.050781 18.03125 13.726562 17.617188 L 18.261719 14.894531 L 18.261719 18.886719 C 18.261719 19.246094 18.710938 19.476562 18.988281 19.246094 L 21.164062 17.609375 C 21.253906 17.566406 21.300781 17.476562 21.34375 17.339844 L 22.433594 12.441406 L 25.792969 10.988281 C 26.0625 10.851562 26.296875 10.628906 26.386719 10.304688 C 26.476562 9.988281 26.386719 9.667969 26.160156 9.441406 C 24.703125 7.808594 22.171875 7.851562 20.398438 8.941406 C 20.175781 9.074219 18.269531 10.441406 17.632812 10.890625 L 13.410156 9.433594 C 13.273438 9.390625 13.140625 9.390625 13.050781 9.480469 L 11.503906 10.386719 C 11.371094 10.476562 11.28125 10.613281 11.28125 10.746094 C 11.28125 10.882812 11.371094 11.0625 11.460938 11.152344 L 14.40625 13.148438 L 12.636719 14.414062 L 11.324219 13.597656 C 11.101562 13.460938 10.875 13.417969 10.597656 13.460938 L 10.28125 13.507812 C 9.511719 13.664062 9.1875 14.527344 9.691406 15.074219 Z M 10.734375 14.347656 L 10.777344 14.347656 L 12.324219 15.300781 C 12.457031 15.390625 12.683594 15.390625 12.824219 15.300781 L 15.089844 13.664062 L 15.226562 13.753906 C 15.316406 13.800781 15.40625 13.84375 15.496094 13.84375 C 15.628906 13.84375 15.765625 13.753906 15.855469 13.664062 C 15.988281 13.441406 15.945312 13.164062 15.71875 13.027344 L 15.40625 12.757812 L 12.503906 10.808594 L 13.273438 10.359375 L 18.039062 11.992188 C 18.261719 12.082031 18.539062 11.949219 18.628906 11.722656 C 18.675781 11.585938 18.628906 11.453125 18.585938 11.316406 C 19.582031 10.589844 20.761719 9.773438 20.902344 9.726562 C 21.675781 9.226562 22.628906 9.046875 23.578125 9.136719 L 22.851562 9.496094 C 22.628906 9.628906 22.539062 9.898438 22.671875 10.132812 C 22.808594 10.359375 23.078125 10.449219 23.308594 10.3125 L 24.855469 9.496094 C 25.125 9.628906 25.359375 9.855469 25.582031 10.085938 C 25.628906 10.132812 25.628906 10.132812 25.582031 10.175781 C 25.582031 10.222656 25.582031 10.222656 25.539062 10.222656 L 22.726562 11.445312 C 22.679688 11.265625 22.546875 11.128906 22.363281 11.085938 C 22.140625 11.039062 21.863281 11.175781 21.816406 11.445312 L 20.550781 17.070312 L 19.140625 17.976562 L 19.140625 13.710938 C 19.140625 13.441406 18.960938 13.261719 18.691406 13.261719 C 18.421875 13.261719 18.238281 13.441406 18.238281 13.710938 L 18.238281 13.890625 L 13.253906 16.882812 C 12.9375 17.0625 12.523438 17.015625 12.253906 16.792969 L 10.441406 14.527344 C 10.238281 14.347656 10.6875 14.347656 10.734375 14.347656 Z M 10.734375 14.347656 "></path><path style=" stroke:none;fill-rule:nonzero;fill:rgb(100%,25.098039%,50.588235%);fill-opacity:1;" d="M 9.871094 30 L 25.925781 30 C 27.015625 30 27.921875 29.09375 27.921875 28.003906 L 27.921875 2.054688 C 27.921875 0.96875 27.015625 0.0585938 25.925781 0.0585938 L 9.871094 0.0585938 C 8.78125 0.0585938 7.875 0.96875 7.875 2.054688 L 7.875 28.050781 C 7.921875 29.09375 8.78125 30 9.871094 30 Z M 26.976562 22.964844 L 8.828125 22.964844 L 8.828125 4.5 L 27.023438 4.5 L 27.023438 22.964844 Z M 25.933594 29.09375 L 9.871094 29.09375 C 9.277344 29.09375 8.78125 28.589844 8.78125 28.003906 L 8.78125 23.878906 L 26.976562 23.878906 L 26.976562 28.003906 C 26.976562 28.589844 26.519531 29.09375 25.933594 29.09375 Z M 9.871094 0.96875 L 25.925781 0.96875 C 26.519531 0.96875 27.015625 1.46875 27.015625 2.054688 L 27.015625 3.644531 L 8.828125 3.644531 L 8.828125 2.054688 C 8.828125 1.460938 9.285156 0.96875 9.871094 0.96875 Z M 9.871094 0.96875 "></path><path style=" stroke:none;fill-rule:nonzero;fill:rgb(100%,25.098039%,50.588235%);fill-opacity:1;" d="M 16.042969 2.59375 C 16.222656 2.414062 16.222656 2.144531 16.042969 1.957031 C 15.863281 1.769531 15.59375 1.777344 15.40625 1.957031 C 15.21875 2.136719 15.226562 2.40625 15.40625 2.59375 C 15.539062 2.78125 15.863281 2.78125 16.042969 2.59375 Z M 16.042969 2.59375 "></path><path style=" stroke:none;fill-rule:nonzero;fill:rgb(100%,25.098039%,50.588235%);fill-opacity:1;" d="M 18.21875 2.59375 C 18.398438 2.414062 18.398438 2.144531 18.21875 1.957031 C 18.039062 1.769531 17.765625 1.777344 17.578125 1.957031 C 17.390625 2.136719 17.398438 2.460938 17.578125 2.59375 C 17.765625 2.78125 18.039062 2.78125 18.21875 2.59375 Z M 18.21875 2.59375 "></path><path style=" stroke:none;fill-rule:nonzero;fill:rgb(100%,25.098039%,50.588235%);fill-opacity:1;" d="M 20.445312 2.59375 C 20.625 2.414062 20.625 2.144531 20.445312 1.957031 C 20.265625 1.769531 19.996094 1.777344 19.808594 1.957031 C 19.621094 2.136719 19.628906 2.460938 19.808594 2.59375 C 19.941406 2.78125 20.257812 2.78125 20.445312 2.59375 Z M 20.445312 2.59375 "></path><path style=" stroke:none;fill-rule:nonzero;fill:rgb(100%,25.098039%,50.588235%);fill-opacity:1;" d="M 17.902344 24.914062 C 17.039062 24.914062 16.3125 25.640625 16.3125 26.503906 C 16.3125 27.367188 17.039062 28.09375 17.902344 28.09375 C 18.765625 28.09375 19.492188 27.367188 19.492188 26.503906 C 19.492188 25.640625 18.765625 24.914062 17.902344 24.914062 Z M 17.902344 27.1875 C 17.542969 27.1875 17.21875 26.871094 17.21875 26.503906 C 17.21875 26.144531 17.535156 25.824219 17.902344 25.824219 C 18.261719 25.824219 18.585938 26.136719 18.585938 26.503906 C 18.585938 26.871094 18.261719 27.1875 17.902344 27.1875 Z M 17.902344 27.1875 "></path></g></svg> 