<?xml version="1.0" encoding="UTF-8"?> <svg xmlns="http://www.w3.org/2000/svg" xmlns:xlink="http://www.w3.org/1999/xlink" width="36pt" height="30pt" viewBox="0 0 36 30" version="1.1"><g id="surface1"><path style=" stroke:none;fill-rule:nonzero;fill:rgb(60.784314%,36.078431%,56.078431%);fill-opacity:1;" d="M 32.144531 20.488281 L 30.128906 20.0625 C 30.089844 20.054688 30.050781 20.023438 30.039062 19.988281 C 30.023438 19.949219 30.03125 19.90625 30.050781 19.875 L 31.222656 18.171875 C 31.359375 17.976562 31.335938 17.714844 31.164062 17.542969 L 29.316406 15.699219 C 29.152344 15.53125 28.882812 15.503906 28.6875 15.636719 L 26.984375 16.808594 C 26.925781 16.84375 26.851562 16.828125 26.8125 16.777344 C 26.804688 16.761719 26.796875 16.746094 26.796875 16.734375 L 26.371094 14.707031 C 26.324219 14.484375 26.121094 14.316406 25.890625 14.316406 L 25.15625 14.316406 L 25.15625 8.496094 C 26.109375 8.566406 27.03125 8.84375 27.855469 9.316406 C 28.050781 9.425781 28.289062 9.398438 28.449219 9.234375 C 28.875 8.8125 29.445312 8.578125 30.046875 8.578125 L 30.066406 8.578125 C 30.652344 8.578125 31.214844 8.820312 31.621094 9.238281 C 31.710938 9.335938 31.835938 9.390625 31.972656 9.390625 C 32.023438 9.390625 32.078125 9.382812 32.121094 9.367188 C 32.300781 9.308594 32.429688 9.148438 32.460938 8.960938 C 33.066406 4.65625 30.066406 0.667969 25.761719 0.0585938 C 21.457031 -0.546875 17.46875 2.46875 16.859375 6.78125 C 16.753906 7.507812 16.753906 8.25 16.859375 8.984375 C 16.898438 9.253906 17.144531 9.441406 17.414062 9.40625 C 17.527344 9.390625 17.625 9.335938 17.707031 9.253906 C 18.113281 8.835938 18.675781 8.59375 19.261719 8.59375 L 19.28125 8.59375 C 19.882812 8.59375 20.453125 8.828125 20.878906 9.246094 C 21.039062 9.40625 21.277344 9.441406 21.472656 9.328125 C 22.296875 8.859375 23.21875 8.578125 24.171875 8.511719 L 24.171875 14.332031 L 23.4375 14.332031 C 23.203125 14.332031 23.003906 14.496094 22.957031 14.722656 L 22.53125 16.738281 C 22.523438 16.777344 22.492188 16.816406 22.453125 16.828125 C 22.417969 16.84375 22.371094 16.84375 22.34375 16.816406 L 20.640625 15.644531 C 20.445312 15.511719 20.183594 15.53125 20.011719 15.703125 L 19.164062 16.550781 C 18.34375 15.796875 17.488281 15.089844 16.597656 14.429688 C 16.515625 14.371094 16.417969 14.339844 16.320312 14.332031 L 19.148438 10.695312 C 19.3125 10.476562 19.273438 10.171875 19.058594 10.003906 C 18.9375 9.914062 18.78125 9.878906 18.636719 9.914062 L 15.609375 10.671875 L 16.261719 9.105469 C 16.363281 8.851562 16.246094 8.566406 15.988281 8.460938 C 15.871094 8.40625 15.726562 8.40625 15.609375 8.460938 L 12.40625 9.832031 L 9.675781 8.011719 C 9.449219 7.859375 9.140625 7.921875 8.992188 8.144531 C 8.902344 8.28125 8.886719 8.445312 8.941406 8.59375 L 9.523438 10.117188 L 7.074219 9.421875 C 6.808594 9.34375 6.539062 9.496094 6.464844 9.757812 C 6.425781 9.898438 6.449219 10.050781 6.53125 10.171875 L 9.433594 14.316406 L 9.398438 14.316406 C 9.292969 14.316406 9.1875 14.355469 9.105469 14.414062 C 7.597656 15.554688 3 18.988281 3 22.695312 C 3 28.875 8.617188 29.585938 12.847656 29.585938 C 15.800781 29.585938 18.015625 29.160156 19.597656 28.296875 L 20.003906 28.703125 C 20.167969 28.867188 20.4375 28.898438 20.632812 28.761719 L 22.335938 27.59375 C 22.386719 27.554688 22.46875 27.570312 22.507812 27.621094 C 22.515625 27.636719 22.523438 27.652344 22.53125 27.667969 L 22.957031 29.691406 C 23.003906 29.917969 23.203125 30.082031 23.4375 30.082031 L 25.898438 30.082031 C 26.128906 30.082031 26.332031 29.917969 26.378906 29.691406 L 26.804688 27.667969 C 26.8125 27.628906 26.84375 27.59375 26.878906 27.578125 C 26.917969 27.5625 26.960938 27.570312 26.992188 27.59375 L 28.695312 28.761719 C 28.890625 28.898438 29.152344 28.875 29.324219 28.703125 L 31.171875 26.859375 C 31.335938 26.691406 31.363281 26.421875 31.230469 26.226562 L 30.058594 24.523438 C 30.039062 24.488281 30.03125 24.449219 30.046875 24.414062 C 30.058594 24.375 30.089844 24.34375 30.136719 24.335938 L 32.160156 23.910156 C 32.386719 23.863281 32.550781 23.664062 32.550781 23.429688 L 32.550781 20.96875 C 32.535156 20.738281 32.371094 20.542969 32.144531 20.488281 Z M 31.550781 7.925781 C 31.550781 7.941406 31.550781 7.964844 31.550781 7.988281 C 31.09375 7.746094 30.59375 7.621094 30.074219 7.613281 C 29.566406 7.613281 29.054688 7.734375 28.597656 7.957031 L 28.597656 7.925781 C 28.597656 5.191406 27.929688 2.828125 26.902344 1.417969 C 29.675781 2.378906 31.546875 4.988281 31.550781 7.925781 Z M 19.246094 7.613281 C 18.726562 7.613281 18.226562 7.738281 17.765625 7.988281 C 17.765625 7.972656 17.765625 7.949219 17.765625 7.925781 C 17.773438 4.988281 19.636719 2.378906 22.417969 1.417969 C 21.390625 2.828125 20.722656 5.191406 20.722656 7.925781 L 20.722656 7.949219 C 20.265625 7.726562 19.753906 7.613281 19.246094 7.613281 Z M 21.703125 7.925781 C 21.703125 3.871094 23.265625 1.035156 24.660156 1.035156 C 26.054688 1.035156 27.613281 3.863281 27.613281 7.925781 L 27.613281 8.109375 C 25.734375 7.289062 23.59375 7.289062 21.703125 8.109375 Z M 17.488281 11.210938 L 15.066406 14.324219 L 14.078125 14.324219 L 15.128906 11.796875 Z M 12.082031 10.800781 C 12.21875 10.890625 12.398438 10.90625 12.546875 10.84375 L 14.878906 9.847656 L 13.011719 14.332031 L 12.203125 14.332031 L 10.417969 9.699219 Z M 8.136719 10.746094 L 9.96875 11.273438 L 11.144531 14.324219 L 10.640625 14.324219 Z M 12.847656 28.605469 C 6.71875 28.605469 3.988281 26.78125 3.988281 22.695312 C 3.988281 20.585938 5.863281 18.105469 9.570312 15.308594 L 10.710938 15.308594 L 9.59375 19.027344 C 9.40625 19.65625 9.765625 20.324219 10.394531 20.519531 C 10.816406 20.648438 11.273438 20.527344 11.585938 20.21875 L 12.703125 19.101562 L 12.007812 18.40625 L 10.890625 19.523438 C 10.808594 19.605469 10.671875 19.605469 10.589844 19.523438 C 10.539062 19.46875 10.515625 19.386719 10.539062 19.3125 L 11.738281 15.308594 L 12.945312 15.308594 L 13.84375 19.351562 L 14.804688 19.140625 L 13.949219 15.308594 L 16.125 15.308594 C 16.933594 15.914062 17.714844 16.558594 18.457031 17.25 L 18.164062 17.542969 C 18 17.707031 17.96875 17.976562 18.105469 18.171875 L 19.273438 19.875 C 19.296875 19.914062 19.304688 19.949219 19.289062 19.988281 C 19.273438 20.023438 19.246094 20.054688 19.199219 20.0625 L 17.175781 20.488281 C 16.941406 20.535156 16.777344 20.738281 16.777344 20.96875 L 16.777344 23.429688 C 16.777344 23.664062 16.941406 23.863281 17.167969 23.910156 L 19.191406 24.335938 C 19.230469 24.34375 19.265625 24.375 19.28125 24.414062 C 19.296875 24.449219 19.289062 24.496094 19.265625 24.523438 L 18.097656 26.226562 C 17.960938 26.421875 17.984375 26.683594 18.15625 26.859375 L 18.871094 27.570312 C 17.453125 28.265625 15.472656 28.605469 12.847656 28.605469 Z M 31.550781 23.03125 L 29.917969 23.378906 C 29.316406 23.503906 28.933594 24.089844 29.0625 24.691406 C 29.09375 24.832031 29.152344 24.96875 29.234375 25.085938 L 30.171875 26.445312 L 28.90625 27.710938 L 27.539062 26.773438 C 27.039062 26.429688 26.347656 26.558594 26.003906 27.058594 C 25.921875 27.179688 25.859375 27.316406 25.828125 27.457031 L 25.484375 29.085938 L 23.820312 29.085938 L 23.476562 27.449219 C 23.347656 26.851562 22.761719 26.46875 22.164062 26.59375 C 22.019531 26.625 21.886719 26.683594 21.765625 26.765625 L 20.398438 27.703125 L 19.132812 26.4375 L 20.070312 25.074219 C 20.414062 24.570312 20.289062 23.878906 19.785156 23.535156 C 19.664062 23.453125 19.53125 23.390625 19.386719 23.363281 L 17.761719 23.015625 L 17.761719 21.375 L 19.394531 21.03125 C 19.996094 20.902344 20.378906 20.316406 20.25 19.71875 C 20.21875 19.574219 20.160156 19.441406 20.078125 19.320312 L 19.140625 17.960938 L 20.40625 16.695312 L 21.773438 17.632812 C 22.273438 17.976562 22.964844 17.851562 23.308594 17.347656 C 23.390625 17.226562 23.453125 17.09375 23.484375 16.941406 L 23.828125 15.308594 L 25.492188 15.308594 L 25.835938 16.941406 C 25.964844 17.542969 26.550781 17.925781 27.148438 17.796875 C 27.292969 17.765625 27.425781 17.707031 27.554688 17.625 L 28.914062 16.6875 L 30.179688 17.953125 L 29.242188 19.320312 C 28.898438 19.824219 29.023438 20.511719 29.527344 20.859375 C 29.648438 20.941406 29.78125 21 29.925781 21.03125 L 31.558594 21.375 Z M 31.550781 23.03125 "></path><path style=" stroke:none;fill-rule:nonzero;fill:rgb(60.784314%,36.078431%,56.078431%);fill-opacity:1;" d="M 26.789062 20.96875 C 27.007812 21.34375 27.121094 21.765625 27.121094 22.199219 L 28.101562 22.199219 C 28.101562 21.59375 27.945312 21 27.644531 20.476562 Z M 26.789062 20.96875 "></path><path style=" stroke:none;fill-rule:nonzero;fill:rgb(60.784314%,36.078431%,56.078431%);fill-opacity:1;" d="M 24.660156 24.667969 C 23.300781 24.667969 22.199219 23.566406 22.199219 22.207031 C 22.199219 20.851562 23.300781 19.746094 24.660156 19.746094 C 25.148438 19.746094 25.621094 19.890625 26.015625 20.160156 L 26.566406 19.34375 C 24.984375 18.292969 22.835938 18.71875 21.789062 20.308594 C 20.738281 21.890625 21.164062 24.039062 22.753906 25.085938 C 24.34375 26.136719 26.484375 25.710938 27.53125 24.121094 C 27.570312 24.058594 27.609375 24 27.644531 23.941406 L 26.789062 23.445312 C 26.347656 24.195312 25.539062 24.660156 24.660156 24.667969 Z M 24.660156 24.667969 "></path><path style=" stroke:none;fill-rule:nonzero;fill:rgb(60.784314%,36.078431%,56.078431%);fill-opacity:1;" d="M 13.335938 21.710938 L 12.351562 21.710938 L 12.351562 22.296875 C 11.585938 22.566406 11.183594 23.40625 11.453125 24.179688 C 11.664062 24.773438 12.21875 25.164062 12.847656 25.164062 C 13.117188 25.164062 13.34375 25.378906 13.34375 25.65625 C 13.34375 25.925781 13.125 26.152344 12.847656 26.152344 L 11.371094 26.152344 L 11.371094 27.136719 L 12.351562 27.136719 L 12.351562 27.628906 L 13.335938 27.628906 L 13.335938 27.046875 C 14.101562 26.773438 14.503906 25.933594 14.234375 25.164062 C 14.023438 24.570312 13.46875 24.179688 12.839844 24.179688 C 12.570312 24.179688 12.34375 23.960938 12.34375 23.683594 C 12.34375 23.414062 12.5625 23.191406 12.839844 23.191406 L 14.316406 23.191406 L 14.316406 22.207031 L 13.335938 22.207031 Z M 13.335938 21.710938 "></path></g></svg> 