<?xml version="1.0" encoding="UTF-8"?> <!-- Generator: Adobe Illustrator 25.1.0, SVG Export Plug-In . SVG Version: 6.00 Build 0) --> <svg xmlns="http://www.w3.org/2000/svg" xmlns:xlink="http://www.w3.org/1999/xlink" version="1.1" id="Layer_1" x="0px" y="0px" viewBox="0 0 637 337.8" style="enable-background:new 0 0 637 337.8;" xml:space="preserve"> <style type="text/css"> .st0{fill:#FFFFFF;} .st1{fill:#40C4FF;} .st2{fill:#FF4081;} .st3{fill:#FE912A;} .st4{enable-background:new ;} .st5{fill:#F9F9F9;} .st6{fill:none;stroke:url(#SVGID_1_);stroke-width:2;stroke-miterlimit:10;} .st7{fill:url(#SVGID_2_);} .st8{fill:none;stroke:url(#SVGID_3_);stroke-width:2;stroke-miterlimit:10;} .st9{fill:url(#SVGID_4_);} .st10{fill:#FF4081;stroke:url(#SVGID_5_);stroke-width:2;stroke-miterlimit:10;} </style> <path class="st0" d="M193.2,241.5c0,0-3.9-0.7-4.9-4.7C188.3,236.8,187.9,241.8,193.2,241.5z"></path> <g> <image style="overflow:visible;opacity:0.2;enable-background:new ;" width="509" height="290" transform="matrix(0.6802 0 0 0.6802 124.8663 134.7572)"> </image> <g> <path class="st0" d="M143.5,297.8c0,1.1,0,2.2,0,3.2h7.2h69.2h7.5c0-1-0.1-2.1-0.1-3.1c0-37.9,30.7-68.6,68.6-68.6 c37.9,0,68.6,30.7,68.6,68.6c0,1,0,2.1-0.1,3.1h7.5h69.2h7.2c0-1.1,0-2.2,0-3.2c0-84.2-68.2-152.4-152.4-152.4 S143.5,213.7,143.5,297.8z"></path> </g> </g> <g> <image style="overflow:visible;opacity:0.2;enable-background:new ;" width="217" height="241" transform="matrix(0.6794 0 0 0.6794 132.1163 162.0958)"> </image> <g> <path class="st0" d="M234.8,252.6c-1.6,2.1-8.6,14.9-8.6,14.9c-3.6,8.4-5.8,17.5-6.3,27.1h-69.2c1.1-51.8,29.4-97,71.2-121.8 l34.6,59.9C248,237.9,240.6,244.7,234.8,252.6z"></path> </g> </g> <g> <image style="overflow:visible;opacity:0.2;enable-background:new ;" width="217" height="241" transform="matrix(0.6794 0 0 0.6794 316.3969 162.0958)"> </image> <g> <path class="st1" d="M357.1,252.6c-5.9-7.9-13.2-14.7-21.7-19.8l34.6-59.9c41.8,24.8,70,69.9,71.2,121.8h-69.2 c-0.4-9.6-2.6-18.7-6.3-27.1C365.7,267.5,358.8,254,357.1,252.6z"></path> </g> </g> <g> <image style="overflow:visible;opacity:0.2;enable-background:new ;" width="263" height="174" transform="matrix(0.6786 0 0 0.6786 208.7332 142.265)"> </image> <g> <path class="st2" d="M287.3,222.2c-9,1-17.4,3.6-25.2,7.4l-34.6-60c20.4-10.9,43.7-17.1,68.4-17.1c24.7,0,48,6.2,68.4,17.1 l-34.6,60c-7.7-3.8-16.2-6.4-25.2-7.4C297.6,220.3,287.3,222.2,287.3,222.2z"></path> </g> </g> <path class="st3" d="M150.7,294.6h69.2c0.4-9.6,2.6-18.7,6.3-27.1c0,0,7-12.8,8.6-14.9c5.9-7.9,13.2-14.7,21.7-19.8l-34.6-59.9 C180.1,197.6,151.8,242.8,150.7,294.6z"></path> <g> <g> <g class="st4"> <path class="st5" d="M182.2,252c0,0.3,0,0.6-0.1,0.9c-0.1,0.3-0.2,0.5-0.3,0.8c-0.1,0.2-0.3,0.4-0.6,0.6 c-0.2,0.2-0.5,0.2-0.8,0.3v-1.2c0.2,0,0.3-0.1,0.5-0.2c0.1-0.1,0.2-0.3,0.3-0.4c0.1-0.2,0.1-0.4,0.1-0.6c0-0.2,0-0.4-0.1-0.6 c-0.1-0.2-0.1-0.3-0.2-0.4c-0.1-0.1-0.2-0.2-0.4-0.2c-0.1,0-0.3,0-0.4,0.1c-0.1,0.1-0.2,0.2-0.2,0.4c-0.1,0.1-0.1,0.3-0.1,0.5 l-0.2,1c-0.1,0.4-0.3,0.8-0.5,1.1c-0.3,0.3-0.6,0.4-1.1,0.4c-0.4,0-0.7-0.1-1-0.3c-0.3-0.2-0.5-0.5-0.6-0.8 c-0.1-0.3-0.2-0.7-0.2-1.2c0-0.5,0.1-0.9,0.2-1.3c0.2-0.3,0.4-0.6,0.6-0.8c0.3-0.2,0.6-0.3,0.9-0.3v1.2c-0.2,0-0.4,0.1-0.5,0.2 s-0.2,0.2-0.3,0.4c-0.1,0.2-0.1,0.3-0.1,0.6c0,0.2,0,0.3,0.1,0.4s0.1,0.2,0.1,0.3s0.1,0.2,0.2,0.2c0.1,0,0.2,0.1,0.3,0.1 c0.2,0,0.3-0.1,0.4-0.2c0.1-0.1,0.2-0.3,0.3-0.6l0.2-1c0.1-0.4,0.2-0.7,0.3-0.9c0.1-0.2,0.3-0.4,0.5-0.5c0.2-0.1,0.4-0.2,0.5-0.2 c0.2,0,0.3-0.1,0.5-0.1c0.3,0,0.6,0.1,0.9,0.3s0.5,0.5,0.6,0.8C182.1,251.1,182.2,251.5,182.2,252z"></path> <path class="st5" d="M177.3,249.1h-1.1v-4.7h1.1v1.7h4.8v1.2h-4.8V249.1z"></path> <path class="st5" d="M182.1,243.5h-5.9v-4.1l1,0v2.9h1.4v-2.5h1v2.5h1.5l0-2.9h1V243.5z"></path> <path class="st5" d="M182.1,238.3h-5.9v-2.2c0-0.4,0.1-0.8,0.2-1.2s0.4-0.6,0.7-0.8c0.3-0.2,0.6-0.3,1.1-0.3c0.4,0,0.7,0.1,1,0.3 c0.3,0.2,0.5,0.4,0.6,0.7s0.2,0.7,0.2,1.1v1.1h2.1V238.3z M179.1,237.2v-1.1c0-0.3-0.1-0.5-0.3-0.7s-0.4-0.3-0.7-0.3 c-0.3,0-0.5,0.1-0.7,0.3c-0.2,0.2-0.3,0.4-0.3,0.7v1.1H179.1z"></path> </g> </g> <g> <g class="st4"> <path class="st5" d="M196.2,230.3c2.9,0,5.3,1.1,7,3.3c1.7,2.2,2.5,5.3,2.5,9.5c0,4.1-0.8,7.2-2.5,9.4c-1.7,2.2-4,3.3-7,3.3 c-3,0-5.3-1.1-7-3.3c-1.7-2.2-2.5-5.3-2.5-9.4c0-2.7,0.4-5.1,1.2-7s1.9-3.3,3.3-4.3C192.5,230.8,194.2,230.3,196.2,230.3z M196.2,251.7c1.5,0,2.5-0.7,3.2-2c0.7-1.3,1-3.5,1-6.6c0-3.2-0.3-5.4-1-6.8s-1.8-2-3.2-2c-1.5,0-2.5,0.7-3.3,2.1 c-0.7,1.4-1.1,3.6-1.1,6.8c0,3.1,0.4,5.3,1.1,6.6C193.6,251,194.7,251.7,196.2,251.7z"></path> <path class="st5" d="M213,255.4v-18.5h-4.4v-2.8c1.4,0,2.6-0.1,3.4-0.4c0.9-0.3,1.5-0.7,2-1.2c0.4-0.5,0.7-1.1,0.8-1.8h3.3v24.7 H213z"></path> </g> </g> </g> <g> <g> <g class="st4"> <path class="st5" d="M276.7,193.5c0,0.3,0,0.6-0.1,0.9c-0.1,0.3-0.2,0.5-0.3,0.8c-0.1,0.2-0.3,0.4-0.6,0.6 c-0.2,0.2-0.5,0.2-0.8,0.3v-1.2c0.2,0,0.3-0.1,0.5-0.2c0.1-0.1,0.2-0.3,0.3-0.4c0.1-0.2,0.1-0.4,0.1-0.6c0-0.2,0-0.4-0.1-0.6 c-0.1-0.2-0.1-0.3-0.2-0.4c-0.1-0.1-0.2-0.2-0.4-0.2c-0.1,0-0.3,0-0.4,0.1c-0.1,0.1-0.2,0.2-0.2,0.4c-0.1,0.1-0.1,0.3-0.1,0.5 l-0.2,1c-0.1,0.4-0.3,0.8-0.5,1.1c-0.3,0.3-0.6,0.4-1.1,0.4c-0.4,0-0.7-0.1-1-0.3c-0.3-0.2-0.5-0.5-0.6-0.8 c-0.1-0.3-0.2-0.7-0.2-1.2c0-0.5,0.1-0.9,0.2-1.3c0.2-0.3,0.4-0.6,0.6-0.8c0.3-0.2,0.6-0.3,0.9-0.3v1.2c-0.2,0-0.4,0.1-0.5,0.2 s-0.2,0.2-0.3,0.4c-0.1,0.2-0.1,0.3-0.1,0.6c0,0.2,0,0.3,0.1,0.4s0.1,0.2,0.1,0.3s0.1,0.2,0.2,0.2c0.1,0,0.2,0.1,0.3,0.1 c0.2,0,0.3-0.1,0.4-0.2c0.1-0.1,0.2-0.3,0.3-0.6l0.2-1c0.1-0.4,0.2-0.7,0.3-0.9c0.1-0.2,0.3-0.4,0.5-0.5c0.2-0.1,0.4-0.2,0.5-0.2 c0.2,0,0.3-0.1,0.5-0.1c0.3,0,0.6,0.1,0.9,0.3s0.5,0.5,0.6,0.8C276.6,192.6,276.7,193,276.7,193.5z"></path> <path class="st5" d="M271.8,190.6h-1.1v-4.7h1.1v1.7h4.8v1.2h-4.8V190.6z"></path> <path class="st5" d="M276.6,185h-5.9V181l1,0v2.9h1.4v-2.5h1v2.5h1.5l0-2.9h1V185z"></path> <path class="st5" d="M276.6,179.9h-5.9v-2.2c0-0.4,0.1-0.8,0.2-1.2s0.4-0.6,0.7-0.8c0.3-0.2,0.6-0.3,1.1-0.3c0.4,0,0.7,0.1,1,0.3 c0.3,0.2,0.5,0.4,0.6,0.7s0.2,0.7,0.2,1.1v1.1h2.1V179.9z M273.6,178.7v-1.1c0-0.3-0.1-0.5-0.3-0.7s-0.4-0.3-0.7-0.3 c-0.3,0-0.5,0.1-0.7,0.3c-0.2,0.2-0.3,0.4-0.3,0.7v1.1H273.6z"></path> </g> </g> <g> <g class="st4"> <path class="st5" d="M290.7,171.9c2.9,0,5.3,1.1,7,3.3c1.7,2.2,2.5,5.3,2.5,9.5c0,4.1-0.8,7.2-2.5,9.4c-1.7,2.2-4,3.3-7,3.3 c-3,0-5.3-1.1-7-3.3c-1.7-2.2-2.5-5.3-2.5-9.4c0-2.7,0.4-5.1,1.2-7c0.8-1.9,1.9-3.3,3.3-4.3C287,172.4,288.7,171.9,290.7,171.9z M290.7,193.2c1.5,0,2.5-0.7,3.2-2c0.7-1.3,1-3.5,1-6.6c0-3.2-0.3-5.4-1-6.8s-1.8-2-3.2-2c-1.5,0-2.5,0.7-3.3,2.1 s-1.1,3.6-1.1,6.8c0,3.1,0.4,5.3,1.1,6.6C288.1,192.6,289.2,193.2,290.7,193.2z"></path> <path class="st5" d="M303.6,196.9v-2.5v-1.3c0-1.3,0.2-2.3,0.7-3.3s1.1-1.7,1.9-2.4c0.8-0.7,1.6-1.3,2.5-1.8 c0.9-0.5,1.8-1,2.8-1.5s1.8-0.9,2.5-1.4c0.8-0.5,1.4-1,1.9-1.5c0.5-0.6,0.7-1.2,0.7-2c0-1-0.3-1.8-1-2.4 c-0.7-0.6-1.6-0.9-2.8-0.9c-1.2,0-2.3,0.4-3.2,1.1c-0.9,0.7-1.4,1.8-1.6,3.2h-4.8c0-1.6,0.4-3,1.1-4.3c0.7-1.3,1.8-2.3,3.2-3.1 c1.4-0.8,3.2-1.1,5.4-1.1c1.8,0,3.4,0.3,4.8,0.9c1.3,0.6,2.4,1.5,3.1,2.6c0.7,1.1,1.1,2.4,1.1,3.9c0,1.2-0.2,2.3-0.7,3.2 c-0.5,0.9-1.1,1.7-1.8,2.3c-0.8,0.6-1.6,1.2-2.5,1.7c-0.9,0.5-1.8,0.9-2.7,1.3c-0.9,0.4-1.7,0.8-2.5,1.2 c-0.8,0.4-1.4,0.9-1.8,1.4s-0.7,1.2-0.7,1.9v0.2h12.6v4.2H303.6z"></path> </g> </g> </g> <g> <g> <g class="st4"> <path class="st5" d="M374.8,250.9c0,0.3,0,0.6-0.1,0.9s-0.2,0.5-0.3,0.8c-0.1,0.2-0.3,0.4-0.6,0.6c-0.2,0.2-0.5,0.2-0.8,0.3v-1.2 c0.2,0,0.3-0.1,0.5-0.2c0.1-0.1,0.2-0.3,0.3-0.4c0.1-0.2,0.1-0.4,0.1-0.6c0-0.2,0-0.4-0.1-0.6c-0.1-0.2-0.1-0.3-0.2-0.4 s-0.2-0.2-0.4-0.2c-0.1,0-0.3,0-0.4,0.1c-0.1,0.1-0.2,0.2-0.2,0.4c-0.1,0.1-0.1,0.3-0.1,0.5l-0.2,1c-0.1,0.4-0.3,0.8-0.5,1.1 c-0.3,0.3-0.6,0.4-1.1,0.4c-0.4,0-0.7-0.1-1-0.3c-0.3-0.2-0.5-0.5-0.6-0.8c-0.1-0.3-0.2-0.7-0.2-1.2c0-0.5,0.1-0.9,0.2-1.3 c0.2-0.3,0.4-0.6,0.6-0.8c0.3-0.2,0.6-0.3,0.9-0.3v1.2c-0.2,0-0.4,0.1-0.5,0.2c-0.1,0.1-0.2,0.2-0.3,0.4 c-0.1,0.2-0.1,0.3-0.1,0.6c0,0.2,0,0.3,0.1,0.4c0,0.1,0.1,0.2,0.1,0.3s0.1,0.2,0.2,0.2c0.1,0,0.2,0.1,0.3,0.1 c0.2,0,0.3-0.1,0.4-0.2s0.2-0.3,0.3-0.6l0.2-1c0.1-0.4,0.2-0.7,0.3-0.9c0.1-0.2,0.3-0.4,0.5-0.5c0.2-0.1,0.4-0.2,0.5-0.2 c0.2,0,0.3-0.1,0.5-0.1c0.3,0,0.6,0.1,0.9,0.3c0.3,0.2,0.5,0.5,0.6,0.8S374.8,250.4,374.8,250.9z"></path> <path class="st5" d="M369.9,247.9h-1.1v-4.7h1.1v1.7h4.8v1.2h-4.8V247.9z"></path> <path class="st5" d="M374.7,242.4h-5.9v-4.1l1,0v2.9h1.4v-2.5h1v2.5h1.5l0-2.9h1V242.4z"></path> <path class="st5" d="M374.7,237.2h-5.9v-2.2c0-0.4,0.1-0.8,0.2-1.2c0.1-0.3,0.4-0.6,0.7-0.8c0.3-0.2,0.6-0.3,1.1-0.3 c0.4,0,0.7,0.1,1,0.3s0.5,0.4,0.6,0.7s0.2,0.7,0.2,1.1v1.1h2.1V237.2z M371.7,236v-1.1c0-0.3-0.1-0.5-0.3-0.7 c-0.2-0.2-0.4-0.3-0.7-0.3c-0.3,0-0.5,0.1-0.7,0.3c-0.2,0.2-0.3,0.4-0.3,0.7v1.1H371.7z"></path> </g> </g> <g> <g class="st4"> <path class="st5" d="M388.8,229.2c2.9,0,5.3,1.1,7,3.3c1.7,2.2,2.5,5.3,2.5,9.5c0,4.1-0.8,7.2-2.5,9.4c-1.7,2.2-4,3.3-7,3.3 c-3,0-5.3-1.1-7-3.3s-2.5-5.3-2.5-9.4c0-2.7,0.4-5.1,1.2-7c0.8-1.9,1.9-3.3,3.3-4.3S386.8,229.2,388.8,229.2z M388.8,250.6 c1.5,0,2.5-0.7,3.2-2c0.7-1.3,1-3.5,1-6.6c0-3.2-0.3-5.4-1-6.8s-1.8-2-3.2-2c-1.5,0-2.5,0.7-3.3,2.1c-0.7,1.4-1.1,3.6-1.1,6.8 c0,3.1,0.4,5.3,1.1,6.6S387.3,250.6,388.8,250.6z"></path> <path class="st5" d="M401.5,237.2c0-1.8,0.4-3.2,1.3-4.4s2-2.1,3.4-2.7c1.4-0.6,3-0.9,4.8-0.9c1.8,0,3.5,0.2,4.9,0.7 c1.4,0.5,2.6,1.2,3.4,2.2c0.8,1,1.2,2.2,1.2,3.7c0,1.2-0.4,2.3-1.1,3.2c-0.7,0.9-1.9,1.7-3.5,2.2c0.9,0.3,1.8,0.6,2.5,1.1 c0.8,0.5,1.4,1.2,1.9,2c0.5,0.8,0.7,1.8,0.7,2.9c0,1.2-0.3,2.3-0.8,3.2c-0.5,0.9-1.3,1.7-2.2,2.3s-2,1.1-3.3,1.4 c-1.2,0.3-2.6,0.5-4,0.5c-2,0-3.7-0.3-5.1-1c-1.4-0.6-2.5-1.6-3.2-2.8c-0.7-1.2-1.1-2.6-1.2-4.3h4.8c0.2,1.4,0.8,2.4,1.6,3 c0.9,0.6,1.9,0.9,3,0.9c1,0,1.9-0.1,2.6-0.4c0.7-0.3,1.3-0.7,1.7-1.2c0.4-0.5,0.6-1.1,0.6-1.8c0-0.7-0.2-1.3-0.6-1.8 c-0.4-0.5-1-0.9-1.7-1.2c-0.7-0.3-1.5-0.4-2.5-0.5l-2.4-0.1v-4l2.1-0.1c0.9,0,1.7-0.2,2.3-0.5s1.2-0.7,1.5-1.2 c0.4-0.5,0.6-1.1,0.6-1.7c0-0.6-0.2-1.1-0.6-1.6s-0.9-0.8-1.6-1s-1.4-0.4-2.3-0.4c-0.8,0-1.5,0.1-2.2,0.4 c-0.7,0.3-1.2,0.7-1.6,1.3s-0.7,1.4-0.7,2.4H401.5z"></path> </g> </g> </g> <g> <linearGradient id="SVGID_1_" gradientUnits="userSpaceOnUse" x1="506.1162" y1="272.495" x2="571.6012" y2="272.495" gradientTransform="matrix(0 -1 -1 0 427.5435 685.3312)"> <stop offset="5.586590e-03" style="stop-color:#E58F22"></stop> <stop offset="1" style="stop-color:#EDBC56"></stop> </linearGradient> <polyline class="st6" points="171.4,178.5 139,146.1 139,113.7 "></polyline> <linearGradient id="SVGID_2_" gradientUnits="userSpaceOnUse" x1="566.5642" y1="288.5414" x2="574.1129" y2="288.5414" gradientTransform="matrix(0 -1 -1 0 427.5435 685.3312)"> <stop offset="5.586590e-03" style="stop-color:#E58F22"></stop> <stop offset="1" style="stop-color:#EDBC56"></stop> </linearGradient> <path class="st7" d="M139,111.2c2.1,0,3.8,1.7,3.8,3.8c0,2.1-1.7,3.8-3.8,3.8s-3.8-1.7-3.8-3.8C135.2,112.9,136.9,111.2,139,111.2z "></path> </g> <g> <linearGradient id="SVGID_3_" gradientUnits="userSpaceOnUse" x1="506.1162" y1="-11.74" x2="571.6012" y2="-11.74" gradientTransform="matrix(0 -1 -1 0 427.5435 685.3312)"> <stop offset="0" style="stop-color:#477DD6"></stop> <stop offset="1" style="stop-color:#73CAF8"></stop> </linearGradient> <polyline class="st8" points="422.9,178.5 455.3,146.1 455.3,113.7 "></polyline> <linearGradient id="SVGID_4_" gradientUnits="userSpaceOnUse" x1="566.5642" y1="-39.8803" x2="574.1129" y2="-39.8803" gradientTransform="matrix(0 -1 1 0 495.2102 685.3312)"> <stop offset="0" style="stop-color:#477DD6"></stop> <stop offset="1" style="stop-color:#73CAF8"></stop> </linearGradient> <path class="st9" d="M455.3,111.2c-2.1,0-3.8,1.7-3.8,3.8c0,2.1,1.7,3.8,3.8,3.8c2.1,0,3.8-1.7,3.8-3.8 C459.1,112.9,457.4,111.2,455.3,111.2z"></path> </g> <g> <linearGradient id="SVGID_5_" gradientUnits="userSpaceOnUse" x1="556.8178" y1="131.1625" x2="621.5958" y2="131.1625" gradientTransform="matrix(0 -1 -1 0 427.5435 685.3312)"> <stop offset="5.586590e-03" style="stop-color:#D1184A"></stop> <stop offset="1" style="stop-color:#D65B7D"></stop> </linearGradient> <polyline class="st10" points="296.4,128.5 296.4,96.1 296.4,63.7 "></polyline> <circle class="st2" cx="296.4" cy="65" r="3.8"></circle> </g> <g> <g class="st4"> <path d="M12.2,114.2v-2.1h9.3v2.1H18v9.5h-2.3v-9.5H12.2z"></path> <path d="M24.6,120c0,0.4,0.1,0.8,0.2,1.1s0.3,0.6,0.6,0.7c0.3,0.2,0.6,0.3,1,0.3c0.4,0,0.8-0.1,1.1-0.3s0.5-0.5,0.6-0.8h2.1 c-0.1,0.6-0.3,1.1-0.7,1.5s-0.8,0.7-1.4,1s-1.1,0.3-1.7,0.3c-0.8,0-1.5-0.2-2.2-0.5c-0.6-0.3-1.1-0.8-1.5-1.5 c-0.3-0.6-0.5-1.4-0.5-2.2c0-0.8,0.2-1.6,0.5-2.2c0.3-0.7,0.8-1.2,1.4-1.6c0.6-0.4,1.3-0.6,2.2-0.6c0.8,0,1.6,0.2,2.1,0.5 c0.6,0.4,1,0.8,1.3,1.5c0.3,0.6,0.4,1.4,0.4,2.2v0.6H24.6z M24.6,118.6H28c0-0.3-0.1-0.6-0.2-0.9c-0.1-0.3-0.3-0.5-0.6-0.7 c-0.2-0.2-0.6-0.2-0.9-0.2c-0.4,0-0.7,0.1-0.9,0.3c-0.3,0.2-0.4,0.4-0.6,0.7S24.6,118.3,24.6,118.6z"></path> <path d="M35.1,123.8c-0.6,0-1.1-0.1-1.7-0.3s-1-0.5-1.4-0.9c-0.4-0.4-0.6-0.9-0.7-1.6h2c0.1,0.3,0.2,0.5,0.4,0.7s0.4,0.3,0.6,0.4 s0.5,0.1,0.7,0.1c0.4,0,0.8-0.1,1.1-0.2c0.3-0.1,0.4-0.4,0.4-0.7c0-0.2-0.1-0.4-0.2-0.5c-0.2-0.1-0.4-0.2-0.8-0.3l-1.5-0.3 c-0.7-0.2-1.3-0.4-1.8-0.8c-0.4-0.4-0.7-0.9-0.7-1.6c0-0.5,0.1-0.9,0.4-1.3c0.3-0.4,0.7-0.7,1.2-0.9c0.5-0.2,1.2-0.3,1.9-0.3 c1,0,1.8,0.2,2.4,0.7c0.6,0.4,0.9,1.1,0.9,1.9h-2c-0.1-0.3-0.2-0.6-0.5-0.7c-0.3-0.2-0.6-0.3-1-0.3c-0.4,0-0.7,0.1-1,0.2 c-0.3,0.1-0.4,0.4-0.4,0.7c0,0.2,0.1,0.4,0.3,0.5c0.2,0.1,0.5,0.2,1,0.3l1.3,0.3c0.5,0.1,0.8,0.3,1.1,0.5c0.3,0.2,0.5,0.4,0.7,0.6 c0.2,0.2,0.3,0.5,0.3,0.7c0.1,0.2,0.1,0.4,0.1,0.6c0,0.5-0.1,1-0.4,1.4s-0.7,0.7-1.2,0.9C36.4,123.7,35.8,123.8,35.1,123.8z"></path> <path d="M45.2,117h-1.8l0,4.4c0,0.2,0,0.4,0.1,0.5s0.1,0.2,0.2,0.2c0.1,0,0.2,0,0.4,0h1.1v1.4c-0.1,0-0.3,0.1-0.5,0.1 c-0.2,0-0.5,0.1-0.9,0.1c-0.7,0-1.3-0.1-1.7-0.3c-0.4-0.2-0.7-0.4-0.8-0.8s-0.2-0.7-0.2-1.2V117h-1.3v-1.6h1.4l0.6-2.5h1.7v2.5 h1.8V117z"></path> <path d="M49.3,112.1v2.1h-2.3v-2.1H49.3z M49.3,115.4v8.3h-2.2v-8.3H49.3z"></path> <path d="M51.4,123.6v-8.3h2.3v1.2c0.1-0.2,0.3-0.4,0.5-0.6c0.2-0.2,0.5-0.3,0.8-0.5c0.3-0.1,0.7-0.2,1.1-0.2c0.5,0,1,0.1,1.4,0.3 c0.4,0.2,0.8,0.5,1.1,0.9s0.4,1,0.4,1.7v5.5h-2.3v-5.2c0-0.4-0.1-0.8-0.4-1c-0.3-0.2-0.6-0.3-1-0.3c-0.3,0-0.5,0-0.7,0.1 s-0.4,0.2-0.6,0.4c-0.1,0.2-0.2,0.4-0.2,0.7v5.3H51.4z"></path> <path d="M64.8,126.4c-1.5,0-2.6-0.2-3.4-0.6c-0.8-0.4-1.1-0.9-1.1-1.5c0-0.3,0.1-0.5,0.2-0.7c0.1-0.2,0.3-0.3,0.5-0.5 c0.2-0.1,0.4-0.2,0.6-0.3c0.2-0.1,0.3-0.1,0.3-0.1c-0.1,0-0.2-0.1-0.4-0.2c-0.2-0.1-0.3-0.2-0.4-0.4c-0.1-0.2-0.2-0.4-0.2-0.6 c0-0.3,0.1-0.6,0.4-0.8c0.3-0.2,0.7-0.4,1.3-0.5c-0.5-0.3-1-0.6-1.2-1s-0.4-0.9-0.4-1.3c0-0.5,0.2-1,0.5-1.4s0.8-0.7,1.4-0.9 c0.6-0.2,1.3-0.3,2-0.3c0.6,0,1,0.1,1.4,0.2c0.4,0.1,0.7,0.3,1,0.5c0.1,0,0.3-0.1,0.5-0.2c0.2-0.1,0.4-0.2,0.7-0.3 c0.2-0.1,0.5-0.2,0.7-0.3c0.2-0.1,0.4-0.2,0.6-0.3l0,1.8l-1.4,0.2c0.1,0.1,0.1,0.3,0.1,0.5c0,0.2,0,0.3,0,0.4 c0,0.5-0.1,0.9-0.4,1.3c-0.3,0.4-0.7,0.8-1.3,1s-1.2,0.4-2.1,0.4c-0.1,0-0.2,0-0.4,0c-0.2,0-0.3,0-0.4,0c-0.3,0-0.5,0.1-0.6,0.1 c-0.1,0.1-0.2,0.1-0.2,0.2c0,0.1,0.1,0.2,0.4,0.3c0.2,0,0.6,0.1,1.1,0.1c0.2,0,0.4,0,0.7,0c0.3,0,0.6,0,1,0.1 c1,0.1,1.8,0.3,2.3,0.7c0.5,0.4,0.7,1,0.7,1.6c0,0.8-0.4,1.4-1.1,1.9C67.3,126.1,66.2,126.4,64.8,126.4z M65.1,125.1 c0.7,0,1.1-0.1,1.4-0.2c0.3-0.2,0.4-0.4,0.4-0.7c0-0.3-0.1-0.5-0.3-0.6s-0.5-0.2-0.9-0.3l-1.9-0.1c-0.2,0-0.5,0-0.7,0.1 c-0.2,0.1-0.3,0.2-0.4,0.4s-0.2,0.3-0.2,0.5c0,0.3,0.2,0.6,0.6,0.8C63.6,125,64.2,125.1,65.1,125.1z M64.7,119.3 c0.4,0,0.8-0.1,1.1-0.4c0.3-0.2,0.4-0.6,0.4-1c0-0.4-0.1-0.8-0.4-1c-0.3-0.3-0.6-0.4-1.1-0.4c-0.4,0-0.8,0.1-1.1,0.4 c-0.3,0.3-0.4,0.6-0.4,1c0,0.4,0.1,0.7,0.4,1S64.2,119.3,64.7,119.3z"></path> <path d="M82.3,112.1h2.3v11.6h-2.1l-5.5-8v8h-2.3v-11.6H77l5.3,7.7V112.1z"></path> <path d="M88.8,120c0,0.4,0.1,0.8,0.2,1.1s0.3,0.6,0.6,0.7c0.3,0.2,0.6,0.3,1,0.3c0.4,0,0.8-0.1,1.1-0.3s0.5-0.5,0.6-0.8h2.1 c-0.1,0.6-0.3,1.1-0.7,1.5s-0.8,0.7-1.4,1s-1.1,0.3-1.7,0.3c-0.8,0-1.5-0.2-2.2-0.5c-0.6-0.3-1.1-0.8-1.5-1.5 c-0.3-0.6-0.5-1.4-0.5-2.2c0-0.8,0.2-1.6,0.5-2.2c0.3-0.7,0.8-1.2,1.4-1.6c0.6-0.4,1.3-0.6,2.2-0.6c0.8,0,1.6,0.2,2.1,0.5 c0.6,0.4,1,0.8,1.3,1.5c0.3,0.6,0.4,1.4,0.4,2.2v0.6H88.8z M88.8,118.6h3.4c0-0.3-0.1-0.6-0.2-0.9c-0.1-0.3-0.3-0.5-0.6-0.7 c-0.2-0.2-0.6-0.2-0.9-0.2c-0.4,0-0.7,0.1-0.9,0.3c-0.3,0.2-0.4,0.4-0.6,0.7S88.8,118.3,88.8,118.6z"></path> <path d="M97.9,120c0,0.4,0.1,0.8,0.2,1.1s0.3,0.6,0.6,0.7c0.3,0.2,0.6,0.3,1,0.3c0.4,0,0.8-0.1,1.1-0.3s0.5-0.5,0.6-0.8h2.1 c-0.1,0.6-0.3,1.1-0.7,1.5s-0.8,0.7-1.4,1s-1.1,0.3-1.7,0.3c-0.8,0-1.5-0.2-2.2-0.5c-0.6-0.3-1.1-0.8-1.5-1.5 c-0.3-0.6-0.5-1.4-0.5-2.2c0-0.8,0.2-1.6,0.5-2.2c0.3-0.7,0.8-1.2,1.4-1.6c0.6-0.4,1.3-0.6,2.2-0.6c0.8,0,1.6,0.2,2.1,0.5 c0.6,0.4,1,0.8,1.3,1.5c0.3,0.6,0.4,1.4,0.4,2.2v0.6H97.9z M97.9,118.6h3.4c0-0.3-0.1-0.6-0.2-0.9c-0.1-0.3-0.3-0.5-0.6-0.7 c-0.2-0.2-0.6-0.2-0.9-0.2c-0.4,0-0.7,0.1-0.9,0.3c-0.3,0.2-0.4,0.4-0.6,0.7S97.9,118.3,97.9,118.6z"></path> <path d="M108.1,123.8c-1.1,0-2-0.4-2.6-1.1c-0.6-0.8-0.9-1.8-0.9-3.2c0-0.9,0.1-1.6,0.4-2.2c0.3-0.6,0.6-1.1,1.1-1.5 c0.5-0.3,1.1-0.5,1.8-0.5c0.3,0,0.6,0,0.8,0.1c0.3,0.1,0.5,0.2,0.7,0.3s0.4,0.3,0.6,0.4c0.2,0.2,0.3,0.3,0.4,0.5v-4.7h2.3v11.9 h-1.7l-0.3-1.7c-0.1,0.2-0.2,0.5-0.3,0.7c-0.1,0.2-0.3,0.4-0.5,0.6s-0.5,0.3-0.8,0.4S108.5,123.8,108.1,123.8z M108.7,122.1 c0.6,0,1-0.2,1.3-0.6c0.3-0.4,0.4-1.1,0.4-2.1c0-0.6-0.1-1-0.2-1.4c-0.1-0.4-0.3-0.7-0.6-0.8s-0.6-0.3-1-0.3 c-0.5,0-0.9,0.2-1.3,0.6s-0.5,1-0.5,1.9c0,0.9,0.2,1.6,0.5,2C107.7,121.9,108.1,122.1,108.7,122.1z"></path> <path d="M118,123.8c-0.6,0-1.1-0.1-1.7-0.3s-1-0.5-1.4-0.9c-0.4-0.4-0.6-0.9-0.7-1.6h2c0.1,0.3,0.2,0.5,0.4,0.7s0.4,0.3,0.6,0.4 s0.5,0.1,0.7,0.1c0.4,0,0.8-0.1,1.1-0.2c0.3-0.1,0.4-0.4,0.4-0.7c0-0.2-0.1-0.4-0.2-0.5c-0.2-0.1-0.4-0.2-0.8-0.3l-1.5-0.3 c-0.7-0.2-1.3-0.4-1.8-0.8c-0.4-0.4-0.7-0.9-0.7-1.6c0-0.5,0.1-0.9,0.4-1.3c0.3-0.4,0.7-0.7,1.2-0.9c0.5-0.2,1.2-0.3,1.9-0.3 c1,0,1.8,0.2,2.4,0.7c0.6,0.4,0.9,1.1,0.9,1.9h-2c-0.1-0.3-0.2-0.6-0.5-0.7c-0.3-0.2-0.6-0.3-1-0.3c-0.4,0-0.7,0.1-1,0.2 c-0.3,0.1-0.4,0.4-0.4,0.7c0,0.2,0.1,0.4,0.3,0.5c0.2,0.1,0.5,0.2,1,0.3l1.3,0.3c0.5,0.1,0.8,0.3,1.1,0.5c0.3,0.2,0.5,0.4,0.7,0.6 c0.2,0.2,0.3,0.5,0.3,0.7c0.1,0.2,0.1,0.4,0.1,0.6c0,0.5-0.1,1-0.4,1.4s-0.7,0.7-1.2,0.9C119.3,123.7,118.7,123.8,118,123.8z"></path> <path d="M42.2,141.6v-11.6h7.9l0,2h-5.6v2.8h4.9v1.9h-4.9v2.9l5.7,0v2H42.2z"></path> <path d="M59.1,133.4l-3.1,8.3h-1.7l-3.1-8.3h2.1l1.8,5.3h0.1l1.8-5.3H59.1z"></path> <path d="M62.7,141.8c-0.5,0-1-0.1-1.4-0.3s-0.8-0.5-1-0.9c-0.2-0.4-0.4-0.8-0.4-1.4c0-0.9,0.3-1.6,1-2.1c0.7-0.5,1.7-0.7,3.2-0.7 l1,0V136c0-0.4-0.1-0.7-0.3-0.9c-0.2-0.2-0.6-0.3-1-0.3c-0.3,0-0.7,0.1-1,0.2c-0.3,0.2-0.5,0.4-0.6,0.8h-1.9 c0-0.6,0.2-1.1,0.5-1.5c0.3-0.4,0.7-0.7,1.3-0.9c0.5-0.2,1.2-0.3,1.8-0.3c0.8,0,1.5,0.1,2,0.3c0.5,0.2,0.9,0.5,1.1,0.9 c0.2,0.4,0.3,0.9,0.3,1.4v5.8h-2l-0.2-1.4c-0.3,0.6-0.6,1-1.1,1.2C63.8,141.7,63.3,141.8,62.7,141.8z M63.5,140.3 c0.2,0,0.4,0,0.6-0.1c0.2-0.1,0.4-0.2,0.5-0.3s0.3-0.3,0.4-0.4c0.1-0.2,0.1-0.3,0.1-0.5v-1.2l-0.8,0c-0.4,0-0.8,0.1-1.1,0.1 s-0.6,0.2-0.8,0.4c-0.2,0.2-0.3,0.5-0.3,0.8c0,0.4,0.1,0.7,0.4,0.9S63.1,140.3,63.5,140.3z"></path> <path d="M72.2,141.8c-0.6,0-1.1-0.1-1.4-0.2c-0.4-0.1-0.6-0.3-0.8-0.6c-0.2-0.2-0.3-0.5-0.3-0.8c0-0.3-0.1-0.6-0.1-0.9v-9.6h2.3 v9.3c0,0.3,0.1,0.6,0.2,0.7s0.4,0.3,0.7,0.3l0.4,0v1.4c-0.2,0.1-0.3,0.1-0.5,0.1S72.3,141.8,72.2,141.8z"></path> <path d="M77.8,141.8c-0.4,0-0.8-0.1-1.1-0.2s-0.7-0.3-1-0.5c-0.3-0.2-0.5-0.5-0.7-0.8s-0.3-0.7-0.3-1.2v-5.7h2.3v5.4 c0,0.4,0.1,0.7,0.4,0.9c0.3,0.2,0.6,0.4,1.1,0.4c0.5,0,0.8-0.1,1.1-0.4c0.3-0.2,0.4-0.6,0.4-1v-5.4h2.3v8.3h-1.8l-0.3-1.6 c-0.1,0.5-0.3,0.9-0.5,1.1c-0.3,0.3-0.6,0.4-0.9,0.5S78.1,141.8,77.8,141.8z"></path> <path d="M86.5,141.8c-0.5,0-1-0.1-1.4-0.3s-0.8-0.5-1-0.9c-0.2-0.4-0.4-0.8-0.4-1.4c0-0.9,0.3-1.6,1-2.1c0.7-0.5,1.7-0.7,3.2-0.7 l1,0V136c0-0.4-0.1-0.7-0.3-0.9c-0.2-0.2-0.6-0.3-1-0.3c-0.3,0-0.7,0.1-1,0.2c-0.3,0.2-0.5,0.4-0.6,0.8h-1.9 c0-0.6,0.2-1.1,0.5-1.5c0.3-0.4,0.7-0.7,1.3-0.9c0.5-0.2,1.2-0.3,1.8-0.3c0.8,0,1.5,0.1,2,0.3c0.5,0.2,0.9,0.5,1.1,0.9 c0.2,0.4,0.3,0.9,0.3,1.4v5.8h-2l-0.2-1.4c-0.3,0.6-0.6,1-1.1,1.2C87.6,141.7,87.1,141.8,86.5,141.8z M87.3,140.3 c0.2,0,0.4,0,0.6-0.1c0.2-0.1,0.4-0.2,0.5-0.3s0.3-0.3,0.4-0.4c0.1-0.2,0.1-0.3,0.1-0.5v-1.2l-0.8,0c-0.4,0-0.8,0.1-1.1,0.1 s-0.6,0.2-0.8,0.4c-0.2,0.2-0.3,0.5-0.3,0.8c0,0.4,0.1,0.7,0.4,0.9S86.9,140.3,87.3,140.3z"></path> <path d="M98.3,135h-1.8l0,4.4c0,0.2,0,0.4,0.1,0.5s0.1,0.2,0.2,0.2c0.1,0,0.2,0,0.4,0h1.1v1.4c-0.1,0-0.3,0.1-0.5,0.1 c-0.2,0-0.5,0.1-0.9,0.1c-0.7,0-1.3-0.1-1.7-0.3c-0.4-0.2-0.7-0.4-0.8-0.8s-0.2-0.7-0.2-1.2V135h-1.3v-1.6h1.4l0.6-2.5h1.7v2.5 h1.8V135z"></path> <path d="M102.4,130.1v2.1h-2.3v-2.1H102.4z M102.4,133.4v8.3h-2.2v-8.3H102.4z"></path> <path d="M108.1,141.8c-0.8,0-1.5-0.2-2.1-0.5s-1.1-0.8-1.4-1.5s-0.5-1.4-0.5-2.3s0.2-1.6,0.5-2.3c0.3-0.7,0.8-1.2,1.4-1.5 c0.6-0.4,1.3-0.5,2.1-0.5s1.5,0.2,2.1,0.5c0.6,0.4,1.1,0.9,1.4,1.5c0.3,0.6,0.5,1.4,0.5,2.3c0,0.8-0.2,1.6-0.5,2.2 c-0.3,0.6-0.8,1.1-1.4,1.5C109.7,141.6,108.9,141.8,108.1,141.8z M108.1,140.1c0.4,0,0.7-0.1,1-0.4c0.3-0.2,0.4-0.6,0.5-0.9 c0.1-0.4,0.2-0.8,0.2-1.3c0-0.4-0.1-0.9-0.2-1.2c-0.1-0.4-0.3-0.7-0.5-0.9c-0.3-0.2-0.6-0.4-1-0.4c-0.4,0-0.7,0.1-1,0.3 s-0.4,0.5-0.6,0.9c-0.1,0.4-0.2,0.8-0.2,1.3c0,0.4,0.1,0.8,0.2,1.2c0.1,0.4,0.3,0.7,0.5,1C107.3,139.9,107.7,140.1,108.1,140.1z"></path> <path d="M113.6,141.6v-8.3h2.3v1.2c0.1-0.2,0.3-0.4,0.5-0.6c0.2-0.2,0.5-0.3,0.8-0.5c0.3-0.1,0.7-0.2,1.1-0.2c0.5,0,1,0.1,1.4,0.3 c0.4,0.2,0.8,0.5,1.1,0.9s0.4,1,0.4,1.7v5.5h-2.3v-5.2c0-0.4-0.1-0.8-0.4-1c-0.3-0.2-0.6-0.3-1-0.3c-0.3,0-0.5,0-0.7,0.1 s-0.4,0.2-0.6,0.4c-0.1,0.2-0.2,0.4-0.2,0.7v5.3H113.6z"></path> </g> </g> <g> <g class="st4"> <path d="M217,18.4v-2.1h9.3v2.1h-3.4v9.5h-2.3v-9.5H217z"></path> <path d="M231.1,28c-0.8,0-1.5-0.2-2.1-0.5s-1.1-0.8-1.4-1.5s-0.5-1.4-0.5-2.3s0.2-1.6,0.5-2.3c0.3-0.7,0.8-1.2,1.4-1.5 c0.6-0.4,1.3-0.5,2.1-0.5s1.5,0.2,2.1,0.5c0.6,0.4,1.1,0.9,1.4,1.5c0.3,0.6,0.5,1.4,0.5,2.3c0,0.8-0.2,1.6-0.5,2.2 c-0.3,0.6-0.8,1.1-1.4,1.5C232.6,27.8,231.9,28,231.1,28z M231.1,26.3c0.4,0,0.7-0.1,1-0.4c0.3-0.2,0.4-0.6,0.5-0.9 c0.1-0.4,0.2-0.8,0.2-1.3c0-0.4-0.1-0.9-0.2-1.2c-0.1-0.4-0.3-0.7-0.5-0.9c-0.3-0.2-0.6-0.4-1-0.4c-0.4,0-0.7,0.1-1,0.3 s-0.4,0.5-0.6,0.9c-0.1,0.4-0.2,0.8-0.2,1.3c0,0.4,0.1,0.8,0.2,1.2c0.1,0.4,0.3,0.7,0.5,1C230.3,26.1,230.6,26.3,231.1,26.3z"></path> <path d="M240.2,28c-0.8,0-1.5-0.2-2.1-0.5s-1.1-0.8-1.4-1.5s-0.5-1.4-0.5-2.3s0.2-1.6,0.5-2.3c0.3-0.7,0.8-1.2,1.4-1.5 c0.6-0.4,1.3-0.5,2.1-0.5s1.5,0.2,2.1,0.5c0.6,0.4,1.1,0.9,1.4,1.5c0.3,0.6,0.5,1.4,0.5,2.3c0,0.8-0.2,1.6-0.5,2.2 c-0.3,0.6-0.8,1.1-1.4,1.5C241.7,27.8,241,28,240.2,28z M240.2,26.3c0.4,0,0.7-0.1,1-0.4c0.3-0.2,0.4-0.6,0.5-0.9 c0.1-0.4,0.2-0.8,0.2-1.3c0-0.4-0.1-0.9-0.2-1.2c-0.1-0.4-0.3-0.7-0.5-0.9c-0.3-0.2-0.6-0.4-1-0.4c-0.4,0-0.7,0.1-1,0.3 s-0.4,0.5-0.6,0.9c-0.1,0.4-0.2,0.8-0.2,1.3c0,0.4,0.1,0.8,0.2,1.2c0.1,0.4,0.3,0.7,0.5,1C239.4,26.1,239.7,26.3,240.2,26.3z"></path> <path d="M248.4,28c-0.6,0-1.1-0.1-1.4-0.2c-0.4-0.1-0.6-0.3-0.8-0.6c-0.2-0.2-0.3-0.5-0.3-0.8c0-0.3-0.1-0.6-0.1-0.9V16h2.3v9.3 c0,0.3,0.1,0.6,0.2,0.7s0.4,0.3,0.7,0.3l0.4,0v1.4c-0.2,0.1-0.3,0.1-0.5,0.1S248.5,28,248.4,28z"></path> <path d="M254.2,28c-0.6,0-1.1-0.1-1.7-0.3s-1-0.5-1.4-0.9c-0.4-0.4-0.6-0.9-0.7-1.6h2c0.1,0.3,0.2,0.5,0.4,0.7s0.4,0.3,0.6,0.4 s0.5,0.1,0.7,0.1c0.4,0,0.8-0.1,1.1-0.2c0.3-0.1,0.4-0.4,0.4-0.7c0-0.2-0.1-0.4-0.2-0.5c-0.2-0.1-0.4-0.2-0.8-0.3l-1.5-0.3 c-0.7-0.2-1.3-0.4-1.8-0.8c-0.4-0.4-0.7-0.9-0.7-1.6c0-0.5,0.1-0.9,0.4-1.3c0.3-0.4,0.7-0.7,1.2-0.9c0.5-0.2,1.2-0.3,1.9-0.3 c1,0,1.8,0.2,2.4,0.7c0.6,0.4,0.9,1.1,0.9,1.9h-2c-0.1-0.3-0.2-0.6-0.5-0.7c-0.3-0.2-0.6-0.3-1-0.3c-0.4,0-0.7,0.1-1,0.2 c-0.3,0.1-0.4,0.4-0.4,0.7c0,0.2,0.1,0.4,0.3,0.5c0.2,0.1,0.5,0.2,1,0.3l1.3,0.3c0.5,0.1,0.8,0.3,1.1,0.5c0.3,0.2,0.5,0.4,0.7,0.6 c0.2,0.2,0.3,0.5,0.3,0.7c0.1,0.2,0.1,0.4,0.1,0.6c0,0.5-0.1,1-0.4,1.4s-0.7,0.7-1.2,0.9C255.5,27.9,254.9,28,254.2,28z"></path> <path d="M267.4,16.1c0.7,0,1.3,0.1,1.8,0.3s1,0.5,1.3,0.9s0.5,0.8,0.5,1.3c0,0.3-0.1,0.5-0.2,0.8c-0.1,0.3-0.3,0.5-0.5,0.8 c-0.2,0.3-0.5,0.5-0.8,0.8c-0.3,0.3-0.7,0.5-1.1,0.8l1.8,2.1c0.1-0.2,0.2-0.4,0.3-0.6c0.1-0.3,0.2-0.6,0.3-0.9 c0.1-0.3,0.2-0.7,0.2-1h2.4c-0.1,0.5-0.3,0.9-0.6,1.4c-0.2,0.4-0.5,0.9-0.8,1.3c-0.3,0.4-0.5,0.8-0.8,1.2l2.3,2.7h-2.7l-1-1.1 c-0.6,0.4-1.3,0.8-1.9,0.9c-0.6,0.2-1.3,0.3-1.8,0.3c-0.8,0-1.5-0.1-2.1-0.4c-0.6-0.3-1-0.6-1.2-1.1c-0.3-0.4-0.4-1-0.4-1.6 c0-0.5,0.1-1,0.3-1.4c0.2-0.4,0.5-0.8,1-1.1c0.4-0.3,1-0.7,1.6-1c-0.3-0.3-0.5-0.6-0.7-0.8c-0.2-0.3-0.4-0.5-0.5-0.8 c-0.1-0.3-0.2-0.6-0.2-0.9c0-0.5,0.1-1,0.4-1.4s0.7-0.7,1.2-1C266.1,16.2,266.7,16.1,267.4,16.1z M266.5,22.7 c-0.4,0.2-0.8,0.5-1.1,0.9s-0.4,0.8-0.4,1.2c0,0.3,0.1,0.5,0.3,0.7s0.4,0.3,0.6,0.4c0.2,0.1,0.5,0.2,0.8,0.2c0.3,0,0.7-0.1,1-0.2 c0.4-0.1,0.7-0.3,1-0.6L266.5,22.7z M267.5,17.5c-0.4,0-0.7,0.1-0.9,0.3c-0.2,0.2-0.3,0.5-0.3,0.8c0,0.2,0,0.4,0.1,0.5 s0.2,0.4,0.3,0.5c0.1,0.2,0.2,0.3,0.4,0.5l0.3,0.3c0.4-0.2,0.7-0.5,0.9-0.7c0.2-0.2,0.4-0.4,0.5-0.6c0.1-0.2,0.1-0.4,0.1-0.6 c0-0.3-0.1-0.5-0.2-0.7c-0.1-0.2-0.3-0.3-0.5-0.4C268,17.6,267.7,17.5,267.5,17.5z"></path> <path d="M278.1,27.8l4.1-11.6h2.5l4.1,11.6h-2.3l-0.9-2.7h-4.2l-1,2.7H278.1z M281.9,23.1h3.1l-1.5-4.6L281.9,23.1z"></path> <path d="M290.3,27.8v-8.3h2.2v2c0.1-0.4,0.3-0.8,0.6-1.1s0.5-0.6,0.9-0.7s0.7-0.3,1.2-0.3c0.1,0,0.1,0,0.2,0c0.1,0,0.1,0,0.1,0 v2.2c0,0-0.1,0-0.2,0c-0.1,0-0.1,0-0.2,0c-0.5,0-0.9,0-1.2,0c-0.3,0.1-0.6,0.2-0.8,0.3c-0.2,0.2-0.3,0.3-0.4,0.6 c-0.1,0.2-0.1,0.5-0.1,0.8v4.5H290.3z"></path> <path d="M300.3,19.4c0.7,0,1.3,0.1,1.8,0.4c0.5,0.3,0.9,0.7,1.2,1.1c0.3,0.5,0.5,1,0.5,1.6h-1.9c0-0.2-0.1-0.4-0.2-0.7 s-0.3-0.4-0.5-0.5c-0.2-0.1-0.5-0.2-0.8-0.2c-0.5,0-1,0.2-1.3,0.6c-0.3,0.4-0.5,1.1-0.5,1.9c0,0.8,0.2,1.4,0.5,1.9 c0.3,0.5,0.8,0.7,1.4,0.7c0.3,0,0.6-0.1,0.8-0.2c0.2-0.2,0.4-0.3,0.5-0.6c0.1-0.2,0.2-0.4,0.2-0.6h1.9c0,0.6-0.2,1.1-0.5,1.5 c-0.3,0.5-0.7,0.8-1.2,1.1S301,28,300.3,28c-0.8,0-1.5-0.2-2.1-0.5c-0.6-0.3-1.1-0.8-1.4-1.5c-0.3-0.6-0.5-1.4-0.5-2.3 c0-0.9,0.2-1.6,0.5-2.3c0.3-0.7,0.8-1.2,1.4-1.5C298.8,19.6,299.5,19.4,300.3,19.4z"></path> <path d="M305.4,27.8V16h2.3v4.8c0.1-0.2,0.3-0.4,0.5-0.6c0.2-0.2,0.5-0.3,0.8-0.5s0.7-0.2,1.1-0.2c0.5,0,1,0.1,1.4,0.3 c0.4,0.2,0.8,0.5,1,0.9c0.3,0.4,0.4,0.9,0.4,1.4v5.7h-2.3v-5.4c0-0.4-0.1-0.7-0.4-0.9s-0.6-0.3-1-0.3c-0.3,0-0.5,0-0.7,0.1 s-0.4,0.2-0.6,0.4c-0.1,0.2-0.2,0.4-0.2,0.7v5.3H305.4z"></path> <path d="M317.3,16.3v2.1H315v-2.1H317.3z M317.2,19.6v8.3H315v-8.3H317.2z"></path> <path d="M324.4,21.2h-1.8l0,4.4c0,0.2,0,0.4,0.1,0.5s0.1,0.2,0.2,0.2s0.2,0,0.4,0h1.1v1.4c-0.1,0-0.3,0.1-0.5,0.1 c-0.2,0-0.5,0.1-0.9,0.1c-0.7,0-1.3-0.1-1.7-0.3c-0.4-0.2-0.7-0.4-0.8-0.8c-0.2-0.3-0.2-0.7-0.2-1.2v-4.5h-1.3v-1.6h1.4l0.6-2.5 h1.7v2.5h1.8V21.2z"></path> <path d="M328,24.2c0,0.4,0.1,0.8,0.2,1.1s0.3,0.6,0.6,0.7c0.3,0.2,0.6,0.3,1,0.3c0.4,0,0.8-0.1,1.1-0.3c0.3-0.2,0.5-0.5,0.6-0.8 h2.1c-0.1,0.6-0.3,1.1-0.7,1.5s-0.8,0.7-1.4,1s-1.1,0.3-1.7,0.3c-0.8,0-1.5-0.2-2.2-0.5c-0.6-0.3-1.1-0.8-1.5-1.5 c-0.3-0.6-0.5-1.4-0.5-2.2c0-0.8,0.2-1.6,0.5-2.2s0.8-1.2,1.4-1.6s1.3-0.6,2.2-0.6s1.6,0.2,2.1,0.5c0.6,0.4,1,0.8,1.3,1.5 s0.4,1.4,0.4,2.2v0.6H328z M328,22.9h3.4c0-0.3-0.1-0.6-0.2-0.9c-0.1-0.3-0.3-0.5-0.6-0.7c-0.2-0.2-0.6-0.2-0.9-0.2 c-0.4,0-0.7,0.1-0.9,0.3c-0.3,0.2-0.4,0.4-0.6,0.7C328.1,22.3,328,22.6,328,22.9z"></path> <path d="M338.8,19.4c0.7,0,1.3,0.1,1.8,0.4c0.5,0.3,0.9,0.7,1.2,1.1c0.3,0.5,0.5,1,0.5,1.6h-1.9c0-0.2-0.1-0.4-0.2-0.7 s-0.3-0.4-0.5-0.5c-0.2-0.1-0.5-0.2-0.8-0.2c-0.5,0-1,0.2-1.3,0.6c-0.3,0.4-0.5,1.1-0.5,1.9c0,0.8,0.2,1.4,0.5,1.9 c0.3,0.5,0.8,0.7,1.4,0.7c0.3,0,0.6-0.1,0.8-0.2c0.2-0.2,0.4-0.3,0.5-0.6c0.1-0.2,0.2-0.4,0.2-0.6h1.9c0,0.6-0.2,1.1-0.5,1.5 c-0.3,0.5-0.7,0.8-1.2,1.1s-1.1,0.4-1.8,0.4c-0.8,0-1.5-0.2-2.1-0.5c-0.6-0.3-1.1-0.8-1.4-1.5c-0.3-0.6-0.5-1.4-0.5-2.3 c0-0.9,0.2-1.6,0.5-2.3c0.3-0.7,0.8-1.2,1.4-1.5S338,19.4,338.8,19.4z"></path> <path d="M348.9,21.2H347l0,4.4c0,0.2,0,0.4,0.1,0.5s0.1,0.2,0.2,0.2s0.2,0,0.4,0h1.1v1.4c-0.1,0-0.3,0.1-0.5,0.1 c-0.2,0-0.5,0.1-0.9,0.1c-0.7,0-1.3-0.1-1.7-0.3c-0.4-0.2-0.7-0.4-0.8-0.8c-0.2-0.3-0.2-0.7-0.2-1.2v-4.5h-1.3v-1.6h1.4l0.6-2.5 h1.7v2.5h1.8V21.2z"></path> <path d="M353.7,28c-0.4,0-0.8-0.1-1.1-0.2c-0.4-0.1-0.7-0.3-1-0.5s-0.5-0.5-0.7-0.8c-0.2-0.3-0.3-0.7-0.3-1.2v-5.7h2.3V25 c0,0.4,0.1,0.7,0.4,0.9c0.2,0.2,0.6,0.4,1.1,0.4c0.5,0,0.8-0.1,1.1-0.4c0.3-0.2,0.4-0.6,0.4-1v-5.4h2.3v8.3h-1.8l-0.3-1.6 c-0.1,0.5-0.3,0.9-0.5,1.1c-0.3,0.3-0.6,0.4-0.9,0.5S354,28,353.7,28z"></path> <path d="M360,27.8v-8.3h2.2v2c0.1-0.4,0.3-0.8,0.6-1.1c0.2-0.3,0.5-0.6,0.9-0.7s0.7-0.3,1.2-0.3c0.1,0,0.1,0,0.2,0s0.1,0,0.1,0 v2.2c0,0-0.1,0-0.2,0c-0.1,0-0.1,0-0.2,0c-0.5,0-0.9,0-1.2,0c-0.3,0.1-0.6,0.2-0.8,0.3c-0.2,0.2-0.3,0.3-0.4,0.6 c-0.1,0.2-0.1,0.5-0.1,0.8v4.5H360z"></path> <path d="M368.4,24.2c0,0.4,0.1,0.8,0.2,1.1s0.3,0.6,0.6,0.7c0.3,0.2,0.6,0.3,1,0.3c0.4,0,0.8-0.1,1.1-0.3c0.3-0.2,0.5-0.5,0.6-0.8 h2.1c-0.1,0.6-0.3,1.1-0.7,1.5s-0.8,0.7-1.4,1s-1.1,0.3-1.7,0.3c-0.8,0-1.5-0.2-2.2-0.5c-0.6-0.3-1.1-0.8-1.5-1.5 c-0.3-0.6-0.5-1.4-0.5-2.2c0-0.8,0.2-1.6,0.5-2.2s0.8-1.2,1.4-1.6s1.3-0.6,2.2-0.6s1.6,0.2,2.1,0.5c0.6,0.4,1,0.8,1.3,1.5 s0.4,1.4,0.4,2.2v0.6H368.4z M368.4,22.9h3.4c0-0.3-0.1-0.6-0.2-0.9c-0.1-0.3-0.3-0.5-0.6-0.7c-0.2-0.2-0.6-0.2-0.9-0.2 c-0.4,0-0.7,0.1-0.9,0.3c-0.3,0.2-0.4,0.4-0.6,0.7C368.5,22.3,368.4,22.6,368.4,22.9z"></path> <path d="M232.3,34.3c0.1,0,0.2,0,0.5,0c0.3,0,0.6,0,1,0c0.4,0,0.7,0,1.1,0c0.4,0,0.7,0,0.9,0c1.4,0,2.5,0.3,3.4,0.8s1.5,1.1,1.9,2 c0.4,0.8,0.6,1.8,0.6,3c0,1.2-0.2,2.2-0.7,3.1c-0.4,0.9-1.1,1.5-2,2c-0.9,0.5-2,0.7-3.4,0.7h-3.4V34.3z M234.6,36.2V44h1.1 c0.7,0,1.3-0.1,1.8-0.4c0.5-0.3,1-0.7,1.3-1.3c0.3-0.6,0.5-1.4,0.5-2.3c0-0.9-0.1-1.6-0.4-2.2s-0.7-1-1.2-1.2 c-0.5-0.3-1.2-0.4-1.9-0.4H234.6z"></path> <path d="M245.4,42.2c0,0.4,0.1,0.8,0.2,1.1s0.3,0.6,0.6,0.7c0.3,0.2,0.6,0.3,1,0.3c0.4,0,0.8-0.1,1.1-0.3s0.5-0.5,0.6-0.8h2.1 c-0.1,0.6-0.3,1.1-0.7,1.5s-0.8,0.7-1.4,1s-1.1,0.3-1.7,0.3c-0.8,0-1.5-0.2-2.2-0.5c-0.6-0.3-1.1-0.8-1.5-1.5 c-0.3-0.6-0.5-1.4-0.5-2.2c0-0.8,0.2-1.6,0.5-2.2c0.3-0.7,0.8-1.2,1.4-1.6c0.6-0.4,1.3-0.6,2.2-0.6c0.8,0,1.6,0.2,2.1,0.5 c0.6,0.4,1,0.8,1.3,1.5c0.3,0.6,0.4,1.4,0.4,2.2v0.6H245.4z M245.4,40.9h3.4c0-0.3-0.1-0.6-0.2-0.9c-0.1-0.3-0.3-0.5-0.6-0.7 c-0.2-0.2-0.6-0.2-0.9-0.2c-0.4,0-0.7,0.1-0.9,0.3c-0.3,0.2-0.4,0.4-0.6,0.7S245.4,40.6,245.4,40.9z"></path> <path d="M255.9,46c-0.6,0-1.1-0.1-1.7-0.3s-1-0.5-1.4-0.9c-0.4-0.4-0.6-0.9-0.7-1.6h2c0.1,0.3,0.2,0.5,0.4,0.7s0.4,0.3,0.6,0.4 s0.5,0.1,0.7,0.1c0.4,0,0.8-0.1,1.1-0.2c0.3-0.1,0.4-0.4,0.4-0.7c0-0.2-0.1-0.4-0.2-0.5c-0.2-0.1-0.4-0.2-0.8-0.3l-1.5-0.3 c-0.7-0.2-1.3-0.4-1.8-0.8c-0.4-0.4-0.7-0.9-0.7-1.6c0-0.5,0.1-0.9,0.4-1.3c0.3-0.4,0.7-0.7,1.2-0.9c0.5-0.2,1.2-0.3,1.9-0.3 c1,0,1.8,0.2,2.4,0.7c0.6,0.4,0.9,1.1,0.9,1.9h-2c-0.1-0.3-0.2-0.6-0.5-0.7c-0.3-0.2-0.6-0.3-1-0.3c-0.4,0-0.7,0.1-1,0.2 c-0.3,0.1-0.4,0.4-0.4,0.7c0,0.2,0.1,0.4,0.3,0.5c0.2,0.1,0.5,0.2,1,0.3l1.3,0.3c0.5,0.1,0.8,0.3,1.1,0.5c0.3,0.2,0.5,0.4,0.7,0.6 c0.2,0.2,0.3,0.5,0.3,0.7c0.1,0.2,0.1,0.4,0.1,0.6c0,0.5-0.1,1-0.4,1.4s-0.7,0.7-1.2,0.9C257.1,45.9,256.5,46,255.9,46z"></path> <path d="M263.3,34.3v2.1h-2.3v-2.1H263.3z M263.3,37.6v8.3h-2.2v-8.3H263.3z"></path> <path d="M269.3,48.6c-1.5,0-2.6-0.2-3.4-0.6c-0.8-0.4-1.1-0.9-1.1-1.5c0-0.3,0.1-0.5,0.2-0.7c0.1-0.2,0.3-0.3,0.5-0.5 c0.2-0.1,0.4-0.2,0.6-0.3c0.2-0.1,0.3-0.1,0.3-0.1c-0.1,0-0.2-0.1-0.4-0.2c-0.2-0.1-0.3-0.2-0.4-0.4c-0.1-0.2-0.2-0.4-0.2-0.6 c0-0.3,0.1-0.6,0.4-0.8c0.3-0.2,0.7-0.4,1.3-0.5c-0.5-0.3-1-0.6-1.2-1s-0.4-0.9-0.4-1.3c0-0.5,0.2-1,0.5-1.4s0.8-0.7,1.4-0.9 c0.6-0.2,1.3-0.3,2-0.3c0.6,0,1,0.1,1.4,0.2c0.4,0.1,0.7,0.3,1,0.5c0.1,0,0.3-0.1,0.5-0.2c0.2-0.1,0.4-0.2,0.7-0.3 c0.2-0.1,0.5-0.2,0.7-0.3c0.2-0.1,0.4-0.2,0.6-0.3l0,1.8l-1.4,0.2c0.1,0.1,0.1,0.3,0.1,0.5c0,0.2,0,0.3,0,0.4 c0,0.5-0.1,0.9-0.4,1.3c-0.3,0.4-0.7,0.8-1.3,1s-1.2,0.4-2.1,0.4c-0.1,0-0.2,0-0.4,0c-0.2,0-0.3,0-0.4,0c-0.3,0-0.5,0.1-0.6,0.1 c-0.1,0.1-0.2,0.1-0.2,0.2c0,0.1,0.1,0.2,0.4,0.3c0.2,0,0.6,0.1,1.1,0.1c0.2,0,0.4,0,0.7,0c0.3,0,0.6,0,1,0.1 c1,0.1,1.8,0.3,2.3,0.7c0.5,0.4,0.7,1,0.7,1.6c0,0.8-0.4,1.4-1.1,1.9C271.9,48.3,270.7,48.6,269.3,48.6z M269.6,47.3 c0.7,0,1.1-0.1,1.4-0.2c0.3-0.2,0.4-0.4,0.4-0.7c0-0.3-0.1-0.5-0.3-0.6s-0.5-0.2-0.9-0.3l-1.9-0.1c-0.2,0-0.5,0-0.7,0.1 c-0.2,0.1-0.3,0.2-0.4,0.4s-0.2,0.3-0.2,0.5c0,0.3,0.2,0.6,0.6,0.8C268.1,47.2,268.8,47.3,269.6,47.3z M269.2,41.5 c0.4,0,0.8-0.1,1.1-0.4c0.3-0.2,0.4-0.6,0.4-1c0-0.4-0.1-0.8-0.4-1c-0.3-0.3-0.6-0.4-1.1-0.4c-0.4,0-0.8,0.1-1.1,0.4 c-0.3,0.3-0.4,0.6-0.4,1c0,0.4,0.1,0.7,0.4,1S268.7,41.5,269.2,41.5z"></path> <path d="M275.5,45.8v-8.3h2.3v1.2c0.1-0.2,0.3-0.4,0.5-0.6c0.2-0.2,0.5-0.3,0.8-0.5c0.3-0.1,0.7-0.2,1.1-0.2c0.5,0,1,0.1,1.4,0.3 c0.4,0.2,0.8,0.5,1.1,0.9s0.4,1,0.4,1.7v5.5h-2.3v-5.2c0-0.4-0.1-0.8-0.4-1c-0.3-0.2-0.6-0.3-1-0.3c-0.3,0-0.5,0-0.7,0.1 s-0.4,0.2-0.6,0.4c-0.1,0.2-0.2,0.4-0.2,0.7v5.3H275.5z"></path> <path d="M293,46c-0.6,0-1.1-0.1-1.7-0.2c-0.5-0.1-1.1-0.4-1.5-0.6c-0.5-0.3-0.8-0.6-1.1-1.1c-0.3-0.4-0.5-0.9-0.5-1.5h2.4 c0.1,0.4,0.2,0.6,0.5,0.9s0.5,0.4,0.8,0.6s0.7,0.2,1.1,0.2c0.4,0,0.8-0.1,1.2-0.2c0.4-0.1,0.6-0.3,0.8-0.5 c0.2-0.2,0.3-0.5,0.3-0.8c0-0.3-0.1-0.5-0.3-0.7c-0.2-0.2-0.4-0.3-0.7-0.5c-0.3-0.1-0.6-0.2-1-0.3l-2-0.4c-0.9-0.2-1.6-0.5-2.1-1 c-0.5-0.5-0.8-1.2-0.8-2.1c0-0.7,0.2-1.4,0.6-1.9c0.4-0.5,0.9-0.9,1.6-1.2s1.4-0.4,2.3-0.4c1,0,1.8,0.2,2.5,0.5 c0.7,0.3,1.2,0.7,1.6,1.3c0.4,0.5,0.5,1.1,0.5,1.8h-2.3c0-0.4-0.2-0.7-0.4-1c-0.2-0.2-0.5-0.4-0.8-0.5c-0.3-0.1-0.7-0.2-1.1-0.2 c-0.3,0-0.6,0-0.8,0.1c-0.3,0.1-0.5,0.2-0.6,0.3c-0.2,0.1-0.3,0.3-0.4,0.4c-0.1,0.2-0.1,0.4-0.1,0.6c0,0.3,0.1,0.6,0.3,0.8 s0.6,0.4,1.3,0.5l2,0.4c0.7,0.1,1.3,0.3,1.7,0.6c0.4,0.3,0.7,0.6,0.9,0.9c0.2,0.3,0.3,0.7,0.4,1s0.1,0.7,0.1,1 c0,0.6-0.2,1.2-0.6,1.7s-0.9,0.9-1.6,1.2C294.8,45.9,293.9,46,293,46z"></path> <path d="M301.4,42.2c0,0.4,0.1,0.8,0.2,1.1s0.3,0.6,0.6,0.7c0.3,0.2,0.6,0.3,1,0.3c0.4,0,0.8-0.1,1.1-0.3s0.5-0.5,0.6-0.8h2.1 c-0.1,0.6-0.3,1.1-0.7,1.5s-0.8,0.7-1.4,1s-1.1,0.3-1.7,0.3c-0.8,0-1.5-0.2-2.2-0.5c-0.6-0.3-1.1-0.8-1.5-1.5 c-0.3-0.6-0.5-1.4-0.5-2.2c0-0.8,0.2-1.6,0.5-2.2c0.3-0.7,0.8-1.2,1.4-1.6c0.6-0.4,1.3-0.6,2.2-0.6c0.8,0,1.6,0.2,2.1,0.5 c0.6,0.4,1,0.8,1.3,1.5c0.3,0.6,0.4,1.4,0.4,2.2v0.6H301.4z M301.4,40.9h3.4c0-0.3-0.1-0.6-0.2-0.9c-0.1-0.3-0.3-0.5-0.6-0.7 c-0.2-0.2-0.6-0.2-0.9-0.2c-0.4,0-0.7,0.1-0.9,0.3c-0.3,0.2-0.4,0.4-0.6,0.7S301.4,40.6,301.4,40.9z"></path> <path d="M311.2,46c-0.6,0-1.1-0.1-1.4-0.2c-0.4-0.1-0.6-0.3-0.8-0.6c-0.2-0.2-0.3-0.5-0.3-0.8c0-0.3-0.1-0.6-0.1-0.9V34h2.3v9.3 c0,0.3,0.1,0.6,0.2,0.7s0.4,0.3,0.7,0.3l0.4,0v1.4c-0.2,0.1-0.3,0.1-0.5,0.1S311.4,46,311.2,46z"></path> <path d="M315.7,42.2c0,0.4,0.1,0.8,0.2,1.1s0.3,0.6,0.6,0.7c0.3,0.2,0.6,0.3,1,0.3c0.4,0,0.8-0.1,1.1-0.3s0.5-0.5,0.6-0.8h2.1 c-0.1,0.6-0.3,1.1-0.7,1.5s-0.8,0.7-1.4,1s-1.1,0.3-1.7,0.3c-0.8,0-1.5-0.2-2.2-0.5c-0.6-0.3-1.1-0.8-1.5-1.5 c-0.3-0.6-0.5-1.4-0.5-2.2c0-0.8,0.2-1.6,0.5-2.2c0.3-0.7,0.8-1.2,1.4-1.6c0.6-0.4,1.3-0.6,2.2-0.6c0.8,0,1.6,0.2,2.1,0.5 c0.6,0.4,1,0.8,1.3,1.5s0.4,1.4,0.4,2.2v0.6H315.7z M315.7,40.9h3.4c0-0.3-0.1-0.6-0.2-0.9c-0.1-0.3-0.3-0.5-0.6-0.7 c-0.2-0.2-0.6-0.2-0.9-0.2c-0.4,0-0.7,0.1-0.9,0.3c-0.3,0.2-0.4,0.4-0.6,0.7S315.7,40.6,315.7,40.9z"></path> <path d="M326.4,37.4c0.7,0,1.3,0.1,1.8,0.4c0.5,0.3,0.9,0.7,1.2,1.1c0.3,0.5,0.5,1,0.5,1.6h-1.9c0-0.2-0.1-0.4-0.2-0.7 s-0.3-0.4-0.5-0.5c-0.2-0.1-0.5-0.2-0.8-0.2c-0.5,0-1,0.2-1.3,0.6c-0.3,0.4-0.5,1.1-0.5,1.9c0,0.8,0.2,1.4,0.5,1.9 c0.3,0.5,0.8,0.7,1.4,0.7c0.3,0,0.6-0.1,0.8-0.2c0.2-0.2,0.4-0.3,0.5-0.6c0.1-0.2,0.2-0.4,0.2-0.6h1.9c0,0.6-0.2,1.1-0.5,1.5 c-0.3,0.5-0.7,0.8-1.2,1.1s-1.1,0.4-1.8,0.4c-0.8,0-1.5-0.2-2.1-0.5c-0.6-0.3-1.1-0.8-1.4-1.5c-0.3-0.6-0.5-1.4-0.5-2.3 c0-0.9,0.2-1.6,0.5-2.3c0.3-0.7,0.8-1.2,1.4-1.5S325.6,37.4,326.4,37.4z"></path> <path d="M336.5,39.2h-1.8l0,4.4c0,0.2,0,0.4,0.1,0.5s0.1,0.2,0.2,0.2s0.2,0,0.4,0h1.1v1.4c-0.1,0-0.3,0.1-0.5,0.1 c-0.2,0-0.5,0.1-0.9,0.1c-0.7,0-1.3-0.1-1.7-0.3c-0.4-0.2-0.7-0.4-0.8-0.8c-0.2-0.3-0.2-0.7-0.2-1.2v-4.5H331v-1.6h1.4l0.6-2.5 h1.7v2.5h1.8V39.2z"></path> <path d="M340.6,34.3v2.1h-2.3v-2.1H340.6z M340.6,37.6v8.3h-2.2v-8.3H340.6z"></path> <path d="M346.3,46c-0.8,0-1.5-0.2-2.1-0.5c-0.6-0.3-1.1-0.8-1.4-1.5s-0.5-1.4-0.5-2.3s0.2-1.6,0.5-2.3c0.3-0.7,0.8-1.2,1.4-1.5 c0.6-0.4,1.3-0.5,2.1-0.5c0.8,0,1.5,0.2,2.1,0.5c0.6,0.4,1.1,0.9,1.4,1.5c0.3,0.6,0.5,1.4,0.5,2.3c0,0.8-0.2,1.6-0.5,2.2 c-0.3,0.6-0.8,1.1-1.4,1.5C347.8,45.8,347.1,46,346.3,46z M346.3,44.3c0.4,0,0.7-0.1,1-0.4c0.3-0.2,0.4-0.6,0.5-0.9 c0.1-0.4,0.2-0.8,0.2-1.3c0-0.4-0.1-0.9-0.2-1.2c-0.1-0.4-0.3-0.7-0.5-0.9c-0.3-0.2-0.6-0.4-1-0.4c-0.4,0-0.7,0.1-1,0.3 c-0.3,0.2-0.4,0.5-0.6,0.9s-0.2,0.8-0.2,1.3c0,0.4,0.1,0.8,0.2,1.2c0.1,0.4,0.3,0.7,0.5,1C345.5,44.1,345.8,44.3,346.3,44.3z"></path> <path d="M351.8,45.8v-8.3h2.3v1.2c0.1-0.2,0.3-0.4,0.5-0.6c0.2-0.2,0.5-0.3,0.8-0.5c0.3-0.1,0.7-0.2,1.1-0.2c0.5,0,1,0.1,1.4,0.3 s0.8,0.5,1.1,0.9c0.3,0.4,0.4,1,0.4,1.7v5.5h-2.3v-5.2c0-0.4-0.1-0.8-0.4-1c-0.3-0.2-0.6-0.3-1-0.3c-0.3,0-0.5,0-0.7,0.1 s-0.4,0.2-0.6,0.4c-0.1,0.2-0.2,0.4-0.2,0.7v5.3H351.8z"></path> </g> </g> <g> <g class="st4"> <path d="M473.1,113V111h9.3v2.1h-3.4v9.5h-2.3V113H473.1z"></path> <path d="M485.5,118.9c0,0.4,0.1,0.8,0.2,1.1s0.3,0.6,0.6,0.7s0.6,0.3,1,0.3c0.4,0,0.8-0.1,1.1-0.3s0.5-0.5,0.6-0.8h2.1 c-0.1,0.6-0.3,1.1-0.7,1.5s-0.8,0.7-1.4,1s-1.1,0.3-1.7,0.3c-0.8,0-1.5-0.2-2.2-0.5c-0.6-0.3-1.1-0.8-1.5-1.5 c-0.3-0.6-0.5-1.4-0.5-2.2c0-0.8,0.2-1.6,0.5-2.2s0.8-1.2,1.4-1.6c0.6-0.4,1.3-0.6,2.2-0.6c0.8,0,1.5,0.2,2.1,0.5 c0.6,0.4,1,0.8,1.3,1.5c0.3,0.6,0.4,1.4,0.4,2.2v0.6H485.5z M485.5,117.5h3.4c0-0.3-0.1-0.6-0.2-0.9c-0.1-0.3-0.3-0.5-0.6-0.7 c-0.2-0.2-0.6-0.2-0.9-0.2c-0.4,0-0.7,0.1-0.9,0.3c-0.3,0.2-0.4,0.4-0.6,0.7S485.5,117.2,485.5,117.5z"></path> <path d="M496,122.7c-0.6,0-1.1-0.1-1.7-0.3s-1-0.5-1.4-0.9c-0.4-0.4-0.6-0.9-0.7-1.6h2c0.1,0.3,0.2,0.5,0.4,0.7s0.4,0.3,0.6,0.4 s0.5,0.1,0.7,0.1c0.4,0,0.8-0.1,1.1-0.2c0.3-0.1,0.4-0.4,0.4-0.7c0-0.2-0.1-0.4-0.2-0.5c-0.2-0.1-0.4-0.2-0.8-0.3l-1.5-0.3 c-0.7-0.2-1.3-0.4-1.8-0.8c-0.4-0.4-0.7-0.9-0.7-1.6c0-0.5,0.1-0.9,0.4-1.3c0.3-0.4,0.7-0.7,1.2-0.9s1.2-0.3,1.9-0.3 c1,0,1.8,0.2,2.4,0.7c0.6,0.4,0.9,1.1,0.9,1.9h-2c-0.1-0.3-0.2-0.6-0.5-0.7c-0.3-0.2-0.6-0.3-1-0.3c-0.4,0-0.7,0.1-1,0.2 c-0.3,0.1-0.4,0.4-0.4,0.7c0,0.2,0.1,0.4,0.3,0.5c0.2,0.1,0.5,0.2,1,0.3l1.3,0.3c0.5,0.1,0.8,0.3,1.1,0.5c0.3,0.2,0.5,0.4,0.7,0.6 c0.2,0.2,0.3,0.5,0.3,0.7c0.1,0.2,0.1,0.4,0.1,0.6c0,0.5-0.1,1-0.4,1.4c-0.3,0.4-0.7,0.7-1.2,0.9 C497.3,122.6,496.7,122.7,496,122.7z"></path> <path d="M506.1,115.9h-1.8l0,4.4c0,0.2,0,0.4,0.1,0.5s0.1,0.2,0.2,0.2c0.1,0,0.2,0,0.4,0h1.1v1.4c-0.1,0-0.3,0.1-0.5,0.1 c-0.2,0-0.5,0.1-0.9,0.1c-0.7,0-1.3-0.1-1.7-0.3c-0.4-0.2-0.7-0.4-0.8-0.8c-0.2-0.3-0.2-0.7-0.2-1.2v-4.5h-1.3v-1.6h1.4l0.6-2.5 h1.7v2.5h1.8V115.9z"></path> <path d="M515.9,122.7c-0.6,0-1.1-0.1-1.7-0.2c-0.5-0.1-1.1-0.4-1.5-0.6s-0.8-0.6-1.1-1.1c-0.3-0.4-0.5-0.9-0.5-1.5h2.4 c0.1,0.4,0.2,0.6,0.5,0.9c0.2,0.2,0.5,0.4,0.8,0.6s0.7,0.2,1.1,0.2c0.4,0,0.8-0.1,1.2-0.2s0.6-0.3,0.8-0.5 c0.2-0.2,0.3-0.5,0.3-0.8c0-0.3-0.1-0.5-0.3-0.7c-0.2-0.2-0.4-0.3-0.7-0.5c-0.3-0.1-0.6-0.2-1-0.3l-2-0.4c-0.9-0.2-1.6-0.5-2.1-1 c-0.5-0.5-0.8-1.2-0.8-2.1c0-0.7,0.2-1.4,0.6-1.9c0.4-0.5,0.9-0.9,1.6-1.2c0.7-0.3,1.4-0.4,2.3-0.4c1,0,1.8,0.2,2.5,0.5 c0.7,0.3,1.2,0.7,1.6,1.3c0.4,0.5,0.5,1.1,0.5,1.8h-2.3c0-0.4-0.2-0.7-0.4-1c-0.2-0.2-0.5-0.4-0.8-0.5c-0.3-0.1-0.7-0.2-1.1-0.2 c-0.3,0-0.6,0-0.8,0.1c-0.3,0.1-0.5,0.2-0.6,0.3s-0.3,0.3-0.4,0.4c-0.1,0.2-0.1,0.4-0.1,0.6c0,0.3,0.1,0.6,0.3,0.8 s0.6,0.4,1.3,0.5l2,0.4c0.7,0.1,1.3,0.3,1.7,0.6c0.4,0.3,0.7,0.6,0.9,0.9c0.2,0.3,0.3,0.7,0.4,1s0.1,0.7,0.1,1 c0,0.6-0.2,1.2-0.6,1.7c-0.4,0.5-0.9,0.9-1.6,1.2C517.6,122.5,516.8,122.7,515.9,122.7z"></path> <path d="M525.9,114.1c0.7,0,1.3,0.1,1.8,0.4c0.5,0.3,0.9,0.7,1.2,1.1c0.3,0.5,0.5,1,0.5,1.6h-1.9c0-0.2-0.1-0.4-0.2-0.7 s-0.3-0.4-0.5-0.5c-0.2-0.1-0.5-0.2-0.8-0.2c-0.5,0-1,0.2-1.3,0.6c-0.3,0.4-0.5,1.1-0.5,1.9c0,0.8,0.2,1.4,0.5,1.9 c0.3,0.5,0.8,0.7,1.4,0.7c0.3,0,0.6-0.1,0.8-0.2c0.2-0.2,0.4-0.3,0.5-0.6s0.2-0.4,0.2-0.6h1.9c0,0.6-0.2,1.1-0.5,1.5 c-0.3,0.5-0.7,0.8-1.2,1.1s-1.1,0.4-1.8,0.4c-0.8,0-1.5-0.2-2.1-0.5c-0.6-0.3-1.1-0.8-1.4-1.5c-0.3-0.6-0.5-1.4-0.5-2.3 c0-0.9,0.2-1.6,0.5-2.3c0.3-0.7,0.8-1.2,1.4-1.5S525.1,114.1,525.9,114.1z"></path> <path d="M531,122.5v-8.3h2.2v2c0.1-0.4,0.3-0.8,0.6-1.1s0.5-0.6,0.9-0.7s0.7-0.3,1.2-0.3c0.1,0,0.1,0,0.2,0s0.1,0,0.1,0v2.2 c0,0-0.1,0-0.2,0c-0.1,0-0.1,0-0.2,0c-0.5,0-0.9,0-1.2,0c-0.3,0.1-0.6,0.2-0.8,0.3c-0.2,0.2-0.3,0.3-0.4,0.6 c-0.1,0.2-0.1,0.5-0.1,0.8v4.5H531z"></path> <path d="M539.9,111v2.1h-2.3V111H539.9z M539.8,114.3v8.3h-2.2v-8.3H539.8z"></path> <path d="M542,125.1v-10.8h2.3l0,1.2c0.1-0.2,0.3-0.4,0.5-0.5c0.2-0.2,0.4-0.3,0.6-0.4s0.5-0.2,0.7-0.3c0.3-0.1,0.5-0.1,0.8-0.1 c0.6,0,1.2,0.2,1.6,0.5c0.5,0.3,0.9,0.8,1.1,1.4c0.3,0.6,0.4,1.4,0.4,2.4c0,1-0.1,1.8-0.4,2.5c-0.3,0.6-0.7,1.1-1.2,1.4 c-0.5,0.3-1.1,0.5-1.8,0.5c-0.3,0-0.5,0-0.8-0.1c-0.2-0.1-0.5-0.2-0.7-0.3s-0.4-0.3-0.5-0.4s-0.3-0.4-0.4-0.5v3.8H542z M546.1,121 c0.5,0,0.9-0.2,1.3-0.6c0.3-0.4,0.5-1.1,0.5-2c0-0.8-0.2-1.4-0.5-1.9c-0.3-0.5-0.8-0.7-1.3-0.7c-0.6,0-1.1,0.2-1.3,0.7 c-0.3,0.5-0.4,1.1-0.4,1.8c0,0.5,0.1,0.9,0.2,1.3c0.1,0.4,0.3,0.7,0.6,1S545.7,121,546.1,121z"></path> <path d="M556.7,115.9h-1.8l0,4.4c0,0.2,0,0.4,0.1,0.5s0.1,0.2,0.2,0.2s0.2,0,0.4,0h1.1v1.4c-0.1,0-0.3,0.1-0.5,0.1 c-0.2,0-0.5,0.1-0.9,0.1c-0.7,0-1.3-0.1-1.7-0.3c-0.4-0.2-0.7-0.4-0.8-0.8c-0.2-0.3-0.2-0.7-0.2-1.2v-4.5h-1.3v-1.6h1.4l0.6-2.5 h1.7v2.5h1.8V115.9z"></path> <path d="M566.8,110.8c0.9,0,1.6,0.2,2.3,0.5c0.7,0.3,1.2,0.8,1.6,1.4c0.4,0.6,0.7,1.3,0.7,2H569c-0.1-0.4-0.2-0.8-0.4-1.1 c-0.2-0.3-0.5-0.6-0.8-0.7c-0.3-0.2-0.7-0.3-1.2-0.3c-0.5,0-1,0.1-1.4,0.4c-0.4,0.3-0.7,0.7-0.9,1.3c-0.2,0.6-0.3,1.3-0.3,2.3 c0,1.4,0.2,2.5,0.7,3.1s1.1,1,1.9,1c0.4,0,0.8-0.1,1.2-0.3c0.3-0.2,0.6-0.5,0.8-0.8s0.3-0.7,0.4-1.1h2.4c-0.1,0.5-0.2,1.1-0.4,1.6 c-0.2,0.5-0.5,0.9-0.8,1.3c-0.4,0.4-0.8,0.7-1.4,0.9c-0.6,0.2-1.3,0.3-2.1,0.3c-1.1,0-2-0.3-2.8-0.8c-0.8-0.5-1.4-1.2-1.8-2.1 c-0.4-0.9-0.6-2-0.6-3.2c0-1.2,0.2-2.3,0.6-3.1s1-1.5,1.8-2C564.8,111,565.7,110.8,566.8,110.8z"></path> <path d="M573.3,122.5v-8.3h2.2v2c0.1-0.4,0.3-0.8,0.6-1.1c0.2-0.3,0.5-0.6,0.9-0.7c0.3-0.2,0.7-0.3,1.2-0.3c0.1,0,0.1,0,0.2,0 s0.1,0,0.1,0v2.2c0,0-0.1,0-0.2,0c-0.1,0-0.1,0-0.2,0c-0.5,0-0.9,0-1.2,0c-0.3,0.1-0.6,0.2-0.8,0.3c-0.2,0.2-0.3,0.3-0.4,0.6 c-0.1,0.2-0.1,0.5-0.1,0.8v4.5H573.3z"></path> <path d="M581.7,118.9c0,0.4,0.1,0.8,0.2,1.1s0.3,0.6,0.6,0.7c0.3,0.2,0.6,0.3,1,0.3c0.4,0,0.8-0.1,1.1-0.3 c0.3-0.2,0.5-0.5,0.6-0.8h2.1c-0.1,0.6-0.3,1.1-0.7,1.5c-0.4,0.4-0.8,0.7-1.4,1s-1.1,0.3-1.7,0.3c-0.8,0-1.5-0.2-2.2-0.5 c-0.6-0.3-1.1-0.8-1.5-1.5c-0.3-0.6-0.5-1.4-0.5-2.2c0-0.8,0.2-1.6,0.5-2.2s0.8-1.2,1.4-1.6c0.6-0.4,1.3-0.6,2.2-0.6 s1.5,0.2,2.1,0.5c0.6,0.4,1,0.8,1.3,1.5c0.3,0.6,0.4,1.4,0.4,2.2v0.6H581.7z M581.7,117.5h3.4c0-0.3-0.1-0.6-0.2-0.9 c-0.1-0.3-0.3-0.5-0.6-0.7c-0.2-0.2-0.6-0.2-0.9-0.2c-0.4,0-0.7,0.1-0.9,0.3c-0.3,0.2-0.4,0.4-0.6,0.7 C581.7,116.9,581.7,117.2,581.7,117.5z"></path> <path d="M591.3,122.7c-0.5,0-1-0.1-1.4-0.3c-0.4-0.2-0.8-0.5-1-0.9c-0.2-0.4-0.4-0.8-0.4-1.4c0-0.9,0.3-1.6,1-2.1 c0.7-0.5,1.7-0.7,3.2-0.7l1,0v-0.5c0-0.4-0.1-0.7-0.3-0.9c-0.2-0.2-0.6-0.3-1-0.3c-0.3,0-0.7,0.1-1,0.2c-0.3,0.2-0.5,0.4-0.6,0.8 h-1.9c0-0.6,0.2-1.1,0.5-1.5c0.3-0.4,0.7-0.7,1.3-0.9c0.5-0.2,1.2-0.3,1.8-0.3c0.8,0,1.5,0.1,2,0.3c0.5,0.2,0.9,0.5,1.1,0.9 c0.2,0.4,0.3,0.9,0.3,1.4v5.8h-2l-0.2-1.4c-0.3,0.6-0.6,1-1.1,1.2C592.3,122.6,591.8,122.7,591.3,122.7z M592,121.1 c0.2,0,0.4,0,0.6-0.1c0.2-0.1,0.4-0.2,0.5-0.3s0.3-0.3,0.4-0.4c0.1-0.2,0.1-0.3,0.1-0.5v-1.2l-0.8,0c-0.4,0-0.8,0.1-1.1,0.1 s-0.6,0.2-0.8,0.4c-0.2,0.2-0.3,0.5-0.3,0.8c0,0.4,0.1,0.7,0.4,0.9S591.7,121.1,592,121.1z"></path> <path d="M603.1,115.9h-1.8l0,4.4c0,0.2,0,0.4,0.1,0.5s0.1,0.2,0.2,0.2c0.1,0,0.2,0,0.4,0h1.1v1.4c-0.1,0-0.3,0.1-0.5,0.1 c-0.2,0-0.5,0.1-0.9,0.1c-0.7,0-1.3-0.1-1.7-0.3c-0.4-0.2-0.7-0.4-0.8-0.8c-0.2-0.3-0.2-0.7-0.2-1.2v-4.5h-1.3v-1.6h1.4l0.6-2.5 h1.7v2.5h1.8V115.9z"></path> <path d="M607.2,111v2.1h-2.3V111H607.2z M607.1,114.3v8.3h-2.2v-8.3H607.1z"></path> <path d="M612.8,122.7c-0.8,0-1.5-0.2-2.1-0.5s-1.1-0.8-1.4-1.5s-0.5-1.4-0.5-2.3s0.2-1.6,0.5-2.3c0.3-0.7,0.8-1.2,1.4-1.5 c0.6-0.4,1.3-0.5,2.1-0.5s1.5,0.2,2.1,0.5c0.6,0.4,1.1,0.9,1.4,1.5c0.3,0.6,0.5,1.4,0.5,2.3c0,0.8-0.2,1.6-0.5,2.2 c-0.3,0.6-0.8,1.1-1.4,1.5C614.4,122.5,613.7,122.7,612.8,122.7z M612.8,120.9c0.4,0,0.7-0.1,1-0.4c0.3-0.2,0.4-0.6,0.5-0.9 c0.1-0.4,0.2-0.8,0.2-1.3c0-0.4-0.1-0.9-0.2-1.2c-0.1-0.4-0.3-0.7-0.5-0.9c-0.3-0.2-0.6-0.4-1-0.4c-0.4,0-0.7,0.1-1,0.3 s-0.4,0.5-0.6,0.9s-0.2,0.8-0.2,1.3c0,0.4,0.1,0.8,0.2,1.2c0.1,0.4,0.3,0.7,0.5,1C612,120.8,612.4,120.9,612.8,120.9z"></path> <path d="M618.4,122.5v-8.3h2.3v1.2c0.1-0.2,0.3-0.4,0.5-0.6c0.2-0.2,0.5-0.3,0.8-0.5c0.3-0.1,0.7-0.2,1.1-0.2c0.5,0,1,0.1,1.4,0.3 s0.8,0.5,1.1,0.9c0.3,0.4,0.4,1,0.4,1.7v5.5h-2.3v-5.2c0-0.4-0.1-0.8-0.4-1c-0.3-0.2-0.6-0.3-1-0.3c-0.3,0-0.5,0-0.7,0.1 c-0.2,0.1-0.4,0.2-0.6,0.4c-0.2,0.2-0.2,0.4-0.2,0.7v5.3H618.4z"></path> <path d="M478.5,128.8c0.7,0,1.3,0.1,1.8,0.3c0.5,0.2,1,0.5,1.3,0.9s0.5,0.8,0.5,1.3c0,0.3-0.1,0.5-0.2,0.8 c-0.1,0.3-0.3,0.5-0.5,0.8s-0.5,0.5-0.8,0.8c-0.3,0.3-0.7,0.5-1.1,0.8l1.8,2.1c0.1-0.2,0.2-0.4,0.3-0.6c0.1-0.3,0.2-0.6,0.3-0.9 c0.1-0.3,0.2-0.7,0.2-1h2.4c-0.1,0.5-0.3,0.9-0.6,1.4c-0.2,0.4-0.5,0.9-0.8,1.3s-0.5,0.8-0.8,1.2l2.3,2.7H482l-1-1.1 c-0.6,0.4-1.3,0.8-1.9,0.9c-0.6,0.2-1.3,0.3-1.8,0.3c-0.8,0-1.5-0.1-2.1-0.4c-0.6-0.3-1-0.6-1.2-1.1c-0.3-0.4-0.4-1-0.4-1.6 c0-0.5,0.1-1,0.3-1.4c0.2-0.4,0.5-0.8,1-1.1c0.4-0.3,1-0.7,1.6-1c-0.3-0.3-0.5-0.6-0.7-0.8c-0.2-0.3-0.4-0.5-0.5-0.8 c-0.1-0.3-0.2-0.6-0.2-0.9c0-0.5,0.1-1,0.4-1.4s0.7-0.7,1.2-1S477.8,128.8,478.5,128.8z M477.6,135.4c-0.4,0.2-0.8,0.5-1.1,0.9 c-0.3,0.4-0.4,0.8-0.4,1.2c0,0.3,0.1,0.5,0.3,0.7s0.4,0.3,0.6,0.4c0.2,0.1,0.5,0.2,0.8,0.2c0.3,0,0.7-0.1,1-0.2s0.7-0.3,1-0.6 L477.6,135.4z M478.6,130.2c-0.4,0-0.7,0.1-0.9,0.3c-0.2,0.2-0.3,0.5-0.3,0.8c0,0.2,0,0.4,0.1,0.5c0.1,0.2,0.2,0.4,0.3,0.5 c0.1,0.2,0.2,0.3,0.4,0.5l0.3,0.3c0.4-0.2,0.7-0.5,0.9-0.7c0.2-0.2,0.4-0.4,0.5-0.6c0.1-0.2,0.1-0.4,0.1-0.6 c0-0.3-0.1-0.5-0.2-0.7s-0.3-0.3-0.5-0.4C479,130.2,478.8,130.2,478.6,130.2z"></path> <path d="M490,140.5V129h7.9l0,2h-5.6v2.8h4.9v1.9h-4.9v2.9l5.7,0v2H490z"></path> <path d="M508,140.5h-2.4l-2-2.7l-2,2.7h-2.4l3.2-4.3l-2.9-4h2.4l1.7,2.3l1.7-2.3h2.4l-2.9,4L508,140.5z"></path> <path d="M511.2,136.9c0,0.4,0.1,0.8,0.2,1.1s0.3,0.6,0.6,0.7s0.6,0.3,1,0.3c0.4,0,0.8-0.1,1.1-0.3c0.3-0.2,0.5-0.5,0.6-0.8h2.1 c-0.1,0.6-0.3,1.1-0.7,1.5c-0.4,0.4-0.8,0.7-1.4,1s-1.1,0.3-1.7,0.3c-0.8,0-1.5-0.2-2.2-0.5c-0.6-0.3-1.1-0.8-1.5-1.5 c-0.3-0.6-0.5-1.4-0.5-2.2c0-0.8,0.2-1.6,0.5-2.2c0.3-0.7,0.8-1.2,1.4-1.6s1.3-0.6,2.2-0.6c0.8,0,1.6,0.2,2.1,0.5 c0.6,0.4,1,0.8,1.3,1.5s0.4,1.4,0.4,2.2v0.6H511.2z M511.2,135.5h3.4c0-0.3-0.1-0.6-0.2-0.9c-0.1-0.3-0.3-0.5-0.6-0.7 c-0.2-0.2-0.6-0.2-0.9-0.2c-0.4,0-0.7,0.1-0.9,0.3c-0.3,0.2-0.4,0.4-0.6,0.7C511.2,134.9,511.2,135.2,511.2,135.5z"></path> <path d="M521.9,132.1c0.7,0,1.3,0.1,1.8,0.4c0.5,0.3,0.9,0.7,1.2,1.1c0.3,0.5,0.5,1,0.5,1.6h-1.9c0-0.2-0.1-0.4-0.2-0.7 s-0.3-0.4-0.5-0.5c-0.2-0.1-0.5-0.2-0.8-0.2c-0.5,0-1,0.2-1.3,0.6c-0.3,0.4-0.5,1.1-0.5,1.9c0,0.8,0.2,1.4,0.5,1.9 c0.3,0.5,0.8,0.7,1.4,0.7c0.3,0,0.6-0.1,0.8-0.2c0.2-0.2,0.4-0.3,0.5-0.6s0.2-0.4,0.2-0.6h1.9c0,0.6-0.2,1.1-0.5,1.5 c-0.3,0.5-0.7,0.8-1.2,1.1s-1.1,0.4-1.8,0.4c-0.8,0-1.5-0.2-2.1-0.5c-0.6-0.3-1.1-0.8-1.4-1.5c-0.3-0.6-0.5-1.4-0.5-2.3 c0-0.9,0.2-1.6,0.5-2.3c0.3-0.7,0.8-1.2,1.4-1.5S521.1,132.1,521.9,132.1z"></path> <path d="M530,140.7c-0.4,0-0.8-0.1-1.1-0.2s-0.7-0.3-1-0.5c-0.3-0.2-0.5-0.5-0.7-0.8s-0.3-0.7-0.3-1.2v-5.7h2.3v5.4 c0,0.4,0.1,0.7,0.4,0.9c0.3,0.2,0.6,0.4,1.1,0.4c0.5,0,0.8-0.1,1.1-0.4c0.3-0.2,0.4-0.6,0.4-1v-5.4h2.3v8.3h-1.8l-0.3-1.6 c-0.1,0.5-0.3,0.9-0.5,1.1c-0.3,0.3-0.6,0.4-0.9,0.5S530.3,140.7,530,140.7z"></path> <path d="M541.4,133.9h-1.8l0,4.4c0,0.2,0,0.4,0.1,0.5s0.1,0.2,0.2,0.2c0.1,0,0.2,0,0.4,0h1.1v1.4c-0.1,0-0.3,0.1-0.5,0.1 c-0.2,0-0.5,0.1-0.9,0.1c-0.7,0-1.3-0.1-1.7-0.3c-0.4-0.2-0.7-0.4-0.8-0.8c-0.2-0.3-0.2-0.7-0.2-1.2v-4.5h-1.3v-1.6h1.4l0.6-2.5 h1.7v2.5h1.8V133.9z"></path> <path d="M545.5,129v2.1h-2.3V129H545.5z M545.5,132.3v8.3h-2.2v-8.3H545.5z"></path> <path d="M551.2,140.7c-0.8,0-1.5-0.2-2.1-0.5c-0.6-0.3-1.1-0.8-1.4-1.5s-0.5-1.4-0.5-2.3s0.2-1.6,0.5-2.3c0.3-0.7,0.8-1.2,1.4-1.5 c0.6-0.4,1.3-0.5,2.1-0.5c0.8,0,1.5,0.2,2.1,0.5c0.6,0.4,1.1,0.9,1.4,1.5c0.3,0.6,0.5,1.4,0.5,2.3c0,0.8-0.2,1.6-0.5,2.2 c-0.3,0.6-0.8,1.1-1.4,1.5C552.7,140.5,552,140.7,551.2,140.7z M551.2,138.9c0.4,0,0.7-0.1,1-0.4c0.3-0.2,0.4-0.6,0.5-0.9 c0.1-0.4,0.2-0.8,0.2-1.3c0-0.4-0.1-0.9-0.2-1.2c-0.1-0.4-0.3-0.7-0.5-0.9c-0.3-0.2-0.6-0.4-1-0.4c-0.4,0-0.7,0.1-1,0.3 c-0.3,0.2-0.4,0.5-0.6,0.9c-0.1,0.4-0.2,0.8-0.2,1.3c0,0.4,0.1,0.8,0.2,1.2s0.3,0.7,0.5,1C550.4,138.8,550.7,138.9,551.2,138.9z"></path> <path d="M556.7,140.5v-8.3h2.3v1.2c0.1-0.2,0.3-0.4,0.5-0.6c0.2-0.2,0.5-0.3,0.8-0.5c0.3-0.1,0.7-0.2,1.1-0.2c0.5,0,1,0.1,1.4,0.3 c0.4,0.2,0.8,0.5,1.1,0.9s0.4,1,0.4,1.7v5.5H562v-5.2c0-0.4-0.1-0.8-0.4-1c-0.3-0.2-0.6-0.3-1-0.3c-0.3,0-0.5,0-0.7,0.1 s-0.4,0.2-0.6,0.4c-0.1,0.2-0.2,0.4-0.2,0.7v5.3H556.7z"></path> </g> </g> </svg> 