<?xml version="1.0" encoding="UTF-8"?> <!-- Generator: Adobe Illustrator 25.1.0, SVG Export Plug-In . SVG Version: 6.00 Build 0) --> <svg xmlns="http://www.w3.org/2000/svg" xmlns:xlink="http://www.w3.org/1999/xlink" version="1.1" id="Layer_1" x="0px" y="0px" viewBox="0 0 370 366" style="enable-background:new 0 0 370 366;" xml:space="preserve"> <style type="text/css"> .st0{fill:url(#SVGID_1_);} .st1{fill:#91B3FA;} .st2{fill:#BDD0FB;} .st3{fill:url(#SVGID_2_);} .st4{fill:url(#SVGID_3_);} .st5{fill:#2176FF;} .st6{fill:url(#SVGID_4_);} .st7{fill:url(#SVGID_5_);} .st8{fill:url(#SVGID_6_);} .st9{fill:url(#SVGID_7_);} .st10{fill:url(#SVGID_8_);} .st11{fill:url(#SVGID_9_);} .st12{fill:#1C1C1C;} .st13{fill:url(#SVGID_10_);} .st14{fill:url(#SVGID_11_);} .st15{fill:url(#SVGID_12_);} .st16{fill:url(#SVGID_13_);} .st17{fill:url(#SVGID_14_);} .st18{fill:#1E1E1E;} .st19{fill:url(#SVGID_15_);} .st20{fill:url(#SVGID_16_);} .st21{fill:url(#SVGID_17_);} .st22{fill:url(#SVGID_18_);} .st23{fill:#FFFFFF;} .st24{fill:url(#SVGID_19_);} .st25{fill:url(#SVGID_20_);} .st26{fill:url(#SVGID_21_);} </style> <g> <linearGradient id="SVGID_1_" gradientUnits="userSpaceOnUse" x1="392.381" y1="3.838" x2="131.4163" y2="232.1821" gradientTransform="matrix(1 0 0 -1 0 368)"> <stop offset="0" style="stop-color:#DAE3FE"></stop> <stop offset="1" style="stop-color:#E9EFFD"></stop> </linearGradient> <path class="st0" d="M348,245.6C314.3,325,224.5,369.5,146.5,357.5c-12.7-2-47.4-7.8-78.2-35.2C9.1,269.4-3.6,164.8,44.2,91.1 C79,37.5,141.3,7,200.6,8.6c12.8,0.3,61.7,2.3,104.6,37.8c6.3,5.2,20.2,17.6,32.8,37.2C367.5,129.6,370,193.8,348,245.6z"></path> <g> <g> <g> <path class="st1" d="M138.1,124.3c-0.2,0-0.5-0.1-0.6-0.4c-0.5-0.8-1-1.7-1.5-2.5c-0.2-0.3-0.1-0.8,0.2-1c0.3-0.2,0.8-0.1,1,0.2 c0.5,0.8,1,1.7,1.5,2.5c0.2,0.3,0.1,0.8-0.3,1C138.4,124.3,138.2,124.3,138.1,124.3z"></path> <path class="st1" d="M80.4,215.4c-1.1-0.1-2.2-0.2-3.3-0.3c-0.4-0.1-0.7-0.4-0.6-0.8c0.1-0.4,0.4-0.7,0.8-0.6 c1.1,0.1,2.2,0.2,3.2,0.3c0.8,0.1,1.6,0.1,2.4,0.1c0.4,0,0.7,0.3,0.7,0.8c0,0.4-0.3,0.7-0.8,0.7 C82.1,215.5,81.3,215.4,80.4,215.4z M92.2,215.1c-0.3,0-0.6-0.3-0.7-0.6c0-0.4,0.2-0.8,0.6-0.8c1.8-0.2,3.6-0.5,5.4-0.9l0.2,0 c0.4-0.1,0.8,0.2,0.9,0.6c0.1,0.4-0.2,0.8-0.6,0.9l-0.2,0c-1.8,0.4-3.7,0.7-5.6,0.9C92.3,215.1,92.2,215.1,92.2,215.1z M106.7,211.5c-0.3,0-0.5-0.2-0.6-0.5c-0.1-0.4,0-0.8,0.4-0.9c1.8-0.7,3.5-1.4,5.2-2.3c0.4-0.2,0.8,0,1,0.3c0.2,0.4,0,0.8-0.3,1 c-1.7,0.8-3.5,1.6-5.3,2.3C106.9,211.5,106.8,211.5,106.7,211.5z M120,204.5c-0.2,0-0.4-0.1-0.5-0.3c-0.2-0.3-0.2-0.8,0.2-1 c1.5-1.1,3-2.2,4.5-3.5c0.3-0.3,0.8-0.2,1,0.1c0.3,0.3,0.2,0.8-0.1,1c-1.5,1.2-3,2.4-4.6,3.5C120.3,204.5,120.1,204.5,120,204.5 z M131.1,194.5c-0.2,0-0.3-0.1-0.4-0.2c-0.3-0.3-0.3-0.7-0.1-1c1.2-1.4,2.4-2.9,3.5-4.4c0.2-0.3,0.7-0.4,1-0.2 c0.3,0.2,0.4,0.7,0.2,1c-1.1,1.6-2.3,3.1-3.6,4.5C131.5,194.4,131.3,194.5,131.1,194.5z M139.5,182c-0.1,0-0.2,0-0.3-0.1 c-0.4-0.2-0.5-0.6-0.3-1c0.9-1.7,1.6-3.4,2.3-5.2c0.1-0.4,0.6-0.6,0.9-0.4c0.4,0.1,0.6,0.6,0.4,0.9c-0.7,1.8-1.5,3.6-2.4,5.3 C140,181.9,139.8,182.1,139.5,182z M144.6,167.9c0,0-0.1,0-0.1,0c-0.4-0.1-0.6-0.5-0.5-0.9c0.4-1.8,0.8-3.7,1-5.6 c0.1-0.4,0.4-0.7,0.8-0.6c0.4,0.1,0.7,0.4,0.6,0.8c-0.2,1.9-0.6,3.8-1,5.7C145.2,167.7,144.9,168,144.6,167.9z M146,153 c-0.4,0-0.7-0.3-0.7-0.7c0-1.9-0.2-3.8-0.4-5.6c0-0.4,0.2-0.8,0.6-0.8c0.4,0,0.8,0.2,0.8,0.6c0.2,1.9,0.4,3.9,0.4,5.8 C146.8,152.7,146.5,153,146,153C146.1,153,146.1,153,146,153z M143.8,138.2c-0.3,0-0.6-0.2-0.6-0.5c-0.5-1.8-1.1-3.6-1.8-5.4 c-0.1-0.4,0-0.8,0.4-0.9c0.4-0.1,0.8,0,0.9,0.4c0.7,1.8,1.3,3.6,1.8,5.5c0.1,0.4-0.1,0.8-0.5,0.9 C144,138.2,143.9,138.2,143.8,138.2z"></path> <path class="st1" d="M68,213.1c0,0-0.1,0-0.1,0c-0.9-0.3-1.9-0.6-2.8-0.9c-0.4-0.1-0.6-0.5-0.5-0.9c0.1-0.4,0.5-0.6,0.9-0.5 c0.9,0.3,1.8,0.6,2.7,0.9c0.4,0.1,0.6,0.5,0.5,0.9C68.7,213,68.4,213.2,68,213.1z"></path> </g> <g> <path class="st1" d="M30.8,182.6c-0.2,0-0.5-0.2-0.6-0.4c-0.4-0.9-0.9-1.7-1.3-2.6c-0.2-0.4,0-0.8,0.4-1c0.4-0.2,0.8,0,1,0.4 c0.4,0.9,0.8,1.7,1.3,2.6c0.2,0.4,0,0.8-0.3,1C31,182.6,30.9,182.6,30.8,182.6z"></path> <path class="st1" d="M26.3,171.4c-0.3,0-0.6-0.2-0.6-0.5c-0.4-1.4-0.8-2.9-1.1-4.3c-0.1-0.4-0.2-0.8-0.2-1.2 c-0.1-0.4,0.2-0.8,0.6-0.9c0.4-0.1,0.8,0.2,0.9,0.6c0.1,0.4,0.2,0.8,0.2,1.2c0.3,1.4,0.7,2.8,1.1,4.2c0.1,0.4-0.1,0.8-0.5,0.9 C26.5,171.4,26.4,171.4,26.3,171.4z M23.9,156.9c-0.4,0-0.7-0.3-0.7-0.7c-0.1-1.9-0.1-3.8,0-5.7c0-0.4,0.4-0.7,0.8-0.7 c0.4,0,0.7,0.4,0.7,0.8c-0.1,1.8-0.1,3.7,0,5.6C24.7,156.5,24.4,156.9,23.9,156.9C24,156.9,24,156.9,23.9,156.9z M25.1,142.2 C25.1,142.2,25.1,142.1,25.1,142.2c-0.5-0.1-0.7-0.5-0.7-0.9c0.4-1.9,0.9-3.7,1.4-5.5c0.1-0.4,0.5-0.6,0.9-0.5s0.6,0.5,0.5,0.9 c-0.5,1.8-1,3.6-1.4,5.4C25.8,141.9,25.5,142.2,25.1,142.2z M29.8,128.2c-0.1,0-0.2,0-0.3-0.1c-0.4-0.2-0.5-0.6-0.3-1 c0.8-1.7,1.7-3.4,2.7-5c0.2-0.3,0.7-0.5,1-0.3c0.3,0.2,0.5,0.7,0.3,1c-0.9,1.6-1.8,3.2-2.6,4.9C30.4,128,30.1,128.2,29.8,128.2z M37.8,115.7c-0.1,0-0.3-0.1-0.4-0.2c-0.3-0.3-0.4-0.7-0.1-1c1.2-1.5,2.5-2.9,3.8-4.2c0.3-0.3,0.7-0.3,1,0c0.3,0.3,0.3,0.7,0,1 c-1.3,1.3-2.5,2.7-3.7,4.1C38.2,115.6,38,115.7,37.8,115.7z M48.4,105.5c-0.2,0-0.4-0.1-0.5-0.3c-0.2-0.3-0.2-0.8,0.1-1 c1.5-1.1,3.1-2.2,4.7-3.2c0.3-0.2,0.8-0.1,1,0.2c0.2,0.3,0.1,0.8-0.2,1c-1.6,1-3.1,2-4.6,3.1C48.8,105.5,48.6,105.5,48.4,105.5z M61.2,98.2c-0.3,0-0.5-0.2-0.6-0.4c-0.2-0.4,0-0.8,0.4-1c1.7-0.7,3.5-1.4,5.3-2c0.4-0.1,0.8,0.1,0.9,0.5 c0.1,0.4-0.1,0.8-0.5,0.9c-1.8,0.6-3.5,1.2-5.2,1.9C61.4,98.2,61.3,98.2,61.2,98.2z M75.4,94.1c-0.3,0-0.6-0.3-0.7-0.6 c-0.1-0.4,0.2-0.8,0.6-0.8c1.9-0.3,3.8-0.5,5.7-0.6c0.4,0,0.7,0.3,0.8,0.7c0,0.4-0.3,0.7-0.7,0.8c-1.8,0.1-3.7,0.3-5.5,0.6 C75.5,94.1,75.5,94.1,75.4,94.1z M95.7,94.3C95.7,94.3,95.7,94.3,95.7,94.3c-1.9-0.3-3.8-0.6-5.6-0.7c-0.4,0-0.7-0.4-0.7-0.8 c0-0.4,0.4-0.7,0.8-0.7h0c1.9,0.2,3.8,0.4,5.7,0.7c0.4,0.1,0.7,0.4,0.6,0.8C96.4,94.1,96.1,94.4,95.7,94.3z"></path> <path class="st1" d="M107.3,97.6c-0.1,0-0.1,0-0.2,0c-0.9-0.3-1.8-0.7-2.7-1c-0.4-0.1-0.6-0.5-0.5-0.9c0.1-0.4,0.5-0.6,0.9-0.5 c0.9,0.3,1.9,0.7,2.8,1c0.4,0.1,0.6,0.6,0.4,0.9C107.9,97.5,107.6,97.6,107.3,97.6z"></path> </g> <g> <path class="st1" d="M107.6,112.6c-0.3-0.2-0.6-0.2-0.9,0l-7.2,5.3c-3.9-1.5-8-2.5-12.3-2.7l-4.3-7.8c-0.2-0.3-0.5-0.4-0.8-0.4 l-10.5,1.9c-0.3,0.1-0.5,0.3-0.6,0.6l-1.4,8.8c-3.9,1.7-7.5,4-10.6,6.8l-8.6-2.4c-0.3-0.1-0.6,0-0.8,0.3l-6.1,8.8 c-0.2,0.3-0.2,0.6,0,0.9l5.3,7.2c-1.5,3.9-2.5,8-2.7,12.3l-7.8,4.3c-0.3,0.2-0.4,0.5-0.4,0.8l1.9,10.5c0.1,0.3,0.3,0.5,0.6,0.6 l8.8,1.4c1.7,3.9,4,7.5,6.8,10.6l-2.4,8.6c-0.1,0.3,0,0.6,0.3,0.8l8.8,6.1c0.3,0.2,0.6,0.2,0.9,0l7.2-5.3 c3.9,1.5,8,2.5,12.3,2.7l4.3,7.8c0.2,0.3,0.5,0.4,0.8,0.4l10.5-1.9c0.3-0.1,0.5-0.3,0.6-0.6l1.4-8.8c3.9-1.7,7.5-4,10.6-6.8 l8.6,2.4c0.3,0.1,0.6,0,0.8-0.3l6.1-8.8c0.2-0.3,0.2-0.6,0-0.9l-5.3-7.2c1.5-3.9,2.5-8,2.7-12.3l7.8-4.3 c0.3-0.2,0.4-0.5,0.4-0.8l-1.9-10.5c-0.1-0.3-0.3-0.5-0.6-0.6l-8.8-1.4c-1.7-3.9-4-7.5-6.8-10.6l2.4-8.6c0.1-0.3,0-0.6-0.3-0.8 L107.6,112.6z"></path> <g> <path class="st2" d="M84.3,164.8c-1-0.1-2-0.3-3-0.7c-2.6-1-4.7-3-5.9-5.5c-1.2-2.6-1.3-5.5-0.3-8.1s3-4.7,5.5-5.9 c2.6-1.2,5.5-1.3,8.1-0.3c2.6,1,4.7,3,5.9,5.5c1.2,2.6,1.3,5.5,0.3,8.1s-3,4.7-5.5,5.9C87.8,164.6,86.1,164.9,84.3,164.8z M85.7,145.8c-1.4-0.1-2.8,0.1-4.1,0.7c-4.2,1.9-6.1,6.9-4.2,11.1c0.9,2.1,2.6,3.6,4.7,4.4c2.1,0.8,4.4,0.7,6.4-0.2 c2.1-0.9,3.6-2.6,4.4-4.7c0.8-2.1,0.7-4.4-0.2-6.4c-0.9-2.1-2.6-3.6-4.7-4.4C87.3,146,86.5,145.9,85.7,145.8z"></path> </g> <path class="st2" d="M83,181.2c-4.7-0.4-9.3-2-13.3-4.8c-5.9-4.1-9.8-10.3-11.1-17.3c-0.4-2.3-0.5-4.6-0.4-6.8 c0.4-4.7,2-9.3,4.8-13.3c4.1-5.9,10.3-9.8,17.3-11.1c0.2,0,0.4-0.1,0.6-0.1c1.5-0.2,3.1-0.4,4.6-0.3c0.2,0,0.4,0,0.6,0l-0.1,2.2 c-1.7-0.1-3.5,0.1-5.3,0.4l0,0c-6.2,1.1-11.6,4.4-15.3,9.4c-0.2,0.3-0.4,0.6-0.6,0.9c-2.6,3.7-4,7.9-4.4,12.2 c-0.2,2.1,0,4.2,0.3,6.3c1.2,6.5,4.8,12.2,10.2,15.9c5.4,3.8,12,5.2,18.5,4c11.3-2,19.5-11.5,20.3-22.5c0.2-2,0.1-4.1-0.3-6.2 c-0.8-4.4-2.8-8.5-5.7-11.9l1.6-1.4c3.2,3.7,5.3,8.1,6.2,12.9c0.4,2.3,0.5,4.5,0.4,6.7c-0.9,11.9-9.8,22.3-22.1,24.5 C87.5,181.3,85.2,181.4,83,181.2z"></path> </g> </g> <g> <g> <path class="st1" d="M217,96.2c-0.3,0-0.6-0.2-0.8-0.5c-0.6-1.1-1.2-2.2-1.9-3.3c-0.3-0.5-0.2-1,0.3-1.3c0.5-0.3,1-0.2,1.3,0.3 c0.7,1.1,1.4,2.3,2,3.4c0.2,0.5,0.1,1.1-0.4,1.3C217.3,96.1,217.2,96.2,217,96.2z"></path> <path class="st1" d="M182.7,156.8c-0.5,0-0.9-0.4-0.9-0.9c0-0.5,0.4-1,0.9-1c1.9-0.1,3.8-0.4,5.6-0.8c0.7-0.1,1.3-0.3,1.9-0.5 c0.5-0.1,1,0.2,1.2,0.7c0.1,0.5-0.2,1-0.7,1.2c-0.7,0.2-1.3,0.3-2,0.5c-1.9,0.4-3.9,0.7-5.9,0.8 C182.8,156.8,182.7,156.8,182.7,156.8z M202.1,150.5c-0.3,0-0.6-0.2-0.7-0.4c-0.3-0.5-0.2-1.1,0.3-1.3c2.2-1.4,4.2-2.9,6.1-4.7 c0.4-0.4,1-0.3,1.4,0c0.4,0.4,0.3,1,0,1.4c-2,1.8-4.1,3.5-6.3,4.9C202.5,150.4,202.3,150.5,202.1,150.5z M216.1,135.7 c-0.1,0-0.3-0.1-0.4-0.1c-0.5-0.3-0.6-0.9-0.4-1.3c1.3-2.2,2.3-4.6,3.1-7c0.2-0.5,0.7-0.8,1.2-0.6s0.8,0.7,0.6,1.2 c-0.9,2.5-2,5-3.3,7.3C216.8,135.5,216.5,135.7,216.1,135.7z M221.5,116c-0.5,0-0.9-0.5-0.9-1c0.1-2.5-0.1-5.1-0.6-7.6 c-0.1-0.5,0.3-1,0.8-1.1c0.5-0.1,1,0.3,1.1,0.8c0.4,2.6,0.6,5.3,0.6,8C222.6,115.6,222.1,116.1,221.5,116 C221.6,116,221.5,116,221.5,116z"></path> <path class="st1" d="M170,155.7c-0.1,0-0.1,0-0.2,0c-1.3-0.3-2.6-0.7-3.8-1.1c-0.5-0.2-0.8-0.7-0.6-1.2c0.2-0.5,0.7-0.8,1.2-0.6 c1.2,0.4,2.4,0.8,3.6,1.1c0.5,0.1,0.8,0.6,0.7,1.2C170.9,155.5,170.4,155.8,170,155.7z"></path> </g> <g> <path class="st1" d="M142.7,134.4c-0.3,0-0.6-0.2-0.8-0.5c-0.6-1.2-1.2-2.4-1.7-3.6c-0.2-0.5,0-1.1,0.5-1.3 c0.5-0.2,1.1,0,1.3,0.5c0.5,1.2,1,2.3,1.6,3.4c0.2,0.5,0.1,1.1-0.4,1.3C143,134.4,142.8,134.4,142.7,134.4z"></path> <path class="st1" d="M138.1,118.7c-0.5,0-0.8-0.4-0.9-0.9c-0.2-2.3-0.2-4.6,0-6.9c0-0.3,0.1-0.7,0.1-1c0.1-0.5,0.5-0.9,1.1-0.9 c0.5,0.1,0.9,0.5,0.9,1.1c0,0.3-0.1,0.6-0.1,1c-0.2,2.2-0.1,4.4,0,6.6c0,0.5-0.3,1-0.9,1C138.2,118.7,138.2,118.7,138.1,118.7z M141.2,98.9c-0.1,0-0.2,0-0.3-0.1c-0.5-0.2-0.7-0.8-0.5-1.3c1-2.4,2.3-4.8,3.7-7c0.3-0.4,0.9-0.6,1.3-0.3 c0.4,0.3,0.6,0.9,0.3,1.3c-1.4,2.1-2.6,4.3-3.5,6.6C142,98.7,141.6,98.9,141.2,98.9z M153.2,82.8c-0.3,0-0.5-0.1-0.7-0.3 c-0.3-0.4-0.3-1,0.1-1.4c2-1.7,4.2-3.2,6.5-4.4c0.5-0.3,1.1-0.1,1.3,0.4c0.3,0.5,0.1,1.1-0.4,1.3c-2.2,1.2-4.3,2.6-6.2,4.2 C153.7,82.8,153.5,82.9,153.2,82.8z M171.3,74.2c-0.4,0-0.8-0.3-0.9-0.8c-0.1-0.5,0.2-1,0.8-1.1c2.6-0.5,5.2-0.8,7.8-0.9 c0.5,0,1,0.4,1,0.9s-0.4,1-0.9,1c-2.5,0-5,0.3-7.5,0.8C171.5,74.2,171.4,74.2,171.3,74.2z"></path> <path class="st1" d="M195.1,76.2c-0.1,0-0.2,0-0.3-0.1c-1.2-0.5-2.4-0.9-3.6-1.2c-0.5-0.1-0.8-0.7-0.7-1.2 c0.1-0.5,0.7-0.8,1.2-0.7c1.3,0.4,2.5,0.8,3.7,1.3c0.5,0.2,0.7,0.8,0.5,1.3C195.9,76,195.5,76.3,195.1,76.2z"></path> </g> <g> <path class="st1" d="M195.3,86c-0.2-0.1-0.4-0.1-0.6,0l-4.9,3.6c-2.6-1.1-5.5-1.7-8.4-1.8l-3-5.3c-0.1-0.2-0.3-0.3-0.5-0.2 l-7.2,1.3c-0.2,0-0.4,0.2-0.4,0.4l-0.9,6c-2.7,1.2-5.1,2.7-7.2,4.7l-5.9-1.7c-0.2-0.1-0.4,0-0.5,0.2l-4.2,6 c-0.1,0.2-0.1,0.4,0,0.6l3.6,4.9c-1.1,2.6-1.7,5.5-1.8,8.4l-5.3,3c-0.2,0.1-0.3,0.3-0.2,0.5l1.3,7.2c0,0.2,0.2,0.4,0.4,0.4 l6,0.9c1.2,2.7,2.7,5.1,4.7,7.2l-1.7,5.9c-0.1,0.2,0,0.4,0.2,0.5l6,4.2c0.2,0.1,0.4,0.1,0.6,0l4.9-3.6c2.6,1.1,5.5,1.7,8.4,1.8 l3,5.3c0.1,0.2,0.3,0.3,0.5,0.2l7.2-1.3c0.2,0,0.4-0.2,0.4-0.4l0.9-6c2.7-1.2,5.1-2.7,7.2-4.7l5.9,1.7c0.2,0.1,0.4,0,0.5-0.2 l4.2-6c0.1-0.2,0.1-0.4,0-0.6l-3.6-4.9c1.1-2.6,1.7-5.5,1.8-8.4l5.3-3c0.2-0.1,0.3-0.3,0.2-0.5l-1.3-7.2c0-0.2-0.2-0.4-0.4-0.4 l-6-0.9c-1.2-2.7-2.7-5.1-4.7-7.2l1.7-5.9c0.1-0.2,0-0.4-0.2-0.5L195.3,86z"></path> <g> <path class="st2" d="M179.3,122.4c-2.8-0.2-5.4-1.9-6.7-4.7c-1.8-4,0-8.7,4-10.5l0,0c4-1.8,8.7,0,10.5,4c1.8,4,0,8.7-4,10.5 C181.9,122.3,180.6,122.5,179.3,122.4z M177.8,109.9c-2.5,1.1-3.7,4.1-2.5,6.7c1.1,2.5,4.1,3.7,6.7,2.5 c2.5-1.1,3.7-4.1,2.5-6.7C183.3,109.9,180.3,108.7,177.8,109.9L177.8,109.9z"></path> </g> <path class="st2" d="M178.4,133.7c-3.4-0.3-6.6-1.4-9.5-3.4c-4.2-2.9-7-7.3-7.9-12.3c-0.3-1.6-0.4-3.2-0.3-4.8 c0.3-3.4,1.4-6.6,3.4-9.5c2.9-4.2,7.3-7,12.3-7.9c1.3-0.2,2.7-0.3,4.1-0.3l-0.1,2.9c-1.1,0-2.3,0-3.4,0.2 c-4.1,0.7-7.6,2.9-10.1,6.2c0,0-0.1,0.1-0.1,0.1c-0.1,0.1-0.1,0.2-0.2,0.3c-1.7,2.4-2.6,5.2-2.9,8c-0.1,1.4,0,2.7,0.2,4.1 c0.8,4.3,3.1,8,6.7,10.5c3.6,2.5,7.9,3.4,12.1,2.6c4.3-0.8,8-3.1,10.5-6.7c1.7-2.4,2.6-5.2,2.9-8c0.1-1.4,0-2.7-0.2-4.1 c-0.5-2.9-1.8-5.6-3.7-7.8l2.2-1.9c2.3,2.6,3.8,5.8,4.4,9.2c0.3,1.6,0.4,3.2,0.3,4.8c-0.3,3.4-1.4,6.6-3.4,9.5 c-2.9,4.2-7.3,7-12.3,7.9C181.6,133.7,179.9,133.8,178.4,133.7z"></path> </g> </g> </g> <g> <g> <linearGradient id="SVGID_2_" gradientUnits="userSpaceOnUse" x1="380.8022" y1="1306.9645" x2="333.0601" y2="1381.691" gradientTransform="matrix(0.9618 0.2737 0.2737 -0.9618 -550.394 1569.9832)"> <stop offset="0" style="stop-color:#4F52FF"></stop> <stop offset="1" style="stop-color:#4042E2"></stop> </linearGradient> <path class="st3" d="M153.7,290.1c-25.1-5.5-6.2-42.8-5.3-44.3l-45,15.8c0,0-4,21.7,24,41.6c7.1,5,14.3,7.2,21,7.7 C147.9,302.3,150.5,295.3,153.7,290.1z"></path> <linearGradient id="SVGID_3_" gradientUnits="userSpaceOnUse" x1="325.4959" y1="1420.6104" x2="393.1824" y2="1420.6104" gradientTransform="matrix(0.9618 0.2737 0.2737 -0.9618 -550.394 1569.9832)"> <stop offset="0" style="stop-color:#FEBBBA"></stop> <stop offset="1" style="stop-color:#FF928E"></stop> </linearGradient> <path class="st4" d="M204.8,291.9c-7.4-9-19.6-5.6-19.6-5.6c-14.6,4.5-24.7,5.4-31.5,3.9c-3.2,5.2-5.8,12.1-5.3,20.8 c14.6,1,27.3-6.2,33.1-10.1c2.1-1.4,4.9-0.9,6.4,1.1c1.5,2.1,2.8,4.7,1.8,6.7c-1.9,4.1,2.7,6.9,3.5,5.4s1.4-11.3,1.4-11.3 s7.1,12.9,9.9,17.8c2.8,5,8.8,2.5,8.8,2.5S212.2,300.9,204.8,291.9z"></path> <path class="st5" d="M53.4,195.5c0,0,31.6-24.9,114.5,10.5c0,0,9,9.9,5.9,21.9c-3.1,12.1-46.2,79.1-46,109.2 c0,0-31.2,21.4-74.7,5.3C53.2,342.4,33.6,264.3,53.4,195.5z"></path> <linearGradient id="SVGID_4_" gradientUnits="userSpaceOnUse" x1="81.5637" y1="123.7194" x2="135.8883" y2="195.8692" gradientTransform="matrix(1 0 0 -1 0 368)"> <stop offset="0" style="stop-color:#FEBBBA"></stop> <stop offset="1" style="stop-color:#FF928E"></stop> </linearGradient> <path class="st6" d="M120.5,161.8l-11.3,26.6c-1.1,2.6-0.6,5.7,1.3,7.8c3.9,4.3,11.9,9.8,24.5,5c3.7-1.4,6.5-4.7,7.1-8.7 l4.8-29.1L120.5,161.8z"></path> <path class="st5" d="M52.7,295.2c-9.2-15.7,21.9-65.9,21.9-65.9l-21.1-33.9c0,0-73.2,87.4-35.6,129.3c5.4,6,11.2,9.6,17.3,11.4 C36.7,314.2,45.7,301.7,52.7,295.2z"></path> <linearGradient id="SVGID_5_" gradientUnits="userSpaceOnUse" x1="125.8034" y1="143.2074" x2="64.9715" y2="108.123" gradientTransform="matrix(1 0 0 -1 0 368)"> <stop offset="0" style="stop-color:#09005D"></stop> <stop offset="1" style="stop-color:#1A0F91"></stop> </linearGradient> <path class="st7" d="M51.9,295.2c-0.4,0.1-0.9-0.1-1.2-0.5c-9.4-16.1,20.6-64.9,21.9-67c0.3-0.5,0.9-0.6,1.4-0.3 c0.5,0.3,0.6,0.9,0.3,1.4c-0.3,0.5-30.6,49.8-21.8,64.8c0.3,0.5,0.1,1.1-0.4,1.4C52.1,295.2,52,295.2,51.9,295.2z"></path> <linearGradient id="SVGID_6_" gradientUnits="userSpaceOnUse" x1="-41.6044" y1="-250.1347" x2="-213.5565" y2="-548.9366" gradientTransform="matrix(0.9977 -6.820000e-02 -6.820000e-02 -0.9977 134.909 55.3379)"> <stop offset="0" style="stop-color:#FEBBBA"></stop> <stop offset="1" style="stop-color:#FF928E"></stop> </linearGradient> <path class="st8" d="M126.2,293.5c-5.6,1.6-10.8,4.3-16.5,5.8c-6.3,1.6-12.5,3.5-18.8,4.9c-9.8,2.2-22.7,4.7-31.3-2 c-0.7-0.6-6.6-7.2-7-6.9C37,304.3,34,325.4,34,335.6c28.5,15.6,73.4-14.8,85.5-23.7c2-1.5,4.4-2.1,6.9-1.8 c4.9,0.7,13.5,1.6,17.9,0.6c6.6-1.5,17.7,21.3,28,13.3C172.3,324.1,160.3,284.1,126.2,293.5z"></path> <g> <linearGradient id="SVGID_7_" gradientUnits="userSpaceOnUse" x1="275.1042" y1="273.5564" x2="219.7001" y2="231.1637" gradientTransform="matrix(0.9938 0.1109 0.1109 -0.9938 -146.5983 385.2714)"> <stop offset="0" style="stop-color:#FEBBBA"></stop> <stop offset="1" style="stop-color:#FF928E"></stop> </linearGradient> <path class="st9" d="M157.3,124.2c0,0,7.2,23.2,6.5,34.9c-0.6,11.7,1,19.5-12.7,20.3c-13.7,0.8-24.3-7.1-29.1-19.4 c0,0-7.6-18.9-4.6-26C120.4,127.1,157.3,124.2,157.3,124.2z"></path> <linearGradient id="SVGID_8_" gradientUnits="userSpaceOnUse" x1="236.163" y1="307.0104" x2="286.3345" y2="242.4146" gradientTransform="matrix(0.9938 0.1109 0.1109 -0.9938 -146.5983 385.2714)"> <stop offset="0" style="stop-color:#09005D"></stop> <stop offset="1" style="stop-color:#1A0F91"></stop> </linearGradient> <path class="st10" d="M127.6,152.3l1.7,0.2c0,0-5.4-15.1,1-17c6.4-1.8,31.3-4.1,37.5-12.1c6-7.8,2.7-19-3.7-22.8 c-0.4-0.2-0.9-0.1-1.2,0.3l-0.7,1c-0.5,0.7-1.5,0.5-1.7-0.4l0,0c-0.1-0.8-1.1-1-1.6-0.4c-1.9,2.4-6.7,6.1-18.6,7 c-16.9,1.2-28.6,6.7-30.2,18.1c-0.1,0.7-0.9,1-1.5,0.6c-1.1-0.9-3.1-1.5-5.9,0.5c-5,3.3-4.2,13.4,4.8,22.7 c0.4,0.4,0.3,1.2-0.2,1.5c-1.9,1-4.9,3.5,1.6,8c6.7,4.6,11,4.7,12.6,4.4c0.4-0.1,0.8-0.4,0.8-0.9l0.5-10.2c0-0.5,0.5-0.9,1-0.9 L127.6,152.3z"></path> <linearGradient id="SVGID_9_" gradientUnits="userSpaceOnUse" x1="268.2289" y1="282.5409" x2="212.8246" y2="240.1483" gradientTransform="matrix(0.9938 0.1109 0.1109 -0.9938 -146.5983 385.2714)"> <stop offset="0" style="stop-color:#FEBBBA"></stop> <stop offset="1" style="stop-color:#FF928E"></stop> </linearGradient> <path class="st11" d="M127.7,154.4c0,0-2.1-14.5-8.9-11.3c-6.8,3.3,1.5,16.2,6.6,17.3L127.7,154.4z"></path> </g> <path class="st12" d="M105.5,337.6c0.1,0,0.2,0,0.3,0l115.1-1.8c2.8,0,5.1-2.3,5.1-5c-0.1-2.7-2.4-4.9-5.3-4.8l-115.1,1.8 c-2.8,0-5.1,2.3-5.1,5C100.5,335.4,102.8,337.5,105.5,337.6z"></path> </g> <g> <g> <g> <linearGradient id="SVGID_10_" gradientUnits="userSpaceOnUse" x1="148.2759" y1="230.5106" x2="104.9859" y2="172.2249" gradientTransform="matrix(1 0 0 -1 0 368)"> <stop offset="0" style="stop-color:#4F52FF"></stop> <stop offset="1" style="stop-color:#4042E2"></stop> </linearGradient> <path class="st13" d="M150.3,169c-20.5,1.7-37.3-14.3-37.4-14.6v-3.6c0.1,0.2,17.8,18.1,37.3,16.4L150.3,169z"></path> </g> <linearGradient id="SVGID_11_" gradientUnits="userSpaceOnUse" x1="165.1991" y1="215.123" x2="139.4515" y2="181.4531" gradientTransform="matrix(1 0 0 -1 0 368)"> <stop offset="0" style="stop-color:#4F52FF"></stop> <stop offset="1" style="stop-color:#4042E2"></stop> </linearGradient> <path class="st14" d="M158.7,168.2c0,1.4-1,2.5-2.2,2.5h-5.9c-1.2,0-2.2-1.1-2.2-2.5l0,0c0-1.4,1-2.5,2.2-2.5h5.9 C157.7,165.7,158.7,166.8,158.7,168.2L158.7,168.2z"></path> </g> <g> <linearGradient id="SVGID_12_" gradientUnits="userSpaceOnUse" x1="203.4151" y1="67.881" x2="11.5511" y2="36.1818" gradientTransform="matrix(0.9856 -0.1691 -0.1691 -0.9856 4.9925 197.9727)"> <stop offset="0" style="stop-color:#4F52FF"></stop> <stop offset="1" style="stop-color:#4042E2"></stop> </linearGradient> <path class="st15" d="M123.4,132.7c0,0-4.7-25,24.2-25.1c0.4,0,0.5-0.6,0.1-0.7c-7.9-1.8-30.9-4.5-31.2,25.5 C120.8,133.9,123.4,132.7,123.4,132.7z"></path> <linearGradient id="SVGID_13_" gradientUnits="userSpaceOnUse" x1="138.9085" y1="251.986" x2="117.688" y2="218.5991" gradientTransform="matrix(1 0 0 -1 0 368)"> <stop offset="0" style="stop-color:#4F52FF"></stop> <stop offset="1" style="stop-color:#4042E2"></stop> </linearGradient> <path class="st16" d="M118.1,129.6c-11.3,2.3-9.9,16.5-9.9,16.5c-0.8,10.3,2.2,15.5,6.1,17.9c2.6,1.7,6,1.8,8.8,0.4 c2.8-1.4,4.6-4.2,4.9-7.3c0.2-2.8,0.4-5.5,0.7-6.4C129.1,148.4,129.3,127.3,118.1,129.6z"></path> </g> <linearGradient id="SVGID_14_" gradientUnits="userSpaceOnUse" x1="118.9878" y1="219.0493" x2="81.0739" y2="295.1602" gradientTransform="matrix(1 0 0 -1 0 368)"> <stop offset="0" style="stop-color:#4F52FF"></stop> <stop offset="1" style="stop-color:#4042E2"></stop> </linearGradient> <path class="st17" d="M119.1,133.2c-2.3-0.4-4.6,0.8-5.6,3c-6.7,15.6,1.5,25.8,5.6,26c4.3,0.2,4.2-20.4,3.3-25.6 C122,134.3,120.6,133.5,119.1,133.2z"></path> </g> </g> <g> <path class="st18" d="M13.1,341.5c-0.2-1.4,0.1-2.9,0.7-4s1.6-1.8,2.6-1.8H359c1.3,0,2.6,1,3.3,2.6c0.7,1.6,0.8,3.6,0.3,5.4 l-3.7,11.5c-0.9,2.6-2.7,4.3-4.7,4.3H18.8c-1.9,0-3.5-1.9-3.9-4.6L13.1,341.5z"></path> <path class="st1" d="M354.1,359.9H18.8c-2.1,0-3.9-2.1-4.3-4.9l-1.8-13.4c-0.2-1.5,0.1-3.1,0.8-4.3c0.7-1.3,1.8-2,3-2H359 c1.5,0,2.9,1.1,3.7,2.8c0.8,1.7,0.9,3.8,0.3,5.7l-3.7,11.5C358.4,358.1,356.3,359.9,354.1,359.9z M13.6,341.4l1.8,13.4 c0.3,2.4,1.8,4.2,3.4,4.2h335.3c1.8,0,3.5-1.6,4.3-4l3.7-11.5c0.5-1.6,0.4-3.5-0.2-5c-0.7-1.5-1.7-2.3-2.9-2.3H16.5 c-0.9,0-1.7,0.6-2.2,1.6C13.6,338.8,13.4,340.1,13.6,341.4L13.6,341.4z"></path> </g> <g> <linearGradient id="SVGID_15_" gradientUnits="userSpaceOnUse" x1="255.2348" y1="157.2791" x2="292.1882" y2="62.7844" gradientTransform="matrix(1 0 0 -1 0 368)"> <stop offset="0" style="stop-color:#09005D"></stop> <stop offset="1" style="stop-color:#1A0F91"></stop> </linearGradient> <path class="st19" d="M194.3,205c-1.9,15.8-10.6,80.1-13.1,98.4c-0.4,2.6,1.7,4.9,4.3,4.8l147.7-4.2c1.9-0.1,3.6-1.4,4-3.3 l23-103.5c0.6-2.7-1.6-5.3-4.4-5.1l-157.5,9.2C196.2,201.4,194.5,203,194.3,205z"></path> <g> <linearGradient id="SVGID_16_" gradientUnits="userSpaceOnUse" x1="250.7876" y1="119.7132" x2="271.9039" y2="-10.1512" gradientTransform="matrix(1 0 0 -1 0 368)"> <stop offset="0" style="stop-color:#09005D"></stop> <stop offset="1" style="stop-color:#1A0F91"></stop> </linearGradient> <path class="st20" d="M253.6,269.9l-21.8,61.9l50.7,1.1l4.2-62.7c0.2-2.9-2.2-5.4-5.2-5.2l-23.7,1.6 C256,266.8,254.3,268,253.6,269.9z"></path> <path class="st1" d="M283,333.3l-0.4,0l-51.3-1.1l22-62.5c0.7-2,2.5-3.4,4.6-3.5l23.7-1.6c1.5-0.1,3,0.5,4.1,1.5 c1.1,1.1,1.6,2.6,1.5,4.1L283,333.3z M232.4,331.4l49.8,1.1l4.2-62.2c0.1-1.3-0.4-2.5-1.3-3.4s-2.2-1.4-3.4-1.3l-23.7,1.6 c-1.8,0.1-3.3,1.3-3.9,3L232.4,331.4z"></path> </g> <g> <linearGradient id="SVGID_17_" gradientUnits="userSpaceOnUse" x1="241.2827" y1="44.1742" x2="303.5755" y2="3.3496" gradientTransform="matrix(1 0 0 -1 0 368)"> <stop offset="0" style="stop-color:#09005D"></stop> <stop offset="1" style="stop-color:#1A0F91"></stop> </linearGradient> <path class="st21" d="M211.2,332.7L211.2,332.7c-0.6,1.7,0.7,3.5,2.5,3.5h79.5c1.5,0,2.6-1.2,2.6-2.6v-3.4c0-1.5-1.3-2.7-2.7-2.6 l-79.5,3.4C212.5,330.9,211.6,331.7,211.2,332.7z"></path> <path class="st1" d="M293.2,336.6h-79.5c-1,0-1.9-0.5-2.5-1.3c-0.6-0.8-0.7-1.8-0.4-2.7c0.4-1.2,1.5-2.1,2.8-2.1l79.5-3.4 c0.8,0,1.6,0.3,2.3,0.8c0.6,0.6,0.9,1.4,0.9,2.2v3.4C296.3,335.2,294.9,336.6,293.2,336.6z M293.2,327.9 C293.2,327.9,293.2,327.9,293.2,327.9l-79.6,3.4c-0.9,0-1.7,0.7-2,1.5l0,0c-0.2,0.7-0.1,1.4,0.3,2s1.1,0.9,1.8,0.9h79.5 c1.2,0,2.2-1,2.2-2.2v-3.4c0-0.6-0.2-1.2-0.7-1.6C294.3,328.1,293.8,327.9,293.2,327.9z"></path> </g> <path class="st1" d="M192,270.4l-1-0.1l7.3-57.2c0.5-3.5,3.4-6.3,6.9-6.5l136.1-8.2l0.1,1.1l-136.1,8.2c-3.1,0.2-5.6,2.5-6,5.6 L192,270.4z"></path> <rect x="182.4" y="292.3" transform="matrix(0.1251 -0.9921 0.9921 0.1251 -125.4374 443.3546)" class="st1" width="12.5" height="1.1"></rect> </g> <linearGradient id="SVGID_18_" gradientUnits="userSpaceOnUse" x1="282.2998" y1="328.2066" x2="-16.9409" y2="-230.7999" gradientTransform="matrix(1 0 0 -1 0 368)"> <stop offset="0" style="stop-color:#FF928E"></stop> <stop offset="1" style="stop-color:#FE7062"></stop> </linearGradient> <path class="st22" d="M239.2,53v31.9c0,3.8,3,6.9,6.8,7.1l39.8,1.9c4,0.2,7.4-3,7.4-7.1V53c0-3.9-3.2-7.1-7.1-7.1h-39.8 C242.4,45.9,239.2,49.1,239.2,53z"></path> <g> <g> <g> <g> <g> <g> <path class="st23" d="M254.4,61.6l-1.6-5.8l-4.5-2.5l-0.6,1.1l4.1,2.2l4.8,17.7l0.1,0.5h19.7c1.9,0,3.7-0.9,4.7-2.6l0.9-1.2 c1-1.5,1.6-3.2,1.6-4.9v-4.7C283.7,61.6,254.4,61.6,254.4,61.6z M282.3,66.3c0,1.5-0.5,3-1.3,4.3l-0.8,1.3 c-0.8,1.3-2.2,2.1-3.7,2.1h-18.8l-1-3.8l-2-7.2h27.5L282.3,66.3L282.3,66.3z"></path> </g> <g> <path class="st23" d="M281,81.4c0,0.4-0.3,0.7-0.6,0.7h-23.2c-0.4,0-0.7-0.5-0.7-0.9V70.3c0-0.1,0.1-0.1,0.1-0.2l1.1,3.9h0.2 v6.7h22.4C280.7,80.7,281,81,281,81.4z"></path> </g> </g> <g> <rect x="268.2" y="62.2" class="st23" width="0.8" height="11.9"></rect> <g> <rect x="260.7" y="62.2" class="st23" width="0.8" height="11.9"></rect> <rect x="275.5" y="62.2" class="st23" width="0.8" height="11.9"></rect> </g> </g> <g> <rect x="255.1" y="65.7" class="st23" width="27.5" height="0.8"></rect> <rect x="256.3" y="69.9" class="st23" width="25.6" height="0.8"></rect> </g> </g> <path class="st23" d="M260.2,82.9c-1.5,0-2.7,1.2-2.7,2.7c0,1.5,1.2,2.7,2.7,2.7c1.5,0,2.7-1.2,2.7-2.7 C262.9,84.2,261.7,82.9,260.2,82.9z M260.2,87.3c-0.9,0-1.7-0.7-1.7-1.7c0-0.9,0.7-1.7,1.7-1.7c0.9,0,1.7,0.7,1.7,1.7 C261.8,86.6,261.1,87.3,260.2,87.3z"></path> <path class="st23" d="M277.2,82.9c-1.5,0-2.7,1.2-2.7,2.7c0,1.5,1.2,2.7,2.7,2.7c1.5,0,2.7-1.2,2.7-2.7 C279.9,84.2,278.7,82.9,277.2,82.9z M277.2,87.3c-0.9,0-1.7-0.7-1.7-1.7c0-0.9,0.7-1.7,1.7-1.7c0.9,0,1.7,0.7,1.7,1.7 C278.8,86.6,278.1,87.3,277.2,87.3z"></path> </g> <path class="st23" d="M251.1,54.5c0,0.7-0.6,1.3-1.3,1.3h-4.3c-0.7,0-1.3-0.6-1.3-1.3l0,0c0-0.7,0.6-1.3,1.3-1.3h4.3 C250.5,53.2,251.1,53.8,251.1,54.5L251.1,54.5z"></path> </g> </g> <linearGradient id="SVGID_19_" gradientUnits="userSpaceOnUse" x1="201.888" y1="371.2517" x2="-97.3519" y2="-187.7533" gradientTransform="matrix(1 0 0 -1 0 368)"> <stop offset="0" style="stop-color:#FF928E"></stop> <stop offset="1" style="stop-color:#FE7062"></stop> </linearGradient> <path class="st24" d="M152.8,16.2v34.2c0,4.1,3.2,7.4,7.2,7.6l42.7,2c4.3,0.2,8-3.3,8-7.6V16.2c0-4.2-3.4-7.6-7.6-7.6h-42.7 C156.2,8.6,152.8,12,152.8,16.2z"></path> <g> <path class="st23" d="M196.6,49.8h-29.5c-2.2,0-4-1.8-4-4V24.2c0-2.2,1.8-4,4-4h29.5c2.2,0,4,1.8,4,4v21.5 C200.6,48,198.8,49.8,196.6,49.8z M167.1,22.9c-0.8,0-1.4,0.6-1.4,1.4v21.5c0,0.8,0.6,1.4,1.4,1.4h29.5c0.8,0,1.4-0.6,1.4-1.4 V24.2c0-0.8-0.6-1.4-1.4-1.4C196.6,22.9,167.1,22.9,167.1,22.9z"></path> <path class="st23" d="M181.9,35.5c-0.3,0-0.5-0.1-0.8-0.2l-16.5-11.7c-0.6-0.4-0.7-1.2-0.3-1.8c0.4-0.6,1.2-0.7,1.8-0.3l15.7,11.2 l15.5-11c0.6-0.4,1.4-0.3,1.8,0.3c0.4,0.6,0.3,1.4-0.3,1.8l-16.3,11.6C182.4,35.4,182.1,35.5,181.9,35.5z"></path> <path class="st23" d="M165.6,48.8l-0.4-2.6l0.2,1.3l-1.1-0.7c0.3-0.5,6.3-10.9,10.2-17.8c0.4-0.6,1.2-0.9,1.8-0.5 c0.6,0.4,0.9,1.2,0.5,1.8c0,0-2.5,4.5-5.1,8.9c-1.3,2.2-2.5,4.5-3.5,6.1C166.2,48.7,166.2,48.7,165.6,48.8z"></path> <path class="st23" d="M198.1,48.8c-0.6-0.1-0.6-0.1-2.5-3.4c-1-1.7-2.2-3.9-3.5-6.1c-2.5-4.5-5.1-8.9-5.1-8.9 c-0.4-0.6-0.1-1.4,0.5-1.8c0.6-0.4,1.4-0.1,1.8,0.5c3.9,6.9,9.9,17.3,10.2,17.8l-1.1,0.7L198.1,48.8z"></path> </g> <linearGradient id="SVGID_20_" gradientUnits="userSpaceOnUse" x1="347.9679" y1="293.054" x2="48.7276" y2="-265.9515" gradientTransform="matrix(1 0 0 -1 0 368)"> <stop offset="0" style="stop-color:#FF928E"></stop> <stop offset="1" style="stop-color:#FE7062"></stop> </linearGradient> <path class="st25" d="M288.6,122.3v30.1c0,3.6,2.8,6.5,6.4,6.7l37.6,1.8c3.8,0.2,7-2.9,7-6.7v-31.8c0-3.7-3-6.7-6.7-6.7h-37.6 C291.6,115.6,288.6,118.6,288.6,122.3z"></path> <path class="st23" d="M298.3,158.4c-0.5,0-1-0.2-1.4-0.5l-1.1-1c-0.5-0.5-0.7-1.2-0.6-2.1c0.1-0.8,0.5-1.7,1.2-2.4l0.7-0.8 c0.1-0.1,0.1-0.1,0.2-0.2l13.6-13.6c0.1-0.1,0.3-0.1,0.5,0c0.1,0.1,0.1,0.3,0,0.5l-13.6,13.6c0,0-0.1,0.1-0.1,0.1l-0.7,0.8 c-0.6,0.6-0.9,1.3-1,2c-0.1,0.6,0,1.2,0.4,1.5l1.1,1c0.8,0.7,2.3,0.3,3.4-0.9l0.7-0.8c0,0,0.1-0.1,0.1-0.1l10.8-12.9 c0.1-0.1,0.3-0.2,0.5,0c0.1,0.1,0.2,0.3,0,0.5l-10.8,12.9c0,0.1-0.1,0.1-0.2,0.2l-0.7,0.8C300.3,157.9,299.2,158.4,298.3,158.4z M298.6,156.2c-0.4,0-0.7-0.1-1-0.3c-0.8-0.7-0.5-2.2,0.6-3.3c0.5-0.5,1.1-0.9,1.7-1.1c0.6-0.2,1.2-0.1,1.6,0.2 c0.4,0.4,0.5,0.9,0.4,1.6c-0.1,0.6-0.5,1.2-1,1.8C300.2,155.8,299.3,156.2,298.6,156.2z M300.5,152c-0.2,0-0.3,0-0.5,0.1 c-0.5,0.1-1,0.5-1.4,0.9c-0.8,0.9-1.1,2-0.6,2.4c0.4,0.4,1.5,0.1,2.3-0.8l0,0c0.4-0.5,0.7-1,0.8-1.4c0.1-0.2,0.1-0.7-0.2-0.9 C300.9,152.1,300.7,152,300.5,152z M317.4,137.5c-0.1,0-0.2,0-0.2-0.1c-0.1-0.1-0.2-0.3,0-0.5l3.9-4.6l0.2,0.1 c3,1.9,6.7,1.3,9.1-1.3c1.5-1.7,2.3-3.9,2.1-6.2c0-0.3-0.2-0.5-0.5-0.6c-0.2-0.1-0.6-0.1-0.8,0.2l-4.2,4.6 c-0.4,0.4-0.9,0.6-1.5,0.6l-2.3-0.2c-0.8-0.1-1.5-0.7-1.6-1.5l-0.4-2.2c-0.1-0.5,0.1-1.1,0.4-1.5l4.2-4.6c0.2-0.3,0.2-0.6,0.1-0.8 c-0.1-0.3-0.4-0.5-0.7-0.5c-2.2,0-4.4,0.9-6,2.6c-2.4,2.6-2.6,6.3-0.5,9.2l0.2,0.2l-5.1,5.1c-0.1,0.1-0.3,0.1-0.5,0s-0.1-0.3,0-0.5 l4.7-4.7c-2.1-3.1-1.9-7,0.7-9.8c1.7-1.8,4-2.8,6.5-2.8c0.6,0,1.1,0.3,1.3,0.9c0.2,0.5,0.1,1.1-0.3,1.5l-4.2,4.6 c-0.2,0.2-0.3,0.6-0.3,0.9l0.4,2.2c0.1,0.5,0.5,0.9,1,0.9l2.3,0.2c0.3,0,0.7-0.1,0.9-0.4l4.2-4.6c0.4-0.4,1-0.6,1.5-0.4 c0.5,0.2,0.9,0.6,1,1.2c0.3,2.4-0.6,4.8-2.2,6.7c-2.5,2.8-6.4,3.4-9.7,1.5l-3.5,4.2C317.6,137.5,317.5,137.5,317.4,137.5z"></path> <g> <path class="st23" d="M327.6,158.5c-0.1,0-0.2,0-0.3,0c-0.8-0.1-1.6-0.5-2.1-1.1L312.6,142c-0.5-0.7-0.5-1.6,0.2-2.2l2.5-2.2 c0.6-0.6,1.6-0.5,2.2,0.1l13.6,14.6c0.6,0.6,0.9,1.4,0.8,2.3c0,0.8-0.4,1.6-1.1,2.2l-1.2,1C329,158.3,328.3,158.5,327.6,158.5z M315.8,138.3l-2.5,2.2c-0.3,0.2-0.3,0.7-0.1,1l12.6,15.4c0.4,0.5,0.9,0.8,1.5,0.8c0.6,0,1.2-0.1,1.6-0.5l1.2-1 c0.5-0.4,0.7-1,0.8-1.6c0-0.6-0.2-1.2-0.6-1.6l-13.6-14.6C316.5,138.1,316.1,138.1,315.8,138.3L315.8,138.3z"></path> </g> <path class="st23" d="M313.4,140.1l-10.9-12.8c-0.2,0-0.3-0.1-0.5-0.2l-3.3-2.5c-0.1-0.1-0.2-0.2-0.2-0.3l-1.5-2.9 c-0.2-0.4-0.1-0.8,0.3-1.1l0.8-0.7c0.3-0.3,0.8-0.3,1.1-0.1l2.6,1.8c0.1,0.1,0.2,0.1,0.2,0.2l2.1,3.5c0.1,0.2,0.1,0.4,0.1,0.6 l11.3,12.6L313.4,140.1z M302.7,126.6l10.8,12.6l1.1-0.8l-11.1-12.4l0.1-0.2c0-0.1,0-0.1,0-0.2l-2.1-3.5c0,0,0,0,0,0l-2.6-1.8 c-0.1,0-0.2,0-0.3,0.1l-0.8,0.7c-0.1,0.1-0.1,0.2-0.1,0.3l1.5,2.9c0,0,0,0,0,0l3.3,2.5c0,0,0.1,0,0.1,0L302.7,126.6z"></path> <linearGradient id="SVGID_21_" gradientUnits="userSpaceOnUse" x1="141.1029" y1="403.7905" x2="-158.1371" y2="-155.2145" gradientTransform="matrix(1 0 0 -1 0 368)"> <stop offset="0" style="stop-color:#FF928E"></stop> <stop offset="1" style="stop-color:#FE7062"></stop> </linearGradient> <path class="st26" d="M61,37.9v35.9c0,4.3,3.4,7.8,7.6,8l44.9,2.1c4.6,0.2,8.4-3.4,8.4-8V37.9c0-4.4-3.6-8-8-8H69 C64.6,29.9,61,33.4,61,37.9z"></path> <g> <g> <g> <g> <path class="st23" d="M93.2,60c0,3.2-0.2,6.4-0.8,9.5c-0.1,0.8-0.3,1.6-0.5,2.3c-0.2,0.8-0.4,1.5-0.7,2.3 c-0.3,0.8-0.6,1.5-1,2.2c-0.2,0.3-0.5,0.7-0.8,0.9c-0.2,0.1-0.3,0.2-0.5,0.3c-0.2,0.1-0.4,0.1-0.6,0.1c-0.2,0-0.4,0-0.6-0.1 c-0.2-0.1-0.4-0.2-0.5-0.3c-0.3-0.3-0.6-0.6-0.8-0.9c-0.4-0.7-0.8-1.4-1.1-2.2c-0.3-0.8-0.5-1.5-0.7-2.3 c-0.2-0.8-0.4-1.6-0.5-2.3c-0.3-1.6-0.5-3.2-0.6-4.8c-0.1-1.6-0.2-3.2-0.2-4.8c0-0.8,0-1.6,0-2.4c0-0.8,0.1-1.6,0.1-2.4 c0.1-1.6,0.3-3.2,0.6-4.8c0.1-0.8,0.3-1.6,0.5-2.3c0.2-0.8,0.4-1.6,0.7-2.3c0.1-0.4,0.3-0.8,0.4-1.1s0.4-0.7,0.6-1.1 c0.2-0.3,0.5-0.7,0.8-0.9c0.2-0.1,0.3-0.2,0.5-0.3c0.2-0.1,0.4-0.1,0.6-0.1s0.4,0.1,0.6,0.1c0.2,0.1,0.4,0.2,0.5,0.3 c0.3,0.3,0.6,0.6,0.8,0.9c0.5,0.7,0.8,1.4,1.1,2.1c0.3,0.7,0.5,1.5,0.8,2.3c0.2,0.8,0.4,1.6,0.5,2.3 C92.9,53.6,93.2,56.9,93.2,60z M92.9,60c0-1.6-0.1-3.2-0.2-4.8c-0.1-1.6-0.3-3.2-0.6-4.7c-0.1-0.8-0.3-1.6-0.5-2.3 c-0.2-0.8-0.4-1.5-0.7-2.3c-0.3-0.7-0.6-1.5-1.1-2.1c-0.2-0.3-0.5-0.6-0.8-0.9c-0.2-0.1-0.3-0.2-0.5-0.3 c-0.2-0.1-0.4-0.1-0.6-0.1c-0.2,0-0.4,0-0.6,0.1c-0.2,0.1-0.3,0.2-0.5,0.3c-0.3,0.3-0.5,0.6-0.8,0.9c-0.2,0.3-0.4,0.7-0.6,1.1 c-0.2,0.4-0.3,0.7-0.4,1.1c-0.3,0.8-0.5,1.5-0.6,2.3c-0.2,0.8-0.3,1.6-0.4,2.3c-0.2,1.6-0.4,3.2-0.5,4.7 c-0.1,1.6-0.1,3.2-0.1,4.8c0,1.6,0,3.2,0.2,4.8c0.1,1.6,0.3,3.2,0.6,4.7c0.1,0.8,0.3,1.6,0.5,2.3c0.2,0.8,0.4,1.5,0.7,2.3 c0.3,0.7,0.6,1.5,1,2.1c0.2,0.3,0.5,0.6,0.8,0.9c0.2,0.1,0.3,0.2,0.5,0.3c0.2,0.1,0.4,0.1,0.6,0.1c0.2,0,0.4-0.1,0.6-0.1 c0.2-0.1,0.3-0.2,0.5-0.3c0.3-0.3,0.5-0.6,0.8-0.9c0.4-0.7,0.7-1.4,1-2.1c0.3-0.7,0.5-1.5,0.7-2.3c0.2-0.8,0.3-1.6,0.5-2.3 c0.3-1.6,0.5-3.1,0.6-4.7C92.9,63.2,92.9,61.6,92.9,60z"></path> </g> <g> <path class="st23" d="M88.2,78.3c-0.2,0-0.5-0.1-0.7-0.1c-0.2-0.1-0.4-0.2-0.6-0.4c-0.3-0.3-0.6-0.6-0.9-1 c-0.4-0.6-0.8-1.3-1.1-2.3c-0.3-0.7-0.5-1.5-0.7-2.3c-0.2-0.7-0.4-1.5-0.5-2.4c-0.3-1.5-0.5-3.1-0.6-4.8 c-0.1-1.6-0.2-3.2-0.2-4.8c0-0.9,0-1.7,0-2.4c0-0.8,0.1-1.6,0.1-2.4c0.1-1.7,0.3-3.3,0.6-4.8c0.1-0.9,0.3-1.6,0.5-2.4 c0.2-0.9,0.4-1.6,0.7-2.3c0.2-0.4,0.3-0.8,0.5-1.2c0.2-0.4,0.4-0.8,0.6-1.1c0.3-0.4,0.6-0.8,0.9-1c0.2-0.2,0.4-0.3,0.6-0.4 C87.5,42,87.7,42,88,42c0.3,0,0.5,0.1,0.8,0.2c0.2,0.1,0.4,0.2,0.6,0.4c0.3,0.3,0.6,0.6,0.9,1c0.4,0.6,0.8,1.3,1.2,2.2 c0.3,0.7,0.5,1.5,0.8,2.3c0.2,0.8,0.4,1.5,0.6,2.4c0.6,3,0.9,6.1,0.9,9.6l0,0c0,3.5-0.3,6.7-0.8,9.6c-0.2,0.9-0.3,1.6-0.5,2.4 c-0.2,0.9-0.5,1.6-0.7,2.3c-0.3,0.9-0.7,1.6-1.1,2.3c-0.3,0.4-0.6,0.8-0.9,1c-0.2,0.2-0.4,0.3-0.6,0.4 C88.8,78.2,88.5,78.3,88.2,78.3C88.2,78.3,88.2,78.3,88.2,78.3z M87.9,43c-0.1,0-0.2,0-0.4,0.1c-0.1,0.1-0.3,0.1-0.4,0.2 c-0.2,0.2-0.4,0.4-0.7,0.8c-0.2,0.3-0.4,0.6-0.5,1c-0.1,0.3-0.3,0.7-0.4,1.1c-0.2,0.7-0.4,1.4-0.6,2.3 c-0.2,0.7-0.3,1.5-0.4,2.3c-0.2,1.5-0.4,3-0.5,4.7c-0.1,1.4-0.1,3-0.1,4.7c0,1.6,0.1,3.2,0.2,4.7c0.1,1.7,0.3,3.2,0.6,4.7 c0.1,0.8,0.3,1.6,0.5,2.3c0.2,0.8,0.4,1.6,0.7,2.2c0.3,0.9,0.6,1.5,1,2c0.2,0.3,0.4,0.6,0.7,0.8c0.1,0.1,0.3,0.2,0.4,0.2 c0.1,0.1,0.2,0.1,0.4,0.1c0.1,0,0.2,0,0.4-0.1c0.1-0.1,0.2-0.1,0.4-0.2c0.2-0.2,0.4-0.4,0.7-0.8c0.3-0.5,0.7-1.2,1-2 c0.2-0.7,0.5-1.4,0.7-2.2c0.2-0.7,0.3-1.5,0.5-2.3c0.3-1.5,0.4-3,0.6-4.7c0.1-1.5,0.2-3.1,0.2-4.7l0,0c0-1.6-0.1-3.2-0.2-4.7 c-0.1-1.7-0.3-3.2-0.6-4.7c-0.2-0.8-0.3-1.6-0.5-2.3c-0.2-0.8-0.5-1.6-0.7-2.2c-0.3-0.8-0.7-1.5-1-2c-0.2-0.3-0.5-0.6-0.7-0.8 c-0.1-0.1-0.3-0.2-0.4-0.3C88.2,43,88.1,43,87.9,43C88,43,87.9,43,87.9,43z"></path> </g> </g> <g> <g> <path class="st23" d="M101.2,60c0,2.1-0.3,4.1-0.8,6.1c-0.6,2-1.4,3.9-2.5,5.6c-0.6,0.9-1.2,1.7-1.9,2.4 c-0.7,0.7-1.5,1.4-2.4,1.9c-0.9,0.5-1.8,1-2.8,1.3c-1,0.3-2,0.5-3,0.5c-1,0-2.1-0.2-3-0.5c-1-0.3-1.9-0.7-2.8-1.3 c-0.9-0.5-1.7-1.2-2.4-1.9c-0.7-0.7-1.4-1.5-1.9-2.4c-1.1-1.7-2-3.6-2.5-5.6c-0.3-1-0.5-2-0.6-3c-0.1-1-0.2-2.1-0.2-3.1 c0-1,0.1-2.1,0.2-3.1c0.1-1,0.3-2,0.6-3c0.6-2,1.4-3.9,2.5-5.6c0.6-0.9,1.2-1.7,1.9-2.4c0.7-0.7,1.5-1.4,2.4-1.9s1.8-1,2.8-1.3 c1-0.3,2-0.5,3-0.5c1,0,2,0.2,3,0.5c1,0.3,1.9,0.7,2.8,1.3s1.7,1.2,2.4,1.9c0.7,0.7,1.4,1.5,1.9,2.4c1.1,1.7,2,3.6,2.5,5.6 C100.9,55.9,101.2,58,101.2,60z M100.9,60c0-2-0.3-4.1-0.8-6c-0.5-2-1.3-3.9-2.5-5.6c-0.6-0.9-1.2-1.7-1.9-2.4 c-0.7-0.7-1.5-1.4-2.3-1.9c-0.9-0.5-1.8-1-2.7-1.3c-1-0.3-2-0.5-3-0.5c-1,0-2,0.2-3,0.5s-1.9,0.7-2.7,1.3 c-0.9,0.5-1.6,1.2-2.3,1.9c-0.7,0.7-1.3,1.5-1.9,2.4c-1.1,1.7-1.9,3.6-2.5,5.6c-0.3,1-0.5,2-0.6,3c-0.1,1-0.2,2-0.2,3 c0,1,0.1,2,0.2,3c0.1,1,0.3,2,0.6,3c0.5,2,1.3,3.8,2.5,5.5c0.6,0.9,1.2,1.7,1.9,2.4c0.7,0.7,1.5,1.4,2.3,1.9 c0.9,0.5,1.8,1,2.7,1.3c1,0.3,2,0.5,3,0.5c1,0,2-0.2,3-0.5c1-0.3,1.9-0.7,2.7-1.3c0.9-0.5,1.6-1.2,2.3-1.9 c0.7-0.7,1.3-1.5,1.9-2.4c1.1-1.7,1.9-3.6,2.5-5.6C100.7,64.1,100.9,62.1,100.9,60z"></path> </g> <g> <path class="st23" d="M87.7,78.3c-1.1,0-2.1-0.2-3.2-0.5c-1-0.3-2-0.7-2.9-1.3c-0.9-0.6-1.7-1.2-2.5-2c-0.7-0.7-1.4-1.6-2-2.5 c-1.1-1.7-2-3.6-2.6-5.7c-0.3-1-0.5-2-0.6-3.1c-0.1-1-0.2-2.1-0.2-3.1c0-1.1,0.1-2.1,0.2-3.1c0.1-1,0.4-2.1,0.6-3.1 c0.6-2.1,1.5-4,2.6-5.7c0.6-0.9,1.3-1.7,2-2.4c0.8-0.8,1.6-1.4,2.5-2c0.9-0.6,1.9-1,2.9-1.3c1-0.3,2.1-0.5,3.2-0.5 c1.1,0,2.1,0.2,3.2,0.5c1,0.3,2,0.8,2.9,1.3c0.9,0.6,1.7,1.2,2.5,2c0.7,0.7,1.4,1.6,2,2.4c1.1,1.7,2,3.6,2.6,5.7 c0.5,2,0.8,4.1,0.8,6.2v0c0,2.2-0.3,4.2-0.8,6.2c-0.6,2.1-1.5,4-2.6,5.7c-0.6,0.9-1.3,1.7-2,2.5c-0.8,0.8-1.6,1.4-2.5,2 c-0.9,0.6-1.9,1-2.9,1.3C89.8,78.1,88.7,78.2,87.7,78.3z M87.7,42.9c-1,0-1.9,0.2-2.9,0.4c-0.9,0.3-1.8,0.7-2.6,1.2 c-0.8,0.5-1.5,1.1-2.3,1.9c-0.7,0.7-1.3,1.5-1.8,2.3c-1,1.6-1.9,3.4-2.4,5.4c-0.3,0.9-0.4,1.9-0.6,2.9c-0.1,1-0.2,2-0.2,3 c0,1,0.1,2,0.2,3c0.1,1,0.3,2,0.6,2.9c0.5,2,1.4,3.8,2.4,5.4c0.6,0.8,1.2,1.6,1.8,2.3c0.7,0.7,1.5,1.4,2.3,1.9 c0.8,0.5,1.7,0.9,2.6,1.2c0.9,0.3,1.9,0.4,2.9,0.4c1,0,1.9-0.2,2.9-0.4c0.9-0.3,1.8-0.7,2.6-1.2c0.8-0.5,1.5-1.1,2.3-1.9 c0.7-0.7,1.3-1.5,1.8-2.3c1-1.6,1.9-3.4,2.4-5.4c0.5-1.9,0.8-3.9,0.8-5.9c0-2.1-0.3-4-0.8-5.9c-0.5-2-1.4-3.8-2.4-5.4 c-0.6-0.8-1.2-1.6-1.8-2.3c-0.7-0.7-1.5-1.4-2.3-1.9c-0.8-0.5-1.7-1-2.6-1.2C89.6,43,88.6,42.9,87.7,42.9z"></path> </g> </g> <g> <g> <path class="st23" d="M71.9,53l4.1,0l4.1,0l8.1,0l8.1,0l4.1,0l4.1,0c0,0,0,0,0,0c0,0,0,0,0,0l-4.1,0l-4.1,0l-8.1,0l-8.1,0 l-4.1,0L71.9,53C71.9,53.1,71.9,53.1,71.9,53C71.9,53,71.9,53,71.9,53z"></path> </g> <g> <polygon class="st23" points="88.1,53.6 76,53.6 71.7,53.5 71.4,53.2 71.4,53 71.4,52.6 71.9,52.6 80,52.5 88.1,52.5 100.3,52.5 104.8,52.6 104.8,53.5 104.4,53.5 96.3,53.6 "></polygon> </g> </g> <g> <g> <path class="st23" d="M76.6,46.2c1,0,1.9,0,2.9,0l2.9,0c1,0,1.9,0,2.9,0l2.9,0l5.8,0l2.9,0c1,0,1.9,0,2.9,0c0,0,0,0,0,0 c0,0,0,0,0,0c-1,0-1.9,0-2.9,0l-2.9,0l-5.8,0l-2.9,0c-1,0-1.9,0-2.9,0l-2.9,0C78.5,46.3,77.6,46.3,76.6,46.2 C76.6,46.3,76.6,46.2,76.6,46.2C76.6,46.2,76.6,46.2,76.6,46.2z"></path> </g> <g> <path class="st23" d="M88.1,46.8l-3.6,0c-0.7,0-1.4,0-2.1,0l-3.8,0c-0.6,0-1.3,0-1.9,0l-0.5,0l0-0.9l0.5,0c0.6,0,1.2,0,1.9,0 l3.9,0c0.7,0,1.4,0,2,0l3.7,0l9.7,0c0.6,0,1.2,0,1.8,0l0.5,0l0,0.9l-0.5,0c-0.6,0-1.3,0-1.9,0l-3.8,0L88.1,46.8z"></path> </g> </g> <g> <g> <path class="st23" d="M70.5,59.8l4.4,0l4.4,0l8.8,0l8.8,0l4.4,0l4.4,0c0,0,0,0,0,0c0,0,0,0,0,0l-4.4,0L97,60l-8.8,0l-8.8,0 l-4.4,0L70.5,59.8C70.5,59.9,70.5,59.9,70.5,59.8C70.5,59.9,70.5,59.8,70.5,59.8z"></path> </g> <g> <polygon class="st23" points="88.1,60.4 74.9,60.4 70,60.3 70,59.4 70.5,59.4 79.3,59.3 88.1,59.3 101.4,59.4 106,59.4 106.3,59.7 106.2,60.3 105.8,60.3 97,60.4 "></polygon> </g> </g> <g> <g> <path class="st23" d="M71.9,66.7l4.1,0l4.1,0l8.1,0l8.1,0l4.1,0l4.1,0c0,0,0,0,0,0c0,0,0,0,0,0l-4.1,0l-4.1,0l-8.1,0l-8.1,0 l-4.1,0L71.9,66.7C71.9,66.7,71.9,66.7,71.9,66.7C71.9,66.7,71.9,66.7,71.9,66.7z"></path> </g> <g> <polygon class="st23" points="88.1,67.2 76,67.2 71.7,67.2 71.4,66.9 71.4,66.7 71.4,66.2 71.9,66.2 80,66.2 88.1,66.1 100.3,66.2 104.8,66.2 104.8,67.2 104.4,67.2 96.3,67.2 "></polygon> </g> </g> <g> <g> <path class="st23" d="M100.2,73.6h-23c0,0-0.1,0-0.1-0.1s0-0.1,0.1-0.1h23C100.3,73.5,100.3,73.5,100.2,73.6 C100.3,73.5,100.3,73.6,100.2,73.6z"></path> </g> <g> <path class="st23" d="M100.2,74h-23c-0.3,0-0.5-0.2-0.5-0.5c0-0.3,0.2-0.5,0.5-0.5h23c0.3,0,0.5,0.2,0.5,0.5 C100.8,73.8,100.5,74,100.2,74z"></path> </g> </g> </g> <g> <path class="st23" d="M88.1,78.6c-10.5,0-19-8.4-19-18.7s8.5-18.7,19-18.7s19,8.4,19,18.7C107.1,70.2,98.6,78.6,88.1,78.6z M88.1,42.8c-9.5,0-17.3,7.7-17.3,17.1S78.6,77,88.1,77c9.5,0,17.3-7.7,17.3-17.1C105.4,50.4,97.7,42.8,88.1,42.8z"></path> </g> </g> <g> <path class="st23" d="M106.4,44.7h-5.4v-1.4l1.8-2.6c0.5-0.7,0.8-1.2,1-1.6c0.2-0.3,0.3-0.7,0.4-1c0.1-0.3,0.1-0.6,0.1-1 c0-0.4-0.1-0.7-0.3-0.9c-0.2-0.2-0.4-0.3-0.7-0.3c-0.2,0-0.5,0.1-0.7,0.2c-0.2,0.1-0.5,0.4-0.8,0.7l-1.1-1.1 c0.5-0.6,0.9-0.9,1.4-1.1c0.4-0.2,0.9-0.3,1.4-0.3c0.8,0,1.5,0.2,1.9,0.7c0.5,0.5,0.7,1.2,0.7,2c0,0.4,0,0.8-0.1,1.1 c-0.1,0.3-0.2,0.7-0.4,1c-0.2,0.4-0.4,0.7-0.6,1.1c-0.3,0.4-0.9,1.2-2,2.6V43h3.3L106.4,44.7L106.4,44.7z"></path> <path class="st23" d="M113.4,42.6h-1v2.1h-1.8v-2.1h-3.3V41l3.1-6.5h2V41h1L113.4,42.6L113.4,42.6z M110.6,41v-2.1l0-0.9l0-0.9 h-0.1c-0.2,0.5-0.3,1-0.5,1.4l-1.2,2.6H110.6z"></path> </g> </g> </svg> 