<?xml version="1.0" encoding="UTF-8"?> <svg xmlns="http://www.w3.org/2000/svg" xmlns:xlink="http://www.w3.org/1999/xlink" width="36pt" height="30pt" viewBox="0 0 36 30" version="1.1"><g id="surface1"><path style=" stroke:none;fill-rule:nonzero;fill:rgb(95.294118%,48.235294%,12.54902%);fill-opacity:1;" d="M 26.753906 29.992188 L 6.757812 29.992188 C 6.203125 29.992188 5.761719 29.542969 5.761719 28.996094 L 5.761719 0.996094 C 5.761719 0.449219 6.203125 0 6.757812 0 L 26.753906 0 C 27.300781 0 27.75 0.449219 27.75 0.996094 L 27.75 28.988281 C 27.75 29.542969 27.300781 29.992188 26.753906 29.992188 Z M 6.757812 0.996094 L 6.757812 28.988281 L 26.753906 28.988281 L 26.753906 0.996094 Z M 6.757812 0.996094 "></path><path style=" stroke:none;fill-rule:nonzero;fill:rgb(95.294118%,48.235294%,12.54902%);fill-opacity:1;" d="M 6.253906 6 L 27.246094 6 L 27.246094 6.996094 L 6.253906 6.996094 Z M 6.253906 6 "></path><path style=" stroke:none;fill-rule:nonzero;fill:rgb(95.294118%,48.235294%,12.54902%);fill-opacity:1;" d="M 7.753906 2.003906 L 10.253906 2.003906 L 10.253906 3 L 7.753906 3 Z M 7.753906 2.003906 "></path><path style=" stroke:none;fill-rule:nonzero;fill:rgb(95.294118%,48.235294%,12.54902%);fill-opacity:1;" d="M 7.753906 3.996094 L 10.253906 3.996094 L 10.253906 4.996094 L 7.753906 4.996094 Z M 7.753906 3.996094 "></path><path style=" stroke:none;fill-rule:nonzero;fill:rgb(95.294118%,48.235294%,12.54902%);fill-opacity:1;" d="M 21.253906 4.996094 L 11.753906 4.996094 C 11.476562 4.996094 11.25 4.769531 11.25 4.492188 L 11.25 2.496094 C 11.25 2.21875 11.476562 1.996094 11.753906 1.996094 L 21.246094 1.996094 C 21.523438 1.996094 21.75 2.21875 21.75 2.496094 L 21.75 4.5 C 21.75 4.777344 21.523438 4.996094 21.253906 4.996094 Z M 12.253906 3.996094 L 20.753906 3.996094 L 20.753906 3 L 12.253906 3 Z M 12.253906 3.996094 "></path><path style=" stroke:none;fill-rule:nonzero;fill:rgb(95.294118%,48.235294%,12.54902%);fill-opacity:1;" d="M 24.246094 4.996094 C 23.421875 4.996094 22.746094 4.320312 22.746094 3.496094 C 22.746094 2.671875 23.421875 1.996094 24.246094 1.996094 C 25.074219 1.996094 25.746094 2.671875 25.746094 3.496094 C 25.746094 4.320312 25.078125 4.996094 24.246094 4.996094 Z M 24.246094 3 C 23.96875 3 23.746094 3.226562 23.746094 3.503906 C 23.746094 3.78125 23.96875 4.003906 24.246094 4.003906 C 24.523438 4.003906 24.75 3.78125 24.75 3.503906 C 24.75 3.226562 24.523438 3 24.246094 3 Z M 24.246094 3 "></path><path style=" stroke:none;fill-rule:nonzero;fill:rgb(95.294118%,48.235294%,12.54902%);fill-opacity:1;" d="M 23.25 21.996094 L 8.257812 21.996094 C 7.980469 21.996094 7.753906 21.773438 7.753906 21.496094 L 7.753906 18.496094 C 7.753906 18.21875 7.980469 17.992188 8.257812 17.992188 L 18.253906 17.992188 L 18.253906 18.988281 L 8.753906 18.988281 L 8.753906 20.992188 L 23.25 20.992188 Z M 23.25 21.996094 "></path><path style=" stroke:none;fill-rule:nonzero;fill:rgb(95.294118%,48.235294%,12.54902%);fill-opacity:1;" d="M 12.253906 14.496094 C 10.875 14.496094 9.757812 13.378906 9.757812 12 C 9.757812 10.621094 10.875 9.503906 12.253906 9.503906 C 13.636719 9.503906 14.753906 10.621094 14.753906 12 C 14.753906 13.378906 13.636719 14.496094 12.253906 14.496094 Z M 12.253906 10.5 C 11.429688 10.5 10.753906 11.175781 10.753906 12 C 10.753906 12.824219 11.429688 13.5 12.253906 13.5 C 13.078125 13.5 13.753906 12.824219 13.753906 12 C 13.753906 11.175781 13.078125 10.5 12.253906 10.5 Z M 12.253906 10.5 "></path><path style=" stroke:none;fill-rule:nonzero;fill:rgb(95.294118%,48.235294%,12.54902%);fill-opacity:1;" d="M 13.398438 13.851562 L 14.105469 13.144531 L 15.605469 14.644531 L 14.898438 15.351562 Z M 13.398438 13.851562 "></path><path style=" stroke:none;fill-rule:nonzero;fill:rgb(95.294118%,48.235294%,12.54902%);fill-opacity:1;" d="M 15.253906 10.5 L 21.75 10.5 L 21.75 11.496094 L 15.253906 11.496094 Z M 15.253906 10.5 "></path><path style=" stroke:none;fill-rule:nonzero;fill:rgb(95.294118%,48.235294%,12.54902%);fill-opacity:1;" d="M 16.253906 12.496094 L 17.25 12.496094 L 17.25 13.492188 L 16.253906 13.492188 Z M 16.253906 12.496094 "></path><path style=" stroke:none;fill-rule:nonzero;fill:rgb(95.294118%,48.235294%,12.54902%);fill-opacity:1;" d="M 18.253906 12.496094 L 20.257812 12.496094 L 20.257812 13.492188 L 18.253906 13.492188 Z M 18.253906 12.496094 "></path><path style=" stroke:none;fill-rule:nonzero;fill:rgb(95.294118%,48.235294%,12.54902%);fill-opacity:1;" d="M 21.253906 12.496094 L 23.753906 12.496094 L 23.753906 13.492188 L 21.253906 13.492188 Z M 21.253906 12.496094 "></path><path style=" stroke:none;fill-rule:nonzero;fill:rgb(95.294118%,48.235294%,12.54902%);fill-opacity:1;" d="M 7.753906 26.992188 L 25.253906 26.992188 L 25.253906 27.988281 L 7.753906 27.988281 Z M 7.753906 26.992188 "></path><path style=" stroke:none;fill-rule:nonzero;fill:rgb(95.294118%,48.235294%,12.54902%);fill-opacity:1;" d="M 23.25 21.996094 L 18.253906 21.996094 C 17.976562 21.996094 17.753906 21.773438 17.753906 21.496094 L 17.753906 15 C 17.753906 14.722656 17.976562 14.496094 18.253906 14.496094 L 21.75 14.496094 C 21.886719 14.496094 22.011719 14.550781 22.101562 14.648438 L 23.601562 16.148438 C 23.691406 16.238281 23.753906 16.363281 23.753906 16.5 L 23.753906 21.496094 C 23.753906 21.773438 23.527344 21.996094 23.25 21.996094 Z M 18.75 20.992188 L 22.746094 20.992188 L 22.746094 16.703125 L 21.539062 15.496094 L 18.75 15.496094 Z M 18.75 20.992188 "></path><path style=" stroke:none;fill-rule:nonzero;fill:rgb(95.294118%,48.235294%,12.54902%);fill-opacity:1;" d="M 19.753906 16.996094 L 21.757812 16.996094 L 21.757812 17.992188 L 19.753906 17.992188 Z M 19.753906 16.996094 "></path><path style=" stroke:none;fill-rule:nonzero;fill:rgb(95.294118%,48.235294%,12.54902%);fill-opacity:1;" d="M 19.753906 18.996094 L 21.757812 18.996094 L 21.757812 19.996094 L 19.753906 19.996094 Z M 19.753906 18.996094 "></path><path style=" stroke:none;fill-rule:nonzero;fill:rgb(95.294118%,48.235294%,12.54902%);fill-opacity:1;" d="M 25.253906 21.996094 L 23.25 21.996094 L 23.25 21 L 24.75 21 L 24.75 18.996094 L 23.25 18.996094 L 23.25 18 L 25.253906 18 C 25.53125 18 25.753906 18.226562 25.753906 18.503906 L 25.753906 21.503906 C 25.746094 21.773438 25.53125 21.996094 25.253906 21.996094 Z M 25.253906 21.996094 "></path></g></svg> 