<?xml version="1.0" encoding="UTF-8"?> <svg xmlns="http://www.w3.org/2000/svg" xmlns:xlink="http://www.w3.org/1999/xlink" width="36pt" height="30pt" viewBox="0 0 36 30" version="1.1"><g id="surface1"><path style=" stroke:none;fill-rule:nonzero;fill:rgb(60.784314%,36.078431%,56.078431%);fill-opacity:1;" d="M 11.308594 5.109375 C 11.101562 5.175781 10.957031 5.371094 10.957031 5.585938 L 10.957031 7.628906 C 10.957031 7.84375 11.101562 8.039062 11.308594 8.109375 L 12.421875 8.476562 L 12.609375 8.933594 L 12.140625 9.914062 C 12.058594 10.078125 12.082031 10.273438 12.1875 10.425781 C 12.613281 11.03125 13.148438 11.558594 13.746094 11.984375 C 13.898438 12.089844 14.09375 12.105469 14.257812 12.03125 L 15.21875 11.574219 C 15.375 11.648438 15.539062 11.714844 15.703125 11.773438 L 16.066406 12.863281 C 16.132812 13.074219 16.328125 13.207031 16.546875 13.207031 L 18.585938 13.207031 C 18.800781 13.207031 18.996094 13.066406 19.066406 12.855469 L 19.425781 11.765625 C 19.589844 11.707031 19.753906 11.640625 19.914062 11.566406 L 20.871094 12.023438 C 21.039062 12.097656 21.234375 12.082031 21.382812 11.976562 C 21.988281 11.550781 22.515625 11.015625 22.941406 10.417969 C 23.046875 10.265625 23.070312 10.074219 22.988281 9.90625 L 22.53125 8.949219 C 22.605469 8.789062 22.671875 8.625 22.734375 8.460938 L 23.820312 8.101562 C 24.03125 8.03125 24.164062 7.835938 24.164062 7.621094 L 24.164062 5.59375 C 24.164062 5.378906 24.023438 5.183594 23.8125 5.113281 L 22.726562 4.753906 C 22.664062 4.589844 22.597656 4.425781 22.523438 4.265625 L 22.980469 3.308594 C 23.0625 3.140625 23.039062 2.949219 22.933594 2.796875 C 22.507812 2.191406 21.976562 1.664062 21.375 1.238281 C 21.226562 1.132812 21.03125 1.109375 20.863281 1.191406 L 19.90625 1.648438 C 19.746094 1.574219 19.582031 1.507812 19.417969 1.449219 L 19.058594 0.359375 C 19.003906 0.140625 18.808594 0 18.59375 0 L 16.550781 0 C 16.335938 0 16.140625 0.140625 16.074219 0.351562 L 15.703125 1.460938 L 15.246094 1.648438 L 14.265625 1.183594 C 14.101562 1.101562 13.90625 1.125 13.753906 1.230469 C 13.148438 1.65625 12.621094 2.191406 12.195312 2.789062 C 12.089844 2.941406 12.066406 3.136719 12.148438 3.300781 L 12.613281 4.28125 L 12.421875 4.738281 Z M 12.960938 5.640625 C 13.101562 5.59375 13.214844 5.488281 13.265625 5.355469 L 13.636719 4.46875 C 13.6875 4.335938 13.6875 4.183594 13.628906 4.058594 L 13.191406 3.148438 C 13.460938 2.8125 13.761719 2.503906 14.101562 2.242188 L 15.007812 2.675781 C 15.136719 2.738281 15.292969 2.746094 15.421875 2.683594 L 16.304688 2.316406 C 16.441406 2.257812 16.546875 2.144531 16.589844 2.011719 L 16.914062 1.027344 L 18.21875 1.027344 L 18.539062 2.011719 C 18.59375 2.167969 18.71875 2.289062 18.878906 2.339844 C 19.148438 2.421875 19.417969 2.535156 19.671875 2.671875 C 19.816406 2.746094 19.988281 2.753906 20.128906 2.675781 L 21.039062 2.242188 C 21.375 2.511719 21.683594 2.8125 21.945312 3.148438 L 21.523438 4.050781 C 21.457031 4.191406 21.457031 4.363281 21.53125 4.507812 C 21.667969 4.761719 21.78125 5.023438 21.863281 5.300781 C 21.90625 5.460938 22.035156 5.585938 22.191406 5.640625 L 23.175781 5.960938 L 23.175781 7.265625 L 22.191406 7.589844 C 22.035156 7.640625 21.914062 7.769531 21.863281 7.925781 C 21.78125 8.199219 21.667969 8.46875 21.53125 8.722656 C 21.457031 8.863281 21.449219 9.039062 21.523438 9.179688 L 21.960938 10.085938 C 21.691406 10.425781 21.390625 10.734375 21.050781 10.996094 L 20.144531 10.558594 C 20.003906 10.492188 19.828125 10.492188 19.6875 10.566406 C 19.433594 10.703125 19.171875 10.816406 18.890625 10.898438 C 18.734375 10.941406 18.609375 11.070312 18.554688 11.226562 L 18.234375 12.210938 L 16.925781 12.210938 L 16.605469 11.226562 C 16.550781 11.070312 16.425781 10.949219 16.265625 10.898438 C 15.996094 10.816406 15.726562 10.703125 15.472656 10.566406 C 15.328125 10.492188 15.15625 10.484375 15.015625 10.558594 L 14.109375 10.996094 C 13.769531 10.726562 13.460938 10.425781 13.199219 10.085938 L 13.636719 9.179688 C 13.695312 9.050781 13.703125 8.902344 13.640625 8.765625 L 13.273438 7.882812 C 13.214844 7.746094 13.101562 7.640625 12.96875 7.597656 L 11.984375 7.273438 L 11.984375 5.960938 Z M 12.960938 5.640625 "></path><path style=" stroke:none;fill-rule:nonzero;fill:rgb(60.784314%,36.078431%,56.078431%);fill-opacity:1;" d="M 17.574219 9.921875 C 19.394531 9.921875 20.878906 8.4375 20.878906 6.613281 C 20.878906 4.792969 19.394531 3.308594 17.574219 3.308594 C 15.75 3.308594 14.265625 4.792969 14.265625 6.613281 C 14.265625 8.4375 15.75 9.921875 17.574219 9.921875 Z M 17.574219 4.328125 C 18.832031 4.328125 19.859375 5.355469 19.859375 6.613281 C 19.859375 7.875 18.832031 8.902344 17.574219 8.902344 C 16.3125 8.902344 15.285156 7.875 15.285156 6.613281 C 15.285156 5.355469 16.3125 4.328125 17.574219 4.328125 Z M 17.574219 4.328125 "></path><path style=" stroke:none;fill-rule:nonzero;fill:rgb(60.784314%,36.078431%,56.078431%);fill-opacity:1;" d="M 10.875 0.0664062 L 7.824219 0.578125 L 7.988281 1.582031 L 9.691406 1.296875 C 8.527344 2.925781 7.898438 4.867188 7.898438 6.898438 C 7.898438 9.40625 8.851562 11.773438 10.582031 13.582031 L 11.316406 12.878906 C 9.773438 11.265625 8.917969 9.140625 8.917969 6.898438 C 8.917969 4.65625 9.773438 2.535156 11.316406 0.921875 C 11.46875 0.765625 11.503906 0.523438 11.398438 0.328125 C 11.308594 0.136719 11.09375 0.03125 10.875 0.0664062 Z M 10.875 0.0664062 "></path><path style=" stroke:none;fill-rule:nonzero;fill:rgb(60.784314%,36.078431%,56.078431%);fill-opacity:1;" d="M 24.554688 0.21875 L 23.820312 0.921875 C 25.363281 2.535156 26.21875 4.65625 26.21875 6.898438 C 26.21875 9.140625 25.363281 11.265625 23.820312 12.878906 C 23.664062 13.042969 23.632812 13.296875 23.753906 13.5 C 23.851562 13.648438 24.015625 13.738281 24.1875 13.738281 C 24.238281 13.738281 24.292969 13.734375 24.335938 13.71875 L 27.390625 12.757812 L 27.082031 11.789062 L 25.621094 12.246094 C 26.671875 10.679688 27.234375 8.828125 27.234375 6.90625 C 27.238281 4.394531 26.289062 2.023438 24.554688 0.21875 Z M 24.554688 0.21875 "></path><path style=" stroke:none;fill-rule:nonzero;fill:rgb(60.784314%,36.078431%,56.078431%);fill-opacity:1;" d="M 16.558594 22.378906 L 8.414062 22.378906 L 8.414062 20.347656 C 8.414062 20.144531 8.296875 19.964844 8.113281 19.882812 C 7.933594 19.800781 7.71875 19.835938 7.566406 19.972656 L 2.484375 24.546875 C 2.378906 24.644531 2.316406 24.78125 2.316406 24.921875 C 2.316406 25.066406 2.378906 25.207031 2.484375 25.296875 L 7.566406 29.871094 C 7.664062 29.953125 7.785156 30 7.90625 30 C 7.972656 30 8.046875 29.984375 8.113281 29.953125 C 8.296875 29.871094 8.414062 29.691406 8.414062 29.488281 L 8.414062 27.976562 L 16.550781 27.976562 C 16.835938 27.976562 17.0625 27.75 17.0625 27.464844 L 17.0625 22.890625 C 17.0625 22.613281 16.835938 22.378906 16.558594 22.378906 Z M 16.050781 26.960938 L 7.914062 26.960938 C 7.628906 26.960938 7.402344 27.1875 7.402344 27.472656 L 7.402344 28.363281 L 3.585938 24.929688 L 7.402344 21.496094 L 7.402344 22.898438 C 7.402344 23.183594 7.628906 23.40625 7.914062 23.40625 L 16.050781 23.40625 Z M 16.050781 26.960938 "></path><path style=" stroke:none;fill-rule:nonzero;fill:rgb(60.784314%,36.078431%,56.078431%);fill-opacity:1;" d="M 27.578125 14.878906 C 27.425781 14.746094 27.21875 14.707031 27.03125 14.789062 C 26.851562 14.871094 26.730469 15.050781 26.730469 15.253906 L 26.730469 16.777344 L 18.59375 16.777344 C 18.308594 16.777344 18.082031 17.003906 18.082031 17.289062 L 18.082031 21.863281 C 18.082031 22.148438 18.308594 22.371094 18.59375 22.371094 L 26.730469 22.371094 L 26.730469 24.40625 C 26.730469 24.609375 26.851562 24.789062 27.03125 24.871094 C 27.097656 24.898438 27.164062 24.914062 27.238281 24.914062 C 27.359375 24.914062 27.488281 24.871094 27.578125 24.789062 L 32.664062 20.210938 C 32.765625 20.113281 32.828125 19.980469 32.828125 19.835938 C 32.828125 19.695312 32.765625 19.550781 32.664062 19.460938 Z M 27.75 23.273438 L 27.75 21.871094 C 27.75 21.585938 27.523438 21.359375 27.238281 21.359375 L 19.101562 21.359375 L 19.101562 17.796875 L 27.238281 17.796875 C 27.523438 17.796875 27.75 17.574219 27.75 17.289062 L 27.75 16.394531 L 31.566406 19.828125 Z M 27.75 23.273438 "></path><path style=" stroke:none;fill-rule:nonzero;fill:rgb(60.784314%,36.078431%,56.078431%);fill-opacity:1;" d="M 18.59375 26.960938 L 23.167969 26.960938 L 23.167969 27.984375 L 18.59375 27.984375 Z M 18.59375 26.960938 "></path><path style=" stroke:none;fill-rule:nonzero;fill:rgb(60.784314%,36.078431%,56.078431%);fill-opacity:1;" d="M 18.59375 24.421875 L 23.167969 24.421875 L 23.167969 25.441406 L 18.59375 25.441406 Z M 18.59375 24.421875 "></path><path style=" stroke:none;fill-rule:nonzero;fill:rgb(60.784314%,36.078431%,56.078431%);fill-opacity:1;" d="M 24.1875 24.421875 L 25.207031 24.421875 L 25.207031 25.441406 L 24.1875 25.441406 Z M 24.1875 24.421875 "></path><path style=" stroke:none;fill-rule:nonzero;fill:rgb(60.784314%,36.078431%,56.078431%);fill-opacity:1;" d="M 24.1875 26.960938 L 25.207031 26.960938 L 25.207031 27.984375 L 24.1875 27.984375 Z M 24.1875 26.960938 "></path><path style=" stroke:none;fill-rule:nonzero;fill:rgb(60.784314%,36.078431%,56.078431%);fill-opacity:1;" d="M 11.976562 16.785156 L 16.550781 16.785156 L 16.550781 17.804688 L 11.976562 17.804688 Z M 11.976562 16.785156 "></path><path style=" stroke:none;fill-rule:nonzero;fill:rgb(60.784314%,36.078431%,56.078431%);fill-opacity:1;" d="M 11.976562 19.328125 L 16.550781 19.328125 L 16.550781 20.347656 L 11.976562 20.347656 Z M 11.976562 19.328125 "></path><path style=" stroke:none;fill-rule:nonzero;fill:rgb(60.784314%,36.078431%,56.078431%);fill-opacity:1;" d="M 9.945312 19.328125 L 10.964844 19.328125 L 10.964844 20.347656 L 9.945312 20.347656 Z M 9.945312 19.328125 "></path><path style=" stroke:none;fill-rule:nonzero;fill:rgb(60.784314%,36.078431%,56.078431%);fill-opacity:1;" d="M 9.945312 16.785156 L 10.964844 16.785156 L 10.964844 17.804688 L 9.945312 17.804688 Z M 9.945312 16.785156 "></path></g></svg> 