<?xml version="1.0" encoding="UTF-8"?> <!-- Generator: Adobe Illustrator 25.1.0, SVG Export Plug-In . SVG Version: 6.00 Build 0) --> <svg xmlns="http://www.w3.org/2000/svg" xmlns:xlink="http://www.w3.org/1999/xlink" version="1.1" id="Layer_1" x="0px" y="0px" viewBox="0 0 1281.7 492" style="enable-background:new 0 0 1281.7 492;" xml:space="preserve"> <style type="text/css"> .st0{fill:#F4F4F4;} .st1{fill:#FF4081;} .st2{fill:#FFFFFF;} .st3{fill:#FFD740;} .st4{fill:#40C4FF;} .st5{fill:#EF4335;} .st6{fill:#399439;} .st7{fill:#989898;} .st8{enable-background:new ;} .st9{fill-rule:evenodd;clip-rule:evenodd;fill:#40C4FF;} .st10{fill-rule:evenodd;clip-rule:evenodd;fill:#EF4335;} </style> <rect x="44.7" y="244" class="st0" width="1176.9" height="5"></rect> <g> <circle class="st1" cx="57.2" cy="246.5" r="15"></circle> <circle class="st2" cx="57.2" cy="246.5" r="9.5"></circle> </g> <g> <circle class="st3" cx="344.9" cy="246.5" r="15"></circle> <circle class="st2" cx="344.9" cy="246.5" r="9.5"></circle> </g> <g> <circle class="st4" cx="633.6" cy="246.5" r="15"></circle> <circle class="st2" cx="633.6" cy="246.5" r="9.5"></circle> </g> <g> <circle class="st5" cx="920.2" cy="246.5" r="15"></circle> <circle class="st2" cx="920.2" cy="246.5" r="9.5"></circle> </g> <g> <circle class="st6" cx="1207.9" cy="246.5" r="15"></circle> <circle class="st2" cx="1207.9" cy="246.5" r="9.5"></circle> </g> <g> <g> <path class="st7" d="M235,140.9l-1.1,1c-0.8-0.8-1.6-1.7-2.4-2.5l1.1-1.1C233.4,139.2,234.2,140.1,235,140.9z M229.9,135.9l-1,1.2 c-0.9-0.8-1.8-1.5-2.7-2.2l0.9-1.2C228,134.4,229,135.2,229.9,135.9z M224.2,131.6l-0.9,1.3c-1-0.6-1.9-1.3-2.9-1.9l0.8-1.3 C222.2,130.3,223.2,130.9,224.2,131.6z M218,128l-0.7,1.4c-1-0.5-2.1-1-3.1-1.5l0.6-1.4C215.9,126.9,217,127.4,218,128z M211.5,125.1l-0.5,1.4c-1.1-0.4-2.2-0.8-3.3-1.1l0.4-1.5C209.2,124.3,210.4,124.7,211.5,125.1z M204.6,123.1l-0.4,1.5 c-1.1-0.3-2.3-0.5-3.4-0.7l0.3-1.5C202.3,122.5,203.5,122.8,204.6,123.1z M197.6,121.8l-0.2,1.5c-1.1-0.1-2.3-0.2-3.5-0.3l0.1-1.5 C195.2,121.6,196.4,121.7,197.6,121.8z M190.5,121.5l0,1.5c-1.1,0-2.3,0.1-3.5,0.2l-0.1-1.5C188.1,121.6,189.3,121.5,190.5,121.5z M183.6,123.6c-1.1,0.2-2.3,0.4-3.4,0.6l-0.3-1.5c1.2-0.2,2.3-0.5,3.5-0.6L183.6,123.6z M176.7,125c-1.1,0.3-2.2,0.6-3.3,1 l-0.5-1.5c1.1-0.4,2.3-0.7,3.4-1L176.7,125z M170.1,127.2c-1.1,0.4-2.1,0.9-3.2,1.4l-0.6-1.4c1.1-0.5,2.2-1,3.3-1.4L170.1,127.2z M163.9,130.2c-1,0.6-2,1.1-3,1.8l-0.8-1.3c1-0.6,2-1.2,3.1-1.8L163.9,130.2z M157.9,133.9c-0.9,0.7-1.9,1.4-2.8,2.1l-1-1.2 c0.9-0.7,1.9-1.5,2.8-2.2L157.9,133.9z M152.6,138.2c-0.9,0.8-1.7,1.6-2.5,2.4l-1.1-1.1c0.8-0.8,1.7-1.7,2.6-2.5L152.6,138.2z"></path> </g> <g> <polygon class="st7" points="235.4,133.5 233.9,133.5 233.9,141.1 226.4,140.6 226.3,142.1 235.5,142.7 "></polygon> </g> </g> <g> <g> <path class="st7" d="M232.5,354.8l-1.1-1.1c0.8-0.8,1.6-1.7,2.4-2.5l1.1,1C234.2,353.1,233.4,354,232.5,354.8z M227.1,359.5 l-0.9-1.2c0.9-0.7,1.8-1.4,2.7-2.2l1,1.2C229,358,228,358.8,227.1,359.5z M221.1,363.5l-0.8-1.3c1-0.6,2-1.2,2.9-1.9l0.9,1.3 C223.2,362.2,222.2,362.9,221.1,363.5z M214.8,366.7l-0.6-1.4c1.1-0.5,2.1-1,3.1-1.5l0.7,1.4C217,365.7,215.9,366.2,214.8,366.7z M208.1,369.2l-0.4-1.5c1.1-0.3,2.2-0.7,3.3-1.1l0.5,1.4C210.4,368.5,209.2,368.9,208.1,369.2z M201.1,370.9l-0.3-1.5 c1.1-0.2,2.3-0.4,3.4-0.7l0.4,1.5C203.5,370.4,202.3,370.6,201.1,370.9z M194,371.6l-0.1-1.5c1.2-0.1,2.3-0.1,3.5-0.3l0.2,1.5 C196.4,371.5,195.2,371.6,194,371.6z M186.9,371.5l0.1-1.5c1.2,0.1,2.3,0.1,3.5,0.2l0,1.5C189.3,371.7,188.1,371.6,186.9,371.5z M183.3,371.1c-1.2-0.2-2.4-0.4-3.5-0.6l0.3-1.5c1.1,0.2,2.3,0.4,3.4,0.6L183.3,371.1z M176.3,369.7c-1.1-0.3-2.3-0.7-3.4-1 l0.5-1.5c1.1,0.4,2.2,0.7,3.3,1L176.3,369.7z M169.6,367.4c-1.1-0.4-2.2-0.9-3.3-1.4l0.6-1.4c1,0.5,2.1,1,3.2,1.4L169.6,367.4z M163.1,364.4c-1-0.6-2.1-1.2-3.1-1.8l0.8-1.3c1,0.6,2,1.2,3,1.8L163.1,364.4z M157.1,360.6c-1-0.7-1.9-1.4-2.8-2.2l1-1.2 c0.9,0.7,1.8,1.4,2.8,2.1L157.1,360.6z M151.5,356.1c-0.9-0.8-1.7-1.6-2.6-2.5l1.1-1.1c0.8,0.8,1.6,1.6,2.5,2.4L151.5,356.1z"></path> </g> <g> <polygon class="st7" points="235.4,359.7 233.9,359.7 233.9,352.1 226.4,352.6 226.3,351.1 235.5,350.5 "></polygon> </g> </g> <g> <g> <path class="st7" d="M525,140.9l-1.1,1c-0.8-0.8-1.6-1.7-2.4-2.5l1.1-1.1C523.3,139.2,524.2,140.1,525,140.9z M519.9,135.9l-1,1.2 c-0.9-0.8-1.8-1.5-2.7-2.2l0.9-1.2C518,134.4,519,135.2,519.9,135.9z M514.2,131.6l-0.8,1.3c-1-0.6-2-1.3-3-1.9l0.8-1.3 C512.2,130.3,513.2,130.9,514.2,131.6z M508,128l-0.7,1.4c-1-0.5-2.1-1-3.1-1.5l0.6-1.4C505.9,126.9,507,127.4,508,128z M501.5,125.1l-0.5,1.4c-1.1-0.4-2.2-0.8-3.3-1.1l0.4-1.5C499.2,124.3,500.4,124.7,501.5,125.1z M494.6,123.1l-0.4,1.5 c-1.1-0.3-2.3-0.5-3.4-0.7l0.3-1.5C492.3,122.5,493.5,122.8,494.6,123.1z M487.6,121.8l-0.2,1.5c-1.1-0.1-2.3-0.2-3.5-0.3l0.1-1.5 C485.2,121.6,486.4,121.7,487.6,121.8z M480.5,121.5l0,1.5c-1.1,0-2.3,0.1-3.5,0.2l-0.1-1.5C478.1,121.6,479.3,121.5,480.5,121.5z M473.6,123.6c-1.1,0.2-2.3,0.4-3.4,0.6l-0.3-1.5c1.2-0.2,2.3-0.5,3.5-0.6L473.6,123.6z M466.7,125c-1.1,0.3-2.2,0.6-3.3,1 l-0.5-1.5c1.1-0.4,2.3-0.7,3.4-1L466.7,125z M460.1,127.2c-1.1,0.4-2.1,0.9-3.2,1.4l-0.6-1.4c1.1-0.5,2.2-1,3.3-1.4L460.1,127.2z M453.9,130.2c-1,0.6-2,1.1-3,1.8l-0.8-1.3c1-0.6,2-1.2,3.1-1.8L453.9,130.2z M448,133.9c-0.9,0.7-1.9,1.4-2.8,2.1l-1-1.2 c0.9-0.7,1.9-1.5,2.8-2.2L448,133.9z M442.5,138.2c-0.9,0.8-1.7,1.6-2.5,2.4l-1.1-1.1c0.8-0.8,1.7-1.7,2.6-2.5L442.5,138.2z"></path> </g> <g> <polygon class="st7" points="525.4,133.5 523.9,133.5 524,141.1 516.4,140.6 516.3,142.1 525.5,142.7 "></polygon> </g> </g> <g> <g> <path class="st7" d="M522.5,354.8l-1.1-1.1c0.8-0.8,1.6-1.7,2.4-2.5l1.1,1C524.2,353.1,523.3,354,522.5,354.8z M517.1,359.5 l-0.9-1.2c0.9-0.7,1.8-1.4,2.7-2.2l1,1.2C519,358,518,358.8,517.1,359.5z M511.1,363.5l-0.8-1.3c1-0.6,2-1.2,3-1.9l0.8,1.3 C513.2,362.2,512.2,362.9,511.1,363.5z M504.8,366.7l-0.6-1.4c1.1-0.5,2.1-1,3.1-1.5l0.7,1.4C507,365.7,505.9,366.2,504.8,366.7z M498.1,369.2l-0.4-1.5c1.1-0.3,2.2-0.7,3.3-1.1l0.5,1.4C500.4,368.5,499.2,368.9,498.1,369.2z M491.1,370.9l-0.3-1.5 c1.1-0.2,2.3-0.4,3.4-0.7l0.4,1.5C493.5,370.4,492.3,370.6,491.1,370.9z M484,371.6l-0.1-1.5c1.2-0.1,2.3-0.1,3.5-0.3l0.2,1.5 C486.4,371.5,485.2,371.6,484,371.6z M476.9,371.5l0.1-1.5c1.2,0.1,2.3,0.1,3.5,0.2l0,1.5C479.3,371.7,478.1,371.6,476.9,371.5z M473.3,371.1c-1.2-0.2-2.4-0.4-3.5-0.6l0.3-1.5c1.1,0.2,2.3,0.4,3.4,0.6L473.3,371.1z M466.3,369.7c-1.1-0.3-2.3-0.7-3.4-1 l0.5-1.5c1.1,0.4,2.2,0.7,3.3,1L466.3,369.7z M459.6,367.4c-1.1-0.4-2.2-0.9-3.3-1.4l0.6-1.4c1,0.5,2.1,1,3.2,1.4L459.6,367.4z M453.1,364.4c-1-0.6-2.1-1.2-3.1-1.8l0.8-1.3c1,0.6,2,1.2,3,1.8L453.1,364.4z M447.1,360.6c-1-0.7-1.9-1.4-2.8-2.2l1-1.2 c0.9,0.7,1.8,1.4,2.8,2.1L447.1,360.6z M441.5,356.1c-0.9-0.8-1.7-1.6-2.6-2.5l1.1-1.1c0.8,0.8,1.6,1.6,2.5,2.4L441.5,356.1z"></path> </g> <g> <polygon class="st7" points="525.4,359.7 523.9,359.7 524,352.1 516.4,352.6 516.3,351.1 525.5,350.5 "></polygon> </g> </g> <g> <g> <path class="st7" d="M812,140.9l-1.1,1c-0.8-0.8-1.6-1.7-2.4-2.5l1.1-1.1C810.3,139.2,811.2,140.1,812,140.9z M806.9,135.9l-1,1.2 c-0.9-0.8-1.8-1.5-2.7-2.2l0.9-1.2C805,134.4,806,135.2,806.9,135.9z M801.2,131.6l-0.8,1.3c-1-0.6-2-1.3-3-1.9l0.8-1.3 C799.2,130.3,800.2,130.9,801.2,131.6z M795,128l-0.7,1.4c-1-0.5-2.1-1-3.2-1.5l0.6-1.4C792.9,126.9,794,127.4,795,128z M788.5,125.1l-0.5,1.4c-1.1-0.4-2.2-0.8-3.3-1.1l0.4-1.5C786.2,124.3,787.4,124.7,788.5,125.1z M781.6,123.1l-0.4,1.5 c-1.1-0.3-2.3-0.5-3.4-0.7l0.3-1.5C779.3,122.5,780.5,122.8,781.6,123.1z M774.6,121.8l-0.2,1.5c-1.2-0.1-2.3-0.2-3.5-0.3l0.1-1.5 C772.2,121.6,773.4,121.7,774.6,121.8z M767.5,121.5l0,1.5c-1.2,0-2.3,0.1-3.5,0.2l-0.1-1.5C765.1,121.6,766.3,121.5,767.5,121.5z M760.6,123.6c-1.2,0.2-2.3,0.4-3.4,0.6l-0.3-1.5c1.2-0.2,2.3-0.5,3.5-0.6L760.6,123.6z M753.7,125c-1.1,0.3-2.2,0.6-3.3,1 l-0.5-1.5c1.1-0.4,2.3-0.7,3.4-1L753.7,125z M747.1,127.2c-1.1,0.4-2.2,0.9-3.2,1.4l-0.7-1.4c1.1-0.5,2.2-1,3.3-1.4L747.1,127.2z M740.8,130.2c-1,0.6-2,1.1-3,1.8l-0.8-1.3c1-0.6,2-1.2,3.1-1.8L740.8,130.2z M735,133.9c-0.9,0.7-1.9,1.4-2.8,2.1l-1-1.2 c0.9-0.7,1.9-1.5,2.8-2.2L735,133.9z M729.5,138.2c-0.9,0.8-1.7,1.6-2.5,2.4l-1.1-1.1c0.8-0.8,1.7-1.7,2.6-2.5L729.5,138.2z"></path> </g> <g> <polygon class="st7" points="812.4,133.5 810.9,133.5 811,141.1 803.4,140.6 803.3,142.1 812.5,142.7 "></polygon> </g> </g> <g> <g> <path class="st7" d="M809.5,354.8l-1.1-1.1c0.8-0.8,1.6-1.7,2.4-2.5l1.1,1C811.2,353.1,810.3,354,809.5,354.8z M804.1,359.5 l-0.9-1.2c0.9-0.7,1.8-1.4,2.7-2.2l1,1.2C806,358,805,358.8,804.1,359.5z M798.2,363.5l-0.8-1.3c1-0.6,2-1.2,3-1.9l0.8,1.3 C800.2,362.2,799.2,362.9,798.2,363.5z M791.8,366.7l-0.6-1.4c1.1-0.5,2.1-1,3.2-1.5l0.7,1.4C794,365.7,792.9,366.2,791.8,366.7z M785.1,369.2l-0.4-1.5c1.1-0.3,2.2-0.7,3.3-1.1l0.5,1.4C787.4,368.5,786.2,368.9,785.1,369.2z M778.1,370.9l-0.3-1.5 c1.1-0.2,2.3-0.4,3.4-0.7l0.4,1.5C780.5,370.4,779.3,370.6,778.1,370.9z M771,371.6l-0.1-1.5c1.2-0.1,2.3-0.1,3.5-0.3l0.2,1.5 C773.4,371.5,772.2,371.6,771,371.6z M763.9,371.5l0.1-1.5c1.2,0.1,2.3,0.1,3.5,0.2l0,1.5C766.3,371.7,765.1,371.6,763.9,371.5z M760.3,371.1c-1.2-0.2-2.4-0.4-3.5-0.6l0.3-1.5c1.1,0.2,2.3,0.4,3.4,0.6L760.3,371.1z M753.3,369.7c-1.1-0.3-2.3-0.7-3.4-1 l0.5-1.5c1.1,0.4,2.2,0.7,3.3,1L753.3,369.7z M746.6,367.4c-1.1-0.4-2.2-0.9-3.3-1.4l0.7-1.4c1,0.5,2.1,1,3.2,1.4L746.6,367.4z M740.1,364.4c-1-0.6-2.1-1.2-3.1-1.8l0.8-1.3c1,0.6,2,1.2,3,1.8L740.1,364.4z M734.1,360.6c-1-0.7-1.9-1.4-2.8-2.2l1-1.2 c0.9,0.7,1.8,1.4,2.8,2.1L734.1,360.6z M728.5,356.1c-0.9-0.8-1.7-1.6-2.6-2.5l1.1-1.1c0.8,0.8,1.6,1.6,2.5,2.4L728.5,356.1z"></path> </g> <g> <polygon class="st7" points="812.4,359.7 810.9,359.7 811,352.1 803.4,352.6 803.3,351.1 812.5,350.5 "></polygon> </g> </g> <g> <g> <path class="st7" d="M1102,140.9l-1.1,1c-0.8-0.8-1.6-1.7-2.4-2.5l1.1-1.1C1100.3,139.2,1101.2,140.1,1102,140.9z M1096.9,135.9 l-1,1.2c-0.9-0.8-1.8-1.5-2.7-2.2l0.9-1.2C1095,134.4,1096,135.2,1096.9,135.9z M1091.2,131.6l-0.8,1.3c-1-0.6-1.9-1.3-2.9-1.9 l0.8-1.3C1089.2,130.3,1090.2,130.9,1091.2,131.6z M1085,128l-0.7,1.4c-1-0.5-2.1-1-3.2-1.5l0.6-1.4 C1082.9,126.9,1084,127.4,1085,128z M1078.5,125.1l-0.5,1.4c-1.1-0.4-2.2-0.8-3.3-1.1l0.4-1.5 C1076.2,124.3,1077.4,124.7,1078.5,125.1z M1071.6,123.1l-0.4,1.5c-1.1-0.3-2.3-0.5-3.4-0.7l0.3-1.5 C1069.3,122.5,1070.5,122.8,1071.6,123.1z M1064.6,121.8l-0.2,1.5c-1.2-0.1-2.3-0.2-3.5-0.3l0.1-1.5 C1062.2,121.6,1063.4,121.7,1064.6,121.8z M1057.5,121.5l0,1.5c-1.2,0-2.3,0.1-3.5,0.2l-0.1-1.5 C1055.1,121.6,1056.3,121.5,1057.5,121.5z M1050.6,123.6c-1.2,0.2-2.3,0.4-3.4,0.6l-0.3-1.5c1.2-0.2,2.3-0.5,3.5-0.6L1050.6,123.6 z M1043.7,125c-1.1,0.3-2.2,0.6-3.3,1l-0.5-1.5c1.1-0.4,2.3-0.7,3.4-1L1043.7,125z M1037.1,127.2c-1.1,0.4-2.2,0.9-3.2,1.4 l-0.7-1.4c1.1-0.5,2.2-1,3.3-1.4L1037.1,127.2z M1030.8,130.2c-1,0.6-2,1.1-3,1.8l-0.8-1.3c1-0.6,2-1.2,3.1-1.8L1030.8,130.2z M1024.9,133.9c-0.9,0.7-1.9,1.4-2.8,2.1l-1-1.2c0.9-0.7,1.9-1.5,2.8-2.2L1024.9,133.9z M1019.5,138.2c-0.9,0.8-1.7,1.6-2.5,2.4 l-1.1-1.1c0.8-0.8,1.7-1.7,2.6-2.5L1019.5,138.2z"></path> </g> <g> <polygon class="st7" points="1102.4,133.5 1100.9,133.5 1100.9,141.1 1093.4,140.6 1093.3,142.1 1102.5,142.7 "></polygon> </g> </g> <g> <g> <path class="st7" d="M1099.5,354.8l-1.1-1.1c0.8-0.8,1.6-1.7,2.4-2.5l1.1,1C1101.2,353.1,1100.3,354,1099.5,354.8z M1094.1,359.5 l-0.9-1.2c0.9-0.7,1.8-1.4,2.7-2.2l1,1.2C1096,358,1095,358.8,1094.1,359.5z M1088.2,363.5l-0.8-1.3c1-0.6,2-1.2,2.9-1.9l0.8,1.3 C1090.2,362.2,1089.2,362.9,1088.2,363.5z M1081.8,366.7l-0.6-1.4c1.1-0.5,2.1-1,3.2-1.5l0.7,1.4 C1084,365.7,1082.9,366.2,1081.8,366.7z M1075.1,369.2l-0.4-1.5c1.1-0.3,2.2-0.7,3.3-1.1l0.5,1.4 C1077.4,368.5,1076.2,368.9,1075.1,369.2z M1068.1,370.9l-0.3-1.5c1.1-0.2,2.3-0.4,3.4-0.7l0.4,1.5 C1070.5,370.4,1069.3,370.6,1068.1,370.9z M1061,371.6l-0.1-1.5c1.2-0.1,2.3-0.1,3.5-0.3l0.2,1.5 C1063.4,371.5,1062.2,371.6,1061,371.6z M1053.9,371.5l0.1-1.5c1.2,0.1,2.3,0.1,3.5,0.2l0,1.5 C1056.3,371.7,1055.1,371.6,1053.9,371.5z M1050.3,371.1c-1.2-0.2-2.4-0.4-3.5-0.6l0.3-1.5c1.1,0.2,2.3,0.4,3.4,0.6L1050.3,371.1z M1043.3,369.7c-1.1-0.3-2.3-0.7-3.4-1l0.5-1.5c1.1,0.4,2.2,0.7,3.3,1L1043.3,369.7z M1036.6,367.4c-1.1-0.4-2.2-0.9-3.3-1.4 l0.7-1.4c1,0.5,2.1,1,3.2,1.4L1036.6,367.4z M1030.1,364.4c-1-0.6-2.1-1.2-3.1-1.8l0.8-1.3c1,0.6,2,1.2,3,1.8L1030.1,364.4z M1024.1,360.6c-1-0.7-1.9-1.4-2.8-2.2l1-1.2c0.9,0.7,1.8,1.4,2.8,2.1L1024.1,360.6z M1018.5,356.1c-0.9-0.8-1.7-1.6-2.6-2.5 l1.1-1.1c0.8,0.8,1.6,1.6,2.5,2.4L1018.5,356.1z"></path> </g> <g> <polygon class="st7" points="1102.4,359.7 1100.9,359.7 1100.9,352.1 1093.4,352.6 1093.3,351.1 1102.5,350.5 "></polygon> </g> </g> <g> <g class="st8"> <path d="M28.6,169.4l4.1-11.6h2.5l4.1,11.6H37l-0.9-2.7h-4.2l-1,2.7H28.6z M32.4,164.6h3.1l-1.5-4.6L32.4,164.6z"></path> <path d="M40.8,169.4v-8.3h2.3v1.2c0.1-0.2,0.3-0.4,0.5-0.6c0.2-0.2,0.5-0.3,0.8-0.5c0.3-0.1,0.7-0.2,1.1-0.2c0.5,0,1,0.1,1.4,0.3 c0.4,0.2,0.8,0.5,1.1,0.9s0.4,1,0.4,1.7v5.5H46v-5.2c0-0.4-0.1-0.8-0.4-1c-0.3-0.2-0.6-0.3-1-0.3c-0.3,0-0.5,0-0.7,0.1 s-0.4,0.2-0.6,0.4c-0.1,0.2-0.2,0.4-0.2,0.7v5.3H40.8z"></path> <path d="M52.7,169.5c-0.5,0-1-0.1-1.4-0.3s-0.8-0.5-1-0.9c-0.2-0.4-0.4-0.8-0.4-1.4c0-0.9,0.3-1.6,1-2.1c0.7-0.5,1.7-0.7,3.2-0.7 l1,0v-0.5c0-0.4-0.1-0.7-0.3-0.9c-0.2-0.2-0.6-0.3-1-0.3c-0.3,0-0.7,0.1-1,0.2c-0.3,0.2-0.5,0.4-0.6,0.8h-1.9 c0-0.6,0.2-1.1,0.5-1.5c0.3-0.4,0.7-0.7,1.3-0.9c0.5-0.2,1.2-0.3,1.8-0.3c0.8,0,1.5,0.1,2,0.3c0.5,0.2,0.9,0.5,1.1,0.9 c0.2,0.4,0.3,0.9,0.3,1.4v5.8h-2l-0.2-1.4c-0.3,0.6-0.6,1-1.1,1.2C53.7,169.4,53.2,169.5,52.7,169.5z M53.4,168 c0.2,0,0.4,0,0.6-0.1c0.2-0.1,0.4-0.2,0.5-0.3s0.3-0.3,0.4-0.4c0.1-0.2,0.1-0.3,0.1-0.5v-1.2l-0.8,0c-0.4,0-0.8,0.1-1.1,0.1 s-0.6,0.2-0.8,0.4c-0.2,0.2-0.3,0.5-0.3,0.8c0,0.4,0.1,0.7,0.4,0.9S53.1,168,53.4,168z"></path> <path d="M62.1,169.5c-0.6,0-1.1-0.1-1.4-0.2c-0.4-0.1-0.6-0.3-0.8-0.6c-0.2-0.2-0.3-0.5-0.3-0.8c0-0.3-0.1-0.6-0.1-0.9v-9.6h2.3 v9.3c0,0.3,0.1,0.6,0.2,0.7s0.4,0.3,0.7,0.3l0.4,0v1.4c-0.2,0.1-0.3,0.1-0.5,0.1S62.2,169.5,62.1,169.5z"></path> <path d="M65.9,172c-0.6,0-1.1-0.1-1.5-0.3v-1.5l0.8,0c0.4,0,0.6,0,0.9-0.1c0.2-0.1,0.4-0.1,0.5-0.2s0.2-0.2,0.2-0.3 s0.1-0.2,0.1-0.2l0.2-0.5l-3.2-7.9h2.3l2,5.4l2-5.4h2.3l-3.4,8.3c-0.3,0.7-0.6,1.2-0.9,1.6c-0.3,0.4-0.7,0.6-1,0.8 C66.8,171.9,66.4,172,65.9,172z"></path> <path d="M76.9,169.5c-0.6,0-1.1-0.1-1.7-0.3s-1-0.5-1.4-0.9c-0.4-0.4-0.6-0.9-0.7-1.6h2c0.1,0.3,0.2,0.5,0.4,0.7s0.4,0.3,0.6,0.4 s0.5,0.1,0.7,0.1c0.4,0,0.8-0.1,1.1-0.2c0.3-0.1,0.4-0.4,0.4-0.7c0-0.2-0.1-0.4-0.2-0.5c-0.2-0.1-0.4-0.2-0.8-0.3l-1.5-0.3 c-0.7-0.2-1.3-0.4-1.8-0.8c-0.4-0.4-0.7-0.9-0.7-1.6c0-0.5,0.1-0.9,0.4-1.3c0.3-0.4,0.7-0.7,1.2-0.9c0.5-0.2,1.2-0.3,1.9-0.3 c1,0,1.8,0.2,2.4,0.7c0.6,0.4,0.9,1.1,0.9,1.9h-2c-0.1-0.3-0.2-0.6-0.5-0.7c-0.3-0.2-0.6-0.3-1-0.3c-0.4,0-0.7,0.1-1,0.2 c-0.3,0.1-0.4,0.4-0.4,0.7c0,0.2,0.1,0.4,0.3,0.5c0.2,0.1,0.5,0.2,1,0.3l1.3,0.3c0.5,0.1,0.8,0.3,1.1,0.5c0.3,0.2,0.5,0.4,0.7,0.6 c0.2,0.2,0.3,0.5,0.3,0.7c0.1,0.2,0.1,0.4,0.1,0.6c0,0.5-0.1,1-0.4,1.4s-0.7,0.7-1.2,0.9C78.2,169.4,77.6,169.5,76.9,169.5z"></path> <path d="M84.4,157.8v2.1h-2.3v-2.1H84.4z M84.4,161.1v8.3h-2.2v-8.3H84.4z"></path> <path d="M89.8,169.5c-0.6,0-1.1-0.1-1.7-0.3s-1-0.5-1.4-0.9c-0.4-0.4-0.6-0.9-0.7-1.6h2c0.1,0.3,0.2,0.5,0.4,0.7s0.4,0.3,0.6,0.4 s0.5,0.1,0.7,0.1c0.4,0,0.8-0.1,1.1-0.2c0.3-0.1,0.4-0.4,0.4-0.7c0-0.2-0.1-0.4-0.2-0.5c-0.2-0.1-0.4-0.2-0.8-0.3l-1.5-0.3 c-0.7-0.2-1.3-0.4-1.8-0.8c-0.4-0.4-0.7-0.9-0.7-1.6c0-0.5,0.1-0.9,0.4-1.3c0.3-0.4,0.7-0.7,1.2-0.9c0.5-0.2,1.2-0.3,1.9-0.3 c1,0,1.8,0.2,2.4,0.7c0.6,0.4,0.9,1.1,0.9,1.9h-2c-0.1-0.3-0.2-0.6-0.5-0.7c-0.3-0.2-0.6-0.3-1-0.3c-0.4,0-0.7,0.1-1,0.2 c-0.3,0.1-0.4,0.4-0.4,0.7c0,0.2,0.1,0.4,0.3,0.5c0.2,0.1,0.5,0.2,1,0.3l1.3,0.3c0.5,0.1,0.8,0.3,1.1,0.5c0.3,0.2,0.5,0.4,0.7,0.6 c0.2,0.2,0.3,0.5,0.3,0.7c0.1,0.2,0.1,0.4,0.1,0.6c0,0.5-0.1,1-0.4,1.4s-0.7,0.7-1.2,0.9C91.1,169.4,90.5,169.5,89.8,169.5z"></path> </g> </g> <g> <g class="st8"> <path d="M303.5,157.8h2.3v11.6h-2.3V157.8z"></path> <path d="M308.1,169.4v-8.3h2.3v1.2c0.1-0.2,0.3-0.4,0.5-0.6c0.2-0.2,0.5-0.3,0.8-0.5c0.3-0.1,0.7-0.2,1.1-0.2c0.5,0,1,0.1,1.4,0.3 c0.4,0.2,0.8,0.5,1.1,0.9s0.4,1,0.4,1.7v5.5h-2.3v-5.2c0-0.4-0.1-0.8-0.4-1c-0.3-0.2-0.6-0.3-1-0.3c-0.3,0-0.5,0-0.7,0.1 s-0.4,0.2-0.6,0.4c-0.1,0.2-0.2,0.4-0.2,0.7v5.3H308.1z"></path> <path d="M322.6,161.1v1.6h-1.7v6.6h-2.3v-6.6H317v-1.6h1.5v-1.2c0-0.7,0.2-1.2,0.6-1.6c0.4-0.4,0.9-0.6,1.7-0.6h1.9l0,1.6h-1.1 c-0.3,0-0.5,0.1-0.6,0.2c-0.1,0.1-0.2,0.4-0.2,0.7v0.8H322.6z"></path> <path d="M327.6,169.5c-0.8,0-1.5-0.2-2.1-0.5s-1.1-0.8-1.4-1.5s-0.5-1.4-0.5-2.3s0.2-1.6,0.5-2.3c0.3-0.7,0.8-1.2,1.4-1.5 c0.6-0.4,1.3-0.5,2.1-0.5s1.5,0.2,2.1,0.5c0.6,0.4,1.1,0.9,1.4,1.5c0.3,0.6,0.5,1.4,0.5,2.3c0,0.8-0.2,1.6-0.5,2.2 c-0.3,0.6-0.8,1.1-1.4,1.5C329.1,169.3,328.4,169.5,327.6,169.5z M327.6,167.8c0.4,0,0.7-0.1,1-0.4c0.3-0.2,0.4-0.6,0.5-0.9 c0.1-0.4,0.2-0.8,0.2-1.3c0-0.4-0.1-0.9-0.2-1.2c-0.1-0.4-0.3-0.7-0.5-0.9c-0.3-0.2-0.6-0.4-1-0.4c-0.4,0-0.7,0.1-1,0.3 s-0.4,0.5-0.6,0.9c-0.1,0.4-0.2,0.8-0.2,1.3c0,0.4,0.1,0.8,0.2,1.2c0.1,0.4,0.3,0.7,0.5,1C326.8,167.7,327.1,167.8,327.6,167.8z"></path> <path d="M333.1,169.4v-8.3h2.2v2c0.1-0.4,0.3-0.8,0.6-1.1s0.5-0.6,0.9-0.7s0.7-0.3,1.2-0.3c0.1,0,0.1,0,0.2,0c0.1,0,0.1,0,0.1,0 v2.2c0,0-0.1,0-0.2,0c-0.1,0-0.1,0-0.2,0c-0.5,0-0.9,0-1.2,0c-0.3,0.1-0.6,0.2-0.8,0.3c-0.2,0.2-0.3,0.3-0.4,0.6 c-0.1,0.2-0.1,0.5-0.1,0.8v4.5H333.1z"></path> <path d="M339.6,169.4v-8.3h2.3v1.2c0.3-0.4,0.6-0.7,1-0.9c0.4-0.3,1-0.4,1.6-0.4c0.3,0,0.6,0.1,0.9,0.2c0.3,0.1,0.6,0.2,0.8,0.4 c0.3,0.2,0.5,0.4,0.6,0.7c0.3-0.4,0.6-0.7,1.1-0.9c0.4-0.3,0.9-0.4,1.5-0.4c0.3,0,0.6,0.1,0.9,0.2c0.3,0.1,0.6,0.3,0.9,0.5 s0.5,0.5,0.6,0.9c0.2,0.4,0.2,0.9,0.2,1.4v5.5h-2.3v-5.2c0-0.3-0.1-0.6-0.2-0.8s-0.3-0.3-0.5-0.4c-0.2-0.1-0.4-0.1-0.6-0.1 c-0.2,0-0.4,0-0.6,0.1c-0.2,0.1-0.4,0.2-0.5,0.4s-0.2,0.4-0.2,0.7v5.3h-2.3V164c0-0.3-0.1-0.5-0.2-0.6s-0.3-0.3-0.5-0.4 c-0.2-0.1-0.4-0.1-0.6-0.1c-0.2,0-0.4,0-0.6,0.1c-0.2,0.1-0.4,0.2-0.5,0.4c-0.1,0.2-0.2,0.4-0.2,0.7v5.3H339.6z"></path> <path d="M356.4,169.5c-0.5,0-1-0.1-1.4-0.3s-0.8-0.5-1-0.9c-0.2-0.4-0.4-0.8-0.4-1.4c0-0.9,0.3-1.6,1-2.1c0.7-0.5,1.7-0.7,3.2-0.7 l1,0v-0.5c0-0.4-0.1-0.7-0.3-0.9c-0.2-0.2-0.6-0.3-1-0.3c-0.3,0-0.7,0.1-1,0.2c-0.3,0.2-0.5,0.4-0.6,0.8h-1.9 c0-0.6,0.2-1.1,0.5-1.5c0.3-0.4,0.7-0.7,1.3-0.9c0.5-0.2,1.2-0.3,1.8-0.3c0.8,0,1.5,0.1,2,0.3c0.5,0.2,0.9,0.5,1.1,0.9 c0.2,0.4,0.3,0.9,0.3,1.4v5.8h-2l-0.2-1.4c-0.3,0.6-0.6,1-1.1,1.2C357.4,169.4,356.9,169.5,356.4,169.5z M357.1,168 c0.2,0,0.4,0,0.6-0.1c0.2-0.1,0.4-0.2,0.5-0.3s0.3-0.3,0.4-0.4c0.1-0.2,0.1-0.3,0.1-0.5v-1.2l-0.8,0c-0.4,0-0.8,0.1-1.1,0.1 s-0.6,0.2-0.8,0.4c-0.2,0.2-0.3,0.5-0.3,0.8c0,0.4,0.1,0.7,0.4,0.9S356.8,168,357.1,168z"></path> <path d="M368.2,162.7h-1.8l0,4.4c0,0.2,0,0.4,0.1,0.5s0.1,0.2,0.2,0.2c0.1,0,0.2,0,0.4,0h1.1v1.4c-0.1,0-0.3,0.1-0.5,0.1 c-0.2,0-0.5,0.1-0.9,0.1c-0.7,0-1.3-0.1-1.7-0.3c-0.4-0.2-0.7-0.4-0.8-0.8s-0.2-0.7-0.2-1.2v-4.5h-1.3v-1.6h1.4l0.6-2.5h1.7v2.5 h1.8V162.7z"></path> <path d="M372.3,157.8v2.1H370v-2.1H372.3z M372.2,161.1v8.3H370v-8.3H372.2z"></path> <path d="M377.9,169.5c-0.8,0-1.5-0.2-2.1-0.5s-1.1-0.8-1.4-1.5s-0.5-1.4-0.5-2.3s0.2-1.6,0.5-2.3c0.3-0.7,0.8-1.2,1.4-1.5 c0.6-0.4,1.3-0.5,2.1-0.5s1.5,0.2,2.1,0.5c0.6,0.4,1.1,0.9,1.4,1.5c0.3,0.6,0.5,1.4,0.5,2.3c0,0.8-0.2,1.6-0.5,2.2 c-0.3,0.6-0.8,1.1-1.4,1.5C379.5,169.3,378.8,169.5,377.9,169.5z M377.9,167.8c0.4,0,0.7-0.1,1-0.4c0.3-0.2,0.4-0.6,0.5-0.9 c0.1-0.4,0.2-0.8,0.2-1.3c0-0.4-0.1-0.9-0.2-1.2c-0.1-0.4-0.3-0.7-0.5-0.9c-0.3-0.2-0.6-0.4-1-0.4c-0.4,0-0.7,0.1-1,0.3 s-0.4,0.5-0.6,0.9c-0.1,0.4-0.2,0.8-0.2,1.3c0,0.4,0.1,0.8,0.2,1.2c0.1,0.4,0.3,0.7,0.5,1C377.1,167.7,377.5,167.8,377.9,167.8z"></path> <path d="M383.5,169.4v-8.3h2.3v1.2c0.1-0.2,0.3-0.4,0.5-0.6c0.2-0.2,0.5-0.3,0.8-0.5c0.3-0.1,0.7-0.2,1.1-0.2c0.5,0,1,0.1,1.4,0.3 c0.4,0.2,0.8,0.5,1.1,0.9s0.4,1,0.4,1.7v5.5h-2.3v-5.2c0-0.4-0.1-0.8-0.4-1c-0.3-0.2-0.6-0.3-1-0.3c-0.3,0-0.5,0-0.7,0.1 s-0.4,0.2-0.6,0.4c-0.1,0.2-0.2,0.4-0.2,0.7v5.3H383.5z"></path> <path d="M299,188.6l4.1-11.6h2.5l4.1,11.6h-2.3l-0.9-2.7h-4.2l-1,2.7H299z M302.8,183.8h3.1l-1.5-4.6L302.8,183.8z"></path> <path d="M311.2,188.6v-8.3h2.2v2c0.1-0.4,0.3-0.8,0.6-1.1s0.5-0.6,0.9-0.7s0.7-0.3,1.2-0.3c0.1,0,0.1,0,0.2,0c0.1,0,0.1,0,0.1,0 v2.2c0,0-0.1,0-0.2,0c-0.1,0-0.1,0-0.2,0c-0.5,0-0.9,0-1.2,0c-0.3,0.1-0.6,0.2-0.8,0.3c-0.2,0.2-0.3,0.3-0.4,0.6 c-0.1,0.2-0.1,0.5-0.1,0.8v4.5H311.2z"></path> <path d="M321.2,180.1c0.7,0,1.3,0.1,1.8,0.4c0.5,0.3,0.9,0.7,1.2,1.1c0.3,0.5,0.5,1,0.5,1.6h-1.9c0-0.2-0.1-0.4-0.2-0.7 s-0.3-0.4-0.5-0.5c-0.2-0.1-0.5-0.2-0.8-0.2c-0.5,0-1,0.2-1.3,0.6c-0.3,0.4-0.5,1.1-0.5,1.9c0,0.8,0.2,1.4,0.5,1.9 c0.3,0.5,0.8,0.7,1.4,0.7c0.3,0,0.6-0.1,0.8-0.2c0.2-0.2,0.4-0.3,0.5-0.6c0.1-0.2,0.2-0.4,0.2-0.6h1.9c0,0.6-0.2,1.1-0.5,1.5 c-0.3,0.5-0.7,0.8-1.2,1.1s-1.1,0.4-1.8,0.4c-0.8,0-1.5-0.2-2.1-0.5c-0.6-0.3-1.1-0.8-1.4-1.5c-0.3-0.6-0.5-1.4-0.5-2.3 c0-0.9,0.2-1.6,0.5-2.3c0.3-0.7,0.8-1.2,1.4-1.5C319.7,180.3,320.4,180.1,321.2,180.1z"></path> <path d="M326.3,188.6v-11.9h2.3v4.8c0.1-0.2,0.3-0.4,0.5-0.6c0.2-0.2,0.5-0.3,0.8-0.5s0.7-0.2,1.1-0.2c0.5,0,1,0.1,1.4,0.3 c0.4,0.2,0.8,0.5,1,0.9c0.3,0.4,0.4,0.9,0.4,1.4v5.7h-2.3v-5.4c0-0.4-0.1-0.7-0.4-0.9s-0.6-0.3-1-0.3c-0.3,0-0.5,0-0.7,0.1 s-0.4,0.2-0.6,0.4c-0.1,0.2-0.2,0.4-0.2,0.7v5.3H326.3z"></path> <path d="M338.2,177v2.1h-2.3V177H338.2z M338.2,180.3v8.3h-2.2v-8.3H338.2z"></path> <path d="M345.3,181.9h-1.8l0,4.4c0,0.2,0,0.4,0.1,0.5s0.1,0.2,0.2,0.2c0.1,0,0.2,0,0.4,0h1.1v1.4c-0.1,0-0.3,0.1-0.5,0.1 c-0.2,0-0.5,0.1-0.9,0.1c-0.7,0-1.3-0.1-1.7-0.3c-0.4-0.2-0.7-0.4-0.8-0.8s-0.2-0.7-0.2-1.2v-4.5h-1.3v-1.6h1.4l0.6-2.5h1.7v2.5 h1.8V181.9z"></path> <path d="M349,185c0,0.4,0.1,0.8,0.2,1.1s0.3,0.6,0.6,0.7c0.3,0.2,0.6,0.3,1,0.3c0.4,0,0.8-0.1,1.1-0.3s0.5-0.5,0.6-0.8h2.1 c-0.1,0.6-0.3,1.1-0.7,1.5s-0.8,0.7-1.4,1s-1.1,0.3-1.7,0.3c-0.8,0-1.5-0.2-2.2-0.5c-0.6-0.3-1.1-0.8-1.5-1.5 c-0.3-0.6-0.5-1.4-0.5-2.2c0-0.8,0.2-1.6,0.5-2.2c0.3-0.7,0.8-1.2,1.4-1.6c0.6-0.4,1.3-0.6,2.2-0.6c0.8,0,1.6,0.2,2.1,0.5 c0.6,0.4,1,0.8,1.3,1.5c0.3,0.6,0.4,1.4,0.4,2.2v0.6H349z M349,183.6h3.4c0-0.3-0.1-0.6-0.2-0.9c-0.1-0.3-0.3-0.5-0.6-0.7 c-0.2-0.2-0.6-0.2-0.9-0.2c-0.4,0-0.7,0.1-0.9,0.3c-0.3,0.2-0.4,0.4-0.6,0.7S349,183.3,349,183.6z"></path> <path d="M359.7,180.1c0.7,0,1.3,0.1,1.8,0.4c0.5,0.3,0.9,0.7,1.2,1.1c0.3,0.5,0.5,1,0.5,1.6h-1.9c0-0.2-0.1-0.4-0.2-0.7 s-0.3-0.4-0.5-0.5c-0.2-0.1-0.5-0.2-0.8-0.2c-0.5,0-1,0.2-1.3,0.6c-0.3,0.4-0.5,1.1-0.5,1.9c0,0.8,0.2,1.4,0.5,1.9 c0.3,0.5,0.8,0.7,1.4,0.7c0.3,0,0.6-0.1,0.8-0.2c0.2-0.2,0.4-0.3,0.5-0.6c0.1-0.2,0.2-0.4,0.2-0.6h1.9c0,0.6-0.2,1.1-0.5,1.5 c-0.3,0.5-0.7,0.8-1.2,1.1s-1.1,0.4-1.8,0.4c-0.8,0-1.5-0.2-2.1-0.5c-0.6-0.3-1.1-0.8-1.4-1.5c-0.3-0.6-0.5-1.4-0.5-2.3 c0-0.9,0.2-1.6,0.5-2.3c0.3-0.7,0.8-1.2,1.4-1.5C358.2,180.3,358.9,180.1,359.7,180.1z"></path> <path d="M369.8,181.9H368l0,4.4c0,0.2,0,0.4,0.1,0.5s0.1,0.2,0.2,0.2c0.1,0,0.2,0,0.4,0h1.1v1.4c-0.1,0-0.3,0.1-0.5,0.1 c-0.2,0-0.5,0.1-0.9,0.1c-0.7,0-1.3-0.1-1.7-0.3c-0.4-0.2-0.7-0.4-0.8-0.8s-0.2-0.7-0.2-1.2v-4.5h-1.3v-1.6h1.4l0.6-2.5h1.7v2.5 h1.8V181.9z"></path> <path d="M374.6,188.7c-0.4,0-0.8-0.1-1.1-0.2s-0.7-0.3-1-0.5c-0.3-0.2-0.5-0.5-0.7-0.8s-0.3-0.7-0.3-1.2v-5.7h2.3v5.4 c0,0.4,0.1,0.7,0.4,0.9c0.3,0.2,0.6,0.4,1.1,0.4c0.5,0,0.8-0.1,1.1-0.4c0.3-0.2,0.4-0.6,0.4-1v-5.4h2.3v8.3h-1.8l-0.3-1.6 c-0.1,0.5-0.3,0.9-0.5,1.1c-0.3,0.3-0.6,0.4-0.9,0.5S374.9,188.7,374.6,188.7z"></path> <path d="M381,188.6v-8.3h2.2v2c0.1-0.4,0.3-0.8,0.6-1.1s0.5-0.6,0.9-0.7s0.7-0.3,1.2-0.3c0.1,0,0.1,0,0.2,0c0.1,0,0.1,0,0.1,0v2.2 c0,0-0.1,0-0.2,0c-0.1,0-0.1,0-0.2,0c-0.5,0-0.9,0-1.2,0c-0.3,0.1-0.6,0.2-0.8,0.3c-0.2,0.2-0.3,0.3-0.4,0.6 c-0.1,0.2-0.1,0.5-0.1,0.8v4.5H381z"></path> <path d="M389.4,185c0,0.4,0.1,0.8,0.2,1.1s0.3,0.6,0.6,0.7c0.3,0.2,0.6,0.3,1,0.3c0.4,0,0.8-0.1,1.1-0.3s0.5-0.5,0.6-0.8h2.1 c-0.1,0.6-0.3,1.1-0.7,1.5s-0.8,0.7-1.4,1s-1.1,0.3-1.7,0.3c-0.8,0-1.5-0.2-2.2-0.5c-0.6-0.3-1.1-0.8-1.5-1.5 c-0.3-0.6-0.5-1.4-0.5-2.2c0-0.8,0.2-1.6,0.5-2.2c0.3-0.7,0.8-1.2,1.4-1.6c0.6-0.4,1.3-0.6,2.2-0.6c0.8,0,1.6,0.2,2.1,0.5 c0.6,0.4,1,0.8,1.3,1.5c0.3,0.6,0.4,1.4,0.4,2.2v0.6H389.4z M389.4,183.6h3.4c0-0.3-0.1-0.6-0.2-0.9c-0.1-0.3-0.3-0.5-0.6-0.7 c-0.2-0.2-0.6-0.2-0.9-0.2c-0.4,0-0.7,0.1-0.9,0.3c-0.3,0.2-0.4,0.4-0.6,0.7S389.4,183.3,389.4,183.6z"></path> </g> </g> <g> <g class="st8"> <path d="M591.1,169.5c-0.6,0-1.1-0.1-1.7-0.2c-0.5-0.1-1.1-0.4-1.5-0.6c-0.5-0.3-0.8-0.6-1.1-1.1c-0.3-0.4-0.5-0.9-0.5-1.5h2.4 c0.1,0.4,0.2,0.6,0.5,0.9s0.5,0.4,0.8,0.6s0.7,0.2,1.1,0.2c0.4,0,0.8-0.1,1.2-0.2c0.4-0.1,0.6-0.3,0.8-0.5 c0.2-0.2,0.3-0.5,0.3-0.8c0-0.3-0.1-0.5-0.3-0.7c-0.2-0.2-0.4-0.3-0.7-0.5c-0.3-0.1-0.6-0.2-1-0.3l-2-0.4c-0.9-0.2-1.6-0.5-2.1-1 c-0.5-0.5-0.8-1.2-0.8-2.1c0-0.7,0.2-1.4,0.6-1.9c0.4-0.5,0.9-0.9,1.6-1.2s1.4-0.4,2.3-0.4c1,0,1.8,0.2,2.5,0.5 c0.7,0.3,1.2,0.7,1.6,1.3c0.4,0.5,0.5,1.1,0.5,1.8h-2.3c0-0.4-0.2-0.7-0.4-1c-0.2-0.2-0.5-0.4-0.8-0.5c-0.3-0.1-0.7-0.2-1.1-0.2 c-0.3,0-0.6,0-0.8,0.1c-0.3,0.1-0.5,0.2-0.6,0.3c-0.2,0.1-0.3,0.3-0.4,0.4c-0.1,0.2-0.1,0.4-0.1,0.6c0,0.3,0.1,0.6,0.3,0.8 s0.6,0.4,1.3,0.5l2,0.4c0.7,0.1,1.3,0.3,1.7,0.6c0.4,0.3,0.7,0.6,0.9,0.9c0.2,0.3,0.3,0.7,0.4,1s0.1,0.7,0.1,1 c0,0.6-0.2,1.2-0.6,1.7s-0.9,0.9-1.6,1.2C592.9,169.4,592.1,169.5,591.1,169.5z"></path> <path d="M605.6,169.4h-2.3l-2.2-3.6l-1.1,1.2v2.4h-2.3v-11.9h2.3v7l3-3.4h2.5l-3,3.3L605.6,169.4z"></path> <path d="M608.8,165.8c0,0.4,0.1,0.8,0.2,1.1s0.3,0.6,0.6,0.7c0.3,0.2,0.6,0.3,1,0.3c0.4,0,0.8-0.1,1.1-0.3s0.5-0.5,0.6-0.8h2.1 c-0.1,0.6-0.3,1.1-0.7,1.5s-0.8,0.7-1.4,1s-1.1,0.3-1.7,0.3c-0.8,0-1.5-0.2-2.2-0.5c-0.6-0.3-1.1-0.8-1.5-1.5 c-0.3-0.6-0.5-1.4-0.5-2.2c0-0.8,0.2-1.6,0.5-2.2c0.3-0.7,0.8-1.2,1.4-1.6c0.6-0.4,1.3-0.6,2.2-0.6c0.8,0,1.6,0.2,2.1,0.5 c0.6,0.4,1,0.8,1.3,1.5c0.3,0.6,0.4,1.4,0.4,2.2v0.6H608.8z M608.8,164.4h3.4c0-0.3-0.1-0.6-0.2-0.9c-0.1-0.3-0.3-0.5-0.6-0.7 c-0.2-0.2-0.6-0.2-0.9-0.2c-0.4,0-0.7,0.1-0.9,0.3c-0.3,0.2-0.4,0.4-0.6,0.7S608.8,164.1,608.8,164.4z"></path> <path d="M621,162.7h-1.8l0,4.4c0,0.2,0,0.4,0.1,0.5s0.1,0.2,0.2,0.2c0.1,0,0.2,0,0.4,0h1.1v1.4c-0.1,0-0.3,0.1-0.5,0.1 c-0.2,0-0.5,0.1-0.9,0.1c-0.7,0-1.3-0.1-1.7-0.3c-0.4-0.2-0.7-0.4-0.8-0.8s-0.2-0.7-0.2-1.2v-4.5h-1.3v-1.6h1.4l0.6-2.5h1.7v2.5 h1.8V162.7z"></path> <path d="M626.3,160.9c0.7,0,1.3,0.1,1.8,0.4c0.5,0.3,0.9,0.7,1.2,1.1c0.3,0.5,0.5,1,0.5,1.6h-1.9c0-0.2-0.1-0.4-0.2-0.7 s-0.3-0.4-0.5-0.5c-0.2-0.1-0.5-0.2-0.8-0.2c-0.5,0-1,0.2-1.3,0.6c-0.3,0.4-0.5,1.1-0.5,1.9c0,0.8,0.2,1.4,0.5,1.9 c0.3,0.5,0.8,0.7,1.4,0.7c0.3,0,0.6-0.1,0.8-0.2c0.2-0.2,0.4-0.3,0.5-0.6c0.1-0.2,0.2-0.4,0.2-0.6h1.9c0,0.6-0.2,1.1-0.5,1.5 c-0.3,0.5-0.7,0.8-1.2,1.1s-1.1,0.4-1.8,0.4c-0.8,0-1.5-0.2-2.1-0.5c-0.6-0.3-1.1-0.8-1.4-1.5c-0.3-0.6-0.5-1.4-0.5-2.3 c0-0.9,0.2-1.6,0.5-2.3c0.3-0.7,0.8-1.2,1.4-1.5C624.8,161.1,625.5,160.9,626.3,160.9z"></path> <path d="M631.4,169.4v-11.9h2.3v4.8c0.1-0.2,0.3-0.4,0.5-0.6c0.2-0.2,0.5-0.3,0.8-0.5s0.7-0.2,1.1-0.2c0.5,0,1,0.1,1.4,0.3 c0.4,0.2,0.8,0.5,1,0.9c0.3,0.4,0.4,0.9,0.4,1.4v5.7h-2.3V164c0-0.4-0.1-0.7-0.4-0.9s-0.6-0.3-1-0.3c-0.3,0-0.5,0-0.7,0.1 s-0.4,0.2-0.6,0.4c-0.1,0.2-0.2,0.4-0.2,0.7v5.3H631.4z"></path> <path d="M643.2,157.8v2.1h-2.3v-2.1H643.2z M643.2,161.1v8.3H641v-8.3H643.2z"></path> <path d="M645.3,169.4v-8.3h2.3v1.2c0.1-0.2,0.3-0.4,0.5-0.6c0.2-0.2,0.5-0.3,0.8-0.5c0.3-0.1,0.7-0.2,1.1-0.2c0.5,0,1,0.1,1.4,0.3 s0.8,0.5,1.1,0.9c0.3,0.4,0.4,1,0.4,1.7v5.5h-2.3v-5.2c0-0.4-0.1-0.8-0.4-1c-0.3-0.2-0.6-0.3-1-0.3c-0.3,0-0.5,0-0.7,0.1 s-0.4,0.2-0.6,0.4c-0.1,0.2-0.2,0.4-0.2,0.7v5.3H645.3z"></path> <path d="M658.6,172.1c-1.5,0-2.6-0.2-3.4-0.6s-1.1-0.9-1.1-1.5c0-0.3,0.1-0.5,0.2-0.7c0.1-0.2,0.3-0.3,0.5-0.5 c0.2-0.1,0.4-0.2,0.6-0.3c0.2-0.1,0.3-0.1,0.3-0.1c-0.1,0-0.2-0.1-0.4-0.2c-0.2-0.1-0.3-0.2-0.4-0.4c-0.1-0.2-0.2-0.4-0.2-0.6 c0-0.3,0.1-0.6,0.4-0.8c0.3-0.2,0.7-0.4,1.3-0.5c-0.5-0.3-1-0.6-1.2-1c-0.3-0.4-0.4-0.9-0.4-1.3c0-0.5,0.2-1,0.5-1.4 c0.3-0.4,0.8-0.7,1.4-0.9c0.6-0.2,1.3-0.3,2-0.3c0.6,0,1,0.1,1.4,0.2s0.7,0.3,1,0.5c0.1,0,0.3-0.1,0.5-0.2 c0.2-0.1,0.4-0.2,0.7-0.3c0.2-0.1,0.5-0.2,0.7-0.3c0.2-0.1,0.4-0.2,0.6-0.3l0,1.8l-1.4,0.2c0.1,0.1,0.1,0.3,0.1,0.5 c0,0.2,0,0.3,0,0.4c0,0.5-0.1,0.9-0.4,1.3c-0.3,0.4-0.7,0.8-1.3,1c-0.6,0.3-1.2,0.4-2.1,0.4c-0.1,0-0.2,0-0.4,0s-0.3,0-0.4,0 c-0.3,0-0.5,0.1-0.6,0.1c-0.1,0.1-0.2,0.1-0.2,0.2c0,0.1,0.1,0.2,0.4,0.3s0.6,0.1,1.1,0.1c0.2,0,0.4,0,0.7,0c0.3,0,0.6,0,1,0.1 c1,0.1,1.8,0.3,2.3,0.7c0.5,0.4,0.7,1,0.7,1.6c0,0.8-0.4,1.4-1.1,1.9C661.2,171.8,660.1,172.1,658.6,172.1z M659,170.8 c0.7,0,1.1-0.1,1.4-0.2c0.3-0.2,0.4-0.4,0.4-0.7c0-0.3-0.1-0.5-0.3-0.6c-0.2-0.2-0.5-0.2-0.9-0.3l-1.9-0.1c-0.2,0-0.5,0-0.7,0.1 c-0.2,0.1-0.3,0.2-0.4,0.4c-0.1,0.1-0.2,0.3-0.2,0.5c0,0.3,0.2,0.6,0.6,0.8C657.5,170.7,658.1,170.8,659,170.8z M658.6,165 c0.4,0,0.8-0.1,1.1-0.4c0.3-0.2,0.4-0.6,0.4-1c0-0.4-0.1-0.8-0.4-1c-0.3-0.3-0.6-0.4-1.1-0.4c-0.4,0-0.8,0.1-1.1,0.4 c-0.3,0.3-0.4,0.6-0.4,1c0,0.4,0.1,0.7,0.4,1C657.8,164.9,658.1,165,658.6,165z"></path> <path d="M672.9,157.6c0.7,0,1.3,0.1,1.8,0.3s1,0.5,1.3,0.9s0.5,0.8,0.5,1.3c0,0.3-0.1,0.5-0.2,0.8c-0.1,0.3-0.3,0.5-0.5,0.8 s-0.5,0.5-0.8,0.8s-0.7,0.5-1.1,0.8l1.8,2.1c0.1-0.2,0.2-0.4,0.3-0.6c0.1-0.3,0.2-0.6,0.3-0.9s0.2-0.7,0.2-1h2.4 c-0.1,0.5-0.3,0.9-0.6,1.4c-0.2,0.4-0.5,0.9-0.8,1.3s-0.5,0.8-0.8,1.2l2.3,2.7h-2.7l-1-1.1c-0.6,0.4-1.3,0.8-1.9,0.9 c-0.6,0.2-1.3,0.3-1.8,0.3c-0.8,0-1.5-0.1-2.1-0.4c-0.6-0.3-1-0.6-1.2-1.1c-0.3-0.4-0.4-1-0.4-1.6c0-0.5,0.1-1,0.3-1.4 c0.2-0.4,0.5-0.8,1-1.1c0.4-0.3,1-0.7,1.6-1c-0.3-0.3-0.5-0.6-0.7-0.8c-0.2-0.3-0.4-0.5-0.5-0.8c-0.1-0.3-0.2-0.6-0.2-0.9 c0-0.5,0.1-1,0.4-1.4s0.7-0.7,1.2-1C671.7,157.7,672.3,157.6,672.9,157.6z M672.1,164.2c-0.4,0.2-0.8,0.5-1.1,0.9 s-0.4,0.8-0.4,1.2c0,0.3,0.1,0.5,0.3,0.7c0.2,0.2,0.4,0.3,0.6,0.4c0.2,0.1,0.5,0.2,0.8,0.2c0.3,0,0.7-0.1,1-0.2s0.7-0.3,1-0.6 L672.1,164.2z M673,159c-0.4,0-0.7,0.1-0.9,0.3c-0.2,0.2-0.3,0.5-0.3,0.8c0,0.2,0,0.4,0.1,0.5c0.1,0.2,0.2,0.4,0.3,0.5 c0.1,0.2,0.2,0.3,0.4,0.5l0.3,0.3c0.4-0.2,0.7-0.5,0.9-0.7c0.2-0.2,0.4-0.4,0.5-0.6c0.1-0.2,0.1-0.4,0.1-0.6 c0-0.3-0.1-0.5-0.2-0.7c-0.1-0.2-0.3-0.3-0.5-0.4S673.3,159,673,159z"></path> <path d="M599.8,177l-3.4,11.6h-1.9l-2.2-7.6l-2.2,7.6h-1.8l-3.4-11.6h2.3l2.2,7.6l2.2-7.6h1.7l2.2,7.6l2.2-7.6H599.8z"></path> <path d="M603.5,177v2.1h-2.3V177H603.5z M603.5,180.3v8.3h-2.2v-8.3H603.5z"></path> <path d="M605.6,188.6v-8.3h2.2v2c0.1-0.4,0.3-0.8,0.6-1.1s0.5-0.6,0.9-0.7s0.7-0.3,1.2-0.3c0.1,0,0.1,0,0.2,0c0.1,0,0.1,0,0.1,0 v2.2c0,0-0.1,0-0.2,0c-0.1,0-0.1,0-0.2,0c-0.5,0-0.9,0-1.2,0c-0.3,0.1-0.6,0.2-0.8,0.3c-0.2,0.2-0.3,0.3-0.4,0.6 c-0.1,0.2-0.1,0.5-0.1,0.8v4.5H605.6z"></path> <path d="M614,185c0,0.4,0.1,0.8,0.2,1.1s0.3,0.6,0.6,0.7c0.3,0.2,0.6,0.3,1,0.3c0.4,0,0.8-0.1,1.1-0.3s0.5-0.5,0.6-0.8h2.1 c-0.1,0.6-0.3,1.1-0.7,1.5s-0.8,0.7-1.4,1s-1.1,0.3-1.7,0.3c-0.8,0-1.5-0.2-2.2-0.5c-0.6-0.3-1.1-0.8-1.5-1.5 c-0.3-0.6-0.5-1.4-0.5-2.2c0-0.8,0.2-1.6,0.5-2.2c0.3-0.7,0.8-1.2,1.4-1.6c0.6-0.4,1.3-0.6,2.2-0.6c0.8,0,1.6,0.2,2.1,0.5 c0.6,0.4,1,0.8,1.3,1.5c0.3,0.6,0.4,1.4,0.4,2.2v0.6H614z M614,183.6h3.4c0-0.3-0.1-0.6-0.2-0.9c-0.1-0.3-0.3-0.5-0.6-0.7 c-0.2-0.2-0.6-0.2-0.9-0.2c-0.4,0-0.7,0.1-0.9,0.3c-0.3,0.2-0.4,0.4-0.6,0.7S614,183.3,614,183.6z"></path> <path d="M626.2,180.3v1.6h-1.7v6.6h-2.3v-6.6h-1.5v-1.6h1.5v-1.2c0-0.7,0.2-1.2,0.6-1.6c0.4-0.4,0.9-0.6,1.7-0.6h1.9l0,1.6h-1.1 c-0.3,0-0.5,0.1-0.6,0.2c-0.1,0.1-0.2,0.4-0.2,0.7v0.8H626.2z"></path> <path d="M627.6,188.6v-8.3h2.2v2c0.1-0.4,0.3-0.8,0.6-1.1s0.5-0.6,0.9-0.7s0.7-0.3,1.2-0.3c0.1,0,0.1,0,0.2,0c0.1,0,0.1,0,0.1,0 v2.2c0,0-0.1,0-0.2,0c-0.1,0-0.1,0-0.2,0c-0.5,0-0.9,0-1.2,0c-0.3,0.1-0.6,0.2-0.8,0.3c-0.2,0.2-0.3,0.3-0.4,0.6 c-0.1,0.2-0.1,0.5-0.1,0.8v4.5H627.6z"></path> <path d="M636.5,188.7c-0.5,0-1-0.1-1.4-0.3s-0.8-0.5-1-0.9c-0.2-0.4-0.4-0.8-0.4-1.4c0-0.9,0.3-1.6,1-2.1c0.7-0.5,1.7-0.7,3.2-0.7 l1,0v-0.5c0-0.4-0.1-0.7-0.3-0.9c-0.2-0.2-0.6-0.3-1-0.3c-0.3,0-0.7,0.1-1,0.2c-0.3,0.2-0.5,0.4-0.6,0.8h-1.9 c0-0.6,0.2-1.1,0.5-1.5c0.3-0.4,0.7-0.7,1.3-0.9c0.5-0.2,1.2-0.3,1.8-0.3c0.8,0,1.5,0.1,2,0.3c0.5,0.2,0.9,0.5,1.1,0.9 c0.2,0.4,0.3,0.9,0.3,1.4v5.8h-2l-0.2-1.4c-0.3,0.6-0.6,1-1.1,1.2C637.6,188.6,637.1,188.7,636.5,188.7z M637.3,187.2 c0.2,0,0.4,0,0.6-0.1c0.2-0.1,0.4-0.2,0.5-0.3s0.3-0.3,0.4-0.4c0.1-0.2,0.1-0.3,0.1-0.5v-1.2l-0.8,0c-0.4,0-0.8,0.1-1.1,0.1 s-0.6,0.2-0.8,0.4c-0.2,0.2-0.3,0.5-0.3,0.8c0,0.4,0.1,0.7,0.4,0.9S636.9,187.2,637.3,187.2z"></path> <path d="M643.3,188.6v-8.3h2.3v1.2c0.2-0.4,0.6-0.7,1-0.9c0.4-0.3,1-0.4,1.6-0.4c0.3,0,0.6,0.1,0.9,0.2c0.3,0.1,0.6,0.2,0.8,0.4 s0.5,0.4,0.6,0.7c0.3-0.4,0.6-0.7,1.1-0.9c0.4-0.3,0.9-0.4,1.5-0.4c0.3,0,0.6,0.1,0.9,0.2c0.3,0.1,0.6,0.3,0.9,0.5 s0.5,0.5,0.6,0.9c0.2,0.4,0.2,0.9,0.2,1.4v5.5h-2.3v-5.2c0-0.3-0.1-0.6-0.2-0.8s-0.3-0.3-0.5-0.4c-0.2-0.1-0.4-0.1-0.6-0.1 c-0.2,0-0.4,0-0.6,0.1c-0.2,0.1-0.4,0.2-0.5,0.4s-0.2,0.4-0.2,0.7v5.3h-2.3v-5.4c0-0.3-0.1-0.5-0.2-0.6c-0.1-0.2-0.3-0.3-0.5-0.4 c-0.2-0.1-0.4-0.1-0.6-0.1c-0.2,0-0.4,0-0.6,0.1c-0.2,0.1-0.4,0.2-0.5,0.4c-0.1,0.2-0.2,0.4-0.2,0.7v5.3H643.3z"></path> <path d="M660,177v2.1h-2.3V177H660z M660,180.3v8.3h-2.2v-8.3H660z"></path> <path d="M662.1,188.6v-8.3h2.3v1.2c0.1-0.2,0.3-0.4,0.5-0.6c0.2-0.2,0.5-0.3,0.8-0.5c0.3-0.1,0.7-0.2,1.1-0.2c0.5,0,1,0.1,1.4,0.3 c0.4,0.2,0.8,0.5,1.1,0.9c0.3,0.4,0.4,1,0.4,1.7v5.5h-2.3v-5.2c0-0.4-0.1-0.8-0.4-1c-0.3-0.2-0.6-0.3-1-0.3c-0.3,0-0.5,0-0.7,0.1 s-0.4,0.2-0.6,0.4c-0.1,0.2-0.2,0.4-0.2,0.7v5.3H662.1z"></path> <path d="M675.4,191.3c-1.5,0-2.6-0.2-3.4-0.6c-0.8-0.4-1.1-0.9-1.1-1.5c0-0.3,0.1-0.5,0.2-0.7c0.1-0.2,0.3-0.3,0.5-0.5 c0.2-0.1,0.4-0.2,0.6-0.3c0.2-0.1,0.3-0.1,0.3-0.1c-0.1,0-0.2-0.1-0.4-0.2c-0.2-0.1-0.3-0.2-0.4-0.4c-0.1-0.2-0.2-0.4-0.2-0.6 c0-0.3,0.1-0.6,0.4-0.8c0.3-0.2,0.7-0.4,1.3-0.5c-0.5-0.3-1-0.6-1.2-1c-0.3-0.4-0.4-0.9-0.4-1.3c0-0.5,0.2-1,0.5-1.4 c0.3-0.4,0.8-0.7,1.4-0.9c0.6-0.2,1.3-0.3,2-0.3c0.6,0,1,0.1,1.4,0.2c0.4,0.1,0.7,0.3,1,0.5c0.1,0,0.3-0.1,0.5-0.2 c0.2-0.1,0.4-0.2,0.7-0.3c0.2-0.1,0.5-0.2,0.7-0.3c0.2-0.1,0.4-0.2,0.6-0.3l0,1.8l-1.4,0.2c0.1,0.1,0.1,0.3,0.1,0.5 c0,0.2,0,0.3,0,0.4c0,0.5-0.1,0.9-0.4,1.3s-0.7,0.8-1.3,1c-0.6,0.3-1.2,0.4-2.1,0.4c-0.1,0-0.2,0-0.4,0c-0.2,0-0.3,0-0.4,0 c-0.3,0-0.5,0.1-0.6,0.1c-0.1,0.1-0.2,0.1-0.2,0.2c0,0.1,0.1,0.2,0.4,0.3c0.2,0,0.6,0.1,1.1,0.1c0.2,0,0.4,0,0.7,0 c0.3,0,0.6,0,1,0.1c1,0.1,1.8,0.3,2.3,0.7c0.5,0.4,0.7,1,0.7,1.6c0,0.8-0.4,1.4-1.1,1.9C678,191,676.9,191.3,675.4,191.3z M675.8,190c0.7,0,1.1-0.1,1.4-0.2c0.3-0.2,0.4-0.4,0.4-0.7c0-0.3-0.1-0.5-0.3-0.6c-0.2-0.2-0.5-0.2-0.9-0.3l-1.9-0.1 c-0.2,0-0.5,0-0.7,0.1c-0.2,0.1-0.3,0.2-0.4,0.4c-0.1,0.1-0.2,0.3-0.2,0.5c0,0.3,0.2,0.6,0.6,0.8C674.2,189.9,674.9,190,675.8,190 z M675.3,184.2c0.4,0,0.8-0.1,1.1-0.4c0.3-0.2,0.4-0.6,0.4-1c0-0.4-0.1-0.8-0.4-1c-0.3-0.3-0.6-0.4-1.1-0.4 c-0.4,0-0.8,0.1-1.1,0.4c-0.3,0.3-0.4,0.6-0.4,1c0,0.4,0.1,0.7,0.4,1C674.5,184.1,674.9,184.2,675.3,184.2z"></path> </g> </g> <g> <g class="st8"> <path d="M504,20.2c0,2.1-0.3,3.9-1,5.5c-0.7,1.5-1.8,2.7-3.3,3.6s-3.6,1.3-6.1,1.3c-2.5,0-4.6-0.4-6.1-1.3s-2.6-2-3.3-3.6 c-0.7-1.6-1-3.4-1-5.6V4.1h5.3v16.3c0,1.9,0.5,3.4,1.4,4.3c0.9,0.9,2.2,1.3,3.7,1.3c1,0,1.9-0.2,2.6-0.6c0.8-0.4,1.4-1,1.8-1.8 s0.7-1.9,0.7-3.2V4.1h5.3V20.2z"></path> <path d="M531.2,30.1h-6.6l-5.9-9.4l-5.8,9.4h-5.7l8.7-13.2l-8.4-12.8h6.5l5.2,8.4l5.1-8.4h5.6l-8,12.1L531.2,30.1z"></path> <path d="M542.7,4.1c0.1,0,0.5,0,1.1,0s1.3,0,2.1,0c0.8,0,1.6,0,2.5,0c0.8,0,1.5,0,2.1,0c3.2,0.1,5.7,0.7,7.7,1.7 c2,1.1,3.5,2.5,4.4,4.4c0.9,1.9,1.4,4.1,1.4,6.7c0,2.7-0.5,5-1.5,7c-1,2-2.5,3.5-4.5,4.5c-2,1.1-4.6,1.6-7.7,1.6h-7.6V4.1z M548,8.3v17.5h2.4c1.5,0,2.8-0.3,4.1-0.9c1.2-0.6,2.2-1.5,2.9-2.8c0.7-1.3,1.1-3.1,1.1-5.2c0-2-0.3-3.7-1-4.9 c-0.6-1.3-1.6-2.2-2.8-2.8c-1.2-0.6-2.6-0.9-4.3-0.9H548z"></path> <path d="M572.3,22c0,0.9,0.1,1.8,0.5,2.5s0.8,1.2,1.4,1.6c0.6,0.4,1.3,0.6,2.2,0.6c0.9,0,1.7-0.2,2.4-0.6c0.7-0.4,1.1-1,1.4-1.9 h4.7c-0.2,1.3-0.7,2.4-1.6,3.4c-0.8,0.9-1.9,1.6-3.1,2.1c-1.2,0.5-2.4,0.7-3.7,0.7c-1.8,0-3.5-0.4-4.9-1.2 c-1.4-0.8-2.5-1.9-3.3-3.3c-0.8-1.4-1.2-3.1-1.2-5c0-1.9,0.4-3.5,1.1-5c0.7-1.5,1.7-2.7,3.1-3.5s3-1.3,4.9-1.3 c1.9,0,3.5,0.4,4.8,1.2c1.3,0.8,2.3,1.9,2.9,3.3c0.7,1.4,1,3.1,1,4.9V22H572.3z M572.3,18.9h7.6c0-0.7-0.1-1.4-0.4-2 c-0.3-0.6-0.7-1.1-1.3-1.5s-1.3-0.5-2.1-0.5c-0.8,0-1.5,0.2-2.1,0.6c-0.6,0.4-1,0.9-1.3,1.5C572.4,17.5,572.3,18.2,572.3,18.9z"></path> <path d="M595.8,30.5c-1.3,0-2.5-0.2-3.7-0.6c-1.2-0.4-2.2-1.1-3-2c-0.8-0.9-1.4-2.1-1.6-3.6h4.6c0.2,0.7,0.4,1.2,0.9,1.6 s0.9,0.7,1.4,0.8c0.5,0.2,1,0.2,1.5,0.2c1,0,1.8-0.2,2.4-0.5c0.6-0.3,0.9-0.8,0.9-1.5c0-0.5-0.2-0.9-0.5-1.2 c-0.4-0.3-1-0.5-1.8-0.7l-3.3-0.7c-1.6-0.3-3-0.9-4-1.8c-1-0.8-1.5-2-1.5-3.6c0-1.1,0.3-2.1,0.9-3c0.6-0.9,1.5-1.6,2.6-2.1 c1.2-0.5,2.6-0.8,4.3-0.8c2.3,0,4.1,0.5,5.5,1.5s2.1,2.4,2.1,4.3H599c-0.1-0.7-0.5-1.3-1.1-1.7c-0.6-0.4-1.3-0.6-2.2-0.6 c-0.9,0-1.7,0.2-2.2,0.5c-0.6,0.3-0.9,0.8-0.9,1.5c0,0.5,0.2,0.9,0.7,1.2c0.5,0.3,1.2,0.5,2.2,0.7l3,0.7c1,0.3,1.9,0.6,2.5,1 c0.7,0.4,1.2,0.9,1.5,1.4c0.4,0.5,0.6,1,0.7,1.6c0.1,0.5,0.2,1,0.2,1.4c0,1.2-0.3,2.3-1,3.2c-0.7,0.9-1.6,1.5-2.8,2 C598.7,30.2,597.3,30.5,595.8,30.5z"></path> <path d="M612.6,4.1v4.7h-5.1V4.1H612.6z M612.6,11.5v18.6h-5V11.5H612.6z"></path> <path d="M626,36.3c-3.3,0-5.8-0.4-7.6-1.3c-1.7-0.8-2.6-1.9-2.6-3.3c0-0.6,0.2-1.2,0.5-1.6c0.3-0.4,0.7-0.8,1.2-1 c0.5-0.3,0.9-0.5,1.2-0.6c0.4-0.1,0.6-0.2,0.7-0.3c-0.2-0.1-0.5-0.3-0.8-0.5c-0.4-0.2-0.7-0.5-1-0.9c-0.3-0.4-0.5-0.8-0.5-1.4 c0-0.7,0.3-1.3,0.9-1.9c0.6-0.6,1.6-0.9,2.9-1.2c-1.2-0.6-2.2-1.4-2.8-2.4c-0.6-1-1-2-1-3c0-1.2,0.4-2.3,1.2-3.1s1.8-1.5,3.1-2 c1.3-0.5,2.8-0.7,4.5-0.7c1.3,0,2.3,0.1,3.2,0.4c0.8,0.3,1.6,0.6,2.3,1.1c0.3-0.1,0.6-0.2,1.1-0.4c0.5-0.2,0.9-0.4,1.5-0.6 c0.5-0.2,1-0.4,1.5-0.6s1-0.4,1.4-0.6l0,4.1l-3.2,0.5c0.1,0.3,0.2,0.7,0.3,1c0.1,0.4,0.1,0.7,0.1,0.9c0,1.1-0.3,2.1-0.9,3 c-0.6,0.9-1.6,1.7-2.8,2.3s-2.8,0.9-4.7,0.9c-0.2,0-0.5,0-0.9,0c-0.4,0-0.7,0-0.9-0.1c-0.7,0-1.2,0.1-1.5,0.3 c-0.3,0.1-0.4,0.3-0.4,0.5c0,0.3,0.3,0.5,0.8,0.6s1.4,0.2,2.4,0.2c0.4,0,0.9,0.1,1.6,0.1s1.4,0.1,2.3,0.1c2.3,0.2,4,0.7,5.1,1.7 s1.7,2.2,1.7,3.6c0,1.7-0.8,3.2-2.5,4.3S629.3,36.3,626,36.3z M626.8,33.3c1.5,0,2.5-0.2,3.1-0.5c0.6-0.4,0.9-0.9,0.9-1.5 c0-0.6-0.2-1-0.7-1.4s-1.2-0.6-2.1-0.6l-4.3-0.3c-0.6,0-1,0-1.5,0.2c-0.4,0.2-0.8,0.5-1,0.8c-0.2,0.3-0.4,0.7-0.4,1.1 c0,0.8,0.5,1.4,1.4,1.7C623.4,33.1,624.8,33.3,626.8,33.3z M625.8,20.2c1,0,1.8-0.3,2.4-0.8s0.9-1.3,0.9-2.2c0-1-0.3-1.8-0.9-2.3 s-1.4-0.9-2.4-0.9c-1,0-1.8,0.3-2.4,0.9c-0.6,0.6-0.9,1.4-0.9,2.3c0,0.9,0.3,1.7,0.9,2.2C624,20,624.8,20.2,625.8,20.2z"></path> <path d="M640,30.1V11.5h5.2v2.6c0.3-0.5,0.7-0.9,1.1-1.3s1-0.8,1.8-1.1c0.7-0.3,1.5-0.4,2.5-0.4c1.1,0,2.2,0.2,3.2,0.7 c1,0.4,1.8,1.1,2.4,2.1s0.9,2.2,0.9,3.7v12.3h-5.3V18.5c0-1-0.3-1.8-0.9-2.3c-0.6-0.5-1.3-0.8-2.2-0.8c-0.6,0-1.1,0.1-1.7,0.3 c-0.5,0.2-1,0.5-1.3,0.9s-0.5,0.9-0.5,1.5v11.9H640z"></path> <path d="M669.6,30.1v-26h9.6c1.9,0,3.6,0.3,5.1,1s2.7,1.6,3.6,2.9c0.9,1.3,1.3,2.8,1.3,4.7c0,1.7-0.4,3.2-1.2,4.4 c-0.8,1.2-1.8,2.2-3.2,2.8c-1.4,0.7-3,1-4.9,1h-5v9.3H669.6z M674.9,16.7h4.9c1.3,0,2.4-0.4,3.2-1.3s1.3-1.9,1.3-3.1 c0-1.3-0.4-2.3-1.3-3.1c-0.9-0.8-2-1.1-3.2-1.1h-4.8V16.7z"></path> <path d="M692.4,30.1V11.5h5.1v4.4c0.3-0.9,0.7-1.8,1.3-2.5c0.5-0.7,1.2-1.3,2-1.7c0.8-0.4,1.7-0.6,2.6-0.6c0.2,0,0.3,0,0.5,0 c0.2,0,0.3,0,0.3,0.1v5c-0.1,0-0.2-0.1-0.4-0.1c-0.2,0-0.3,0-0.4,0c-1-0.1-1.9-0.1-2.6,0.1c-0.7,0.1-1.3,0.4-1.8,0.7 c-0.5,0.3-0.8,0.8-1,1.3s-0.3,1.1-0.3,1.7v10.2H692.4z"></path> <path d="M715.1,30.5c-1.8,0-3.4-0.4-4.8-1.2c-1.3-0.8-2.4-1.9-3.1-3.3c-0.7-1.4-1.1-3.1-1.1-5.1s0.4-3.7,1.1-5.1s1.8-2.6,3.1-3.4 c1.4-0.8,2.9-1.2,4.8-1.2s3.4,0.4,4.8,1.2c1.3,0.8,2.4,1.9,3.1,3.4c0.7,1.5,1.1,3.2,1.1,5.2c0,1.9-0.4,3.5-1.1,5 c-0.7,1.4-1.7,2.6-3.1,3.4C718.6,30,717,30.5,715.1,30.5z M715.1,26.5c0.9,0,1.7-0.3,2.2-0.8c0.6-0.5,1-1.3,1.2-2.1 s0.4-1.8,0.4-2.9c0-1-0.1-1.9-0.4-2.8s-0.6-1.6-1.2-2.1c-0.6-0.5-1.3-0.8-2.3-0.8c-0.9,0-1.7,0.3-2.2,0.8s-1,1.2-1.3,2.1 s-0.4,1.8-0.4,2.9c0,1,0.1,1.9,0.4,2.8c0.2,0.9,0.6,1.6,1.2,2.2C713.3,26.3,714.1,26.5,715.1,26.5z"></path> <path d="M735.5,11.1c1.6,0,2.9,0.3,4,1c1.1,0.6,2,1.5,2.7,2.6c0.7,1.1,1,2.3,1.1,3.6H739c-0.1-0.5-0.3-1-0.5-1.5s-0.6-0.9-1.1-1.2 c-0.5-0.3-1.1-0.5-1.8-0.5c-1.2,0-2.2,0.5-3,1.4c-0.8,0.9-1.1,2.4-1.1,4.3c0,1.8,0.4,3.2,1.1,4.3c0.7,1.1,1.8,1.6,3.1,1.6 c0.7,0,1.3-0.2,1.8-0.5c0.5-0.3,0.8-0.8,1.1-1.3c0.3-0.5,0.4-0.9,0.5-1.4h4.3c-0.1,1.3-0.5,2.4-1.1,3.5s-1.6,1.9-2.7,2.5 c-1.1,0.6-2.5,0.9-4,0.9c-1.7,0-3.3-0.4-4.6-1.2c-1.4-0.8-2.4-1.9-3.2-3.3c-0.8-1.4-1.2-3.1-1.2-5.1c0-1.9,0.4-3.6,1.1-5.1 s1.8-2.6,3.1-3.4C732.2,11.5,733.7,11.1,735.5,11.1z"></path> <path d="M751.3,22c0,0.9,0.1,1.8,0.5,2.5c0.3,0.7,0.8,1.2,1.4,1.6c0.6,0.4,1.3,0.6,2.2,0.6c0.9,0,1.7-0.2,2.4-0.6 c0.7-0.4,1.1-1,1.4-1.9h4.7c-0.2,1.3-0.7,2.4-1.6,3.4c-0.8,0.9-1.9,1.6-3.1,2.1c-1.2,0.5-2.4,0.7-3.7,0.7c-1.8,0-3.5-0.4-4.9-1.2 c-1.4-0.8-2.5-1.9-3.3-3.3s-1.2-3.1-1.2-5c0-1.9,0.4-3.5,1.1-5c0.7-1.5,1.7-2.7,3.1-3.5c1.3-0.9,3-1.3,4.9-1.3 c1.9,0,3.5,0.4,4.8,1.2c1.3,0.8,2.3,1.9,2.9,3.3s1,3.1,1,4.9V22H751.3z M751.3,18.9h7.6c0-0.7-0.1-1.4-0.4-2 c-0.3-0.6-0.7-1.1-1.3-1.5c-0.6-0.4-1.3-0.5-2.1-0.5c-0.8,0-1.5,0.2-2.1,0.6c-0.6,0.4-1,0.9-1.3,1.5 C751.4,17.5,751.3,18.2,751.3,18.9z"></path> <path d="M774.8,30.5c-1.3,0-2.5-0.2-3.7-0.6s-2.2-1.1-3-2s-1.4-2.1-1.6-3.6h4.6c0.2,0.7,0.4,1.2,0.9,1.6s0.9,0.7,1.4,0.8 c0.5,0.2,1,0.2,1.5,0.2c1,0,1.8-0.2,2.4-0.5c0.6-0.3,0.9-0.8,0.9-1.5c0-0.5-0.2-0.9-0.5-1.2c-0.4-0.3-1-0.5-1.8-0.7l-3.3-0.7 c-1.6-0.3-3-0.9-4-1.8c-1-0.8-1.5-2-1.5-3.6c0-1.1,0.3-2.1,0.9-3c0.6-0.9,1.5-1.6,2.6-2.1c1.2-0.5,2.6-0.8,4.3-0.8 c2.3,0,4.1,0.5,5.5,1.5s2.1,2.4,2.1,4.3H778c-0.1-0.7-0.5-1.3-1.1-1.7c-0.6-0.4-1.3-0.6-2.2-0.6c-0.9,0-1.7,0.2-2.2,0.5 s-0.9,0.8-0.9,1.5c0,0.5,0.2,0.9,0.7,1.2c0.5,0.3,1.2,0.5,2.2,0.7l3,0.7c1,0.3,1.9,0.6,2.5,1c0.7,0.4,1.2,0.9,1.5,1.4 c0.4,0.5,0.6,1,0.7,1.6c0.1,0.5,0.2,1,0.2,1.4c0,1.2-0.3,2.3-1,3.2c-0.7,0.9-1.6,1.5-2.8,2S776.4,30.5,774.8,30.5z"></path> <path d="M793.7,30.5c-1.3,0-2.5-0.2-3.7-0.6s-2.2-1.1-3-2s-1.4-2.1-1.6-3.6h4.6c0.2,0.7,0.4,1.2,0.9,1.6s0.9,0.7,1.4,0.8 c0.5,0.2,1,0.2,1.5,0.2c1,0,1.8-0.2,2.4-0.5c0.6-0.3,0.9-0.8,0.9-1.5c0-0.5-0.2-0.9-0.5-1.2c-0.4-0.3-1-0.5-1.8-0.7l-3.3-0.7 c-1.6-0.3-3-0.9-4-1.8c-1-0.8-1.5-2-1.5-3.6c0-1.1,0.3-2.1,0.9-3c0.6-0.9,1.5-1.6,2.6-2.1c1.2-0.5,2.6-0.8,4.3-0.8 c2.3,0,4.1,0.5,5.5,1.5s2.1,2.4,2.1,4.3h-4.4c-0.1-0.7-0.5-1.3-1.1-1.7c-0.6-0.4-1.3-0.6-2.2-0.6c-0.9,0-1.7,0.2-2.2,0.5 s-0.9,0.8-0.9,1.5c0,0.5,0.2,0.9,0.7,1.2c0.5,0.3,1.2,0.5,2.2,0.7l3,0.7c1,0.3,1.9,0.6,2.5,1c0.7,0.4,1.2,0.9,1.5,1.4 c0.4,0.5,0.6,1,0.7,1.6c0.1,0.5,0.2,1,0.2,1.4c0,1.2-0.3,2.3-1,3.2c-0.7,0.9-1.6,1.5-2.8,2S795.2,30.5,793.7,30.5z"></path> </g> </g> <g> <g class="st8"> <path d="M511.4,471.3c0,2.1-0.3,3.9-1,5.5c-0.7,1.5-1.8,2.7-3.3,3.6s-3.6,1.3-6.1,1.3c-2.5,0-4.6-0.4-6.1-1.3s-2.6-2-3.3-3.6 c-0.7-1.6-1-3.4-1-5.6v-15.9h5.3v16.3c0,1.9,0.5,3.4,1.4,4.3c0.9,0.9,2.2,1.3,3.7,1.3c1,0,1.9-0.2,2.6-0.6c0.8-0.4,1.4-1,1.8-1.8 s0.7-1.9,0.7-3.2v-16.3h5.3V471.3z"></path> <path d="M516.6,455.2h5.2v26h-5.2V455.2z"></path> <path d="M535.3,455.2c0.1,0,0.5,0,1.1,0s1.3,0,2.1,0c0.8,0,1.6,0,2.5,0c0.8,0,1.5,0,2.1,0c3.2,0.1,5.7,0.7,7.7,1.7 c2,1.1,3.5,2.5,4.4,4.4c0.9,1.9,1.4,4.1,1.4,6.7c0,2.7-0.5,5-1.5,7c-1,2-2.5,3.5-4.5,4.5c-2,1.1-4.6,1.6-7.7,1.6h-7.6V455.2z M540.6,459.4V477h2.4c1.5,0,2.8-0.3,4.1-0.9c1.2-0.6,2.2-1.5,2.9-2.8c0.7-1.3,1.1-3.1,1.1-5.2c0-2-0.3-3.7-1-4.9 c-0.6-1.3-1.6-2.2-2.8-2.8c-1.2-0.6-2.6-0.9-4.3-0.9H540.6z"></path> <path d="M564.9,473.1c0,0.9,0.1,1.8,0.5,2.5s0.8,1.2,1.4,1.6c0.6,0.4,1.3,0.6,2.2,0.6c0.9,0,1.7-0.2,2.4-0.6 c0.7-0.4,1.1-1,1.4-1.9h4.7c-0.2,1.3-0.7,2.4-1.6,3.4c-0.8,0.9-1.9,1.6-3.1,2.1c-1.2,0.5-2.4,0.7-3.7,0.7c-1.8,0-3.5-0.4-4.9-1.2 c-1.4-0.8-2.5-1.9-3.3-3.3c-0.8-1.4-1.2-3.1-1.2-5c0-1.9,0.4-3.5,1.1-5c0.7-1.5,1.7-2.7,3.1-3.5s3-1.3,4.9-1.3 c1.9,0,3.5,0.4,4.8,1.2c1.3,0.8,2.3,1.9,2.9,3.3c0.7,1.4,1,3.1,1,4.9v1.4H564.9z M564.9,470h7.6c0-0.7-0.1-1.4-0.4-2 c-0.3-0.6-0.7-1.1-1.3-1.5s-1.3-0.5-2.1-0.5c-0.8,0-1.5,0.2-2.1,0.6c-0.6,0.4-1,0.9-1.3,1.5C565.1,468.6,564.9,469.3,564.9,470z"></path> <path d="M588.4,481.6c-1.3,0-2.5-0.2-3.7-0.6c-1.2-0.4-2.2-1.1-3-2c-0.8-0.9-1.4-2.1-1.6-3.6h4.6c0.2,0.7,0.4,1.2,0.9,1.6 s0.9,0.7,1.4,0.8c0.5,0.2,1,0.2,1.5,0.2c1,0,1.8-0.2,2.4-0.5c0.6-0.3,0.9-0.8,0.9-1.5c0-0.5-0.2-0.9-0.5-1.2 c-0.4-0.3-1-0.5-1.8-0.7l-3.3-0.7c-1.6-0.3-3-0.9-4-1.8c-1-0.8-1.5-2-1.5-3.6c0-1.1,0.3-2.1,0.9-3c0.6-0.9,1.5-1.6,2.6-2.1 c1.2-0.5,2.6-0.8,4.3-0.8c2.3,0,4.1,0.5,5.5,1.5s2.1,2.4,2.1,4.3h-4.4c-0.1-0.7-0.5-1.3-1.1-1.7c-0.6-0.4-1.3-0.6-2.2-0.6 c-0.9,0-1.7,0.2-2.2,0.5c-0.6,0.3-0.9,0.8-0.9,1.5c0,0.5,0.2,0.9,0.7,1.2c0.5,0.3,1.2,0.5,2.2,0.7l3,0.7c1,0.3,1.9,0.6,2.5,1 c0.7,0.4,1.2,0.9,1.5,1.4c0.4,0.5,0.6,1,0.7,1.6c0.1,0.5,0.2,1,0.2,1.4c0,1.2-0.3,2.3-1,3.2c-0.7,0.9-1.6,1.5-2.8,2 C591.3,481.3,590,481.6,588.4,481.6z"></path> <path d="M605.3,455.2v4.7h-5.1v-4.7H605.3z M605.2,462.6v18.6h-5v-18.6H605.2z"></path> <path d="M618.6,487.4c-3.3,0-5.8-0.4-7.6-1.3c-1.7-0.8-2.6-1.9-2.6-3.3c0-0.6,0.2-1.2,0.5-1.6c0.3-0.4,0.7-0.8,1.2-1 c0.5-0.3,0.9-0.5,1.2-0.6c0.4-0.1,0.6-0.2,0.7-0.3c-0.2-0.1-0.5-0.3-0.8-0.5c-0.4-0.2-0.7-0.5-1-0.9c-0.3-0.4-0.5-0.8-0.5-1.4 c0-0.7,0.3-1.3,0.9-1.9c0.6-0.6,1.6-0.9,2.9-1.2c-1.2-0.6-2.2-1.4-2.8-2.4c-0.6-1-1-2-1-3c0-1.2,0.4-2.3,1.2-3.1s1.8-1.5,3.1-2 c1.3-0.5,2.8-0.7,4.5-0.7c1.3,0,2.3,0.1,3.2,0.4c0.8,0.3,1.6,0.6,2.3,1.1c0.3-0.1,0.6-0.2,1.1-0.4c0.5-0.2,0.9-0.4,1.5-0.6 c0.5-0.2,1-0.4,1.5-0.6s1-0.4,1.4-0.6l0,4.1l-3.2,0.5c0.1,0.3,0.2,0.7,0.3,1c0.1,0.4,0.1,0.7,0.1,0.9c0,1.1-0.3,2.1-0.9,3 c-0.6,0.9-1.6,1.7-2.8,2.3s-2.8,0.9-4.7,0.9c-0.2,0-0.5,0-0.9,0c-0.4,0-0.7,0-0.9-0.1c-0.7,0-1.2,0.1-1.5,0.3 c-0.3,0.1-0.4,0.3-0.4,0.5c0,0.3,0.3,0.5,0.8,0.6s1.4,0.2,2.4,0.2c0.4,0,0.9,0.1,1.6,0.1s1.4,0.1,2.3,0.1c2.3,0.2,4,0.7,5.1,1.7 s1.7,2.2,1.7,3.6c0,1.7-0.8,3.2-2.5,4.3S621.9,487.4,618.6,487.4z M619.5,484.4c1.5,0,2.5-0.2,3.1-0.5c0.6-0.4,0.9-0.9,0.9-1.5 c0-0.6-0.2-1-0.7-1.4s-1.2-0.6-2.1-0.6l-4.3-0.3c-0.6,0-1,0-1.5,0.2c-0.4,0.2-0.8,0.5-1,0.8c-0.2,0.3-0.4,0.7-0.4,1.1 c0,0.8,0.5,1.4,1.4,1.7C616,484.3,617.5,484.4,619.5,484.4z M618.5,471.4c1,0,1.8-0.3,2.4-0.8s0.9-1.3,0.9-2.2 c0-1-0.3-1.8-0.9-2.3s-1.4-0.9-2.4-0.9c-1,0-1.8,0.3-2.4,0.9c-0.6,0.6-0.9,1.4-0.9,2.3c0,0.9,0.3,1.7,0.9,2.2 C616.6,471.1,617.4,471.4,618.5,471.4z"></path> <path d="M632.6,481.2v-18.6h5.2v2.6c0.3-0.5,0.7-0.9,1.1-1.3s1-0.8,1.8-1.1c0.7-0.3,1.5-0.4,2.5-0.4c1.1,0,2.2,0.2,3.2,0.7 c1,0.4,1.8,1.1,2.4,2.1c0.6,1,0.9,2.2,0.9,3.7v12.3h-5.3v-11.6c0-1-0.3-1.8-0.9-2.3c-0.6-0.5-1.3-0.8-2.2-0.8 c-0.6,0-1.1,0.1-1.7,0.3c-0.5,0.2-1,0.5-1.3,0.9s-0.5,0.9-0.5,1.5v11.9H632.6z"></path> <path d="M662.2,481.2v-26h9.6c1.9,0,3.6,0.3,5.1,1s2.7,1.6,3.6,2.9c0.9,1.3,1.3,2.8,1.3,4.7c0,1.7-0.4,3.2-1.2,4.4 c-0.8,1.2-1.8,2.2-3.2,2.8c-1.4,0.7-3,1-4.9,1h-5v9.3H662.2z M667.5,467.9h4.9c1.3,0,2.4-0.4,3.2-1.3s1.3-1.9,1.3-3.1 c0-1.3-0.4-2.3-1.3-3.1c-0.9-0.8-2-1.1-3.2-1.1h-4.8V467.9z"></path> <path d="M685.1,481.2v-18.6h5.1v4.4c0.3-0.9,0.7-1.8,1.3-2.5c0.5-0.7,1.2-1.3,2-1.7c0.8-0.4,1.7-0.6,2.6-0.6c0.2,0,0.3,0,0.5,0 c0.1,0,0.3,0,0.3,0.1v5c-0.1,0-0.2-0.1-0.4-0.1c-0.1,0-0.3,0-0.4,0c-1-0.1-1.9-0.1-2.6,0.1c-0.7,0.1-1.3,0.4-1.8,0.7 c-0.5,0.3-0.8,0.8-1,1.3s-0.3,1.1-0.3,1.7v10.2H685.1z"></path> <path d="M707.7,481.6c-1.8,0-3.4-0.4-4.8-1.2c-1.4-0.8-2.4-1.9-3.1-3.3c-0.7-1.4-1.1-3.1-1.1-5.1s0.4-3.7,1.1-5.1 c0.7-1.5,1.8-2.6,3.1-3.4c1.3-0.8,2.9-1.2,4.8-1.2c1.8,0,3.4,0.4,4.8,1.2s2.4,1.9,3.1,3.4c0.7,1.5,1.1,3.2,1.1,5.2 c0,1.9-0.4,3.5-1.1,5c-0.7,1.4-1.7,2.6-3.1,3.4C711.2,481.2,709.6,481.6,707.7,481.6z M707.7,477.7c0.9,0,1.7-0.3,2.2-0.8 c0.6-0.5,1-1.3,1.2-2.1c0.3-0.9,0.4-1.8,0.4-2.9c0-1-0.1-1.9-0.4-2.8c-0.2-0.9-0.6-1.6-1.2-2.1c-0.6-0.5-1.3-0.8-2.3-0.8 c-0.9,0-1.7,0.3-2.2,0.8c-0.6,0.5-1,1.2-1.3,2.1c-0.3,0.9-0.4,1.8-0.4,2.9c0,1,0.1,1.9,0.4,2.8c0.2,0.9,0.6,1.6,1.2,2.2 C706,477.4,706.7,477.7,707.7,477.7z"></path> <path d="M728.2,462.2c1.6,0,2.9,0.3,4,1c1.1,0.6,2,1.5,2.7,2.6s1,2.3,1.1,3.6h-4.4c-0.1-0.5-0.3-1-0.5-1.5 c-0.3-0.5-0.6-0.9-1.1-1.2c-0.5-0.3-1.1-0.5-1.8-0.5c-1.2,0-2.2,0.5-3,1.4c-0.8,0.9-1.1,2.4-1.1,4.3c0,1.8,0.4,3.2,1.1,4.3 c0.7,1.1,1.8,1.6,3.1,1.6c0.7,0,1.3-0.2,1.8-0.5c0.5-0.3,0.8-0.8,1.1-1.3c0.3-0.5,0.4-0.9,0.5-1.4h4.3c-0.1,1.3-0.5,2.4-1.1,3.5 s-1.6,1.9-2.7,2.5c-1.1,0.6-2.5,0.9-4,0.9c-1.7,0-3.3-0.4-4.6-1.2c-1.4-0.8-2.4-1.9-3.2-3.3c-0.8-1.4-1.2-3.1-1.2-5.1 c0-1.9,0.4-3.6,1.1-5.1s1.8-2.6,3.1-3.4C724.8,462.7,726.4,462.2,728.2,462.2z"></path> <path d="M743.9,473.1c0,0.9,0.1,1.8,0.5,2.5c0.3,0.7,0.8,1.2,1.4,1.6s1.3,0.6,2.2,0.6c0.9,0,1.7-0.2,2.4-0.6s1.1-1,1.4-1.9h4.7 c-0.2,1.3-0.7,2.4-1.6,3.4c-0.8,0.9-1.9,1.6-3.1,2.1s-2.4,0.7-3.7,0.7c-1.8,0-3.5-0.4-4.9-1.2c-1.4-0.8-2.5-1.9-3.3-3.3 c-0.8-1.4-1.2-3.1-1.2-5c0-1.9,0.4-3.5,1.1-5s1.7-2.7,3.1-3.5c1.4-0.9,3-1.3,4.9-1.3c1.9,0,3.5,0.4,4.8,1.2 c1.3,0.8,2.3,1.9,2.9,3.3c0.7,1.4,1,3.1,1,4.9v1.4H743.9z M743.9,470h7.6c0-0.7-0.1-1.4-0.4-2c-0.3-0.6-0.7-1.1-1.3-1.5 c-0.6-0.4-1.3-0.5-2.1-0.5c-0.8,0-1.5,0.2-2.1,0.6s-1,0.9-1.3,1.5C744.1,468.6,743.9,469.3,743.9,470z"></path> <path d="M767.5,481.6c-1.3,0-2.5-0.2-3.7-0.6c-1.2-0.4-2.2-1.1-3-2c-0.8-0.9-1.4-2.1-1.6-3.6h4.6c0.2,0.7,0.4,1.2,0.9,1.6 s0.9,0.7,1.4,0.8c0.5,0.2,1,0.2,1.5,0.2c1,0,1.8-0.2,2.4-0.5s0.9-0.8,0.9-1.5c0-0.5-0.2-0.9-0.5-1.2s-1-0.5-1.8-0.7l-3.3-0.7 c-1.6-0.3-3-0.9-4-1.8s-1.5-2-1.5-3.6c0-1.1,0.3-2.1,0.9-3s1.5-1.6,2.6-2.1c1.2-0.5,2.6-0.8,4.3-0.8c2.3,0,4.1,0.5,5.5,1.5 s2.1,2.4,2.1,4.3h-4.4c-0.1-0.7-0.5-1.3-1.1-1.7c-0.6-0.4-1.3-0.6-2.2-0.6c-0.9,0-1.7,0.2-2.2,0.5c-0.6,0.3-0.9,0.8-0.9,1.5 c0,0.5,0.2,0.9,0.7,1.2c0.5,0.3,1.2,0.5,2.2,0.7l3,0.7c1,0.3,1.9,0.6,2.5,1c0.7,0.4,1.2,0.9,1.5,1.4c0.4,0.5,0.6,1,0.7,1.6 c0.1,0.5,0.2,1,0.2,1.4c0,1.2-0.3,2.3-1,3.2c-0.7,0.9-1.6,1.5-2.8,2C770.4,481.3,769,481.6,767.5,481.6z"></path> <path d="M786.3,481.6c-1.3,0-2.5-0.2-3.7-0.6c-1.2-0.4-2.2-1.1-3-2c-0.8-0.9-1.4-2.1-1.6-3.6h4.6c0.2,0.7,0.4,1.2,0.9,1.6 s0.9,0.7,1.4,0.8c0.5,0.2,1,0.2,1.5,0.2c1,0,1.8-0.2,2.4-0.5s0.9-0.8,0.9-1.5c0-0.5-0.2-0.9-0.5-1.2s-1-0.5-1.8-0.7l-3.3-0.7 c-1.6-0.3-3-0.9-4-1.8s-1.5-2-1.5-3.6c0-1.1,0.3-2.1,0.9-3s1.5-1.6,2.6-2.1c1.2-0.5,2.6-0.8,4.3-0.8c2.3,0,4.1,0.5,5.5,1.5 s2.1,2.4,2.1,4.3h-4.4c-0.1-0.7-0.5-1.3-1.1-1.7c-0.6-0.4-1.3-0.6-2.2-0.6c-0.9,0-1.7,0.2-2.2,0.5c-0.6,0.3-0.9,0.8-0.9,1.5 c0,0.5,0.2,0.9,0.7,1.2c0.5,0.3,1.2,0.5,2.2,0.7l3,0.7c1,0.3,1.9,0.6,2.5,1c0.7,0.4,1.2,0.9,1.5,1.4c0.4,0.5,0.6,1,0.7,1.6 c0.1,0.5,0.2,1,0.2,1.4c0,1.2-0.3,2.3-1,3.2c-0.7,0.9-1.6,1.5-2.8,2C789.2,481.3,787.9,481.6,786.3,481.6z"></path> </g> </g> <g> <g class="st8"> <path d="M881.1,169.4v-11.6h4.3c0.8,0,1.6,0.1,2.3,0.4c0.7,0.3,1.2,0.7,1.6,1.3s0.6,1.3,0.6,2.1c0,0.8-0.2,1.4-0.5,2 c-0.3,0.5-0.8,1-1.4,1.3c-0.6,0.3-1.3,0.4-2.2,0.4h-2.2v4.1H881.1z M883.4,163.4h2.2c0.6,0,1.1-0.2,1.4-0.6 c0.4-0.4,0.6-0.8,0.6-1.4c0-0.6-0.2-1-0.6-1.4c-0.4-0.3-0.9-0.5-1.4-0.5h-2.1V163.4z"></path> <path d="M891.3,169.4v-8.3h2.2v2c0.1-0.4,0.3-0.8,0.6-1.1c0.2-0.3,0.5-0.6,0.9-0.7s0.7-0.3,1.2-0.3c0.1,0,0.1,0,0.2,0s0.1,0,0.1,0 v2.2c0,0-0.1,0-0.2,0c-0.1,0-0.1,0-0.2,0c-0.5,0-0.9,0-1.2,0c-0.3,0.1-0.6,0.2-0.8,0.3c-0.2,0.2-0.3,0.3-0.4,0.6 c-0.1,0.2-0.1,0.5-0.1,0.8v4.5H891.3z"></path> <path d="M901.3,169.5c-0.8,0-1.5-0.2-2.1-0.5c-0.6-0.3-1.1-0.8-1.4-1.5s-0.5-1.4-0.5-2.3s0.2-1.6,0.5-2.3c0.3-0.7,0.8-1.2,1.4-1.5 c0.6-0.4,1.3-0.5,2.1-0.5c0.8,0,1.5,0.2,2.1,0.5c0.6,0.4,1.1,0.9,1.4,1.5c0.3,0.6,0.5,1.4,0.5,2.3c0,0.8-0.2,1.6-0.5,2.2 c-0.3,0.6-0.8,1.1-1.4,1.5C902.9,169.3,902.2,169.5,901.3,169.5z M901.3,167.8c0.4,0,0.7-0.1,1-0.4c0.3-0.2,0.4-0.6,0.5-0.9 c0.1-0.4,0.2-0.8,0.2-1.3c0-0.4-0.1-0.9-0.2-1.2c-0.1-0.4-0.3-0.7-0.5-0.9c-0.3-0.2-0.6-0.4-1-0.4c-0.4,0-0.7,0.1-1,0.3 c-0.3,0.2-0.4,0.5-0.6,0.9c-0.1,0.4-0.2,0.8-0.2,1.3c0,0.4,0.1,0.8,0.2,1.2s0.3,0.7,0.5,1C900.5,167.7,900.9,167.8,901.3,167.8z"></path> <path d="M911.9,162.7h-1.8l0,4.4c0,0.2,0,0.4,0.1,0.5s0.1,0.2,0.2,0.2c0.1,0,0.2,0,0.4,0h1.1v1.4c-0.1,0-0.3,0.1-0.5,0.1 c-0.2,0-0.5,0.1-0.9,0.1c-0.7,0-1.3-0.1-1.7-0.3c-0.4-0.2-0.7-0.4-0.8-0.8c-0.2-0.3-0.2-0.7-0.2-1.2v-4.5h-1.3v-1.6h1.4l0.6-2.5 h1.7v2.5h1.8V162.7z"></path> <path d="M917.2,169.5c-0.8,0-1.5-0.2-2.1-0.5c-0.6-0.3-1.1-0.8-1.4-1.5s-0.5-1.4-0.5-2.3s0.2-1.6,0.5-2.3c0.3-0.7,0.8-1.2,1.4-1.5 c0.6-0.4,1.3-0.5,2.1-0.5c0.8,0,1.5,0.2,2.1,0.5c0.6,0.4,1.1,0.9,1.4,1.5c0.3,0.6,0.5,1.4,0.5,2.3c0,0.8-0.2,1.6-0.5,2.2 c-0.3,0.6-0.8,1.1-1.4,1.5C918.7,169.3,918,169.5,917.2,169.5z M917.2,167.8c0.4,0,0.7-0.1,1-0.4c0.3-0.2,0.4-0.6,0.5-0.9 c0.1-0.4,0.2-0.8,0.2-1.3c0-0.4-0.1-0.9-0.2-1.2c-0.1-0.4-0.3-0.7-0.5-0.9c-0.3-0.2-0.6-0.4-1-0.4c-0.4,0-0.7,0.1-1,0.3 c-0.3,0.2-0.4,0.5-0.6,0.9s-0.2,0.8-0.2,1.3c0,0.4,0.1,0.8,0.2,1.2c0.1,0.4,0.3,0.7,0.5,1C916.4,167.7,916.8,167.8,917.2,167.8z"></path> <path d="M927.8,162.7h-1.8l0,4.4c0,0.2,0,0.4,0.1,0.5s0.1,0.2,0.2,0.2c0.1,0,0.2,0,0.4,0h1.1v1.4c-0.1,0-0.3,0.1-0.5,0.1 c-0.2,0-0.5,0.1-0.9,0.1c-0.7,0-1.3-0.1-1.7-0.3c-0.4-0.2-0.7-0.4-0.8-0.8c-0.2-0.3-0.2-0.7-0.2-1.2v-4.5h-1.3v-1.6h1.4l0.6-2.5 h1.7v2.5h1.8V162.7z"></path> <path d="M930.8,172c-0.6,0-1.1-0.1-1.5-0.3v-1.5l0.8,0c0.4,0,0.6,0,0.9-0.1c0.2-0.1,0.4-0.1,0.5-0.2c0.1-0.1,0.2-0.2,0.2-0.3 s0.1-0.2,0.1-0.2l0.2-0.5l-3.2-7.9h2.3l2,5.4l2-5.4h2.3l-3.4,8.3c-0.3,0.7-0.6,1.2-0.9,1.6c-0.3,0.4-0.7,0.6-1,0.8 C931.6,171.9,931.2,172,930.8,172z"></path> <path d="M938.5,171.9v-10.8h2.3l0,1.2c0.1-0.2,0.3-0.4,0.5-0.5c0.2-0.2,0.4-0.3,0.6-0.4s0.5-0.2,0.7-0.3c0.3-0.1,0.5-0.1,0.8-0.1 c0.6,0,1.2,0.2,1.6,0.5c0.5,0.3,0.9,0.8,1.1,1.4c0.3,0.6,0.4,1.4,0.4,2.4c0,1-0.1,1.8-0.4,2.5c-0.3,0.6-0.7,1.1-1.2,1.4 c-0.5,0.3-1.1,0.5-1.8,0.5c-0.3,0-0.5,0-0.8-0.1c-0.2-0.1-0.5-0.2-0.7-0.3c-0.2-0.1-0.4-0.3-0.5-0.4s-0.3-0.4-0.4-0.5v3.8H938.5z M942.6,167.8c0.5,0,0.9-0.2,1.3-0.6c0.3-0.4,0.5-1.1,0.5-2c0-0.8-0.2-1.4-0.5-1.9c-0.3-0.5-0.8-0.7-1.3-0.7 c-0.6,0-1.1,0.2-1.3,0.7c-0.3,0.5-0.4,1.1-0.4,1.8c0,0.5,0.1,0.9,0.2,1.3c0.1,0.4,0.3,0.7,0.6,1 C941.9,167.7,942.2,167.8,942.6,167.8z"></path> <path d="M950.5,157.8v2.1h-2.3v-2.1H950.5z M950.5,161.1v8.3h-2.2v-8.3H950.5z"></path> <path d="M952.6,169.4v-8.3h2.3v1.2c0.1-0.2,0.3-0.4,0.5-0.6c0.2-0.2,0.5-0.3,0.8-0.5c0.3-0.1,0.7-0.2,1.1-0.2c0.5,0,1,0.1,1.4,0.3 c0.4,0.2,0.8,0.5,1.1,0.9c0.3,0.4,0.4,1,0.4,1.7v5.5h-2.3v-5.2c0-0.4-0.1-0.8-0.4-1c-0.3-0.2-0.6-0.3-1-0.3c-0.3,0-0.5,0-0.7,0.1 s-0.4,0.2-0.6,0.4c-0.1,0.2-0.2,0.4-0.2,0.7v5.3H952.6z"></path> <path d="M965.9,172.1c-1.5,0-2.6-0.2-3.4-0.6s-1.1-0.9-1.1-1.5c0-0.3,0.1-0.5,0.2-0.7c0.1-0.2,0.3-0.3,0.5-0.5 c0.2-0.1,0.4-0.2,0.6-0.3c0.2-0.1,0.3-0.1,0.3-0.1c-0.1,0-0.2-0.1-0.4-0.2c-0.2-0.1-0.3-0.2-0.4-0.4c-0.1-0.2-0.2-0.4-0.2-0.6 c0-0.3,0.1-0.6,0.4-0.8c0.3-0.2,0.7-0.4,1.3-0.5c-0.5-0.3-1-0.6-1.2-1c-0.3-0.4-0.4-0.9-0.4-1.3c0-0.5,0.2-1,0.5-1.4 c0.3-0.4,0.8-0.7,1.4-0.9c0.6-0.2,1.3-0.3,2-0.3c0.6,0,1,0.1,1.4,0.2s0.7,0.3,1,0.5c0.1,0,0.3-0.1,0.5-0.2 c0.2-0.1,0.4-0.2,0.7-0.3c0.2-0.1,0.5-0.2,0.7-0.3c0.2-0.1,0.4-0.2,0.6-0.3l0,1.8l-1.4,0.2c0.1,0.1,0.1,0.3,0.1,0.5 c0,0.2,0,0.3,0,0.4c0,0.5-0.1,0.9-0.4,1.3c-0.3,0.4-0.7,0.8-1.3,1c-0.6,0.3-1.2,0.4-2.1,0.4c-0.1,0-0.2,0-0.4,0s-0.3,0-0.4,0 c-0.3,0-0.5,0.1-0.6,0.1c-0.1,0.1-0.2,0.1-0.2,0.2c0,0.1,0.1,0.2,0.4,0.3s0.6,0.1,1.1,0.1c0.2,0,0.4,0,0.7,0c0.3,0,0.6,0,1,0.1 c1,0.1,1.8,0.3,2.3,0.7c0.5,0.4,0.7,1,0.7,1.6c0,0.8-0.4,1.4-1.1,1.9C968.5,171.8,967.4,172.1,965.9,172.1z M966.3,170.8 c0.7,0,1.1-0.1,1.4-0.2c0.3-0.2,0.4-0.4,0.4-0.7c0-0.3-0.1-0.5-0.3-0.6c-0.2-0.2-0.5-0.2-0.9-0.3l-1.9-0.1c-0.2,0-0.5,0-0.7,0.1 c-0.2,0.1-0.3,0.2-0.4,0.4c-0.1,0.1-0.2,0.3-0.2,0.5c0,0.3,0.2,0.6,0.6,0.8C964.8,170.7,965.4,170.8,966.3,170.8z M965.9,165 c0.4,0,0.8-0.1,1.1-0.4c0.3-0.2,0.4-0.6,0.4-1c0-0.4-0.1-0.8-0.4-1c-0.3-0.3-0.6-0.4-1.1-0.4c-0.4,0-0.8,0.1-1.1,0.4 c-0.3,0.3-0.4,0.6-0.4,1c0,0.4,0.1,0.7,0.4,1C965.1,164.9,965.4,165,965.9,165z"></path> </g> </g> <g> <g class="st8"> <path d="M1183.1,169.4v-11.6h7.9l0,2h-5.6v2.8h4.9v1.9h-4.9v2.9l5.7,0v2H1183.1z"></path> <path d="M1196.1,169.5c-1.1,0-2-0.4-2.6-1.1c-0.6-0.8-0.9-1.8-0.9-3.2c0-0.9,0.1-1.6,0.4-2.2s0.6-1.1,1.1-1.5 c0.5-0.3,1.1-0.5,1.8-0.5c0.3,0,0.6,0,0.8,0.1s0.5,0.2,0.7,0.3c0.2,0.1,0.4,0.3,0.6,0.4c0.2,0.2,0.3,0.3,0.4,0.5v-4.7h2.3v11.9 h-1.7l-0.3-1.7c-0.1,0.2-0.2,0.5-0.3,0.7c-0.1,0.2-0.3,0.4-0.5,0.6s-0.5,0.3-0.8,0.4C1196.8,169.5,1196.5,169.5,1196.1,169.5z M1196.6,167.8c0.6,0,1-0.2,1.3-0.6c0.3-0.4,0.4-1.1,0.4-2.1c0-0.6-0.1-1-0.2-1.4s-0.3-0.7-0.6-0.8c-0.3-0.2-0.6-0.3-1-0.3 c-0.5,0-0.9,0.2-1.3,0.6s-0.5,1-0.5,1.9c0,0.9,0.2,1.6,0.5,2S1196,167.8,1196.6,167.8z"></path> <path d="M1205,157.8v2.1h-2.3v-2.1H1205z M1205,161.1v8.3h-2.2v-8.3H1205z"></path> <path d="M1212.2,162.7h-1.8l0,4.4c0,0.2,0,0.4,0.1,0.5s0.1,0.2,0.2,0.2s0.2,0,0.4,0h1.1v1.4c-0.1,0-0.3,0.1-0.5,0.1 c-0.2,0-0.5,0.1-0.9,0.1c-0.7,0-1.3-0.1-1.7-0.3c-0.4-0.2-0.7-0.4-0.8-0.8c-0.2-0.3-0.2-0.7-0.2-1.2v-4.5h-1.3v-1.6h1.4l0.6-2.5 h1.7v2.5h1.8V162.7z"></path> <path d="M1216.3,157.8v2.1h-2.3v-2.1H1216.3z M1216.2,161.1v8.3h-2.2v-8.3H1216.2z"></path> <path d="M1218.4,169.4v-8.3h2.3v1.2c0.1-0.2,0.3-0.4,0.5-0.6c0.2-0.2,0.5-0.3,0.8-0.5c0.3-0.1,0.7-0.2,1.1-0.2 c0.5,0,1,0.1,1.4,0.3c0.4,0.2,0.8,0.5,1.1,0.9c0.3,0.4,0.4,1,0.4,1.7v5.5h-2.3v-5.2c0-0.4-0.1-0.8-0.4-1c-0.3-0.2-0.6-0.3-1-0.3 c-0.3,0-0.5,0-0.7,0.1s-0.4,0.2-0.6,0.4c-0.1,0.2-0.2,0.4-0.2,0.7v5.3H1218.4z"></path> <path d="M1231.7,172.1c-1.5,0-2.6-0.2-3.4-0.6s-1.1-0.9-1.1-1.5c0-0.3,0.1-0.5,0.2-0.7c0.1-0.2,0.3-0.3,0.5-0.5 c0.2-0.1,0.4-0.2,0.6-0.3c0.2-0.1,0.3-0.1,0.3-0.1c-0.1,0-0.2-0.1-0.4-0.2c-0.2-0.1-0.3-0.2-0.4-0.4c-0.1-0.2-0.2-0.4-0.2-0.6 c0-0.3,0.1-0.6,0.4-0.8c0.3-0.2,0.7-0.4,1.3-0.5c-0.5-0.3-1-0.6-1.2-1c-0.3-0.4-0.4-0.9-0.4-1.3c0-0.5,0.2-1,0.5-1.4 c0.3-0.4,0.8-0.7,1.4-0.9c0.6-0.2,1.3-0.3,2-0.3c0.6,0,1,0.1,1.4,0.2s0.7,0.3,1,0.5c0.1,0,0.3-0.1,0.5-0.2 c0.2-0.1,0.4-0.2,0.7-0.3c0.2-0.1,0.5-0.2,0.7-0.3c0.2-0.1,0.4-0.2,0.6-0.3l0,1.8l-1.4,0.2c0.1,0.1,0.1,0.3,0.1,0.5 c0,0.2,0,0.3,0,0.4c0,0.5-0.1,0.9-0.4,1.3c-0.3,0.4-0.7,0.8-1.3,1c-0.6,0.3-1.2,0.4-2.1,0.4c-0.1,0-0.2,0-0.4,0s-0.3,0-0.4,0 c-0.3,0-0.5,0.1-0.6,0.1c-0.1,0.1-0.2,0.1-0.2,0.2c0,0.1,0.1,0.2,0.4,0.3s0.6,0.1,1.1,0.1c0.2,0,0.4,0,0.7,0c0.3,0,0.6,0,1,0.1 c1,0.1,1.8,0.3,2.3,0.7c0.5,0.4,0.7,1,0.7,1.6c0,0.8-0.4,1.4-1.1,1.9C1234.3,171.8,1233.2,172.1,1231.7,172.1z M1232.1,170.8 c0.7,0,1.1-0.1,1.4-0.2c0.3-0.2,0.4-0.4,0.4-0.7c0-0.3-0.1-0.5-0.3-0.6c-0.2-0.2-0.5-0.2-0.9-0.3l-1.9-0.1c-0.2,0-0.5,0-0.7,0.1 c-0.2,0.1-0.3,0.2-0.4,0.4c-0.1,0.1-0.2,0.3-0.2,0.5c0,0.3,0.2,0.6,0.6,0.8C1230.5,170.7,1231.2,170.8,1232.1,170.8z M1231.6,165 c0.4,0,0.8-0.1,1.1-0.4c0.3-0.2,0.4-0.6,0.4-1c0-0.4-0.1-0.8-0.4-1c-0.3-0.3-0.6-0.4-1.1-0.4c-0.4,0-0.8,0.1-1.1,0.4 c-0.3,0.3-0.4,0.6-0.4,1c0,0.4,0.1,0.7,0.4,1C1230.8,164.9,1231.2,165,1231.6,165z"></path> </g> </g> <g> <g class="st8"> <path d="M30.8,373.2c0.1,0,0.2,0,0.5,0c0.3,0,0.6,0,1,0c0.4,0,0.7,0,1.1,0c0.4,0,0.7,0,0.9,0c1.4,0,2.5,0.3,3.4,0.8s1.5,1.1,1.9,2 c0.4,0.8,0.6,1.8,0.6,3c0,1.2-0.2,2.2-0.7,3.1c-0.4,0.9-1.1,1.5-2,2c-0.9,0.5-2,0.7-3.4,0.7h-3.4V373.2z M33.2,375.1v7.8h1.1 c0.7,0,1.3-0.1,1.8-0.4c0.5-0.3,1-0.7,1.3-1.3c0.3-0.6,0.5-1.4,0.5-2.3c0-0.9-0.1-1.6-0.4-2.2s-0.7-1-1.2-1.2 c-0.5-0.3-1.2-0.4-1.9-0.4H33.2z"></path> <path d="M44,381.2c0,0.4,0.1,0.8,0.2,1.1s0.3,0.6,0.6,0.7c0.3,0.2,0.6,0.3,1,0.3c0.4,0,0.8-0.1,1.1-0.3s0.5-0.5,0.6-0.8h2.1 c-0.1,0.6-0.3,1.1-0.7,1.5s-0.8,0.7-1.4,1s-1.1,0.3-1.7,0.3c-0.8,0-1.5-0.2-2.2-0.5c-0.6-0.3-1.1-0.8-1.5-1.5 c-0.3-0.6-0.5-1.4-0.5-2.2c0-0.8,0.2-1.6,0.5-2.2c0.3-0.7,0.8-1.2,1.4-1.6c0.6-0.4,1.3-0.6,2.2-0.6c0.8,0,1.6,0.2,2.1,0.5 c0.6,0.4,1,0.8,1.3,1.5c0.3,0.6,0.4,1.4,0.4,2.2v0.6H44z M44,379.8h3.4c0-0.3-0.1-0.6-0.2-0.9c-0.1-0.3-0.3-0.5-0.6-0.7 c-0.2-0.2-0.6-0.2-0.9-0.2c-0.4,0-0.7,0.1-0.9,0.3c-0.3,0.2-0.4,0.4-0.6,0.7S44,379.5,44,379.8z"></path> <path d="M54.4,384.9c-0.6,0-1.1-0.1-1.7-0.3s-1-0.5-1.4-0.9c-0.4-0.4-0.6-0.9-0.7-1.6h2c0.1,0.3,0.2,0.5,0.4,0.7s0.4,0.3,0.6,0.4 s0.5,0.1,0.7,0.1c0.4,0,0.8-0.1,1.1-0.2c0.3-0.1,0.4-0.4,0.4-0.7c0-0.2-0.1-0.4-0.2-0.5c-0.2-0.1-0.4-0.2-0.8-0.3l-1.5-0.3 c-0.7-0.2-1.3-0.4-1.8-0.8c-0.4-0.4-0.7-0.9-0.7-1.6c0-0.5,0.1-0.9,0.4-1.3c0.3-0.4,0.7-0.7,1.2-0.9c0.5-0.2,1.2-0.3,1.9-0.3 c1,0,1.8,0.2,2.4,0.7c0.6,0.4,0.9,1.1,0.9,1.9h-2c-0.1-0.3-0.2-0.6-0.5-0.7c-0.3-0.2-0.6-0.3-1-0.3c-0.4,0-0.7,0.1-1,0.2 c-0.3,0.1-0.4,0.4-0.4,0.7c0,0.2,0.1,0.4,0.3,0.5c0.2,0.1,0.5,0.2,1,0.3l1.3,0.3c0.5,0.1,0.8,0.3,1.1,0.5c0.3,0.2,0.5,0.4,0.7,0.6 c0.2,0.2,0.3,0.5,0.3,0.7c0.1,0.2,0.1,0.4,0.1,0.6c0,0.5-0.1,1-0.4,1.4s-0.7,0.7-1.2,0.9C55.7,384.8,55.1,384.9,54.4,384.9z"></path> <path d="M61.9,373.2v2.1h-2.3v-2.1H61.9z M61.9,376.5v8.3h-2.2v-8.3H61.9z"></path> <path d="M67.8,387.5c-1.5,0-2.6-0.2-3.4-0.6c-0.8-0.4-1.1-0.9-1.1-1.5c0-0.3,0.1-0.5,0.2-0.7c0.1-0.2,0.3-0.3,0.5-0.5 c0.2-0.1,0.4-0.2,0.6-0.3c0.2-0.1,0.3-0.1,0.3-0.1c-0.1,0-0.2-0.1-0.4-0.2c-0.2-0.1-0.3-0.2-0.4-0.4c-0.1-0.2-0.2-0.4-0.2-0.6 c0-0.3,0.1-0.6,0.4-0.8c0.3-0.2,0.7-0.4,1.3-0.5c-0.5-0.3-1-0.6-1.2-1S64,379.4,64,379c0-0.5,0.2-1,0.5-1.4s0.8-0.7,1.4-0.9 c0.6-0.2,1.3-0.3,2-0.3c0.6,0,1,0.1,1.4,0.2c0.4,0.1,0.7,0.3,1,0.5c0.1,0,0.3-0.1,0.5-0.2c0.2-0.1,0.4-0.2,0.7-0.3 c0.2-0.1,0.5-0.2,0.7-0.3c0.2-0.1,0.4-0.2,0.6-0.3l0,1.8l-1.4,0.2c0.1,0.1,0.1,0.3,0.1,0.5c0,0.2,0,0.3,0,0.4 c0,0.5-0.1,0.9-0.4,1.3c-0.3,0.4-0.7,0.8-1.3,1s-1.2,0.4-2.1,0.4c-0.1,0-0.2,0-0.4,0c-0.2,0-0.3,0-0.4,0c-0.3,0-0.5,0.1-0.6,0.1 c-0.1,0.1-0.2,0.1-0.2,0.2c0,0.1,0.1,0.2,0.4,0.3c0.2,0,0.6,0.1,1.1,0.1c0.2,0,0.4,0,0.7,0c0.3,0,0.6,0,1,0.1 c1,0.1,1.8,0.3,2.3,0.7c0.5,0.4,0.7,1,0.7,1.6c0,0.8-0.4,1.4-1.1,1.9C70.4,387.3,69.3,387.5,67.8,387.5z M68.2,386.2 c0.7,0,1.1-0.1,1.4-0.2c0.3-0.2,0.4-0.4,0.4-0.7c0-0.3-0.1-0.5-0.3-0.6s-0.5-0.2-0.9-0.3l-1.9-0.1c-0.2,0-0.5,0-0.7,0.1 c-0.2,0.1-0.3,0.2-0.4,0.4s-0.2,0.3-0.2,0.5c0,0.3,0.2,0.6,0.6,0.8C66.7,386.1,67.3,386.2,68.2,386.2z M67.8,380.4 c0.4,0,0.8-0.1,1.1-0.4c0.3-0.2,0.4-0.6,0.4-1c0-0.4-0.1-0.8-0.4-1c-0.3-0.3-0.6-0.4-1.1-0.4c-0.4,0-0.8,0.1-1.1,0.4 c-0.3,0.3-0.4,0.6-0.4,1c0,0.4,0.1,0.7,0.4,1S67.3,380.4,67.8,380.4z"></path> <path d="M74.1,384.8v-8.3h2.3v1.2c0.1-0.2,0.3-0.4,0.5-0.6c0.2-0.2,0.5-0.3,0.8-0.5c0.3-0.1,0.7-0.2,1.1-0.2c0.5,0,1,0.1,1.4,0.3 c0.4,0.2,0.8,0.5,1.1,0.9s0.4,1,0.4,1.7v5.5h-2.3v-5.2c0-0.4-0.1-0.8-0.4-1c-0.3-0.2-0.6-0.3-1-0.3c-0.3,0-0.5,0-0.7,0.1 s-0.4,0.2-0.6,0.4c-0.1,0.2-0.2,0.4-0.2,0.7v5.3H74.1z"></path> <path d="M27,404h-2.4l-1.9-4.5h-2.3v4.5H18v-11.6h4.9c0.9,0,1.7,0.1,2.3,0.4s1,0.7,1.3,1.2c0.3,0.5,0.4,1.1,0.4,1.8 c0,0.6-0.1,1.1-0.3,1.5c-0.2,0.4-0.4,0.8-0.7,1s-0.6,0.5-1,0.7L27,404z M22.5,397.7c0.6,0,1.1-0.2,1.5-0.5 c0.4-0.3,0.5-0.8,0.5-1.3c0-0.5-0.2-1-0.5-1.3c-0.4-0.3-0.8-0.5-1.3-0.5h-2.3v3.5H22.5z"></path> <path d="M30.8,400.4c0,0.4,0.1,0.8,0.2,1.1s0.3,0.6,0.6,0.7c0.3,0.2,0.6,0.3,1,0.3c0.4,0,0.8-0.1,1.1-0.3s0.5-0.5,0.6-0.8h2.1 c-0.1,0.6-0.3,1.1-0.7,1.5s-0.8,0.7-1.4,1s-1.1,0.3-1.7,0.3c-0.8,0-1.5-0.2-2.2-0.5c-0.6-0.3-1.1-0.8-1.5-1.5 c-0.3-0.6-0.5-1.4-0.5-2.2c0-0.8,0.2-1.6,0.5-2.2c0.3-0.7,0.8-1.2,1.4-1.6c0.6-0.4,1.3-0.6,2.2-0.6c0.8,0,1.6,0.2,2.1,0.5 c0.6,0.4,1,0.8,1.3,1.5c0.3,0.6,0.4,1.4,0.4,2.2v0.6H30.8z M30.8,399h3.4c0-0.3-0.1-0.6-0.2-0.9c-0.1-0.3-0.3-0.5-0.6-0.7 c-0.2-0.2-0.6-0.2-0.9-0.2c-0.4,0-0.7,0.1-0.9,0.3c-0.3,0.2-0.4,0.4-0.6,0.7S30.8,398.7,30.8,399z"></path> <path d="M43,395.7v1.6h-1.7v6.6H39v-6.6h-1.5v-1.6H39v-1.2c0-0.7,0.2-1.2,0.6-1.6c0.4-0.4,0.9-0.6,1.7-0.6h1.9l0,1.6H42 c-0.3,0-0.5,0.1-0.6,0.2c-0.1,0.1-0.2,0.4-0.2,0.7v0.8H43z"></path> <path d="M46.3,400.4c0,0.4,0.1,0.8,0.2,1.1s0.3,0.6,0.6,0.7c0.3,0.2,0.6,0.3,1,0.3c0.4,0,0.8-0.1,1.1-0.3s0.5-0.5,0.6-0.8h2.1 c-0.1,0.6-0.3,1.1-0.7,1.5s-0.8,0.7-1.4,1s-1.1,0.3-1.7,0.3c-0.8,0-1.5-0.2-2.2-0.5c-0.6-0.3-1.1-0.8-1.5-1.5 c-0.3-0.6-0.5-1.4-0.5-2.2c0-0.8,0.2-1.6,0.5-2.2c0.3-0.7,0.8-1.2,1.4-1.6c0.6-0.4,1.3-0.6,2.2-0.6c0.8,0,1.6,0.2,2.1,0.5 c0.6,0.4,1,0.8,1.3,1.5c0.3,0.6,0.4,1.4,0.4,2.2v0.6H46.3z M46.3,399h3.4c0-0.3-0.1-0.6-0.2-0.9c-0.1-0.3-0.3-0.5-0.6-0.7 c-0.2-0.2-0.6-0.2-0.9-0.2c-0.4,0-0.7,0.1-0.9,0.3c-0.3,0.2-0.4,0.4-0.6,0.7S46.3,398.7,46.3,399z"></path> <path d="M53.5,404v-8.3h2.2v2c0.1-0.4,0.3-0.8,0.6-1.1s0.5-0.6,0.9-0.7s0.7-0.3,1.2-0.3c0.1,0,0.1,0,0.2,0c0.1,0,0.1,0,0.1,0v2.2 c0,0-0.1,0-0.2,0c-0.1,0-0.1,0-0.2,0c-0.5,0-0.9,0-1.2,0c-0.3,0.1-0.6,0.2-0.8,0.3c-0.2,0.2-0.3,0.3-0.4,0.6 c-0.1,0.2-0.1,0.5-0.1,0.8v4.5H53.5z"></path> <path d="M61.9,400.4c0,0.4,0.1,0.8,0.2,1.1s0.3,0.6,0.6,0.7c0.3,0.2,0.6,0.3,1,0.3c0.4,0,0.8-0.1,1.1-0.3s0.5-0.5,0.6-0.8h2.1 c-0.1,0.6-0.3,1.1-0.7,1.5s-0.8,0.7-1.4,1s-1.1,0.3-1.7,0.3c-0.8,0-1.5-0.2-2.2-0.5c-0.6-0.3-1.1-0.8-1.5-1.5 c-0.3-0.6-0.5-1.4-0.5-2.2c0-0.8,0.2-1.6,0.5-2.2c0.3-0.7,0.8-1.2,1.4-1.6c0.6-0.4,1.3-0.6,2.2-0.6c0.8,0,1.6,0.2,2.1,0.5 c0.6,0.4,1,0.8,1.3,1.5c0.3,0.6,0.4,1.4,0.4,2.2v0.6H61.9z M61.9,399h3.4c0-0.3-0.1-0.6-0.2-0.9c-0.1-0.3-0.3-0.5-0.6-0.7 c-0.2-0.2-0.6-0.2-0.9-0.2c-0.4,0-0.7,0.1-0.9,0.3c-0.3,0.2-0.4,0.4-0.6,0.7S61.9,398.7,61.9,399z"></path> <path d="M69.1,404v-8.3h2.3v1.2c0.1-0.2,0.3-0.4,0.5-0.6c0.2-0.2,0.5-0.3,0.8-0.5c0.3-0.1,0.7-0.2,1.1-0.2c0.5,0,1,0.1,1.4,0.3 c0.4,0.2,0.8,0.5,1.1,0.9s0.4,1,0.4,1.7v5.5h-2.3v-5.2c0-0.4-0.1-0.8-0.4-1c-0.3-0.2-0.6-0.3-1-0.3c-0.3,0-0.5,0-0.7,0.1 s-0.4,0.2-0.6,0.4c-0.1,0.2-0.2,0.4-0.2,0.7v5.3H69.1z"></path> <path d="M82.1,395.5c0.7,0,1.3,0.1,1.8,0.4c0.5,0.3,0.9,0.7,1.2,1.1c0.3,0.5,0.5,1,0.5,1.6h-1.9c0-0.2-0.1-0.4-0.2-0.7 s-0.3-0.4-0.5-0.5c-0.2-0.1-0.5-0.2-0.8-0.2c-0.5,0-1,0.2-1.3,0.6c-0.3,0.4-0.5,1.1-0.5,1.9c0,0.8,0.2,1.4,0.5,1.9 c0.3,0.5,0.8,0.7,1.4,0.7c0.3,0,0.6-0.1,0.8-0.2c0.2-0.2,0.4-0.3,0.5-0.6c0.1-0.2,0.2-0.4,0.2-0.6h1.9c0,0.6-0.2,1.1-0.5,1.5 c-0.3,0.5-0.7,0.8-1.2,1.1s-1.1,0.4-1.8,0.4c-0.8,0-1.5-0.2-2.1-0.5c-0.6-0.3-1.1-0.8-1.4-1.5c-0.3-0.6-0.5-1.4-0.5-2.3 c0-0.9,0.2-1.6,0.5-2.3c0.3-0.7,0.8-1.2,1.4-1.5C80.6,395.7,81.3,395.5,82.1,395.5z"></path> <path d="M89.1,400.4c0,0.4,0.1,0.8,0.2,1.1s0.3,0.6,0.6,0.7c0.3,0.2,0.6,0.3,1,0.3c0.4,0,0.8-0.1,1.1-0.3s0.5-0.5,0.6-0.8h2.1 c-0.1,0.6-0.3,1.1-0.7,1.5s-0.8,0.7-1.4,1s-1.1,0.3-1.7,0.3c-0.8,0-1.5-0.2-2.2-0.5c-0.6-0.3-1.1-0.8-1.5-1.5 c-0.3-0.6-0.5-1.4-0.5-2.2c0-0.8,0.2-1.6,0.5-2.2c0.3-0.7,0.8-1.2,1.4-1.6c0.6-0.4,1.3-0.6,2.2-0.6c0.8,0,1.6,0.2,2.1,0.5 c0.6,0.4,1,0.8,1.3,1.5c0.3,0.6,0.4,1.4,0.4,2.2v0.6H89.1z M89.1,399h3.4c0-0.3-0.1-0.6-0.2-0.9c-0.1-0.3-0.3-0.5-0.6-0.7 c-0.2-0.2-0.6-0.2-0.9-0.2c-0.4,0-0.7,0.1-0.9,0.3c-0.3,0.2-0.4,0.4-0.6,0.7S89.1,398.7,89.1,399z"></path> </g> </g> <g> <g class="st8"> <path d="M324.9,384.9c-1.1,0-2-0.2-2.8-0.7c-0.8-0.5-1.4-1.2-1.8-2.1c-0.4-0.9-0.6-1.9-0.6-3.1c0-1.2,0.2-2.3,0.7-3.2 c0.4-0.9,1.1-1.6,1.9-2.1c0.8-0.5,1.7-0.7,2.8-0.7c0.7,0,1.3,0.1,1.9,0.3c0.6,0.2,1.1,0.5,1.5,0.9c0.4,0.4,0.7,0.8,1,1.3 s0.4,1,0.4,1.5h-2.5c-0.1-0.4-0.2-0.7-0.4-1c-0.2-0.3-0.5-0.5-0.8-0.7c-0.3-0.2-0.7-0.3-1.1-0.3c-0.5,0-1,0.1-1.4,0.4 c-0.4,0.3-0.7,0.7-1,1.3c-0.2,0.6-0.4,1.3-0.4,2.3c0,0.8,0.1,1.4,0.2,1.9s0.4,0.9,0.6,1.2s0.6,0.5,0.9,0.6c0.3,0.1,0.7,0.2,1,0.2 c0.3,0,0.6-0.1,0.9-0.2c0.3-0.1,0.5-0.3,0.7-0.4c0.2-0.2,0.3-0.4,0.5-0.6c0.1-0.2,0.2-0.4,0.2-0.6l0.1-0.7H325v-1.6l4.8,0v6h-1.6 v-1.5c-0.2,0.3-0.4,0.5-0.7,0.8c-0.3,0.3-0.7,0.5-1.1,0.6C326,384.9,325.5,384.9,324.9,384.9z"></path> <path d="M332.1,384.8v-8.3h2.2v2c0.1-0.4,0.3-0.8,0.6-1.1s0.5-0.6,0.9-0.7s0.7-0.3,1.2-0.3c0.1,0,0.1,0,0.2,0c0.1,0,0.1,0,0.1,0 v2.2c0,0-0.1,0-0.2,0c-0.1,0-0.1,0-0.2,0c-0.5,0-0.9,0-1.2,0c-0.3,0.1-0.6,0.2-0.8,0.3c-0.2,0.2-0.3,0.3-0.4,0.6 c-0.1,0.2-0.1,0.5-0.1,0.8v4.5H332.1z"></path> <path d="M341,384.9c-0.5,0-1-0.1-1.4-0.3s-0.8-0.5-1-0.9c-0.2-0.4-0.4-0.8-0.4-1.4c0-0.9,0.3-1.6,1-2.1c0.7-0.5,1.7-0.7,3.2-0.7 l1,0v-0.5c0-0.4-0.1-0.7-0.3-0.9c-0.2-0.2-0.6-0.3-1-0.3c-0.3,0-0.7,0.1-1,0.2c-0.3,0.2-0.5,0.4-0.6,0.8h-1.9 c0-0.6,0.2-1.1,0.5-1.5c0.3-0.4,0.7-0.7,1.3-0.9c0.5-0.2,1.2-0.3,1.8-0.3c0.8,0,1.5,0.1,2,0.3c0.5,0.2,0.9,0.5,1.1,0.9 c0.2,0.4,0.3,0.9,0.3,1.4v5.8h-2l-0.2-1.4c-0.3,0.6-0.6,1-1.1,1.2C342,384.8,341.5,384.9,341,384.9z M341.8,383.4 c0.2,0,0.4,0,0.6-0.1c0.2-0.1,0.4-0.2,0.5-0.3s0.3-0.3,0.4-0.4c0.1-0.2,0.1-0.3,0.1-0.5v-1.2l-0.8,0c-0.4,0-0.8,0.1-1.1,0.1 s-0.6,0.2-0.8,0.4c-0.2,0.2-0.3,0.5-0.3,0.8c0,0.4,0.1,0.7,0.4,0.9S341.4,383.4,341.8,383.4z"></path> <path d="M347.7,387.4v-10.8h2.3l0,1.2c0.1-0.2,0.3-0.4,0.5-0.5c0.2-0.2,0.4-0.3,0.6-0.4s0.5-0.2,0.7-0.3c0.3-0.1,0.5-0.1,0.8-0.1 c0.6,0,1.2,0.2,1.6,0.5c0.5,0.3,0.9,0.8,1.1,1.4c0.3,0.6,0.4,1.4,0.4,2.4c0,1-0.1,1.8-0.4,2.5c-0.3,0.6-0.7,1.1-1.2,1.4 c-0.5,0.3-1.1,0.5-1.8,0.5c-0.3,0-0.5,0-0.8-0.1c-0.2-0.1-0.5-0.2-0.7-0.3c-0.2-0.1-0.4-0.3-0.5-0.4s-0.3-0.4-0.4-0.5v3.8H347.7z M351.9,383.2c0.5,0,0.9-0.2,1.3-0.6c0.3-0.4,0.5-1.1,0.5-2c0-0.8-0.2-1.4-0.5-1.9c-0.3-0.5-0.8-0.7-1.3-0.7 c-0.6,0-1.1,0.2-1.3,0.7c-0.3,0.5-0.4,1.1-0.4,1.8c0,0.5,0.1,0.9,0.2,1.3c0.1,0.4,0.3,0.7,0.6,1S351.5,383.2,351.9,383.2z"></path> <path d="M357.4,384.8v-11.9h2.3v4.8c0.1-0.2,0.3-0.4,0.5-0.6c0.2-0.2,0.5-0.3,0.8-0.5s0.7-0.2,1.1-0.2c0.5,0,1,0.1,1.4,0.3 c0.4,0.2,0.8,0.5,1,0.9c0.3,0.4,0.4,0.9,0.4,1.4v5.7h-2.3v-5.4c0-0.4-0.1-0.7-0.4-0.9s-0.6-0.3-1-0.3c-0.3,0-0.5,0-0.7,0.1 s-0.4,0.2-0.6,0.4c-0.1,0.2-0.2,0.4-0.2,0.7v5.3H357.4z"></path> <path d="M369.3,373.2v2.1H367v-2.1H369.3z M369.2,376.5v8.3H367v-8.3H369.2z"></path> <path d="M374.9,376.3c0.7,0,1.3,0.1,1.8,0.4c0.5,0.3,0.9,0.7,1.2,1.1c0.3,0.5,0.5,1,0.5,1.6h-1.9c0-0.2-0.1-0.4-0.2-0.7 s-0.3-0.4-0.5-0.5c-0.2-0.1-0.5-0.2-0.8-0.2c-0.5,0-1,0.2-1.3,0.6c-0.3,0.4-0.5,1.1-0.5,1.9c0,0.8,0.2,1.4,0.5,1.9 c0.3,0.5,0.8,0.7,1.4,0.7c0.3,0,0.6-0.1,0.8-0.2c0.2-0.2,0.4-0.3,0.5-0.6c0.1-0.2,0.2-0.4,0.2-0.6h1.9c0,0.6-0.2,1.1-0.5,1.5 c-0.3,0.5-0.7,0.8-1.2,1.1s-1.1,0.4-1.8,0.4c-0.8,0-1.5-0.2-2.1-0.5c-0.6-0.3-1.1-0.8-1.4-1.5c-0.3-0.6-0.5-1.4-0.5-2.3 c0-0.9,0.2-1.6,0.5-2.3c0.3-0.7,0.8-1.2,1.4-1.5C373.4,376.5,374.1,376.3,374.9,376.3z"></path> <path d="M315.2,392.4h2.3V404h-2.3V392.4z"></path> <path d="M319.8,404v-8.3h2.3v1.2c0.1-0.2,0.3-0.4,0.5-0.6c0.2-0.2,0.5-0.3,0.8-0.5c0.3-0.1,0.7-0.2,1.1-0.2c0.5,0,1,0.1,1.4,0.3 c0.4,0.2,0.8,0.5,1.1,0.9s0.4,1,0.4,1.7v5.5h-2.3v-5.2c0-0.4-0.1-0.8-0.4-1c-0.3-0.2-0.6-0.3-1-0.3c-0.3,0-0.5,0-0.7,0.1 s-0.4,0.2-0.6,0.4c-0.1,0.2-0.2,0.4-0.2,0.7v5.3H319.8z"></path> <path d="M334.4,397.3h-1.8l0,4.4c0,0.2,0,0.4,0.1,0.5s0.1,0.2,0.2,0.2c0.1,0,0.2,0,0.4,0h1.1v1.4c-0.1,0-0.3,0.1-0.5,0.1 c-0.2,0-0.5,0.1-0.9,0.1c-0.7,0-1.3-0.1-1.7-0.3c-0.4-0.2-0.7-0.4-0.8-0.8s-0.2-0.7-0.2-1.2v-4.5h-1.3v-1.6h1.4l0.6-2.5h1.7v2.5 h1.8V397.3z"></path> <path d="M338,400.4c0,0.4,0.1,0.8,0.2,1.1s0.3,0.6,0.6,0.7c0.3,0.2,0.6,0.3,1,0.3c0.4,0,0.8-0.1,1.1-0.3s0.5-0.5,0.6-0.8h2.1 c-0.1,0.6-0.3,1.1-0.7,1.5s-0.8,0.7-1.4,1s-1.1,0.3-1.7,0.3c-0.8,0-1.5-0.2-2.2-0.5c-0.6-0.3-1.1-0.8-1.5-1.5 c-0.3-0.6-0.5-1.4-0.5-2.2c0-0.8,0.2-1.6,0.5-2.2c0.3-0.7,0.8-1.2,1.4-1.6c0.6-0.4,1.3-0.6,2.2-0.6c0.8,0,1.6,0.2,2.1,0.5 c0.6,0.4,1,0.8,1.3,1.5c0.3,0.6,0.4,1.4,0.4,2.2v0.6H338z M338,399h3.4c0-0.3-0.1-0.6-0.2-0.9c-0.1-0.3-0.3-0.5-0.6-0.7 c-0.2-0.2-0.6-0.2-0.9-0.2c-0.4,0-0.7,0.1-0.9,0.3c-0.3,0.2-0.4,0.4-0.6,0.7S338,398.7,338,399z"></path> <path d="M345.2,404v-8.3h2.2v2c0.1-0.4,0.3-0.8,0.6-1.1s0.5-0.6,0.9-0.7s0.7-0.3,1.2-0.3c0.1,0,0.1,0,0.2,0c0.1,0,0.1,0,0.1,0v2.2 c0,0-0.1,0-0.2,0c-0.1,0-0.1,0-0.2,0c-0.5,0-0.9,0-1.2,0c-0.3,0.1-0.6,0.2-0.8,0.3c-0.2,0.2-0.3,0.3-0.4,0.6 c-0.1,0.2-0.1,0.5-0.1,0.8v4.5H345.2z"></path> <path d="M356.7,395.7v1.6H355v6.6h-2.3v-6.6h-1.5v-1.6h1.5v-1.2c0-0.7,0.2-1.2,0.6-1.6c0.4-0.4,0.9-0.6,1.7-0.6h1.9l0,1.6h-1.1 c-0.3,0-0.5,0.1-0.6,0.2c-0.1,0.1-0.2,0.4-0.2,0.7v0.8H356.7z"></path> <path d="M360.5,404.1c-0.5,0-1-0.1-1.4-0.3s-0.8-0.5-1-0.9c-0.2-0.4-0.4-0.8-0.4-1.4c0-0.9,0.3-1.6,1-2.1c0.7-0.5,1.7-0.7,3.2-0.7 l1,0v-0.5c0-0.4-0.1-0.7-0.3-0.9c-0.2-0.2-0.6-0.3-1-0.3c-0.3,0-0.7,0.1-1,0.2c-0.3,0.2-0.5,0.4-0.6,0.8h-1.9 c0-0.6,0.2-1.1,0.5-1.5c0.3-0.4,0.7-0.7,1.3-0.9c0.5-0.2,1.2-0.3,1.8-0.3c0.8,0,1.5,0.1,2,0.3c0.5,0.2,0.9,0.5,1.1,0.9 c0.2,0.4,0.3,0.9,0.3,1.4v5.8h-2l-0.2-1.4c-0.3,0.6-0.6,1-1.1,1.2C361.6,404,361.1,404.1,360.5,404.1z M361.3,402.6 c0.2,0,0.4,0,0.6-0.1c0.2-0.1,0.4-0.2,0.5-0.3s0.3-0.3,0.4-0.4c0.1-0.2,0.1-0.3,0.1-0.5V400l-0.8,0c-0.4,0-0.8,0.1-1.1,0.1 s-0.6,0.2-0.8,0.4c-0.2,0.2-0.3,0.5-0.3,0.8c0,0.4,0.1,0.7,0.4,0.9S360.9,402.6,361.3,402.6z"></path> <path d="M370.8,395.5c0.7,0,1.3,0.1,1.8,0.4c0.5,0.3,0.9,0.7,1.2,1.1c0.3,0.5,0.5,1,0.5,1.6h-1.9c0-0.2-0.1-0.4-0.2-0.7 s-0.3-0.4-0.5-0.5c-0.2-0.1-0.5-0.2-0.8-0.2c-0.5,0-1,0.2-1.3,0.6c-0.3,0.4-0.5,1.1-0.5,1.9c0,0.8,0.2,1.4,0.5,1.9 c0.3,0.5,0.8,0.7,1.4,0.7c0.3,0,0.6-0.1,0.8-0.2c0.2-0.2,0.4-0.3,0.5-0.6c0.1-0.2,0.2-0.4,0.2-0.6h1.9c0,0.6-0.2,1.1-0.5,1.5 c-0.3,0.5-0.7,0.8-1.2,1.1s-1.1,0.4-1.8,0.4c-0.8,0-1.5-0.2-2.1-0.5c-0.6-0.3-1.1-0.8-1.4-1.5c-0.3-0.6-0.5-1.4-0.5-2.3 c0-0.9,0.2-1.6,0.5-2.3c0.3-0.7,0.8-1.2,1.4-1.5C369.3,395.7,370,395.5,370.8,395.5z"></path> <path d="M377.8,400.4c0,0.4,0.1,0.8,0.2,1.1s0.3,0.6,0.6,0.7c0.3,0.2,0.6,0.3,1,0.3c0.4,0,0.8-0.1,1.1-0.3s0.5-0.5,0.6-0.8h2.1 c-0.1,0.6-0.3,1.1-0.7,1.5s-0.8,0.7-1.4,1s-1.1,0.3-1.7,0.3c-0.8,0-1.5-0.2-2.2-0.5c-0.6-0.3-1.1-0.8-1.5-1.5 c-0.3-0.6-0.5-1.4-0.5-2.2c0-0.8,0.2-1.6,0.5-2.2c0.3-0.7,0.8-1.2,1.4-1.6c0.6-0.4,1.3-0.6,2.2-0.6c0.8,0,1.6,0.2,2.1,0.5 c0.6,0.4,1,0.8,1.3,1.5c0.3,0.6,0.4,1.4,0.4,2.2v0.6H377.8z M377.8,399h3.4c0-0.3-0.1-0.6-0.2-0.9c-0.1-0.3-0.3-0.5-0.6-0.7 c-0.2-0.2-0.6-0.2-0.9-0.2c-0.4,0-0.7,0.1-0.9,0.3c-0.3,0.2-0.4,0.4-0.6,0.7S377.8,398.7,377.8,399z"></path> </g> </g> <g> <g class="st8"> <path d="M595.9,384.8l4.1-11.6h2.5l4.1,11.6h-2.3l-0.9-2.7h-4.2l-1,2.7H595.9z M599.7,380.1h3.1l-1.5-4.6L599.7,380.1z"></path> <path d="M608.1,384.8v-8.3h2.3v1.2c0.1-0.2,0.3-0.4,0.5-0.6c0.2-0.2,0.5-0.3,0.8-0.5c0.3-0.1,0.7-0.2,1.1-0.2c0.5,0,1,0.1,1.4,0.3 c0.4,0.2,0.8,0.5,1.1,0.9s0.4,1,0.4,1.7v5.5h-2.3v-5.2c0-0.4-0.1-0.8-0.4-1c-0.3-0.2-0.6-0.3-1-0.3c-0.3,0-0.5,0-0.7,0.1 s-0.4,0.2-0.6,0.4c-0.1,0.2-0.2,0.4-0.2,0.7v5.3H608.1z"></path> <path d="M619.9,373.2v2.1h-2.3v-2.1H619.9z M619.9,376.5v8.3h-2.2v-8.3H619.9z"></path> <path d="M622,384.8v-8.3h2.3v1.2c0.3-0.4,0.6-0.7,1-0.9c0.4-0.3,1-0.4,1.6-0.4c0.3,0,0.6,0.1,0.9,0.2c0.3,0.1,0.6,0.2,0.8,0.4 c0.3,0.2,0.5,0.4,0.6,0.7c0.3-0.4,0.6-0.7,1.1-0.9c0.4-0.3,0.9-0.4,1.5-0.4c0.3,0,0.6,0.1,0.9,0.2c0.3,0.1,0.6,0.3,0.9,0.5 s0.5,0.5,0.6,0.9c0.2,0.4,0.2,0.9,0.2,1.4v5.5h-2.3v-5.2c0-0.3-0.1-0.6-0.2-0.8s-0.3-0.3-0.5-0.4c-0.2-0.1-0.4-0.1-0.6-0.1 c-0.2,0-0.4,0-0.6,0.1c-0.2,0.1-0.4,0.2-0.5,0.4s-0.2,0.4-0.2,0.7v5.3H627v-5.4c0-0.3-0.1-0.5-0.2-0.6s-0.3-0.3-0.5-0.4 c-0.2-0.1-0.4-0.1-0.6-0.1c-0.2,0-0.4,0-0.6,0.1c-0.2,0.1-0.4,0.2-0.5,0.4c-0.1,0.2-0.2,0.4-0.2,0.7v5.3H622z"></path> <path d="M638.7,384.9c-0.5,0-1-0.1-1.4-0.3s-0.8-0.5-1-0.9c-0.2-0.4-0.4-0.8-0.4-1.4c0-0.9,0.3-1.6,1-2.1c0.7-0.5,1.7-0.7,3.2-0.7 l1,0v-0.5c0-0.4-0.1-0.7-0.3-0.9c-0.2-0.2-0.6-0.3-1-0.3c-0.3,0-0.7,0.1-1,0.2c-0.3,0.2-0.5,0.4-0.6,0.8h-1.9 c0-0.6,0.2-1.1,0.5-1.5c0.3-0.4,0.7-0.7,1.3-0.9c0.5-0.2,1.2-0.3,1.8-0.3c0.8,0,1.5,0.1,2,0.3c0.5,0.2,0.9,0.5,1.1,0.9 c0.2,0.4,0.3,0.9,0.3,1.4v5.8h-2l-0.2-1.4c-0.3,0.6-0.6,1-1.1,1.2C639.8,384.8,639.3,384.9,638.7,384.9z M639.5,383.4 c0.2,0,0.4,0,0.6-0.1c0.2-0.1,0.4-0.2,0.5-0.3s0.3-0.3,0.4-0.4c0.1-0.2,0.1-0.3,0.1-0.5v-1.2l-0.8,0c-0.4,0-0.8,0.1-1.1,0.1 s-0.6,0.2-0.8,0.4c-0.2,0.2-0.3,0.5-0.3,0.8c0,0.4,0.1,0.7,0.4,0.9S639.1,383.4,639.5,383.4z"></path> <path d="M650.6,378.1h-1.8l0,4.4c0,0.2,0,0.4,0.1,0.5s0.1,0.2,0.2,0.2s0.2,0,0.4,0h1.1v1.4c-0.1,0-0.3,0.1-0.5,0.1 c-0.2,0-0.5,0.1-0.9,0.1c-0.7,0-1.3-0.1-1.7-0.3c-0.4-0.2-0.7-0.4-0.8-0.8c-0.2-0.3-0.2-0.7-0.2-1.2v-4.5H645v-1.6h1.4l0.6-2.5 h1.7v2.5h1.8V378.1z"></path> <path d="M654.6,373.2v2.1h-2.3v-2.1H654.6z M654.6,376.5v8.3h-2.2v-8.3H654.6z"></path> <path d="M660.3,384.9c-0.8,0-1.5-0.2-2.1-0.5c-0.6-0.3-1.1-0.8-1.4-1.5s-0.5-1.4-0.5-2.3s0.2-1.6,0.5-2.3c0.3-0.7,0.8-1.2,1.4-1.5 c0.6-0.4,1.3-0.5,2.1-0.5c0.8,0,1.5,0.2,2.1,0.5c0.6,0.4,1.1,0.9,1.4,1.5c0.3,0.6,0.5,1.4,0.5,2.3c0,0.8-0.2,1.6-0.5,2.2 c-0.3,0.6-0.8,1.1-1.4,1.5C661.9,384.8,661.1,384.9,660.3,384.9z M660.3,383.2c0.4,0,0.7-0.1,1-0.4c0.3-0.2,0.4-0.6,0.5-0.9 c0.1-0.4,0.2-0.8,0.2-1.3c0-0.4-0.1-0.9-0.2-1.2c-0.1-0.4-0.3-0.7-0.5-0.9c-0.3-0.2-0.6-0.4-1-0.4c-0.4,0-0.7,0.1-1,0.3 c-0.3,0.2-0.4,0.5-0.6,0.9s-0.2,0.8-0.2,1.3c0,0.4,0.1,0.8,0.2,1.2c0.1,0.4,0.3,0.7,0.5,1C659.5,383.1,659.9,383.2,660.3,383.2z"></path> <path d="M665.8,384.8v-8.3h2.3v1.2c0.1-0.2,0.3-0.4,0.5-0.6c0.2-0.2,0.5-0.3,0.8-0.5c0.3-0.1,0.7-0.2,1.1-0.2c0.5,0,1,0.1,1.4,0.3 s0.8,0.5,1.1,0.9c0.3,0.4,0.4,1,0.4,1.7v5.5h-2.3v-5.2c0-0.4-0.1-0.8-0.4-1c-0.3-0.2-0.6-0.3-1-0.3c-0.3,0-0.5,0-0.7,0.1 s-0.4,0.2-0.6,0.4c-0.1,0.2-0.2,0.4-0.2,0.7v5.3H665.8z"></path> <path d="M593.8,404v-11.6h4.3c0.8,0,1.6,0.1,2.3,0.4s1.2,0.7,1.6,1.3s0.6,1.3,0.6,2.1c0,0.8-0.2,1.4-0.5,2s-0.8,1-1.4,1.3 c-0.6,0.3-1.3,0.4-2.2,0.4h-2.2v4.1H593.8z M596.1,398h2.2c0.6,0,1.1-0.2,1.4-0.6s0.6-0.8,0.6-1.4c0-0.6-0.2-1-0.6-1.4 c-0.4-0.3-0.9-0.5-1.4-0.5h-2.1V398z"></path> <path d="M603.9,404v-8.3h2.2v2c0.1-0.4,0.3-0.8,0.6-1.1s0.5-0.6,0.9-0.7s0.7-0.3,1.2-0.3c0.1,0,0.1,0,0.2,0c0.1,0,0.1,0,0.1,0v2.2 c0,0-0.1,0-0.2,0c-0.1,0-0.1,0-0.2,0c-0.5,0-0.9,0-1.2,0c-0.3,0.1-0.6,0.2-0.8,0.3c-0.2,0.2-0.3,0.3-0.4,0.6 c-0.1,0.2-0.1,0.5-0.1,0.8v4.5H603.9z"></path> <path d="M614,404.1c-0.8,0-1.5-0.2-2.1-0.5s-1.1-0.8-1.4-1.5s-0.5-1.4-0.5-2.3s0.2-1.6,0.5-2.3c0.3-0.7,0.8-1.2,1.4-1.5 c0.6-0.4,1.3-0.5,2.1-0.5s1.5,0.2,2.1,0.5c0.6,0.4,1.1,0.9,1.4,1.5c0.3,0.6,0.5,1.4,0.5,2.3c0,0.8-0.2,1.6-0.5,2.2 c-0.3,0.6-0.8,1.1-1.4,1.5C615.5,404,614.8,404.1,614,404.1z M614,402.4c0.4,0,0.7-0.1,1-0.4c0.3-0.2,0.4-0.6,0.5-0.9 c0.1-0.4,0.2-0.8,0.2-1.3c0-0.4-0.1-0.9-0.2-1.2c-0.1-0.4-0.3-0.7-0.5-0.9c-0.3-0.2-0.6-0.4-1-0.4c-0.4,0-0.7,0.1-1,0.3 s-0.4,0.5-0.6,0.9c-0.1,0.4-0.2,0.8-0.2,1.3c0,0.4,0.1,0.8,0.2,1.2c0.1,0.4,0.3,0.7,0.5,1C613.2,402.3,613.5,402.4,614,402.4z"></path> <path d="M624.6,397.3h-1.8l0,4.4c0,0.2,0,0.4,0.1,0.5s0.1,0.2,0.2,0.2c0.1,0,0.2,0,0.4,0h1.1v1.4c-0.1,0-0.3,0.1-0.5,0.1 c-0.2,0-0.5,0.1-0.9,0.1c-0.7,0-1.3-0.1-1.7-0.3c-0.4-0.2-0.7-0.4-0.8-0.8s-0.2-0.7-0.2-1.2v-4.5h-1.3v-1.6h1.4l0.6-2.5h1.7v2.5 h1.8V397.3z"></path> <path d="M629.8,404.1c-0.8,0-1.5-0.2-2.1-0.5s-1.1-0.8-1.4-1.5s-0.5-1.4-0.5-2.3s0.2-1.6,0.5-2.3c0.3-0.7,0.8-1.2,1.4-1.5 c0.6-0.4,1.3-0.5,2.1-0.5s1.5,0.2,2.1,0.5c0.6,0.4,1.1,0.9,1.4,1.5c0.3,0.6,0.5,1.4,0.5,2.3c0,0.8-0.2,1.6-0.5,2.2 c-0.3,0.6-0.8,1.1-1.4,1.5C631.4,404,630.7,404.1,629.8,404.1z M629.8,402.4c0.4,0,0.7-0.1,1-0.4c0.3-0.2,0.4-0.6,0.5-0.9 c0.1-0.4,0.2-0.8,0.2-1.3c0-0.4-0.1-0.9-0.2-1.2c-0.1-0.4-0.3-0.7-0.5-0.9c-0.3-0.2-0.6-0.4-1-0.4c-0.4,0-0.7,0.1-1,0.3 s-0.4,0.5-0.6,0.9c-0.1,0.4-0.2,0.8-0.2,1.3c0,0.4,0.1,0.8,0.2,1.2c0.1,0.4,0.3,0.7,0.5,1C629.1,402.3,629.4,402.4,629.8,402.4z"></path> <path d="M640.4,397.3h-1.8l0,4.4c0,0.2,0,0.4,0.1,0.5s0.1,0.2,0.2,0.2c0.1,0,0.2,0,0.4,0h1.1v1.4c-0.1,0-0.3,0.1-0.5,0.1 c-0.2,0-0.5,0.1-0.9,0.1c-0.7,0-1.3-0.1-1.7-0.3c-0.4-0.2-0.7-0.4-0.8-0.8s-0.2-0.7-0.2-1.2v-4.5h-1.3v-1.6h1.4l0.6-2.5h1.7v2.5 h1.8V397.3z"></path> <path d="M643.4,406.6c-0.6,0-1.1-0.1-1.5-0.3v-1.5l0.8,0c0.4,0,0.6,0,0.9-0.1c0.2-0.1,0.4-0.1,0.5-0.2c0.1-0.1,0.2-0.2,0.2-0.3 s0.1-0.2,0.1-0.2l0.2-0.5l-3.2-7.9h2.3l2,5.4l2-5.4h2.3l-3.4,8.3c-0.3,0.7-0.6,1.2-0.9,1.6s-0.7,0.6-1,0.8 S643.9,406.6,643.4,406.6z"></path> <path d="M651.1,406.6v-10.8h2.3l0,1.2c0.1-0.2,0.3-0.4,0.5-0.5c0.2-0.2,0.4-0.3,0.6-0.4s0.5-0.2,0.7-0.3s0.5-0.1,0.8-0.1 c0.6,0,1.2,0.2,1.6,0.5c0.5,0.3,0.9,0.8,1.1,1.4s0.4,1.4,0.4,2.4c0,1-0.1,1.8-0.4,2.5c-0.3,0.6-0.7,1.1-1.2,1.4 c-0.5,0.3-1.1,0.5-1.8,0.5c-0.3,0-0.5,0-0.8-0.1c-0.2-0.1-0.5-0.2-0.7-0.3s-0.4-0.3-0.5-0.4s-0.3-0.4-0.4-0.5v3.8H651.1z M655.3,402.4c0.5,0,0.9-0.2,1.3-0.6c0.3-0.4,0.5-1.1,0.5-2c0-0.8-0.2-1.4-0.5-1.9c-0.3-0.5-0.8-0.7-1.3-0.7 c-0.6,0-1.1,0.2-1.3,0.7s-0.4,1.1-0.4,1.8c0,0.5,0.1,0.9,0.2,1.3c0.1,0.4,0.3,0.7,0.6,1C654.5,402.3,654.9,402.4,655.3,402.4z"></path> <path d="M662.7,400.4c0,0.4,0.1,0.8,0.2,1.1s0.3,0.6,0.6,0.7s0.6,0.3,1,0.3c0.4,0,0.8-0.1,1.1-0.3c0.3-0.2,0.5-0.5,0.6-0.8h2.1 c-0.1,0.6-0.3,1.1-0.7,1.5s-0.8,0.7-1.4,1s-1.1,0.3-1.7,0.3c-0.8,0-1.5-0.2-2.2-0.5c-0.6-0.3-1.1-0.8-1.5-1.5 c-0.3-0.6-0.5-1.4-0.5-2.2c0-0.8,0.2-1.6,0.5-2.2c0.3-0.7,0.8-1.2,1.4-1.6c0.6-0.4,1.3-0.6,2.2-0.6c0.8,0,1.5,0.2,2.1,0.5 c0.6,0.4,1,0.8,1.3,1.5c0.3,0.6,0.4,1.4,0.4,2.2v0.6H662.7z M662.7,399h3.4c0-0.3-0.1-0.6-0.2-0.9c-0.1-0.3-0.3-0.5-0.6-0.7 c-0.2-0.2-0.6-0.2-0.9-0.2c-0.4,0-0.7,0.1-0.9,0.3c-0.3,0.2-0.4,0.4-0.6,0.7C662.8,398.4,662.7,398.7,662.7,399z"></path> <path d="M673.2,404.1c-0.6,0-1.1-0.1-1.7-0.3s-1-0.5-1.4-0.9c-0.4-0.4-0.6-0.9-0.7-1.6h2c0.1,0.3,0.2,0.5,0.4,0.7 c0.2,0.2,0.4,0.3,0.6,0.4c0.2,0.1,0.5,0.1,0.7,0.1c0.4,0,0.8-0.1,1.1-0.2c0.3-0.1,0.4-0.4,0.4-0.7c0-0.2-0.1-0.4-0.2-0.5 c-0.2-0.1-0.4-0.2-0.8-0.3l-1.5-0.3c-0.7-0.2-1.3-0.4-1.8-0.8c-0.4-0.4-0.7-0.9-0.7-1.6c0-0.5,0.1-0.9,0.4-1.3 c0.3-0.4,0.7-0.7,1.2-0.9s1.2-0.3,1.9-0.3c1,0,1.8,0.2,2.4,0.7c0.6,0.4,0.9,1.1,0.9,1.9h-2c-0.1-0.3-0.2-0.6-0.5-0.7 c-0.3-0.2-0.6-0.3-1-0.3c-0.4,0-0.7,0.1-1,0.2c-0.3,0.1-0.4,0.4-0.4,0.7c0,0.2,0.1,0.4,0.3,0.5c0.2,0.1,0.5,0.2,1,0.3l1.3,0.3 c0.5,0.1,0.8,0.3,1.1,0.5c0.3,0.2,0.5,0.4,0.7,0.6s0.3,0.5,0.3,0.7c0.1,0.2,0.1,0.4,0.1,0.6c0,0.5-0.1,1-0.4,1.4 c-0.3,0.4-0.7,0.7-1.2,0.9C674.5,404,673.9,404.1,673.2,404.1z"></path> </g> </g> <g> <g class="st8"> </g> </g> <g> <g class="st8"> <path d="M878.5,380.4c0,0.9-0.2,1.7-0.5,2.4c-0.3,0.7-0.8,1.2-1.5,1.6c-0.7,0.4-1.6,0.6-2.7,0.6c-1.1,0-2-0.2-2.7-0.6 s-1.2-0.9-1.5-1.6c-0.3-0.7-0.5-1.5-0.5-2.5v-7.1h2.4v7.3c0,0.9,0.2,1.5,0.6,1.9s1,0.6,1.6,0.6c0.4,0,0.8-0.1,1.2-0.3 c0.3-0.2,0.6-0.4,0.8-0.8c0.2-0.4,0.3-0.8,0.3-1.4v-7.3h2.4V380.4z"></path> <path d="M880.8,373.2h2.3v11.6h-2.3V373.2z"></path> <path d="M893.8,384.9c-1.1,0-2-0.2-2.8-0.7c-0.8-0.5-1.4-1.2-1.8-2.1c-0.4-0.9-0.6-1.9-0.6-3.1c0-1.2,0.2-2.3,0.7-3.2 c0.4-0.9,1.1-1.6,1.9-2.1c0.8-0.5,1.7-0.7,2.8-0.7c0.7,0,1.3,0.1,1.9,0.3c0.6,0.2,1.1,0.5,1.5,0.9s0.7,0.8,1,1.3s0.4,1,0.4,1.5 h-2.5c-0.1-0.4-0.2-0.7-0.4-1s-0.5-0.5-0.8-0.7c-0.3-0.2-0.7-0.3-1.1-0.3c-0.5,0-1,0.1-1.4,0.4c-0.4,0.3-0.7,0.7-1,1.3 c-0.2,0.6-0.4,1.3-0.4,2.3c0,0.8,0.1,1.4,0.2,1.9s0.4,0.9,0.6,1.2s0.6,0.5,0.9,0.6c0.3,0.1,0.7,0.2,1,0.2c0.3,0,0.6-0.1,0.9-0.2 c0.3-0.1,0.5-0.3,0.7-0.4c0.2-0.2,0.3-0.4,0.5-0.6c0.1-0.2,0.2-0.4,0.2-0.6l0.1-0.7h-2.4v-1.6l4.8,0v6h-1.6v-1.5 c-0.2,0.3-0.4,0.5-0.7,0.8c-0.3,0.3-0.7,0.5-1.1,0.6C894.9,384.9,894.4,384.9,893.8,384.9z"></path> <path d="M904,384.9c-0.4,0-0.8-0.1-1.1-0.2c-0.4-0.1-0.7-0.3-1-0.5s-0.5-0.5-0.7-0.8c-0.2-0.3-0.3-0.7-0.3-1.2v-5.7h2.3v5.4 c0,0.4,0.1,0.7,0.4,0.9c0.2,0.2,0.6,0.4,1.1,0.4c0.5,0,0.8-0.1,1.1-0.4c0.3-0.2,0.4-0.6,0.4-1v-5.4h2.3v8.3h-1.8l-0.3-1.6 c-0.1,0.5-0.3,0.9-0.5,1.1c-0.3,0.3-0.6,0.4-0.9,0.5S904.3,384.9,904,384.9z"></path> <path d="M912.7,373.2v2.1h-2.3v-2.1H912.7z M912.7,376.5v8.3h-2.2v-8.3H912.7z"></path> <path d="M917.9,384.9c-1.1,0-2-0.4-2.6-1.1c-0.6-0.8-0.9-1.8-0.9-3.2c0-0.9,0.1-1.6,0.4-2.2c0.2-0.6,0.6-1.1,1.1-1.5 c0.5-0.3,1.1-0.5,1.8-0.5c0.3,0,0.6,0,0.8,0.1c0.3,0.1,0.5,0.2,0.7,0.3c0.2,0.1,0.4,0.3,0.6,0.4c0.2,0.2,0.3,0.3,0.4,0.5v-4.7h2.3 v11.9h-1.7l-0.3-1.7c-0.1,0.2-0.2,0.5-0.3,0.7c-0.1,0.2-0.3,0.4-0.5,0.6s-0.5,0.3-0.8,0.4C918.7,384.9,918.3,384.9,917.9,384.9z M918.4,383.3c0.6,0,1-0.2,1.3-0.6c0.3-0.4,0.4-1.1,0.4-2.1c0-0.6-0.1-1-0.2-1.4c-0.1-0.4-0.3-0.7-0.6-0.8c-0.3-0.2-0.6-0.3-1-0.3 c-0.5,0-0.9,0.2-1.3,0.6s-0.5,1-0.5,1.9c0,0.9,0.2,1.6,0.5,2C917.5,383,917.9,383.3,918.4,383.3z"></path> <path d="M926.4,381.2c0,0.4,0.1,0.8,0.2,1.1s0.3,0.6,0.6,0.7c0.3,0.2,0.6,0.3,1,0.3c0.4,0,0.8-0.1,1.1-0.3 c0.3-0.2,0.5-0.5,0.6-0.8h2.1c-0.1,0.6-0.3,1.1-0.7,1.5s-0.8,0.7-1.4,1s-1.1,0.3-1.7,0.3c-0.8,0-1.5-0.2-2.2-0.5 c-0.6-0.3-1.1-0.8-1.5-1.5c-0.3-0.6-0.5-1.4-0.5-2.2c0-0.8,0.2-1.6,0.5-2.2s0.8-1.2,1.4-1.6s1.3-0.6,2.2-0.6s1.6,0.2,2.1,0.5 c0.6,0.4,1,0.8,1.3,1.5s0.4,1.4,0.4,2.2v0.6H926.4z M926.4,379.8h3.4c0-0.3-0.1-0.6-0.2-0.9c-0.1-0.3-0.3-0.5-0.6-0.7 c-0.2-0.2-0.6-0.2-0.9-0.2c-0.4,0-0.7,0.1-0.9,0.3c-0.3,0.2-0.4,0.4-0.6,0.7C926.5,379.2,926.4,379.5,926.4,379.8z"></path> <path d="M936.2,384.9c-0.6,0-1.1-0.1-1.4-0.2c-0.4-0.1-0.6-0.3-0.8-0.6c-0.2-0.2-0.3-0.5-0.3-0.8c0-0.3-0.1-0.6-0.1-0.9v-9.6h2.3 v9.3c0,0.3,0.1,0.6,0.2,0.7s0.4,0.3,0.7,0.3l0.4,0v1.4c-0.2,0.1-0.3,0.1-0.5,0.1C936.6,384.9,936.4,384.9,936.2,384.9z"></path> <path d="M941.2,373.2v2.1h-2.3v-2.1H941.2z M941.2,376.5v8.3h-2.2v-8.3H941.2z"></path> <path d="M943.3,384.8v-8.3h2.3v1.2c0.1-0.2,0.3-0.4,0.5-0.6c0.2-0.2,0.5-0.3,0.8-0.5c0.3-0.1,0.7-0.2,1.1-0.2c0.5,0,1,0.1,1.4,0.3 c0.4,0.2,0.8,0.5,1.1,0.9c0.3,0.4,0.4,1,0.4,1.7v5.5h-2.3v-5.2c0-0.4-0.1-0.8-0.4-1c-0.3-0.2-0.6-0.3-1-0.3c-0.3,0-0.5,0-0.7,0.1 s-0.4,0.2-0.6,0.4c-0.1,0.2-0.2,0.4-0.2,0.7v5.3H943.3z"></path> <path d="M954.7,381.2c0,0.4,0.1,0.8,0.2,1.1s0.3,0.6,0.6,0.7c0.3,0.2,0.6,0.3,1,0.3c0.4,0,0.8-0.1,1.1-0.3 c0.3-0.2,0.5-0.5,0.6-0.8h2.1c-0.1,0.6-0.3,1.1-0.7,1.5s-0.8,0.7-1.4,1s-1.1,0.3-1.7,0.3c-0.8,0-1.5-0.2-2.2-0.5 c-0.6-0.3-1.1-0.8-1.5-1.5c-0.3-0.6-0.5-1.4-0.5-2.2c0-0.8,0.2-1.6,0.5-2.2s0.8-1.2,1.4-1.6s1.3-0.6,2.2-0.6s1.6,0.2,2.1,0.5 c0.6,0.4,1,0.8,1.3,1.5s0.4,1.4,0.4,2.2v0.6H954.7z M954.7,379.8h3.4c0-0.3-0.1-0.6-0.2-0.9c-0.1-0.3-0.3-0.5-0.6-0.7 c-0.2-0.2-0.6-0.2-0.9-0.2c-0.4,0-0.7,0.1-0.9,0.3c-0.3,0.2-0.4,0.4-0.6,0.7C954.7,379.2,954.7,379.5,954.7,379.8z"></path> <path d="M965.1,384.9c-0.6,0-1.1-0.1-1.7-0.3s-1-0.5-1.4-0.9c-0.4-0.4-0.6-0.9-0.7-1.6h2c0.1,0.3,0.2,0.5,0.4,0.7 c0.2,0.2,0.4,0.3,0.6,0.4c0.2,0.1,0.5,0.1,0.7,0.1c0.4,0,0.8-0.1,1.1-0.2c0.3-0.1,0.4-0.4,0.4-0.7c0-0.2-0.1-0.4-0.2-0.5 c-0.2-0.1-0.4-0.2-0.8-0.3l-1.5-0.3c-0.7-0.2-1.3-0.4-1.8-0.8c-0.4-0.4-0.7-0.9-0.7-1.6c0-0.5,0.1-0.9,0.4-1.3 c0.3-0.4,0.7-0.7,1.2-0.9s1.2-0.3,1.9-0.3c1,0,1.8,0.2,2.4,0.7c0.6,0.4,0.9,1.1,0.9,1.9h-2c-0.1-0.3-0.2-0.6-0.5-0.7 c-0.3-0.2-0.6-0.3-1-0.3c-0.4,0-0.7,0.1-1,0.2c-0.3,0.1-0.4,0.4-0.4,0.7c0,0.2,0.1,0.4,0.3,0.5c0.2,0.1,0.5,0.2,1,0.3l1.3,0.3 c0.5,0.1,0.8,0.3,1.1,0.5c0.3,0.2,0.5,0.4,0.7,0.6s0.3,0.5,0.3,0.7c0.1,0.2,0.1,0.4,0.1,0.6c0,0.5-0.1,1-0.4,1.4 c-0.3,0.4-0.7,0.7-1.2,0.9C966.4,384.8,965.8,384.9,965.1,384.9z"></path> </g> </g> <g> <g class="st8"> <path d="M1154.8,373.2c0.1,0,0.2,0,0.5,0s0.6,0,1,0s0.7,0,1.1,0c0.4,0,0.7,0,0.9,0c1.4,0,2.5,0.3,3.4,0.8c0.9,0.5,1.5,1.1,1.9,2 c0.4,0.8,0.6,1.8,0.6,3c0,1.2-0.2,2.2-0.7,3.1c-0.4,0.9-1.1,1.5-2,2c-0.9,0.5-2,0.7-3.4,0.7h-3.4V373.2z M1157.1,375.1v7.8h1.1 c0.7,0,1.3-0.1,1.8-0.4c0.5-0.3,1-0.7,1.3-1.3c0.3-0.6,0.5-1.4,0.5-2.3c0-0.9-0.1-1.6-0.4-2.2s-0.7-1-1.2-1.2 c-0.5-0.3-1.2-0.4-1.9-0.4H1157.1z"></path> <path d="M1167.9,381.2c0,0.4,0.1,0.8,0.2,1.1s0.3,0.6,0.6,0.7s0.6,0.3,1,0.3c0.4,0,0.8-0.1,1.1-0.3c0.3-0.2,0.5-0.5,0.6-0.8h2.1 c-0.1,0.6-0.3,1.1-0.7,1.5s-0.8,0.7-1.4,1s-1.1,0.3-1.7,0.3c-0.8,0-1.5-0.2-2.2-0.5c-0.6-0.3-1.1-0.8-1.5-1.5 c-0.3-0.6-0.5-1.4-0.5-2.2c0-0.8,0.2-1.6,0.5-2.2c0.3-0.7,0.8-1.2,1.4-1.6c0.6-0.4,1.3-0.6,2.2-0.6c0.8,0,1.5,0.2,2.1,0.5 c0.6,0.4,1,0.8,1.3,1.5c0.3,0.6,0.4,1.4,0.4,2.2v0.6H1167.9z M1167.9,379.8h3.4c0-0.3-0.1-0.6-0.2-0.9c-0.1-0.3-0.3-0.5-0.6-0.7 c-0.2-0.2-0.6-0.2-0.9-0.2c-0.4,0-0.7,0.1-0.9,0.3c-0.3,0.2-0.4,0.4-0.6,0.7C1168,379.2,1167.9,379.5,1167.9,379.8z"></path> <path d="M1178.4,384.9c-0.6,0-1.1-0.1-1.7-0.3s-1-0.5-1.4-0.9c-0.4-0.4-0.6-0.9-0.7-1.6h2c0.1,0.3,0.2,0.5,0.4,0.7 c0.2,0.2,0.4,0.3,0.6,0.4c0.2,0.1,0.5,0.1,0.7,0.1c0.4,0,0.8-0.1,1.1-0.2c0.3-0.1,0.4-0.4,0.4-0.7c0-0.2-0.1-0.4-0.2-0.5 c-0.2-0.1-0.4-0.2-0.8-0.3l-1.5-0.3c-0.7-0.2-1.3-0.4-1.8-0.8c-0.4-0.4-0.7-0.9-0.7-1.6c0-0.5,0.1-0.9,0.4-1.3 c0.3-0.4,0.7-0.7,1.2-0.9c0.5-0.2,1.2-0.3,1.9-0.3c1,0,1.8,0.2,2.4,0.7s0.9,1.1,0.9,1.9h-2c-0.1-0.3-0.2-0.6-0.5-0.7 c-0.3-0.2-0.6-0.3-1-0.3c-0.4,0-0.7,0.1-1,0.2c-0.3,0.1-0.4,0.4-0.4,0.7c0,0.2,0.1,0.4,0.3,0.5c0.2,0.1,0.5,0.2,1,0.3l1.3,0.3 c0.5,0.1,0.8,0.3,1.1,0.5c0.3,0.2,0.5,0.4,0.7,0.6c0.2,0.2,0.3,0.5,0.3,0.7c0.1,0.2,0.1,0.4,0.1,0.6c0,0.5-0.1,1-0.4,1.4 c-0.3,0.4-0.7,0.7-1.2,0.9C1179.7,384.8,1179.1,384.9,1178.4,384.9z"></path> <path d="M1185.9,373.2v2.1h-2.3v-2.1H1185.9z M1185.8,376.5v8.3h-2.2v-8.3H1185.8z"></path> <path d="M1191.8,387.5c-1.5,0-2.6-0.2-3.4-0.6s-1.1-0.9-1.1-1.5c0-0.3,0.1-0.5,0.2-0.7c0.1-0.2,0.3-0.3,0.5-0.5 c0.2-0.1,0.4-0.2,0.6-0.3c0.2-0.1,0.3-0.1,0.3-0.1c-0.1,0-0.2-0.1-0.4-0.2c-0.2-0.1-0.3-0.2-0.4-0.4c-0.1-0.2-0.2-0.4-0.2-0.6 c0-0.3,0.1-0.6,0.4-0.8c0.3-0.2,0.7-0.4,1.3-0.5c-0.5-0.3-1-0.6-1.2-1c-0.3-0.4-0.4-0.9-0.4-1.3c0-0.5,0.2-1,0.5-1.4 c0.3-0.4,0.8-0.7,1.4-0.9c0.6-0.2,1.3-0.3,2-0.3c0.6,0,1,0.1,1.4,0.2s0.7,0.3,1,0.5c0.1,0,0.3-0.1,0.5-0.2 c0.2-0.1,0.4-0.2,0.7-0.3c0.2-0.1,0.5-0.2,0.7-0.3c0.2-0.1,0.4-0.2,0.6-0.3l0,1.8l-1.4,0.2c0.1,0.1,0.1,0.3,0.1,0.5 c0,0.2,0,0.3,0,0.4c0,0.5-0.1,0.9-0.4,1.3c-0.3,0.4-0.7,0.8-1.3,1c-0.6,0.3-1.2,0.4-2.1,0.4c-0.1,0-0.2,0-0.4,0s-0.3,0-0.4,0 c-0.3,0-0.5,0.1-0.6,0.1c-0.1,0.1-0.2,0.1-0.2,0.2c0,0.1,0.1,0.2,0.4,0.3s0.6,0.1,1.1,0.1c0.2,0,0.4,0,0.7,0c0.3,0,0.6,0,1,0.1 c1,0.1,1.8,0.3,2.3,0.7c0.5,0.4,0.7,1,0.7,1.6c0,0.8-0.4,1.4-1.1,1.9C1194.4,387.3,1193.3,387.5,1191.8,387.5z M1192.2,386.2 c0.7,0,1.1-0.1,1.4-0.2c0.3-0.2,0.4-0.4,0.4-0.7c0-0.3-0.1-0.5-0.3-0.6c-0.2-0.2-0.5-0.2-0.9-0.3l-1.9-0.1c-0.2,0-0.5,0-0.7,0.1 c-0.2,0.1-0.3,0.2-0.4,0.4c-0.1,0.1-0.2,0.3-0.2,0.5c0,0.3,0.2,0.6,0.6,0.8C1190.6,386.1,1191.3,386.2,1192.2,386.2z M1191.7,380.4c0.4,0,0.8-0.1,1.1-0.4c0.3-0.2,0.4-0.6,0.4-1c0-0.4-0.1-0.8-0.4-1c-0.3-0.3-0.6-0.4-1.1-0.4 c-0.4,0-0.8,0.1-1.1,0.4c-0.3,0.3-0.4,0.6-0.4,1c0,0.4,0.1,0.7,0.4,1C1190.9,380.3,1191.3,380.4,1191.7,380.4z"></path> <path d="M1198,384.8v-8.3h2.3v1.2c0.1-0.2,0.3-0.4,0.5-0.6c0.2-0.2,0.5-0.3,0.8-0.5c0.3-0.1,0.7-0.2,1.1-0.2c0.5,0,1,0.1,1.4,0.3 c0.4,0.2,0.8,0.5,1.1,0.9c0.3,0.4,0.4,1,0.4,1.7v5.5h-2.3v-5.2c0-0.4-0.1-0.8-0.4-1c-0.3-0.2-0.6-0.3-1-0.3c-0.3,0-0.5,0-0.7,0.1 s-0.4,0.2-0.6,0.4c-0.1,0.2-0.2,0.4-0.2,0.7v5.3H1198z"></path> <path d="M1220.1,384.8h-2.4l-1.9-4.5h-2.3v4.5h-2.3v-11.6h4.9c0.9,0,1.7,0.1,2.3,0.4s1,0.7,1.3,1.2c0.3,0.5,0.4,1.1,0.4,1.8 c0,0.6-0.1,1.1-0.3,1.5c-0.2,0.4-0.4,0.8-0.7,1s-0.6,0.5-1,0.7L1220.1,384.8z M1215.6,378.5c0.6,0,1.1-0.2,1.5-0.5 c0.4-0.3,0.5-0.8,0.5-1.3c0-0.5-0.2-1-0.5-1.3c-0.4-0.3-0.8-0.5-1.3-0.5h-2.3v3.5H1215.6z"></path> <path d="M1223.9,381.2c0,0.4,0.1,0.8,0.2,1.1s0.3,0.6,0.6,0.7s0.6,0.3,1,0.3c0.4,0,0.8-0.1,1.1-0.3c0.3-0.2,0.5-0.5,0.6-0.8h2.1 c-0.1,0.6-0.3,1.1-0.7,1.5s-0.8,0.7-1.4,1s-1.1,0.3-1.7,0.3c-0.8,0-1.5-0.2-2.2-0.5c-0.6-0.3-1.1-0.8-1.5-1.5 c-0.3-0.6-0.5-1.4-0.5-2.2c0-0.8,0.2-1.6,0.5-2.2c0.3-0.7,0.8-1.2,1.4-1.6c0.6-0.4,1.3-0.6,2.2-0.6c0.8,0,1.5,0.2,2.1,0.5 c0.6,0.4,1,0.8,1.3,1.5c0.3,0.6,0.4,1.4,0.4,2.2v0.6H1223.9z M1223.9,379.8h3.4c0-0.3-0.1-0.6-0.2-0.9c-0.1-0.3-0.3-0.5-0.6-0.7 c-0.2-0.2-0.6-0.2-0.9-0.2c-0.4,0-0.7,0.1-0.9,0.3c-0.3,0.2-0.4,0.4-0.6,0.7C1224,379.2,1223.9,379.5,1223.9,379.8z"></path> <path d="M1238.2,376.5l-3.1,8.3h-1.7l-3.1-8.3h2.1l1.8,5.3h0.1l1.8-5.3H1238.2z"></path> <path d="M1241.8,373.2v2.1h-2.3v-2.1H1241.8z M1241.8,376.5v8.3h-2.2v-8.3H1241.8z"></path> <path d="M1245.8,381.2c0,0.4,0.1,0.8,0.2,1.1s0.3,0.6,0.6,0.7s0.6,0.3,1,0.3c0.4,0,0.8-0.1,1.1-0.3c0.3-0.2,0.5-0.5,0.6-0.8h2.1 c-0.1,0.6-0.3,1.1-0.7,1.5s-0.8,0.7-1.4,1s-1.1,0.3-1.7,0.3c-0.8,0-1.5-0.2-2.2-0.5c-0.6-0.3-1.1-0.8-1.5-1.5 c-0.3-0.6-0.5-1.4-0.5-2.2c0-0.8,0.2-1.6,0.5-2.2c0.3-0.7,0.8-1.2,1.4-1.6c0.6-0.4,1.3-0.6,2.2-0.6c0.8,0,1.5,0.2,2.1,0.5 c0.6,0.4,1,0.8,1.3,1.5c0.3,0.6,0.4,1.4,0.4,2.2v0.6H1245.8z M1245.8,379.8h3.4c0-0.3-0.1-0.6-0.2-0.9c-0.1-0.3-0.3-0.5-0.6-0.7 c-0.2-0.2-0.6-0.2-0.9-0.2c-0.4,0-0.7,0.1-0.9,0.3c-0.3,0.2-0.4,0.4-0.6,0.7C1245.9,379.2,1245.8,379.5,1245.8,379.8z"></path> <path d="M1264.4,376.5l-2.7,8.3h-1.9l-1.5-5l-1.5,5h-1.8l-2.7-8.3h2.1l1.6,5.1h0.1l1.5-5.1h1.7l1.5,5.1h0.1l1.5-5.1H1264.4z"></path> </g> </g> <g transform="translate(-34.926035,-17.463534)"> <g transform="translate(-2.2674745e-7,-290.64999)"> <path class="st6" d="M1229.4,610.3c-3.2,0-5.9,2.7-5.9,5.9v21.7c0,3.2,2.7,5.9,5.9,5.9h11.8c1.8,0,3.5,0.8,4.6,2.3l1.3,1.7 c1.9,2.5,6.1,1.7,6.9-1.4l0.1-0.4c0.3-1.3,1.5-2.2,2.9-2.2c3.2,0,5.9-2.7,5.9-5.9v-21.7c0-3.2-2.7-5.9-5.9-5.9H1229.4z M1229.4,614.2h27.7c1.1,0,2,0.8,2,2v21.7c0,1.1-0.8,2-2,2c-3.2,0-5.9,2.1-6.7,5.2l-0.1,0.3l-1.3-1.7c-1.8-2.4-4.7-3.8-7.7-3.8 h-11.8c-1.1,0-2-0.9-2-2v-21.7C1227.4,615.1,1228.3,614.2,1229.4,614.2z M1243.5,618c-0.1,0-0.1,0-0.2,0c-0.7,0-1.3,0.5-1.7,1.1 l-2,3.9l-4.3,0.6c-1.1,0.2-1.8,1.1-1.7,2.2c0.1,0.4,0.2,0.8,0.6,1.1l3.1,3.1l-0.8,4.3c-0.2,1.1,0.5,2.1,1.6,2.3 c0.4,0.1,0.9,0,1.3-0.2l3.9-2l3.8,2.1c1,0.5,2.2,0.2,2.7-0.8c0.2-0.4,0.3-0.8,0.2-1.2l-0.7-4.3l3.2-3c0.8-0.8,0.8-2,0.1-2.8 c-0.3-0.3-0.7-0.5-1.1-0.6l-4.3-0.7l-1.9-3.9C1244.9,618.4,1244.2,618,1243.5,618z M1243.4,624.4l0.6,1.3c0.3,0.6,0.8,1,1.5,1.1 l1.4,0.2l-1,1c-0.5,0.5-0.7,1.1-0.6,1.8l0.2,1.4l-1.2-0.7c-0.6-0.3-1.3-0.3-1.8,0l-1.2,0.6l0.2-1.4c0.1-0.6-0.1-1.3-0.6-1.8l-1-1 l1.4-0.2c0.6-0.1,1.2-0.5,1.5-1.1L1243.4,624.4z"></path> </g> </g> <g> <path class="st5" d="M938.2,302.2h-13c-1,0-1.9,0.8-1.9,1.9v18.6c0,1,0.8,1.9,1.9,1.9h13c1,0,1.9-0.8,1.9-1.9V304 C940.1,303,939.2,302.2,938.2,302.2z M936.3,320.8H927v-14.9h9.3V320.8z"></path> <path class="st5" d="M917.7,318.9h-13c-1,0-1.9,0.8-1.9,1.9v18.6c0,1,0.8,1.9,1.9,1.9h13c1,0,1.9-0.8,1.9-1.9v-18.6 C919.6,319.8,918.8,318.9,917.7,318.9z M915.9,337.5h-9.3v-14.9h9.3V337.5z"></path> <path class="st5" d="M917.7,302.2h-13c-1,0-1.9,0.8-1.9,1.9v11.2c0,1,0.8,1.9,1.9,1.9h13c1,0,1.9-0.8,1.9-1.9V304 C919.6,303,918.8,302.2,917.7,302.2z M915.9,313.4h-9.3v-7.4h9.3V313.4z"></path> <path class="st5" d="M938.2,326.4h-13c-1,0-1.9,0.8-1.9,1.9v11.2c0,1,0.8,1.9,1.9,1.9h13c1,0,1.9-0.8,1.9-1.9v-11.2 C940.1,327.2,939.2,326.4,938.2,326.4z M936.3,337.5H927v-7.4h9.3V337.5z"></path> </g> <g> <path class="st3" d="M363.4,309.1h-27.6c-1.3,0-2.3,1-2.3,2.3V339c0,1.3,1,2.3,2.3,2.3h27.6c1.3,0,2.3-1,2.3-2.3v-27.6 C365.7,310.1,364.7,309.1,363.4,309.1z M361.1,336.7h-23v-23h23V336.7z M358.8,306.8h-27.6v27.6c0,1.3-1,2.3-2.3,2.3 s-2.3-1-2.3-2.3v-29.9c0-1.3,1-2.3,2.3-2.3h29.9c1.3,0,2.3,1,2.3,2.3S360.1,306.8,358.8,306.8z"></path> </g> <g> <path class="st1" d="M75.7,307c0-2.6-2.1-4.8-4.8-4.8h-7.2v4.8h7.2v7.2h4.8V307z"></path> <path class="st1" d="M37.4,314.1h4.8V307h7.2v-4.8h-7.2c-2.6,0-4.8,2.1-4.8,4.8C37.4,307,37.4,314.1,37.4,314.1z"></path> <path class="st1" d="M37.4,335.7c0,2.6,2.1,4.8,4.8,4.8h7.2v-4.8h-7.2v-7.2h-4.8C37.4,328.5,37.4,335.7,37.4,335.7z"></path> <path class="st1" d="M75.7,335.7v-7.2h-4.8v7.2h-7.2v4.8h7.2C73.5,340.4,75.7,338.3,75.7,335.7z"></path> <path class="st1" d="M59.2,327.3l5.2,5.2l3.4-3.4l-5.3-5.2c2.5-4.3,0.9-9.8-3.4-12.2s-9.8-0.9-12.2,3.4c-2.5,4.3-0.9,9.8,3.4,12.2 C53,328.9,56.4,328.9,59.2,327.3z M50.6,319.5c0-2.3,1.9-4.2,4.2-4.2s4.2,1.9,4.2,4.2s-1.9,4.2-4.2,4.2l0,0 C52.4,323.7,50.6,321.8,50.6,319.5z"></path> </g> <g> <g transform="translate(-757.000000, -177.000000)"> <g transform="translate(757.000000, 177.000000)"> <path class="st9" d="M623.8,336.5c0,0.1-0.1,0.2-0.2,0.2h-12.4c-0.1,0-0.2-0.1-0.2-0.2v-19.7c0-0.1,0.1-0.2,0.2-0.2h12.4 c0.1,0,0.2,0.1,0.2,0.2v6h4.3v-6c0-2.5-2-4.5-4.5-4.5h-12.4c-2.5,0-4.5,2-4.5,4.5v19.7c0,2.5,2,4.5,4.5,4.5h12.4 c2.5,0,4.5-2,4.5-4.5v-5.3h-4.3V336.5z"></path> <path class="st9" d="M614,326.6c0,1.9,1.5,3.4,3.4,3.4s3.4-1.5,3.4-3.4c0-1.9-1.5-3.4-3.4-3.4C615.5,323.2,614,324.7,614,326.6"></path> <path class="st9" d="M654.1,302.2h-12.4c-2.5,0-4.5,2-4.5,4.5v6.3h4.3v-6.3c0-0.1,0.1-0.2,0.2-0.2h12.4c0.1,0,0.2,0.1,0.2,0.2 v19.7c0,0.1-0.1,0.2-0.2,0.2h-12.4c-0.1,0-0.2-0.1-0.2-0.2v-5.5h-4.3v5.5c0,2.5,2,4.5,4.5,4.5h12.4c2.5,0,4.5-2,4.5-4.5v-19.7 C658.6,304.2,656.5,302.2,654.1,302.2"></path> <path class="st9" d="M651.3,316.5c0-1.9-1.5-3.4-3.4-3.4s-3.4,1.5-3.4,3.4c0,1.9,1.5,3.4,3.4,3.4 C649.7,320,651.3,318.4,651.3,316.5"></path> <path class="st9" d="M641.4,318.5v-3.3h-2.8c-4.1,0-7.4,3-7.4,6.6c0,1.9-1.8,3.4-4.1,3.4h-2.9v3.3h2.9c4.1,0,7.4-3,7.4-6.6 c0-1.9,1.8-3.4,4.1-3.4H641.4z"></path> </g> </g> </g> <g> <g transform="translate(-757.000000, -177.000000)"> <g transform="translate(757.000000, 177.000000)"> <path class="st10" d="M912.6,120.8c0,0.1-0.1,0.2-0.2,0.2H900c-0.1,0-0.2-0.1-0.2-0.2v-19.7c0-0.1,0.1-0.2,0.2-0.2h12.4 c0.1,0,0.2,0.1,0.2,0.2v6h4.3v-6c0-2.5-2-4.5-4.5-4.5H900c-2.5,0-4.5,2-4.5,4.5v19.7c0,2.5,2,4.5,4.5,4.5h12.4 c2.5,0,4.5-2,4.5-4.5v-5.3h-4.3V120.8z"></path> <path class="st10" d="M902.8,110.9c0,1.9,1.5,3.4,3.4,3.4s3.4-1.5,3.4-3.4c0-1.9-1.5-3.4-3.4-3.4 C904.3,107.5,902.8,109,902.8,110.9"></path> <path class="st10" d="M942.9,86.5h-12.4c-2.5,0-4.5,2-4.5,4.5v6.3h4.3V91c0-0.1,0.1-0.2,0.2-0.2h12.4c0.1,0,0.2,0.1,0.2,0.2v19.7 c0,0.1-0.1,0.2-0.2,0.2h-12.4c-0.1,0-0.2-0.1-0.2-0.2v-5.5H926v5.5c0,2.5,2,4.5,4.5,4.5h12.4c2.5,0,4.5-2,4.5-4.5V91 C947.4,88.5,945.4,86.5,942.9,86.5"></path> <path class="st10" d="M940.1,100.8c0-1.9-1.5-3.4-3.4-3.4s-3.4,1.5-3.4,3.4c0,1.9,1.5,3.4,3.4,3.4 C938.6,104.2,940.1,102.7,940.1,100.8"></path> <path class="st10" d="M930.2,102.8v-3.3h-2.8c-4.1,0-7.4,3-7.4,6.6c0,1.8-1.8,3.4-4.1,3.4h-2.9v3.3h2.9c4.1,0,7.4-3,7.4-6.6 c0-1.8,1.8-3.4,4.1-3.4C927.5,102.8,930.2,102.8,930.2,102.8z"></path> </g> </g> </g> <g> <path class="st4" d="M634.6,90.1h-3.9v-1.9c0-1.2-0.8-2-2-2H617c-1.2,0-2,0.8-2,2v35.1c0,1.2,0.8,2,2,2h11.7c1.2,0,2-0.8,2-2v-2 h3.9c8.8,0,15.6-7,15.6-15.6S643.2,90.1,634.6,90.1z M634.6,117.5h-5.8c-1.2,0-2,0.8-2,2v1.9H619v-1.9h2c1.2,0,2-0.8,2-2 c0-1.2-0.8-2-2-2h-2v-1.9l0,0c1.2,0,2-0.8,2-1.9c0-1.2-0.8-2-2-2l0,0v-2h2c1.2,0,2-0.8,2-1.9s-0.8-1.9-2-1.9h-2v-2l0,0 c1.2,0,2-0.8,2-2c0-1.2-0.8-1.9-2-1.9l0,0V96h2c1.2,0,2-0.8,2-2c0-1.2-0.8-1.9-2-1.9h-2v-2h7.8v2c0,1.2,0.8,1.9,2,1.9h5.8 c6.4,0,11.7,5.3,11.7,11.7C646.3,112.2,641.2,117.5,634.6,117.5z"></path> <path class="st4" d="M634.6,97.9h-5.8c-1.2,0-2,0.8-2,2v11.7c0,1.2,0.8,1.9,2,1.9h5.8c4.3,0,7.8-3.5,7.8-7.8 C642.4,101.5,638.9,97.9,634.6,97.9z M634.6,109.7h-3.9v-7.8h3.9c2.2,0,3.9,1.8,3.9,3.9S636.7,109.7,634.6,109.7z"></path> </g> <path class="st3" d="M364.6,114.9v-10.1h-15.7v-6.7h5c1.5,0,2.6-1.2,2.6-2.6v-6.7c0-1.5-1.2-2.6-2.6-2.6h-13.5 c-1.5,0-2.6,1.2-2.6,2.6v6.7c0,1.5,1.2,2.6,2.6,2.6h5v6.7h-15.7v10.1h-4.1v10.3h11.7v-10.3h-4.1v-6.7h12.2v6.7h-4.1v10.3H353v-10.3 h-4.1v-6.7h12.2v6.7H357v10.3h11.7v-10.3H364.6z M341.2,89.6h11.9v5.1h-11.9V89.6z M333.9,121.8h-4.8v-3.4h4.8V121.8z M349.6,121.8 h-4.8v-3.4h4.8V121.8z M365.3,121.8h-4.8v-3.4h4.8V121.8z"></path> <g> <path class="st1" d="M75.1,119.5l-7.4-7.4l-0.9,0.9l-2.9-2.9c2-2.6,2.9-5.8,2.9-8.9c0-3.8-1.4-7.6-4.4-10.5 c-5.8-5.8-15.3-5.8-21.1,0c-5.8,5.8-5.8,15.3,0,21.1c2.9,2.9,6.7,4.4,10.5,4.4c3.1,0,6.3-1,8.9-2.9l2.9,2.9l-0.9,0.9l7.4,7.4 c0.6,0.6,1.5,1,2.4,1s1.8-0.4,2.4-1C76.4,122.9,76.4,120.8,75.1,119.5z M60.3,109.4c-4.6,4.6-12.1,4.6-16.8,0 c-4.6-4.6-4.6-12.1,0-16.8c2.3-2.3,5.3-3.5,8.4-3.5s6.1,1.1,8.4,3.5C64.9,97.3,64.9,104.8,60.3,109.4z"></path> <rect x="57.4" y="97.1" class="st1" width="2.6" height="10.4"></rect> <rect x="48.3" y="99" class="st1" width="2.6" height="8.5"></rect> <rect x="43.7" y="96.3" class="st1" width="2.6" height="11.2"></rect> <rect x="52.8" y="94.1" class="st1" width="2.6" height="13.4"></rect> </g> <g> <path class="st6" d="M1231.4,113.6h-2.6c-0.6-6.4-4-12.1-9.4-15.6h7c-0.1,0.9,0.5,1.8,1.4,1.9c0.9,0.1,1.8-0.5,1.9-1.4v-4.1 c-0.1-0.9-0.9-1.6-1.9-1.4c-0.9,0.1-1.6,0.9-1.4,1.9h-11.2v-3.7c0-0.9-0.7-1.7-1.7-1.7h-10.7c-0.9,0-1.7,0.7-1.7,1.7v3.7h-11.1 c0.1-0.9-0.5-1.8-1.4-1.9c-0.9-0.1-1.8,0.5-1.9,1.4v4.1c0.1,0.9,0.9,1.6,1.9,1.4c0.9-0.1,1.6-0.9,1.4-1.9h7 c-5.4,3.5-8.8,9.3-9.4,15.6h-2.6c-0.9,0-1.7,0.7-1.7,1.7v8.4c0,0.9,0.7,1.6,1.7,1.6h8.4c0.9,0,1.7-0.7,1.7-1.6v-8.4 c0-0.9-0.7-1.7-1.7-1.7h-2.5c0.6-6.2,4.5-11.6,10.2-14.1v2.2c0,0.9,0.7,1.7,1.7,1.7h10.7c0.9,0,1.7-0.7,1.7-1.7v-2.2 c5.7,2.5,9.6,7.9,10.2,14.1h-2.5c-0.9,0-1.7,0.7-1.7,1.7v8.4c0,0.9,0.7,1.6,1.7,1.6h8.4c0.9,0,1.7-0.7,1.7-1.6v-8.4 C1233.1,114.3,1232.3,113.6,1231.4,113.6z M1191.9,122h-5.1v-5.1h5.1V122z M1212,100h-7.4v-7.4h7.4V100z M1229.8,122h-5.1v-5.1h5.1 V122z"></path> </g> </svg> 